<svg xmlns="http://www.w3.org/2000/svg" xmlns:xlink="http://www.w3.org/1999/xlink" width="805" height="484" fill="none" xmlns:v="https://vecta.io/nano"><path d="M498.216 501.387a1 1 0 0 1-1.387-.312l-1.15-1.838a1 1 0 0 1 .308-1.372L872.53 256.4a1 1 0 0 0-.063-1.721L750.22 188.4a1 1 0 0 1-.008-1.754l38.8-21.484a1 1 0 0 0 .013-1.743L511.342 4.117a1 1 0 0 1-.384-1.34l1.02-1.906a1 1 0 0 1 1.379-.396l284.376 162.892a1 1 0 0 1-.013 1.743l-38.84 21.506a1 1 0 0 0 .008 1.754l121.853 66.062a1 1 0 0 1 .063 1.721l-382.59 245.233z" fill="url(#C)"/><path d="M153.627 360.7a1 1 0 0 1-1.383-.314l-1.15-1.838a1 1 0 0 1 .313-1.375l259.234-164.29a1 1 0 0 0-.059-1.724l-122.237-66.274a1 1 0 0 1-.008-1.754l38.782-21.474a1 1 0 0 0 .004-1.747L156.11 4.09a1 1 0 0 1-.393-1.345L156.74.84a1 1 0 0 1 1.369-.401L335.83 99.847a1 1 0 0 1-.003 1.747l-38.82 21.496a1 1 0 0 0 .008 1.754L418.858 190.9a1 1 0 0 1 .059 1.724L153.627 360.7z" fill="url(#D)"/><path d="M597.42 234.158L551.57 205.56l74.557-42.886 2.08 3.608-68.533 39.425 39.95 24.913-2.202 3.537z" fill="url(#E)"/><path d="M263.428 438.322a1 1 0 0 1-1.399-.337l-1.1-1.873a1 1 0 0 1 .323-1.35l151.246-96.546a1 1 0 0 0-.068-1.726l-39.676-21.123a1 1 0 0 1-.039-1.744L495.5 241.12a1 1 0 0 1 1.006-.006l88.363 50.562a1 1 0 0 1 .37 1.366l-1.076 1.875a1 1 0 0 1-1.364.37l-86.257-49.362a1 1 0 0 0-1.005.007L381.222 313.43a1 1 0 0 0 .038 1.744l39.696 21.142a1 1 0 0 1 .067 1.726l-157.595 100.28z" fill="url(#F)"/><path d="M3.52 586.345a1 1 0 0 1-1.422-.322l-1.016-1.728a1 1 0 0 1 .3-1.334l142.95-97.125a1 1 0 0 0-.092-1.71l-38.024-20.243a1 1 0 0 1-.038-1.744l117.82-69.57c.31-.182.693-.185 1.005-.007l84.794 48.52a1 1 0 0 1 .37 1.366l-.993 1.732a1 1 0 0 1-1.364.37l-82.772-47.368a1 1 0 0 0-1.005.007l-109.686 64.765a1 1 0 0 0 .038 1.743l38.04 20.26a1 1 0 0 1 .09 1.711L3.52 586.345z" fill="url(#G)"/><g filter="url(#A)"><path d="M568.805 119.003l138.736 79.652c8.16 4.05 16.322-1.35 19.042-12.15s-8.16-35.1-24.482-39.152c0 0-5.44-35.1-38.085-44.55 0 0-9.52-43.202-40.804-52.652-30.046-9.072-32.644 13.5-32.644 13.5s-28.563-25.65-39.445 0 9.52 49.95 17.682 55.352z" fill="url(#H)"/></g><path d="M557.573 132.003l137.186 79.652c8.07 4.05 16.14-1.35 18.83-12.15s-8.07-35.1-24.21-39.152c0 0-5.38-35.1-37.66-44.55 0 0-9.415-43.202-40.35-52.652-29.7-9.072-32.28 13.5-32.28 13.5s-28.244-25.65-39.004 0 9.415 49.95 17.485 55.352z" fill="#84bcff"/><g filter="url(#B)"><path d="M128.43 381.89l182.914 105.33c10.76 5.356 21.52-1.785 25.106-16.068s-10.76-46.416-32.28-51.772c0 0-7.173-46.417-50.212-58.914 0 0-12.553-57.128-53.798-69.625-39.614-11.997-43.04 17.853-43.04 17.853s-37.66-33.92-52.005 0 12.553 66.054 23.313 73.195z" fill="url(#I)"/></g><path d="M113.43 390.36l182.915 105.854c10.76 5.382 21.52-1.794 25.106-16.147s-10.76-46.648-32.28-52.03c0 0-7.173-46.648-50.212-59.207 0 0-12.553-57.413-53.798-69.972-39.614-12.056-43.04 17.942-43.04 17.942s-37.66-34.09-52.005 0 12.553 66.383 23.312 73.56z" fill="#84bcff"/><path d="M363.02 197.97v-22.398l38.33-23.04 37.693 22.4v23.038l-37.693 22.4-38.33-22.4z" fill="#772fb2"/><path d="M363.02 174.586l38.33 22.4 37.693-22.4-37.693-23.038-38.33 23.038z" fill="#9d4ce0"/><path d="M363.02 153.635v-22.4l38.33-23.038 37.693 22.4v23.038l-37.693 22.4-38.33-22.4z" fill="#9c208a"/><path d="M363.02 130.25l38.33 22.4 37.693-22.4-37.693-23.038-38.33 23.038z" fill="#ca3aac"/><path d="M363.02 110.436v-22.4L401.35 65l37.693 22.4v23.04l-37.693 22.398-38.33-22.398z" fill="#fc2c7d"/><path d="M363.02 87.05l38.33 22.4 37.693-22.4-37.693-23.038-38.33 23.04z" fill="#fc5f9f"/><path d="M575.47 319.93v-38.353l65.636-39.45 64.542 38.354v39.45l-64.542 38.354-65.636-38.354z" fill="#9c208a"/><path d="M575.47 279.887l65.636 38.354 64.542-38.354-64.542-39.45-65.636 39.45z" fill="#ca3aac"/><path d="M575.47 245.958v-40l65.636-37.813 64.542 38.353v39.45l-64.542 38.354-65.636-38.354z" fill="#fc2c7d"/><path d="M575.47 205.916l65.636 38.353 64.542-38.353-64.542-39.45-65.636 39.45z" fill="#fc5f9f"/><path d="M644 189.28l-20.032 2.832c-.67.1-1.17.452-1.3.935l-4.236 14.512c-.15.517.113 1.086.693 1.513 1.092.808 27.004 19.715 40.332 10.2S647.18 190.608 646.09 189.8c-.58-.427-1.37-.622-2.08-.52zm6.133 22.445l-12.885.45-1.135-3.773 7.372-.256-5.05-12.1 4.955-.495 6.743 16.184z" fill="#ff73ac"/><defs><filter id="A" x="528" y="40" width="219" height="192" filterUnits="userSpaceOnUse" color-interpolation-filters="sRGB"><feFlood flood-opacity="0" result="A"/><feColorMatrix in="SourceAlpha" values="0 0 0 0 0 0 0 0 0 0 0 0 0 0 0 0 0 0 127 0"/><feOffset dy="12"/><feGaussianBlur stdDeviation="10"/><feColorMatrix values="0 0 0 0 0.073125 0 0 0 0 0.18915 0 0 0 0 0.4875 0 0 0 0.4 0"/><feBlend in2="A"/><feBlend in="SourceGraphic"/></filter><filter id="B" x="81" y="280" width="276" height="241" filterUnits="userSpaceOnUse" color-interpolation-filters="sRGB"><feFlood flood-opacity="0" result="A"/><feColorMatrix in="SourceAlpha" values="0 0 0 0 0 0 0 0 0 0 0 0 0 0 0 0 0 0 127 0"/><feOffset dy="12"/><feGaussianBlur stdDeviation="10"/><feColorMatrix values="0 0 0 0 0.073125 0 0 0 0 0.18915 0 0 0 0 0.4875 0 0 0 0.4 0"/><feBlend in2="A"/><feBlend in="SourceGraphic"/></filter><linearGradient id="C" x1="760.501" y1="467" x2="410.501" y2="-106.5" xlink:href="#J"><stop stop-color="#408df2"/><stop offset=".505" stop-color="#810edb"/><stop offset="1" stop-color="#c32d7f"/><stop offset="1" stop-color="#c32d7f"/></linearGradient><linearGradient id="D" x1="250.5" y1="331" x2="47.5" y2="-284.5" xlink:href="#J"><stop stop-color="#408df2"/><stop offset=".162" stop-color="#c32d7f"/><stop offset=".505" stop-color="#810edb"/><stop offset="1" stop-color="#c32d7f"/></linearGradient><linearGradient id="E" x1="628.715" y1="233.922" x2="628.178" y2="162.659" xlink:href="#J"><stop stop-color="#408df2"/><stop offset=".505" stop-color="#810edb"/><stop offset="1" stop-color="#c32d7f"/><stop offset="1" stop-color="#c32d7f"/></linearGradient><linearGradient id="F" x1="586.2" y1="437.847" x2="585.572" y2="240.541" xlink:href="#J"><stop stop-color="#408df2"/><stop offset=".505" stop-color="#810edb"/><stop offset="1" stop-color="#c32d7f"/><stop offset="1" stop-color="#c32d7f"/></linearGradient><linearGradient id="G" x1="311.125" y1="585.959" x2="310.508" y2="392" xlink:href="#J"><stop stop-color="#408df2"/><stop offset=".505" stop-color="#810edb"/><stop offset="1" stop-color="#c32d7f"/><stop offset="1" stop-color="#c32d7f"/></linearGradient><linearGradient id="H" x1="548" y1="122.618" x2="727" y2="122.618" xlink:href="#J"><stop stop-color="#094ea0"/><stop offset="1" stop-color="#5c86f4"/></linearGradient><linearGradient id="I" x1="101" y1="386.673" x2="337" y2="386.673" xlink:href="#J"><stop stop-color="#094ea0"/><stop offset="1" stop-color="#5c86f4"/></linearGradient><linearGradient id="J" gradientUnits="userSpaceOnUse"/></defs></svg>