<svg width="37" height="32" viewBox="0 0 37 32" fill="none" xmlns="http://www.w3.org/2000/svg">
<path d="M15.7461 18.5096L9.07945 15.1763C8.61112 14.9412 8.05779 14.9412 7.58779 15.1763L0.92112 18.5096C0.83612 18.5529 0.764453 18.6129 0.689453 18.6696L7.53112 22.4013L15.8328 18.5696C15.8028 18.5513 15.7778 18.5263 15.7461 18.5096Z" fill="white"/>
<path d="M0 26.6679C0 27.2995 0.356667 27.8762 0.921666 28.1579L6.66667 31.0312V23.8295L0 20.1929V26.6679Z" fill="white"/>
<path d="M8.33467 31.6679C8.58967 31.6679 8.84634 31.6096 9.07967 31.4913L15.7463 28.1579C16.3113 27.8746 16.6663 27.2979 16.6663 26.6679V20.0229L8.33301 23.8696V31.6679H8.33467Z" fill="white"/>
<path d="M20 26.6679C20 27.2996 20.3567 27.8762 20.9217 28.1579L27.5883 31.4912C27.8233 31.6079 28.0783 31.6679 28.3333 31.6679V23.8679L20 20.0212V26.6679Z" fill="white"/>
<path d="M35.7463 18.5096L29.0797 15.1763C28.6113 14.9412 28.058 14.9412 27.588 15.1763L20.9213 18.5096C20.8897 18.5263 20.8647 18.5513 20.833 18.5696L29.1347 22.4013L35.9763 18.6696C35.903 18.6129 35.8313 18.5529 35.7463 18.5096Z" fill="white"/>
<path d="M30 23.8279V31.0295L35.745 28.1562C36.3117 27.8745 36.6667 27.2979 36.6667 26.6679V20.1929L30 23.8279Z" fill="white"/>
<path d="M25.7476 3.50958L19.0809 0.17625C18.6126 -0.05875 18.0593 -0.05875 17.5893 0.17625L10.9226 3.50958C10.8909 3.52625 10.8659 3.55125 10.8359 3.56958L19.1376 7.40125L25.9793 3.66958C25.9043 3.61458 25.8326 3.55292 25.7476 3.50958Z" fill="white"/>
<path d="M20 16.0312L25.745 13.1579C26.3117 12.8745 26.6667 12.2979 26.6667 11.6679V5.19287L20 8.82954V16.0312Z" fill="white"/>
<path d="M10.0017 11.6679C10.0017 12.2996 10.3583 12.8762 10.9233 13.1579L17.59 16.4912C17.8233 16.6079 18.0783 16.6679 18.3333 16.6679V8.86791L10 5.02124V11.6679H10.0017Z" fill="white"/>
</svg>
