<svg width="40" height="40" viewBox="0 0 40 40" fill="none" xmlns="http://www.w3.org/2000/svg">
<path d="M30 16.6667V7.64333L22.3567 0H3.33333C1.495 0 0 1.49667 0 3.33333V33.3333C0 35.1717 1.495 36.6667 3.33333 36.6667H23.3333V20C23.3333 18.1667 24.8333 16.6667 26.6667 16.6667H30ZM15 25H5V21.6667H15V25ZM20 18.3333H5V15H20V18.3333ZM20 10V1.66667L28.3333 10H20Z" fill="white"/>
<path d="M35.0003 28.3333H31.667C30.747 28.3333 30.0003 27.5867 30.0003 26.6667C30.0003 25.7467 30.747 25 31.667 25H38.3337V21.6667H35.0003V20H31.667V21.6667C28.9103 21.6667 26.667 23.91 26.667 26.6667C26.667 29.4233 28.9103 31.6667 31.667 31.6667H35.0003C35.9203 31.6667 36.667 32.4133 36.667 33.3333C36.667 34.2533 35.9203 35 35.0003 35H28.3337V38.3333H31.667V40H35.0003V38.3333C37.757 38.3333 40.0003 36.09 40.0003 33.3333C40.0003 30.5767 37.757 28.3333 35.0003 28.3333Z" fill="white"/>
</svg>
