<svg width="34" height="30" viewBox="0 0 34 30" fill="none" xmlns="http://www.w3.org/2000/svg">
<path d="M21.6667 4.99833V1.66667C21.6667 0.748333 20.9217 0 20 0H13.3333C12.4117 0 11.6667 0.746667 11.6667 1.66667V5H0V8.33333H11.6667V11.6667C11.6667 12.5883 12.4117 13.3333 13.3333 13.3333H20C20.9217 13.3333 21.6667 12.5883 21.6667 11.6667V8.33333H33.3333V5H21.6667V4.99833Z" fill="white"/>
<path d="M30 18.3332C30 17.4148 29.255 16.6665 28.3333 16.6665H21.6667C20.745 16.6665 20 17.4148 20 18.3332V21.6665H0V24.9998H20V28.3332C20 29.2548 20.745 29.9998 21.6667 29.9998H28.3333C29.255 29.9998 30 29.2548 30 28.3332V24.9998H33.3333V21.6665H30V18.3332Z" fill="white"/>
</svg>
