<?xml version="1.0" encoding="UTF-8"?>
<!DOCTYPE svg PUBLIC "-//W3C//DTD SVG 1.1//EN" "http://www.w3.org/Graphics/SVG/1.1/DTD/svg11.dtd">
<!-- Creator: CorelDRAW X8 -->
<svg xmlns="http://www.w3.org/2000/svg" xml:space="preserve" width="136.313mm" height="81.9572mm" version="1.1" style="shape-rendering:geometricPrecision; text-rendering:geometricPrecision; image-rendering:optimizeQuality; fill-rule:evenodd; clip-rule:evenodd"
viewBox="0 0 18529 11140"
 xmlns:xlink="http://www.w3.org/1999/xlink">
 <defs>
  <style type="text/css">
   <![CDATA[
    .fil0 {fill:none}
    .fil8 {fill:#772FB2}
    .fil6 {fill:#9C208A}
    .fil9 {fill:#9D4CE0}
    .fil7 {fill:#CA3AAC}
    .fil1 {fill:#FC2C7D}
    .fil2 {fill:#FC5F9F}
    .fil10 {fill:#FFB700}
    .fil11 {fill:#FFDE38}
    .fil5 {fill:#84BCFF;fill-rule:nonzero}
    .fil15 {fill:#8A781E;fill-rule:nonzero}
    .fil3 {fill:#D61861;fill-rule:nonzero}
    .fil12 {fill:#FFB700;fill-rule:nonzero}
    .fil14 {fill:#FFC400;fill-rule:nonzero}
    .fil13 {fill:#FFDE38;fill-rule:nonzero}
    .fil4 {fill:url(#id10);fill-rule:nonzero}
   ]]>
  </style>
    <mask id="id0">
  <linearGradient id="id1" gradientUnits="userSpaceOnUse" x1="5805.5" y1="3009.01" x2="4993.44" y2="3867.85">
   <stop offset="0" style="stop-opacity:1; stop-color:white"/>
   <stop offset="1" style="stop-opacity:0; stop-color:white"/>
  </linearGradient>
     <rect style="fill:url(#id1)" x="4589" y="3107" width="1086" height="1096"/>
    </mask>
    <mask id="id2">
  <linearGradient id="id3" gradientUnits="userSpaceOnUse" x1="7325.15" y1="3015.24" x2="6530.2" y2="3859.59">
   <stop offset="0" style="stop-opacity:1; stop-color:white"/>
   <stop offset="1" style="stop-opacity:0; stop-color:white"/>
  </linearGradient>
     <rect style="fill:url(#id3)" x="6128" y="3101" width="1086" height="1096"/>
    </mask>
    <mask id="id4">
  <linearGradient id="id5" gradientUnits="userSpaceOnUse" x1="8373.86" y1="4961.1" x2="7795.87" y2="5575.01">
   <stop offset="0" style="stop-opacity:1; stop-color:white"/>
   <stop offset="1" style="stop-opacity:0; stop-color:white"/>
  </linearGradient>
     <rect style="fill:url(#id5)" x="7500" y="5020" width="797" height="804"/>
    </mask>
    <mask id="id6">
  <linearGradient id="id7" gradientUnits="userSpaceOnUse" x1="7487.02" y1="4404.85" x2="6796.03" y2="5146.72">
   <stop offset="0" style="stop-opacity:1; stop-color:white"/>
   <stop offset="1" style="stop-opacity:0; stop-color:white"/>
  </linearGradient>
     <rect style="fill:url(#id7)" x="6275" y="4476" width="1086" height="1096"/>
    </mask>
    <mask id="id8">
  <linearGradient id="id9" gradientUnits="userSpaceOnUse" x1="6080.02" y1="4534.66" x2="5609.37" y2="5019.52">
   <stop offset="0" style="stop-opacity:1; stop-color:white"/>
   <stop offset="1" style="stop-opacity:0; stop-color:white"/>
  </linearGradient>
     <rect style="fill:url(#id9)" x="5275" y="4579" width="726" height="732"/>
    </mask>
  <linearGradient id="id10" gradientUnits="userSpaceOnUse" x1="6875.5" y1="6487.39" x2="8251.73" y2="1540.91">
   <stop offset="0" style="stop-opacity:1; stop-color:#1153A8"/>
   <stop offset="1" style="stop-opacity:1; stop-color:#5A85F2"/>
  </linearGradient>
 </defs>
 <g id="Слой_x0020_1">
  <metadata id="CorelCorpID_0Corel-Layer"/>
  <rect class="fil0" width="18529" height="11140"/>
  <g id="_3012576477840">
   <g>
    <g>
     <path class="fil1" d="M11921 8541l0 0 -1380 -797 1380 797 1964 -1134 -1964 1134zm-1964 -1134l37 -21 68 -39 0 0 1859 -1074c655,378 1309,756 1964,1134l0 1259 -1964 1134 -1964 -1134 0 -1259z"/>
     <g>
      <path class="fil2" d="M11921 8541l0 0 -1438 -830 -526 -304 37 -21 68 -39 0 0 1859 -1074c655,378 1309,756 1964,1134l-1964 1134z"/>
      <polygon class="fil1" points="11921,8541 13885,7407 13885,8666 11921,9800 9957,8666 9957,7407 "/>
     </g>
    </g>
    <g>
     <path class="fil1" d="M11942 6225l0 0 -1381 -796 1381 797 1964 -1134 -1964 1133zm-1964 -1133l37 -22 68 -39 0 0 1859 -1073c654,378 1309,756 1964,1134l0 1259 -1964 1134 -1964 -1134 0 -1259z"/>
     <g>
      <path class="fil2" d="M11942 6225l0 0 -1438 -830 -526 -303 37 -22 68 -39 0 0 1859 -1073c654,378 1309,756 1964,1134l-1964 1133z"/>
      <polygon class="fil1" points="11942,6226 13906,5092 13906,6351 11942,7485 9978,6351 9978,5092 "/>
     </g>
    </g>
    <g>
     <path class="fil1" d="M11962 4008l0 0 -1380 -797 1380 797 1964 -1134 -1964 1134zm-1964 -1134l38 -22 68 -39 0 0 1858 -1073c655,378 1310,756 1964,1134l0 1259 -1964 1134 -1964 -1134 0 -1259z"/>
     <g>
      <path class="fil2" d="M11962 4008l0 0 -1437 -830 -527 -304 38 -22 68 -39 0 0 1858 -1073c655,378 1310,756 1964,1134l-1964 1134z"/>
      <polygon class="fil1" points="11962,4008 13926,2874 13926,4133 11962,5267 9998,4133 9998,2874 "/>
     </g>
    </g>
   </g>
   <path class="fil3" d="M10660 5946c-1,-142 99,-200 222,-129 123,70 223,243 224,385 0,93 -43,150 -108,158l2 404 -230 -132 -1 -404c-65,-82 -109,-188 -109,-282z"/>
  </g>
  <g id="_3012576478704">
   <path class="fil4" d="M7807 1670l-1678 -330 -492 282 2052 879c916,1121 1315,881 1219,2574l-578 1092 -608 351 0 118 422 -177c31,-13 61,-27 90,-42l72 -42 678 -389c566,-432 505,-1007 504,-1651l-3 -1057 -1678 -1608z"/>
   <path class="fil5" d="M8993 3560l-1678 -1609 -1678 -329 0 1252c0,820 310,1779 849,2628l829 1304 829 -347c539,-226 849,-827 849,-1647l0 -1252z"/>
  </g>
  <g id="_3012576509872">
   <g>
    <path class="fil6" d="M5662 3274l0 0 -185 -107 185 107 263 -152 -263 152zm-264 -152l5 -3 9 -5 0 0 250 -144c88,51 175,101 263,152l0 336 -263 152 -264 -152 0 -336z"/>
    <path class="fil7" d="M5662 3274l0 0 -193 -111 -71 -41 5 -3 9 -5 0 0 250 -144c88,51 175,101 263,152l-263 152z"/>
   </g>
   <polygon class="fil6" style="mask:url(#id0)" points="5662,3610 4676,4190 4603,3602 5401,3121 5662,3274 "/>
  </g>
  <g id="_3012576507568">
   <g>
    <path class="fil1" d="M7199 3267l0 0 -185 -107 185 107 264 -152 -264 152zm-263 -152l5 -3 9 -6 0 0 249 -143c88,50 176,101 264,152l0 335 -264 152 -263 -152 0 -335z"/>
    <path class="fil2" d="M7199 3267l0 0 -193 -112 -70 -40 5 -3 9 -6 0 0 249 -143c88,50 176,101 264,152l-264 152z"/>
   </g>
   <polygon class="fil1" style="mask:url(#id2)" points="7201,3604 6215,4184 6141,3596 6940,3115 7201,3268 "/>
  </g>
  <g id="_3012576506352">
   <g>
    <path class="fil1" d="M8282 5144l0 0 -134 -78 134 78 192 -111 -192 111zm-191 -111l3 -2 7 -4 0 0 181 -104c64,37 128,73 192,110l0 244 -192 111 -191 -111 0 -244z"/>
    <path class="fil2" d="M8282 5144l0 0 -140 -81 -51 -30 3 -2 7 -4 0 0 181 -104c64,37 128,73 192,110l-192 111z"/>
   </g>
   <polygon class="fil1" style="mask:url(#id4)" points="8283,5389 7567,5811 7513,5383 8094,5034 8283,5145 "/>
  </g>
  <g id="_3012576505072">
   <g>
    <path class="fil8" d="M7348 4643l0 0 -185 -106 185 106 264 -152 -264 152zm-263 -152l5 -3 9 -5 0 0 249 -144c88,51 176,102 264,152l0 336 -264 152 -263 -152 0 -336z"/>
    <path class="fil9" d="M7348 4643l0 0 -192 -111 -71 -41 5 -3 9 -5 0 0 249 -144c88,51 176,102 264,152l-264 152z"/>
   </g>
   <polygon class="fil8" style="mask:url(#id6)" points="7348,4979 6363,5559 6289,4971 7087,4490 7348,4643 "/>
  </g>
  <g id="_3012576504624">
   <g>
    <path class="fil10" d="M5988 4694l0 0 -122 -70 122 70 174 -100 -174 100zm-174 -100l3 -2 6 -4 0 0 165 -95c58,34 116,67 174,101l0 221 -174 101 -174 -101 0 -221z"/>
    <path class="fil11" d="M5988 4694l0 0 -127 -73 -47 -27 3 -2 6 -4 0 0 165 -95c58,34 116,67 174,101l-174 100z"/>
   </g>
   <polygon class="fil10" style="mask:url(#id8)" points="5988,4916 5337,5298 5289,4910 5816,4593 5988,4694 "/>
  </g>
  <g id="_3012576495120">
   <g>
    <path class="fil12" d="M10545 6541l0 107 -139 81 -73 -42 -1 230 -138 81 -123 -71 0 -111 -2053 1193 2527 -1468zm-756 44l54 -31 -54 31zm756 -404l1 0 0 0 1 0 0 0 1 0 0 0 0 1 0 0 1 0 1 0 0 0 1 1 0 0 0 0 0 0 1 0 0 0 1 0 0 1 1 0 0 0 0 0 1 0 0 1 0 0 1 0 0 0 1 0 0 0 1 1 0 0 0 0 1 0 0 0 1 1 0 0 0 0 1 0 0 0 1 1 0 0 0 0 1 0 0 1 0 0 1 0 0 0 1 0 0 0 1 1 0 0 0 0 0 0 1 1 0 0 1 0 -23 -10zm136 166l1 3 -1 -3zm3 11l0 1 0 -1zm1 7l1 3 -1 -3zm-278 36c0,2 219,2 219,5l-12 -1 -8 -11 -6 10 89 -2 0 1 0 1 0 0 0 1 0 0 0 1 0 0 0 1 0 0 0 0 0 1 -1 1 0 0 0 1 0 0 0 1 0 0 0 1 0 0 0 0 0 1 0 0 0 1 0 0 0 1 0 1 0 0 0 0 0 1 0 0 0 1 0 0 0 1 0 0 -1 1 0 0 0 0 0 1 0 1 0 0 0 0 0 1 0 1 0 0 0 0 0 1 0 0 -1 0 0 1 0 1 0 0 0 0 0 1 0 0 0 1 0 0 0 1 0 0 -1 0 0 1 0 0 0 1 0 0 0 1 0 0 0 0 0 1 0 0 -1 0 0 1 0 0 0 1 0 0 0 1 0 0 0 0 -1 1 0 0 0 0 0 1 0 1 0 0 0 0 -1 1 0 0 0 0 0 0 0 1 0 0 0 1 -1 0 0 1 0 0 0 0 0 1 0 0 -1 1 0 0 0 0 0 1 0 0 0 0 -1 1 0 1 0 0 0 0 0 0 0 1 0 0 -1 0 0 1 0 0 -1 1 0 0 0 1 0 0 0 1 -1 0 0 0 0 1 0 1 -1 0 0 0 0 1 -1 1 0 0 0 0 -1 1 0 0 0 0 0 1 0 0 -1 1 0 0 0 0 -1 1 0 0 0 0 -1 1 0 1 0 0 0 0 -1 0 0 1 0 0 0 0 0 0 -1 1 0 0 0 0 -1 1 0 0 0 0 0 0 0 0 -1 1 0 0 0 0 0 0 -1 1 0 0 0 0 0 0 -1 1 0 0 0 0 0 0 -1 1 0 0 0 0 -1 1 0 0 0 0 -1 0 0 0 0 0 0 1 -1 0 0 0 0 0 0 0 0 0 -1 1 0 0 -1 0 0 1 0 0 0 0 -1 0 -1 1 0 0 0 0 0 0 -1 1 0 0 -1 0 0 0 -1 1 -108 63 -138 -140zm282 -3l0 -5 0 0 0 0 0 0 0 0 0 0 0 0 0 0 0 -1 0 0 0 0 0 0 0 0 0 0 0 -1 0 0 0 0 0 0 -1 -1 0 0 0 0 0 0 0 0 0 0 0 0 0 -1 0 0 0 0 0 0 0 0 0 0 0 0 0 0 0 0 0 -1 0 0 0 0 0 0 0 0 0 0 0 0 0 0 0 -1 0 0 0 0 0 0 0 0 0 0 0 0 0 0 0 0 0 -1 0 0 0 0 0 0 0 0 0 0 0 0 0 0 0 0 0 -1 0 -2 0 -1 0 0 0 -1 0 -1 0 0 -1 -1 0 -1 0 0 0 0 0 -1 0 -1 0 -1 0 -1 0 0 0 -1 0 -1 -1 -1 0 0 0 -1 0 -1 0 -1 0 -2 -1 -1 0 -1 0 -2 0 -1 -1 -1 0 -1 0 0 0 -1 0 -1 -1 -1 0 -2 0 -1 -1 -2 0 -1 0 -1 -1 -2 0 0 0 -1 0 0 0 0 0 0 0 0 0 -1 0 0 0 0 0 0 -1 -1 0 0 0 0 0 -1 0 0 0 0 0 0 0 -1 0 0 -1 -2 0 -1 0 0 0 0 0 -1 0 0 -1 0 0 0 0 -1 0 0 0 0 0 0 0 -1 0 0 0 0 0 0 0 0 0 -1 0 0 0 0 0 0 0 0 -1 0 0 -1 0 0 0 0 0 0 0 0 0 -1 0 0 0 0 0 0 0 0 0 -1 0 0 0 0 0 0 0 0 -1 -1 0 0 0 0 0 0 0 0 0 -1 0 0 0 0 0 0 0 0 0 0 0 -1 0 0 0 0 0 0 -1 0 0 -1 0 0 0 0 0 0 0 0 0 -1 0 0 0 0 0 0 0 0 0 0 -1 -1 0 0 0 -1 0 -1 0 -1 -1 -1 0 0 0 -1 0 0 -1 -1 0 -1 0 -1 -1 0 0 -1 0 -1 -1 0 0 -1 0 0 0 -1 -1 -1 0 -1 -1 -2 0 0 0 -1 -1 -1 0 -1 0 0 0 0 -1 -1 0 -2 -1 -1 0 0 -1 -1 0 -1 -1 -1 0 -1 0 0 -1 -2 0 -1 -1 0 0 -1 -1 -1 0 -1 0 -1 -1 0 0 -2 -1 -1 0 0 -1 -1 0 -1 -1 -1 0 -1 -1 0 0 -1 -1 -2 0 -1 0 0 -1 -1 -1 -1 0 -1 -1 -1 -1 -1 0 -1 -1 -1 0 -1 -1 -1 -1 -1 0 0 0 -1 -1 -1 -1 -1 0 -1 0 0 -1 -1 -2 -2 0 -1 0 -1 -1 0 0 -1 -1 0 0 -1 0 -1 -1 0 0 -1 -1 -1 0 0 0 0 -1 -1 0 -1 -1 0 0 -1 0 0 -1 -1 0 -1 -1 0 -1 -1 0 0 0 -1 -1 0 0 -1 -1 -1 0 0 0 0 -1 -1 0 -1 -1 -1 -1 -1 0 0 0 0 -1 -1 0 -1 -1 0 0 -1 0 0 -1 -1 -1 0 0 -1 -1 0 0 -1 0 0 -1 -1 -1 -2 0 0 -1 0 -1 -1 0 -1 -1 0 0 -1 -1 0 0 -1 -1 -1 0 0 -1 -1 0 0 -1 0 0 -1 -1 -1 0 0 -1 -1 -1 -1 -1 -1 0 0 0 0 -1 -1 0 0 -1 -1 -1 -1 -1 -1 0 0 -1 -1 -1 0 0 -1 0 0 -1 0 0 -1 -1 -1 -1 0 0 0 0 -1 -1 0 -1 -1 -1 -1 0 0 0 0 -3 -2c-2,-2 -4,-4 -6,-5l0 0 -2 -2 0 -1c-2,-1 -4,-2 -6,-4l-1 0 0 0 -2 -1 0 -1 -1 0 0 0 -1 -1 -1 0 0 -1 -1 0 0 0 -3 -2 0 0 0 0 -1 -1 -1 0 0 0 -1 -1 -22 13 -1 -23 0 -2 0 -83 -102 -59 0 -131 -149 -86 -70 40 0 41 -80 -47 -158 91 0 120 -22 13 -58 -34 -65 38 2 471 0 1 1 0 -18 12 -25 13 -12 7 0 -1 1 -294 -122 -71 -139 81 -1 436 -31 18 -1450 843 -30 17 -1 -208 -236 -137c-62,-36 -97,-56 -159,-91l-564 325c-62,107 -96,167 -158,274l3 945 236 137 159 91 564 -325 158 -274 -1 -343 -12 -47 2683 -1564z"/>
   </g>
   <g id="_3012576494928">
    <polygon class="fil12" points="10407,6271 10546,6190 10545,6648 10406,6729 "/>
    <polygon class="fil13" points="10285,6200 10423,6119 10546,6190 10407,6271 "/>
    <polygon class="fil14" points="10407,6271 10406,6729 10283,6658 10285,6200 "/>
    <polygon class="fil12" points="10195,6540 10334,6459 10332,6917 10194,6998 "/>
    <polygon class="fil13" points="10072,6469 10211,6388 10334,6459 10195,6540 "/>
    <polygon class="fil14" points="10195,6540 10194,6998 10071,6927 10072,6469 "/>
    <path class="fil14" d="M10482 6183l-2687 1561c22,-12 52,-11 86,9l2687 -1562c-34,-19 -64,-21 -86,-8z"/>
    <polygon class="fil14" points="7881,7753 10568,6191 10567,6191 7880,7752 "/>
    <path class="fil13" d="M7880 7752l2687 -1561 -1 -1 0 0 -1 -1 -1 0 -1 0 0 -1 -1 0 -1 -1 -1 0 0 0 -1 -1 -1 0 -1 -1 0 0 -1 0 -1 0 -1 -1 0 0 -1 -1 -1 0 -1 0 0 0 -1 -1 -1 0 -1 0 0 -1 -1 0 -1 0 -1 -1 -1 0 -1 0 -1 -1 0 0 -1 0 -1 0 -1 -1 0 0 -1 0 -1 0 -1 0 0 0 -3 -1 -1 0 0 0 -2 -1 0 0 -1 0 0 0c-3,0 -5,-1 -7,-1l-1 0 -1 0 -2 0 -1 0 -1 0 -1 0 0 0 -1 0 0 0 -3 0 0 0 -1 0 0 0 -1 0 0 0 -1 0 -1 0 -1 0 0 0 -1 0 0 0 -1 0 0 0 -1 1 -1 0 -1 0 0 0 -1 0 0 0 -1 0 0 0 -1 1 0 0 -2 0 0 0 -1 0 0 0 -1 0 0 1 -1 0 0 0 -1 0 0 0 -1 1 0 0 -1 0 0 0 -2 1 0 0 -1 0 0 0 -1 1 0 0 -1 0 0 0 -1 1 0 0 -1 0 0 0 -1 1 -2687 1561 1 0 0 0 1 -1 0 0 1 0 0 0 1 -1 0 0 1 0 0 0 1 -1 0 0 1 0 1 0 1 -1 0 0 1 0 0 0 1 -1 0 0 1 0 0 0 1 0 0 0 1 -1 0 0 1 0 1 0 1 0 0 0 1 0 0 0 1 -1 0 0 1 0 2 0 0 0 1 0 0 0 1 0 0 0 1 -1 0 0 3 0 1 0 0 0 3 0 1 0 0 0 2 0 1 0 0 0c4,0 7,1 11,2l1 0 0 0c12,2 24,7 36,14l1 0z"/>
    <path class="fil12" d="M7966 8039l2687 -1561c22,-13 36,-40 36,-78 0,-77 -54,-170 -121,-209l-2687 1562c67,38 121,132 121,209 0,38 -14,65 -36,77z"/>
    <path class="fil12" d="M7966 8039l2687 -1561 1 -1 0 0 1 0 0 0 1 -1 0 0 0 0 0 0 1 -1 0 0 1 0 0 0 0 -1 1 0 0 0 0 0 1 -1 0 0 0 0 1 0 0 -1 0 0 1 0 0 0 1 -1 0 0 0 0 1 -1 0 0 0 0 1 -1 0 0 0 0 1 -1 0 0 0 0 1 -1 0 0 0 0 0 0 1 -1 0 0 0 0 1 -1 0 0 0 0 0 -1 1 0 0 0 1 -2 0 0 0 0 1 -1 0 0 0 0 1 -1 0 0 0 -1 0 0 0 0 1 -1 0 0 0 0 1 -2 0 0 1 -1 0 -1 0 0 1 0 0 -1 0 0 0 -1 0 0 1 0 0 -1 0 0 0 -1 1 0 0 -1 0 0 0 0 0 -1 1 -1 0 0 0 0 0 -1 0 0 1 -1 0 0 0 -1 0 0 0 -1 1 0 0 -1 0 0 0 -1 -2687 1562c0,1 -1,3 -2,4l0 1 0 0 -1 2 0 0 0 0 0 1 0 0 -1 1 0 0 0 0 0 1 -1 1 0 0 0 0 0 1 0 0 -1 1 0 0 0 0 -1 1 0 0 0 1 0 0 0 0 -1 1 0 0 0 1 -1 0 0 0 0 1 0 0 0 1 -1 0 0 0 -1 1 0 0 0 1 -1 0 0 0 0 1 0 0 -1 1 0 0 0 0 -1 1 0 0 0 0 0 1 -1 0 0 0 0 1 -1 0 0 0 0 1 0 0 -1 0 0 1 0 0 -1 0 0 1 -1 0 0 0 0 0 -1 1 0 0 0 0 -1 1 0 0 0 0 -1 1 0 0 0 0 -1 0 0 0 0 1 -1 0 0 0 0 1 -1 0 0 0 -1 0 0 0 0 1 -1 0 0 0 0 1 -1 0 0 0 -1 0z"/>
    <path class="fil12" d="M7995 8003l2687 -1562 0 0 0 0 1 -1 0 0 0 0 0 -1 0 -1 0 0 0 0 1 -1 0 0 0 0 0 -1 0 0 0 -1 0 0 0 -1 1 0 0 0 0 -1 0 0 0 0 0 -1 0 0 0 -1 0 0 0 -1 1 0 0 0 0 -1 0 0 0 -1 0 0 0 -1 0 0 0 0 0 -1 0 -1 1 0 0 0 0 -1 0 0 0 0 0 -1 0 -1 0 0 0 0 0 -1 0 -1 0 0 0 0 1 -1 0 0 0 -1 0 0 0 -1 0 0 0 -1 0 0 0 0 0 -1 0 -1 0 0 0 -1 0 0 0 -1 0 0 0 0 0 -1 0 0 0 -1 0 0 0 -1 0 0 1 -1 0 -1 0 0 0 0 0 -1 0 0 0 -1 0 0 0 -1 0 0 0 -1 0 -1 0 0 0 0 0 -1 0 -1 0 -2 -2687 1561 0 3 0 1 0 0 0 1 0 0 0 1 0 0 0 0 0 1 0 1 0 0 0 1 0 1 -1 1 0 0 0 0 0 1 0 1 0 0 0 1 0 1 0 0 0 1 0 0 0 1 0 0 0 1 0 0 0 0 0 1 0 1 0 1 -1 0 0 1 0 0 0 1 0 0 0 1 0 1 0 0 0 0 0 2 0 0 -1 1 0 0 0 1c0,2 -1,4 -1,6l0 0 0 0c-1,3 -2,6 -3,9z"/>
    <path class="fil12" d="M8002 7959l2687 -1561 0 -5 0 0c0,-2 -1,-5 -1,-7l0 -1 0 -2 0 -1 0 0 0 -1 0 -1 0 0 -1 -1 0 -1 0 0 0 -1 0 -1 0 -1 0 -1 0 0 0 -1 0 -1 -1 -1 0 0 0 -1 0 -1 0 -1 0 -2 -1 -1 0 -1 0 -2 0 -1 -1 -1 0 -1 0 0 0 -1 0 -1 -1 -3 0 -1 -1 -2 0 -1 0 -1c-1,-3 -2,-7 -3,-11l-2687 1561 0 1 0 1 0 1 0 0 1 1 0 1 0 1 0 1 0 0 1 1 0 1 0 1 0 1 1 0 0 3 0 1 1 3 0 0 0 1 1 3 0 0 0 1 1 2 0 1 0 0 0 1 1 2 0 1 0 0 0 2 0 1 0 0 0 1 1 2 0 0 0 1 0 0 0 1 0 2 0 1 0 0 0 1 1 1 0 1 0 0 0 1 0 1 0 2 0 0 0 1 0 2 0 1 1 3 0 1 0 0 0 4z"/>
    <path class="fil12" d="M7992 7899l2687 -1561c-2,-5 -3,-9 -5,-13l0 -2 -1 -1 0 0 0 -1 -1 -1 0 -1 -1 -1 0 -1 0 -1 -1 -1 0 0 0 -1 -1 -1 0 -1 -1 -2 0 0 0 -1 -1 -1 0 -1 0 0 -1 -1 0 -2 -1 -1 0 0 -1 -1 0 -1 -1 -1 0 -1 0 0 -1 -2 0 -1 -1 0 0 -1 -1 -1 0 -1 0 -1 -1 0 0 -2 -1 -1 0 0 -1 -1 0 -1 -1 -1 0 -1 -1 0 0 -1 -1 -2 0 -1 0 0 -1 -1 -1 -1 0 -1 -1 -1 -1 -1 0 -1 -1 -1 0 -1 -1 -1 -1 -1 0 0 0 -1 -1 -1 -1 -1 0 -1 0 0 -1 -1 -2 -2 -2687 1561 1 1 0 0 1 1 1 1 0 1 0 1 1 1 1 1 0 0 0 1 1 1 1 2 0 0 1 1 3 6 1 0 3 6 0 1 1 0 1 4 1 0 1 3 0 0 1 1 1 3 0 0 1 1 2 4 0 1 1 1 0 0 0 2 1 1 0 1 0 0 1 1 0 1 1 1 0 1 0 1 1 1 0 1 0 0 1 2 1 2 0 0 0 1 1 1 0 1 0 1 0 0 1 2 0 1 1 1 0 0 0 1 1 1 0 2 0 0 0 1 1 2 0 0 1 1z"/>
    <polygon class="fil13" points="7955,7825 10642,6264 10642,6263 10642,6262 10641,6262 10641,6261 10640,6261 10640,6260 10640,6259 10639,6259 10639,6258 10638,6257 10638,6257 10638,6257 10637,6256 10637,6255 10636,6255 10636,6254 10636,6254 10635,6253 10635,6252 10634,6252 10633,6251 10633,6251 10633,6250 10632,6250 10632,6249 10631,6248 10631,6248 10631,6248 10630,6247 10630,6246 10629,6245 10628,6244 10628,6244 10628,6244 10627,6243 10627,6242 10626,6242 10626,6241 10626,6241 10625,6240 10624,6240 10624,6239 10623,6239 10623,6238 10623,6238 10622,6237 10621,6235 10621,6235 10620,6235 10619,6234 10619,6233 10618,6233 10618,6232 10617,6232 10617,6231 10616,6230 10616,6230 10615,6229 10615,6229 10614,6229 10614,6228 10613,6227 10613,6227 10612,6226 10611,6225 10610,6224 10610,6224 10610,6224 10609,6223 10609,6223 10608,6222 7921,7784 7922,7784 7923,7786 7924,7786 7924,7787 7925,7788 7925,7788 7926,7788 7926,7789 7927,7789 7927,7790 7928,7791 7928,7791 7929,7792 7930,7793 7930,7793 7931,7794 7931,7794 7931,7794 7932,7795 7932,7796 7933,7796 7933,7797 7934,7797 7934,7798 7935,7798 7935,7799 7936,7799 7936,7800 7936,7800 7937,7801 7938,7802 7939,7803 7939,7803 7941,7806 7941,7806 7943,7809 7944,7809 7944,7809 7944,7810 7946,7812 7946,7812 7946,7813 7948,7815 7949,7816 7951,7818 7951,7819 7951,7819 7951,7820 7953,7822 7953,7822 7954,7823 7955,7824 "/>
    <path class="fil13" d="M7921 7784l0 0 2687 -1562 -1 -1 -1 -1 0 0 -1 -1 -1 0 0 -1 0 0 -1 0 0 -1 -1 -1 -1 0 0 0 0 -1 -1 0 -1 -1 -1 -1 0 0 0 0 -3 -2c-2,-2 -4,-4 -6,-5l0 0 -2 -2 0 -1c-2,-1 -4,-2 -6,-4l-1 0 0 0 -2 -1 0 -1 -1 0 0 0 -1 -1 -1 0 0 -1 -1 0 0 0 -3 -2 0 0 -3 -2 -2687 1562 2 1 1 0 0 1 0 0 1 0 1 0 0 1 1 0 1 1 0 0 1 1 0 0 0 0 2 1 0 0 1 1 1 0 1 1 1 0 0 1 1 0 0 1 0 0 1 0 1 1 0 0 1 1 1 1 1 0 1 1 0 0 0 0 1 1 0 0 1 1 1 0 0 1 0 0 1 0 0 1 1 0 1 1 0 0 0 0 1 1 1 0 0 1 1 0 0 1 0 0 1 0 1 1 0 0 1 1 0 0 0 0 1 1 1 0 0 1 1 1 1 1 1 0 0 1 1 1 1 1z"/>
    <path class="fil15" d="M7881 7753c-67,-39 -121,-8 -121,69 -1,77 53,170 120,209 67,38 121,7 122,-69 0,-77 -54,-171 -121,-209z"/>
    <path class="fil13" d="M7476 8466l-237 -137c25,14 40,44 40,87 0,86 -61,192 -136,235l237 137c75,-43 136,-148 135,-235 0,-43 -15,-73 -39,-87z"/>
    <path class="fil13" d="M7476 8466l-235 -136c5,3 10,7 14,11l0 0c1,2 2,3 3,4l0 0 1 1 0 1c1,1 2,2 3,3l0 0 1 1 0 0 0 1 0 0 1 2 0 0 1 1 0 0 1 1 0 1 0 0 1 2 0 0 1 1 0 1 0 0 1 2 0 1 1 2 0 0 1 1 0 2 0 0 1 1 0 2 1 1 0 2 0 0 1 1 0 2 1 2 0 1 0 2 1 1 0 0 0 2 0 2 1 2 0 1 0 2 1 2 0 2 0 2 0 1 0 2 1 2 0 2 0 2 0 2 0 2 0 2 0 2 0 3 0 1 0 2 0 2 0 2 0 2 0 1 -1 3 0 0 0 3 0 0 0 3 0 1 -1 2 0 0 0 4 0 0 0 0 -1 3 0 1 0 1c0,2 -1,5 -1,7l0 0 0 1 -1 4 0 0 -1 3 0 1 0 1c-1,2 -1,5 -2,7l0 0 0 1 -1 3 0 1 -1 3 -1 1 0 2 0 1 -1 2 -1 3 0 1 -1 3 -1 1 -1 2 0 2 -1 2 -1 2 0 1 -1 3 -1 0 -1 3 -1 3 0 1 -1 2 -1 3 -1 1 0 0 -2 4 0 0 -1 3 -1 3 -1 0 -1 2 0 1 -2 3 0 0 -2 4 -3 6 -2 3 0 0 -3 6 -1 0 0 1 -2 2 0 1 -1 2 -2 3 0 0 -2 3c-12,17 -25,33 -39,47l237 137c6,-6 13,-13 19,-20l0 0c6,-7 11,-14 16,-22l0 0 1 -1 2 -3 0 0 2 -3 0 0 2 -3 1 -1 1 -2 1 -2 1 -1 2 -3 0 0 2 -3 0 -1 1 -3 1 -1 1 -2 1 -2 1 -1 2 -3 0 0 1 -3 1 -1 1 -2 1 -2 0 -2 2 -2 0 -1 1 -3 1 -1 1 -3 0 0 1 -2 0 -1 1 -2 1 -1 1 -3 0 0 1 -4 1 0 0 -1 1 -4 0 0 2 -4 0 0 0 -1 1 -3 0 0 1 -3 1 -1 0 -3 1 -2 0 -1 1 -3 0 0 1 -4 0 0 1 -3 0 -1 1 -2 0 -3 1 -1 0 -3 0 0c1,-3 2,-5 2,-8l0 0 0 -2 1 -3 0 0 0 -4 0 0 1 -3 0 0 0 -2 0 -1 0 -2 1 -1 0 -3 0 -1 0 -3 0 0 0 -1 0 -3 0 -1 0 -1 0 -3 0 0 0 -4c0,-43 -15,-73 -39,-87z"/>
    <path class="fil13" d="M7426 8752l-237 -137 -3 3 -1 1 0 1 -1 0 -1 1 0 1 -1 0 -1 1 0 0 0 0 -1 1 -1 1 -1 0 0 1 -1 0 0 1 -1 0 0 1 -1 0 -1 1 0 0 0 1 -1 0 -2 1 0 1 0 0 -1 1 -1 0 -1 1 0 0 -1 1 0 0 -1 0 0 1 -1 0 -1 1 0 0 -1 1 0 0 -2 1 0 1 -1 0 0 0 -1 1 -1 0 0 1 -1 0 0 0 -1 1 -1 0 0 1 -1 0 0 0 -1 1 -1 1 -1 0 -1 1 0 0 -2 1 -1 1 0 0 -1 0 -3 2 237 137 1 0 0 -1 2 0 0 0 0 -1 1 0 0 0 1 -1 1 0 1 -1 0 0 0 0 2 -1 1 -1 0 0 0 0 1 -1 2 -1 1 0 0 -1 3 -2 0 0 1 0 3 -2 0 -1 3 -2 0 0 0 0 3 -3 0 0c2,-1 4,-3 7,-5l0 0c4,-4 8,-8 12,-12z"/>
    <path class="fil13" d="M7046 8660l237 138c25,14 59,12 97,-10l-237 -137c-38,22 -72,24 -97,9z"/>
    <polygon class="fil13" points="7380,8788 7143,8651 7141,8652 7378,8789 7378,8789 "/>
    <path class="fil13" d="M7378 8789l-237 -137 -1 1 0 0 -2 1 0 0 -2 1 0 0 -1 1 -1 0 -1 1 0 0 -2 0 0 0 -2 1 0 0 -1 1 0 0 -2 1 0 0 -2 0 0 0 -1 1 -1 0 -1 1 0 0 -2 0 0 0 -1 1 -1 0 -1 1 0 0 -2 0 0 0 -1 1 -1 0 -1 0 0 0 -2 1 0 0 -1 0 -1 0 -1 0 0 1 -1 0 -1 0 -1 0 -1 0 -1 1 0 0 -1 0 -1 0 -1 0 -1 0 -1 1 -1 0 0 0 -1 0 -1 0 -1 0 -1 0 -1 0 -1 0 -1 0 -1 0 -1 1c-5,0 -11,0 -16,-1l-1 0 0 0c-2,-1 -5,-1 -7,-2l-1 0 0 0 -1 -1 0 0 -2 0 -1 0 0 -1 -2 0 0 0 -1 -1 -1 0 -1 0 0 -1 -1 0 0 0 -1 -1 0 0 -1 0 0 0 -2 -1 0 0 -1 -1 237 138 1 0 0 1 1 0 0 0 1 1 0 0 1 0 1 0 1 1 0 0 1 0 0 0 1 1 0 0 1 0 1 0 0 1 1 0 1 0 0 0 1 1 0 0 1 0c1,0 2,1 3,1l1 0 1 0 1 0 0 1 1 0 0 0 1 0 1 0 1 0 1 0 1 0c1,1 2,1 4,1l1 0 0 0 1 0c3,0 6,0 8,0l1 0 1 0 1 0 0 0 1 0 1 0 1 -1 0 0 4 0 0 0 1 0 1 0 1 -1c2,0 4,0 6,-1l1 0 1 0 0 -1 1 0 2 0 1 0 1 -1 0 0 1 0 1 0 1 -1 1 0 1 0 0 -1 1 0 1 0 1 -1 0 0 2 0 0 -1 2 0 0 0 1 -1 1 0 1 -1 0 0 2 0 0 0 2 -1 0 0 1 -1 0 0 2 -1 0 0 2 -1 0 0 2 -1 0 0 1 -1 0 0 2 -1z"/>
    <path class="fil13" d="M8016 7407l-236 -137c-62,-36 -97,-56 -159,-91l236 137c62,36 97,56 159,91z"/>
    <path class="fil13" d="M8016 7407l-236 -137c-62,-36 -97,-56 -159,-91l236 137c62,36 97,56 159,91z"/>
    <polygon class="fil14" points="7135,7916 6899,7778 6902,8723 7138,8860 "/>
    <polygon class="fil13" points="7857,7316 7621,7179 7057,7504 7294,7642 "/>
    <path class="fil13" d="M7294 7642l-237 -138c-62,107 -96,167 -158,274l236 138c62,-107 97,-167 159,-274z"/>
    <path class="fil14" d="M7294 7642l-237 -138c-62,107 -96,167 -158,274l236 138c62,-107 97,-167 159,-274z"/>
    <path class="fil12" d="M7380 8788c75,-43 136,-148 135,-235 0,-86 -61,-121 -136,-77 -75,43 -136,148 -136,235 0,86 62,121 137,77zm477 -1472c62,36 97,56 159,91l3 945 -158 274 -564 325 -159 -91 -3 -944c62,-107 97,-167 159,-274l563 -326z"/>
    <polygon class="fil13" points="10545,6096 10397,6010 10295,6068 10444,6155 "/>
    <polygon class="fil14" points="10373,5947 10224,5860 10225,5928 10373,6014 "/>
    <polygon class="fil13" points="10443,5906 10294,5820 10224,5860 10373,5947 "/>
    <polygon class="fil13" points="10373,6014 10225,5928 10144,5974 10293,6060 "/>
    <polygon class="fil13" points="10135,6151 9986,6065 9906,6111 10055,6198 "/>
    <polygon class="fil13" points="10293,5941 10144,5854 9986,5945 10135,6032 "/>
    <polygon class="fil14" points="10135,6032 9986,5945 9986,6065 10135,6151 "/>
    <polygon class="fil13" points="10055,6131 9906,6044 9841,6082 9990,6168 "/>
    <polygon class="fil12" points="10135,6032 10135,6151 10055,6198 10055,6131 9990,6168 9991,6640 10546,6320 10545,6096 10444,6155 10443,5906 10373,5947 10373,6014 10293,6060 10293,5941 "/>
    <polygon class="fil14" points="9990,6168 9841,6082 9843,6553 9991,6640 "/>
    <polygon class="fil12" points="9652,6372 9790,6291 9789,6749 9650,6830 "/>
    <polygon class="fil13" points="9529,6301 9668,6220 9790,6291 9652,6372 "/>
    <polygon class="fil14" points="9652,6372 9650,6830 9528,6759 9529,6301 "/>
   </g>
  </g>
 </g>
</svg>
