<?xml version="1.0" encoding="utf-8"?>
<!-- Generator: Adobe Illustrator 26.2.1, SVG Export Plug-In . SVG Version: 6.00 Build 0)  -->
<svg version="1.1" xmlns="http://www.w3.org/2000/svg" xmlns:xlink="http://www.w3.org/1999/xlink" x="0px" y="0px"
	 viewBox="0 0 500 500" style="enable-background:new 0 0 500 500;" xml:space="preserve">
<style type="text/css">
	.st0{opacity:0.8;fill:url(#SVGID_1_);fill-opacity:0.99;enable-background:new    ;}
	
		.st1{opacity:0.8;fill:url(#SVGID_00000073691533649658217810000009721683756573609603_);fill-opacity:0.99;enable-background:new    ;}
	
		.st2{opacity:0.8;fill:url(#SVGID_00000059301221795600248750000013100014853887096239_);fill-opacity:0.99;enable-background:new    ;}
	.st3{opacity:0.2;fill:#1EA0FA;enable-background:new    ;}
	.st4{fill:#DADADA;}
	.st5{fill:#F6F6F6;}
	.st6{fill:#1D71B8;}
	.st7{fill:#EA5B0C;}
	.st8{fill:#009FE3;}
	.st9{fill:#F39200;}
	
		.st10{opacity:0.8;fill:url(#SVGID_00000153685910401767333580000007053541921545255094_);fill-opacity:0.99;enable-background:new    ;}
	.st11{opacity:0.64;fill:#FFFFFF;}
	.st12{fill:#FFFFFF;}
	.st13{fill:url(#SVGID_00000056408192218788882320000016422472804693845168_);}
	.st14{fill:url(#SVGID_00000072266089281422998260000007168669814423601285_);}
	.st15{fill:#6CC7EF;}
	.st16{fill:#2FC1F4;}
	.st17{fill:#7DDDFF;}
	.st18{opacity:0.64;fill:#7DDDFF;}
	.st19{opacity:0.3;fill:#52B7EF;enable-background:new    ;}
	.st20{fill:#32FF51;}
	.st21{fill:#5FDDFF;}
	.st22{opacity:0.35;fill:#FFFFFF;stroke:#FFFFFF;stroke-width:2;stroke-miterlimit:10;}
	.st23{fill:none;stroke:#FFFFFF;stroke-miterlimit:10;}
	.st24{fill:none;stroke:#FFFFFF;stroke-width:2;stroke-miterlimit:10;}
	
		.st25{opacity:0.8;fill:url(#SVGID_00000038403886399753628530000014368467964549790098_);fill-opacity:0.99;enable-background:new    ;}
	.st26{fill:#FDE4CC;}
	.st27{fill:#E4C8AB;}
	
		.st28{opacity:0.8;fill:url(#SVGID_00000093892214543277209540000018148104688996732088_);fill-opacity:0.99;enable-background:new    ;}
	.st29{fill:none;stroke:#1E0E00;stroke-width:10;stroke-miterlimit:10;}
	.st30{fill:#B0B0B0;}
	.st31{fill:#5A5550;}
	.st32{fill:#249250;}
	.st33{fill:#44B658;}
	.st34{fill:#575756;}
	.st35{fill:#D8D8D8;}
	.st36{fill:#707070;}
	.st37{fill:#F46A3F;}
	.st38{fill:#3C3C3A;}
	.st39{fill:#C7C8CA;}
	.st40{fill:#818588;}
	.st41{fill:#B5B9BA;}
	.st42{fill:#B2B4B1;}
	.st43{fill:#2B2B2D;}
	.st44{fill:#858585;}
	.st45{fill:#1C1C1B;}
	.st46{fill:#E8E8E8;}
	.st47{fill:#F7F7F7;}
	.st48{fill:#C8CCCF;}
	.st49{fill:#D2AA87;}
	.st50{fill:#FFDB37;}
	.st51{fill:#F14941;}
	.st52{fill:#1E0E00;}
	.st53{fill:none;stroke:#5A5550;stroke-miterlimit:10;}
	.st54{fill:#EEEEEE;}
	.st55{fill:#E2E2E2;}
	.st56{fill:#F8B65A;}
	
		.st57{opacity:0.8;fill:url(#SVGID_00000084490900213720044760000003483887739248143768_);fill-opacity:0.99;enable-background:new    ;}
	.st58{fill:#E30613;}
	.st59{fill:#706F6F;}
	.st60{fill:#F9B233;}
	.st61{fill:#EDEDED;}
	.st62{fill:#E8502D;}
	.st63{fill:#878787;}
	.st64{fill:#6D6D6D;}
	.st65{fill:#1D1D1B;}
	
		.st66{opacity:0.8;fill:url(#SVGID_00000136413939163338489230000017785361195549117118_);fill-opacity:0.99;enable-background:new    ;}
	.st67{fill:#F2FF00;}
	.st68{fill:none;stroke:#B2B2B2;stroke-miterlimit:10;}
	.st69{fill:#DFB083;}
	.st70{fill:#5C4F4F;}
	.st71{fill:#170021;}
	.st72{fill:#CAC8C8;}
	.st73{fill:none;stroke:#F9ED42;stroke-width:14;stroke-miterlimit:10;}
	
		.st74{opacity:0.8;fill:url(#SVGID_00000001645484420680786860000013925866643990984631_);fill-opacity:0.99;enable-background:new    ;}
	
		.st75{opacity:0.8;fill:url(#SVGID_00000078760309299690331370000003043393102216570509_);fill-opacity:0.99;enable-background:new    ;}
	.st76{fill:#6C6966;}
	.st77{fill:none;stroke:#5A5550;stroke-width:3;stroke-miterlimit:10;}
	.st78{fill:#48423B;}
	
		.st79{opacity:0.8;fill:url(#SVGID_00000183968686892977230130000014819688276539042999_);fill-opacity:0.99;enable-background:new    ;}
	.st80{opacity:0.2;fill:#1DA2FC;enable-background:new    ;}
	.st81{opacity:0.29;}
	.st82{opacity:0.2;}
	.st83{clip-path:url(#SVGID_00000178925787307060053130000005855379070234677147_);}
	.st84{fill:#3C3C3B;}
	.st85{fill:#E7CAAD;}
	.st86{fill:#FC951D;}
	.st87{fill:none;stroke:#FCEA0D;stroke-width:2;stroke-miterlimit:10;}
	.st88{fill:#73F20F;}
	.st89{fill:#FFF7AB;}
	.st90{fill:#FCEA0D;}
	.st91{fill:#F8B133;stroke:#FC951D;stroke-miterlimit:10;}
	.st92{fill:#FFEC00;}
	
		.st93{opacity:0.8;fill:url(#SVGID_00000046331685778468999460000005509285015533422493_);fill-opacity:0.99;enable-background:new    ;}
	.st94{fill:none;}
	
		.st95{opacity:0.8;fill:url(#SVGID_00000062889744007097899930000013972995321420283011_);fill-opacity:0.99;enable-background:new    ;}
	.st96{fill:#BF4A10;}
	.st97{fill:#455159;}
	.st98{fill:#AFE213;}
	.st99{fill:#C6C6C6;}
	.st100{fill:#9D9D9C;}
	.st101{fill:#B2B2B2;}
	.st102{fill:none;stroke:#FFFFFF;stroke-width:4;stroke-miterlimit:10;}
	.st103{fill:#FFED00;}
	
		.st104{opacity:0.8;fill:url(#SVGID_00000051382811373195747050000001489038771687954848_);fill-opacity:0.99;enable-background:new    ;}
	
		.st105{opacity:0.8;fill:url(#SVGID_00000055667535277160166260000007296317432868339862_);fill-opacity:0.99;enable-background:new    ;}
	.st106{fill:#E6332A;}
	.st107{fill:#E0A477;}
	.st108{fill:#B17F4A;}
	.st109{fill:#F2C3AF;}
	.st110{fill:#E5AF7F;}
	.st111{fill:#E94E1B;}
	.st112{fill:#E5B8A8;}
	.st113{fill:#A3DAF7;}
	.st114{clip-path:url(#SVGID_00000123399397238587909310000011947650375214907025_);fill:#A3DAF7;}
	.st115{opacity:0.8;clip-path:url(#SVGID_00000123399397238587909310000011947650375214907025_);fill:#4D95D1;}
	.st116{clip-path:url(#SVGID_00000123399397238587909310000011947650375214907025_);}
	.st117{opacity:0.3;fill:#CABA9F;}
	.st118{opacity:0.5;fill:#CABA9F;}
	.st119{clip-path:url(#SVGID_00000123399397238587909310000011947650375214907025_);fill:#9C9B9B;}
	.st120{clip-path:url(#SVGID_00000123399397238587909310000011947650375214907025_);fill:#FFFFFF;}
	.st121{clip-path:url(#SVGID_00000123399397238587909310000011947650375214907025_);fill:#3C3C3B;}
	.st122{clip-path:url(#SVGID_00000123399397238587909310000011947650375214907025_);fill:#FDE4CC;}
	.st123{clip-path:url(#SVGID_00000123399397238587909310000011947650375214907025_);fill:#C6C6C5;}
	.st124{clip-path:url(#SVGID_00000123399397238587909310000011947650375214907025_);fill:#F9B75A;}
	.st125{clip-path:url(#SVGID_00000123399397238587909310000011947650375214907025_);fill:#575756;}
	.st126{clip-path:url(#SVGID_00000123399397238587909310000011947650375214907025_);fill:#E20613;}
	.st127{opacity:0.29;clip-path:url(#SVGID_00000123399397238587909310000011947650375214907025_);}
	.st128{fill:#D1A98B;}
	
		.st129{opacity:0.8;fill:url(#SVGID_00000156566932004483748370000015667480241201409177_);fill-opacity:0.99;enable-background:new    ;}
	.st130{fill:#E2BD9F;}
	.st131{fill:#DDB79B;}
	.st132{fill:#D6AE8A;}
	.st133{fill:none;stroke:#1D1D1B;stroke-miterlimit:10;}
	.st134{fill:#A48A7B;}
	.st135{fill:#FFF385;}
	.st136{fill:none;stroke:#575756;stroke-miterlimit:10;}
	.st137{fill:#575756;stroke:#FFFFFF;stroke-miterlimit:10;}
	.st138{fill:#2CF721;stroke:#FFED00;stroke-miterlimit:10;}
	
		.st139{opacity:0.8;fill:url(#SVGID_00000146457239720356865880000003274416130780721051_);fill-opacity:0.99;enable-background:new    ;}
	.st140{fill:#C9CACC;}
	.st141{fill:#83878A;}
	.st142{fill:#B8BBBC;}
	.st143{fill:#B4B6B3;}
	.st144{fill:#EAEAEA;}
	.st145{fill:#F9F9F9;}
	.st146{fill:#CACED1;}
	.st147{fill:#58B8E8;}
	.st148{fill:#D1B397;}
	.st149{fill:#ACAEAD;}
	.st150{fill:#969997;}
	.st151{fill:#BFC7D2;}
	.st152{fill:#BCC7C9;}
	.st153{fill:#E2E6F1;}
	.st154{fill:#C4C9CD;}
	.st155{fill:#C1C3C6;}
	.st156{fill:#D9E2E8;}
	.st157{fill:#B8B9BE;}
	.st158{fill:#CFD7DA;}
	.st159{fill:#C6C6C8;}
	.st160{fill:#E5EEF7;}
	.st161{fill:#D4D8DB;}
	.st162{fill:#A4A2A5;}
	.st163{fill:#707172;}
	.st164{fill:#D7DDE9;}
	.st165{fill:#CCD1D5;}
	.st166{fill:#4F5054;}
	.st167{fill:none;stroke:#E30613;stroke-miterlimit:10;}
	
		.st168{opacity:0.8;fill:url(#SVGID_00000181088300705977397080000011315956176940135817_);fill-opacity:0.99;enable-background:new    ;}
	.st169{fill:#FFF3DE;}
	.st170{opacity:0.42;fill:#FFFFFF;}
	.st171{fill:#AAABAB;}
	.st172{fill:#1C3AA9;}
	.st173{fill:#4285F3;}
	.st174{fill:#E2DABA;}
	
		.st175{opacity:0.8;fill:url(#SVGID_00000139296095383883546750000013409956918008502206_);fill-opacity:0.99;enable-background:new    ;}
	.st176{fill:#C49D82;}
	.st177{fill:#EFD5BD;}
	
		.st178{opacity:0.8;fill:url(#SVGID_00000083082341000564706440000004970021769430062731_);fill-opacity:0.99;enable-background:new    ;}
	.st179{opacity:0.56;fill:#575756;}
	.st180{fill:none;stroke:#3C3C3B;stroke-width:3;stroke-miterlimit:10;}
	.st181{fill:#FF6F27;}
	.st182{fill:#1D1D1B;stroke:#1D1D1B;stroke-miterlimit:10;}
	
		.st183{opacity:0.8;fill:url(#SVGID_00000142139589281374393210000009457231148506040456_);fill-opacity:0.99;enable-background:new    ;}
	
		.st184{opacity:0.8;fill:url(#SVGID_00000060008238989659242270000011737108825495342269_);fill-opacity:0.99;enable-background:new    ;}
	.st185{fill:none;stroke:#575756;stroke-width:4;stroke-miterlimit:10;}
	.st186{fill:#FF3333;}
	.st187{fill:#BE1622;}
	.st188{fill:#FCEA10;}
	
		.st189{opacity:0.8;fill:url(#SVGID_00000165216367815909290660000008745335887003262337_);fill-opacity:0.99;enable-background:new    ;}
	.st190{fill:url(#SVGID_00000098181089571777804170000010837266602619465390_);}
	.st191{fill:url(#SVGID_00000075163211002086809450000010654477311325923726_);}
	.st192{enable-background:new    ;}
	.st193{opacity:0.99;fill:#878787;}
	.st194{opacity:0.49;fill:#BE1622;}
	
		.st195{opacity:0.8;fill:url(#SVGID_00000172428515741762727810000009338749423483344256_);fill-opacity:0.99;enable-background:new    ;}
	.st196{fill:url(#SVGID_00000081626856984938446020000004003035584500196287_);}
	.st197{fill:url(#SVGID_00000072987196395064551320000012972396278167218325_);}
	.st198{fill:#F26522;}
	.st199{fill:#F1F2F2;}
	.st200{fill:url(#SVGID_00000115482732502632433790000011274127921070975127_);}
	.st201{fill:#B7B7B7;}
	.st202{fill:#171715;}
	.st203{fill:#19D10F;}
	.st204{fill:url(#SVGID_00000042006825765687816360000017260903669055936688_);}
	.st205{fill:url(#SVGID_00000158750469783195727840000006357732096348442757_);}
	
		.st206{opacity:0.8;fill:url(#SVGID_00000000182266114068527390000011928012728375556244_);fill-opacity:0.99;enable-background:new    ;}
	.st207{fill:url(#SVGID_00000093879719976522049000000014230063240279294894_);}
	.st208{fill:#F47400;}
	.st209{fill:none;stroke:#1D1D1B;stroke-width:4;stroke-linecap:round;stroke-miterlimit:10;}
	
		.st210{opacity:0.8;fill:url(#SVGID_00000014627381046186335660000014393767924799454115_);fill-opacity:0.99;enable-background:new    ;}
	.st211{fill:url(#SVGID_00000147206828651657398540000002758658010270597027_);}
	.st212{fill:none;stroke:#1D1D1B;stroke-width:4;stroke-miterlimit:10;}
	
		.st213{opacity:0.8;fill:url(#SVGID_00000059275636109802154010000006725169520728448391_);fill-opacity:0.99;enable-background:new    ;}
	.st214{fill:#1DA2FC;}
	.st215{fill:url(#SVGID_00000080183964258075785180000014718061090157188760_);}
	.st216{fill:url(#SVGID_00000058590041334975418320000012765231135772355215_);}
	.st217{fill:#118FE4;}
	.st218{fill:#0C82D1;}
	.st219{opacity:0.3;fill:#0C82D1;enable-background:new    ;}
	.st220{opacity:0.5;fill:#0C82D1;enable-background:new    ;}
	.st221{opacity:0.21;fill:#1D71B8;}
	.st222{fill:url(#SVGID_00000012457355816100907340000016322953549401125052_);}
	.st223{fill:url(#SVGID_00000080171303337368253530000010295033338290401939_);}
	
		.st224{opacity:0.8;fill:url(#SVGID_00000009551436528080032780000010822452014818353560_);fill-opacity:0.99;enable-background:new    ;}
	.st225{fill:#35AEFF;}
	.st226{fill:url(#SVGID_00000137090639879859476050000016382284158401069220_);}
	.st227{fill:url(#SVGID_00000023967795641392061540000001646362180091112326_);}
	.st228{fill:url(#SVGID_00000034772820564818783870000014297947205471857299_);}
	.st229{fill:url(#SVGID_00000111171462213737915890000016742804455945661367_);}
	.st230{fill:url(#SVGID_00000055704427127722548230000010504239982759392420_);}
	.st231{fill:url(#SVGID_00000037692514985428826710000005976008627310239904_);}
	.st232{fill:#432918;}
	.st233{fill:url(#SVGID_00000048494831599068466400000001492745850407452568_);}
	.st234{fill:url(#SVGID_00000142157930500897076010000009107757510451451559_);}
	.st235{fill:url(#SVGID_00000151536693331078304910000011519029295820508056_);}
	.st236{fill:url(#SVGID_00000029017665164933909800000008680275363492691847_);}
	.st237{fill:url(#SVGID_00000142150214237599690160000005558875307346797738_);}
	.st238{fill:url(#SVGID_00000183933007761337209720000000106038348565907382_);}
	.st239{fill:none;stroke:#F39200;stroke-miterlimit:10;}
	.st240{fill:#FFDABB;}
	.st241{fill:url(#SVGID_00000016060361609473572210000006617046425589908662_);}
	.st242{fill:url(#SVGID_00000105421888745026521110000007154109625941609146_);}
	.st243{fill:url(#SVGID_00000089544917035004353240000010692718882981874105_);}
	.st244{fill:url(#SVGID_00000156547569036214671820000009616781918701727624_);}
	.st245{fill:url(#SVGID_00000137102356966869351780000011199474714270924724_);}
	.st246{fill:url(#SVGID_00000152968917668033150520000000384685457274085775_);}
	.st247{fill:url(#SVGID_00000090255734326776545720000012548905090664140981_);}
	.st248{fill:url(#SVGID_00000078026514048483713400000012714898334032745149_);}
	
		.st249{opacity:0.8;fill:url(#SVGID_00000098924151909429009330000000103189461894198685_);fill-opacity:0.99;enable-background:new    ;}
	.st250{opacity:0.3;fill:#F1F2F2;}
	.st251{fill:#465051;}
	.st252{fill:#FBDC4C;}
	.st253{fill:#55C3FE;}
	.st254{fill:#97DFFF;}
	.st255{fill:#7BD7FF;}
	.st256{fill:#F0FBFF;}
	.st257{fill:#CBE9F4;}
	.st258{opacity:0.37;}
	.st259{fill:#16EF0F;}
	.st260{opacity:0.15;fill:#BBEDFF;}
	.st261{fill:url(#SVGID_00000133508377643272364890000009471714414177581750_);}
	.st262{fill:#36A9E1;}
	.st263{fill:#FFFFFF;stroke:#CBE9F4;stroke-width:4;stroke-miterlimit:10;}
	.st264{fill:none;stroke:#CBE9F4;stroke-width:4;stroke-miterlimit:10;}
	
		.st265{opacity:0.8;fill:url(#SVGID_00000179616615462976069550000014117172630077831344_);fill-opacity:0.99;enable-background:new    ;}
	
		.st266{opacity:0.8;fill:url(#SVGID_00000091009145731525486330000005506040130909295024_);fill-opacity:0.99;enable-background:new    ;}
	.st267{fill:url(#SVGID_00000056404915973080971510000002099859977106539926_);}
	.st268{fill:#C97200;}
	.st269{fill:#A3CBD8;}
	.st270{fill:#BEDEE5;}
	.st271{fill:#EFEFEF;}
	.st272{fill:url(#SVGID_00000155107753738261924230000011369015413072246429_);}
	
		.st273{opacity:0.8;fill:url(#SVGID_00000020377303727222591690000002366658640110602637_);fill-opacity:0.99;enable-background:new    ;}
	
		.st274{opacity:0.8;fill:url(#SVGID_00000127729388707722802680000017519512326948368789_);fill-opacity:0.99;enable-background:new    ;}
	.st275{opacity:0.5;}
	.st276{fill:url(#SVGID_00000051376954398969908330000012451016034105886389_);}
	.st277{fill:url(#SVGID_00000179607098360663758450000012863787498449761181_);}
	.st278{fill:#F4CC06;}
	.st279{opacity:0.37;fill:#CBE9F4;}
	.st280{fill:#FC0000;}
	
		.st281{opacity:0.8;fill:url(#SVGID_00000122716496846183690220000013071299031557746075_);fill-opacity:0.99;enable-background:new    ;}
	
		.st282{opacity:0.8;fill:url(#SVGID_00000140731411924863318070000004761199851064172676_);fill-opacity:0.99;enable-background:new    ;}
	
		.st283{opacity:0.8;fill:url(#SVGID_00000096032493586958196700000013313813667127256976_);fill-opacity:0.99;enable-background:new    ;}
	
		.st284{opacity:0.8;fill:url(#SVGID_00000128484975229931841520000008597908556550336902_);fill-opacity:0.99;enable-background:new    ;}
	.st285{fill:#60BFF4;enable-background:new    ;}
	.st286{fill:#F39200;stroke:#E94E1B;stroke-width:20;stroke-miterlimit:10;}
	.st287{opacity:0.51;}
	.st288{fill:url(#SVGID_00000062902670005890683080000015414101964887507113_);}
	.st289{fill:url(#SVGID_00000120524797218594901670000016048024582324726180_);}
	.st290{fill:url(#SVGID_00000080891619249302821680000017709973225515367587_);}
	.st291{fill:url(#SVGID_00000049186082667069852680000006601662759035528346_);}
	.st292{fill:url(#SVGID_00000093872680692007291810000006568316547705564305_);}
	.st293{fill:url(#SVGID_00000178177253045926280770000003173585472238893734_);}
	.st294{fill:url(#SVGID_00000103959839944765556050000013635489705910455462_);}
	.st295{fill:url(#SVGID_00000003808661299920718650000012674390953903366034_);}
	.st296{fill:url(#SVGID_00000141424144258268478580000011204207397776958109_);}
	.st297{fill:url(#SVGID_00000075864343541030582200000003160528133286905773_);}
	.st298{opacity:0.88;}
	.st299{fill:#27262A;}
	.st300{fill:#3FA5EF;}
	.st301{fill:url(#SVGID_00000179644237419792246500000005619859377187808942_);}
	.st302{fill:url(#SVGID_00000174561867960621252250000014023483818262274998_);}
	.st303{fill:url(#SVGID_00000084529201423038356410000006545152520189131941_);}
	.st304{fill:#37373D;}
	.st305{fill:url(#SVGID_00000042738555784363970170000000888546269239542183_);}
	.st306{fill:url(#SVGID_00000045576779973041106530000001007485225351841423_);}
	.st307{opacity:0.6;fill:#27262A;}
	.st308{fill:url(#SVGID_00000065770509372537295430000005799926916505771403_);}
	
		.st309{fill:url(#SVGID_00000041269382931021296760000014596897931614514580_);stroke:url(#SVGID_00000119087082092655729080000007421016782707713922_);stroke-miterlimit:10;}
	.st310{fill:url(#SVGID_00000175289979292434109980000014082470178703959434_);}
	.st311{fill:url(#SVGID_00000177459674537713030600000007680265290205584829_);}
	.st312{fill:url(#SVGID_00000105393319495581818030000008961533725264383164_);}
	.st313{fill:url(#SVGID_00000136401982364996126050000013780402897691442110_);}
	
		.st314{opacity:0.8;fill:url(#SVGID_00000142893615373267408710000008702345733273510028_);fill-opacity:0.99;enable-background:new    ;}
	
		.st315{opacity:0.8;fill:url(#SVGID_00000082365351182411676980000001739780453848729745_);fill-opacity:0.99;enable-background:new    ;}
	.st316{fill:#1EA0FA;}
	.st317{fill:url(#SVGID_00000001653876516916209440000012631349202411409562_);}
	.st318{fill:url(#SVGID_00000003806698495630923600000010738092126076588442_);}
	.st319{fill:url(#SVGID_00000105405436452835074570000002517372111527763627_);}
	.st320{fill:url(#SVGID_00000096039473817352818390000007328994239889673367_);}
	.st321{fill:url(#SVGID_00000046297272018403761990000008431534935441590683_);}
	.st322{fill:url(#SVGID_00000074404902593954583160000012371197781009867654_);}
	.st323{fill:none;stroke:#FFFFFF;stroke-width:6;stroke-linecap:round;stroke-linejoin:round;stroke-miterlimit:10;}
	.st324{fill:url(#SVGID_00000057141713783049771620000009840206356628615573_);}
	.st325{fill:url(#SVGID_00000172427851628019363720000013943800449066110642_);}
	.st326{fill:url(#SVGID_00000183211426973821188260000013289241929186822298_);}
	.st327{fill:url(#SVGID_00000062907421826829916190000003261640361026311064_);}
	.st328{fill:url(#SVGID_00000124844977849035905230000007767532916201765009_);}
	.st329{fill:url(#SVGID_00000152972628590123238420000006590872827328257930_);}
	.st330{fill:url(#SVGID_00000126296980509481021040000006218632705063803811_);}
	.st331{fill:url(#SVGID_00000060734170603947113450000011805456548910151822_);}
	.st332{fill:#256653;}
	.st333{fill:#3C8F7C;}
	.st334{fill:#327F6B;}
	.st335{fill:#96D9C9;}
	.st336{fill:#EDD7BE;}
	.st337{fill:#9BC1F9;}
	.st338{fill:#F47458;}
	.st339{fill:#E0C8A9;}
	.st340{fill:#FEF8F8;}
	.st341{fill:#B75742;}
	.st342{fill:#A54737;}
	.st343{fill:#184655;}
	.st344{fill:#F7CC7F;}
	.st345{fill:#FAE0B2;}
	.st346{fill-rule:evenodd;clip-rule:evenodd;fill:url(#SVGID_00000085232994267650714870000006926076515251511429_);}
	.st347{fill-rule:evenodd;clip-rule:evenodd;fill:url(#SVGID_00000104697883314188688290000001091617138165255349_);}
	.st348{fill-rule:evenodd;clip-rule:evenodd;fill:url(#SVGID_00000155852145790818723300000013346489539294311042_);}
	.st349{fill-rule:evenodd;clip-rule:evenodd;fill:url(#SVGID_00000067938190365926731890000009130247331304003474_);}
	.st350{fill-rule:evenodd;clip-rule:evenodd;fill:url(#SVGID_00000178892071310609067800000007731041808947025575_);}
	.st351{fill-rule:evenodd;clip-rule:evenodd;fill:url(#SVGID_00000174600322069491417720000013636914483487492254_);}
	.st352{fill-rule:evenodd;clip-rule:evenodd;fill:url(#SVGID_00000042714271842737120330000005540011519271021215_);}
	.st353{fill-rule:evenodd;clip-rule:evenodd;fill:url(#SVGID_00000160157064323581407450000014928993926353311887_);}
	.st354{fill-rule:evenodd;clip-rule:evenodd;fill:url(#SVGID_00000068660823443340168830000003396487409388822949_);}
	.st355{fill-rule:evenodd;clip-rule:evenodd;fill:url(#SVGID_00000003102966185785785620000005159938391218370458_);}
	.st356{opacity:0.5;fill-rule:evenodd;clip-rule:evenodd;fill:#FBF9FA;}
	.st357{fill-rule:evenodd;clip-rule:evenodd;fill:url(#SVGID_00000032628218065629798310000004734164568277165442_);}
	.st358{fill-rule:evenodd;clip-rule:evenodd;fill:url(#SVGID_00000160176178398935526020000018370317707609168522_);}
	.st359{fill-rule:evenodd;clip-rule:evenodd;fill:url(#SVGID_00000000212977426093133870000000198318912416414640_);}
	.st360{fill-rule:evenodd;clip-rule:evenodd;fill:url(#SVGID_00000007428258540562870450000014520728166627946658_);}
	.st361{opacity:0.5;fill-rule:evenodd;clip-rule:evenodd;fill:#282828;}
	.st362{fill-rule:evenodd;clip-rule:evenodd;fill:url(#SVGID_00000045591757764851526760000013818870809389493133_);}
	
		.st363{opacity:0.8;fill:url(#SVGID_00000152956983051165069270000001463889865896585621_);fill-opacity:0.99;enable-background:new    ;}
	.st364{fill:url(#SVGID_00000139261755884471507980000004638409003329917592_);}
	.st365{fill:url(#SVGID_00000044883372995539298830000015318126745838031233_);}
	.st366{fill:url(#SVGID_00000167391505493914614030000004135491475290590648_);}
	
		.st367{opacity:0.8;fill:url(#SVGID_00000089538131693996084060000005753241323193686174_);fill-opacity:0.99;enable-background:new    ;}
	.st368{fill:url(#SVGID_00000053512009469425287220000007477883398227574665_);}
	.st369{fill:url(#SVGID_00000094601616343535112690000014190518114172143504_);}
	.st370{fill:url(#SVGID_00000141433259935949111440000004001746873028687751_);}
	.st371{fill:#E94A42;}
	.st372{fill-rule:evenodd;clip-rule:evenodd;fill:#F39200;}
	.st373{fill-rule:evenodd;clip-rule:evenodd;fill:#2D2E83;}
	.st374{fill-rule:evenodd;clip-rule:evenodd;fill:#EDEDED;}
	.st375{fill-rule:evenodd;clip-rule:evenodd;fill:#A695CF;}
	.st376{fill:#2C0045;}
	.st377{opacity:0.5;fill-rule:evenodd;clip-rule:evenodd;fill:#8E4072;}
	.st378{fill-rule:evenodd;clip-rule:evenodd;fill:#27348B;}
	.st379{fill:#FF4F4A;}
	.st380{fill-rule:evenodd;clip-rule:evenodd;fill:url(#SVGID_00000027602790813650609650000018350164823355948722_);}
	.st381{opacity:0.25;fill:#1D71B8;}
	.st382{fill:#373735;}
	
		.st383{opacity:0.8;fill:url(#SVGID_00000028316254727946085220000016902687044634006415_);fill-opacity:0.99;enable-background:new    ;}
	.st384{fill:url(#SVGID_00000139291229628800993000000018167876047190059653_);}
	.st385{fill:url(#SVGID_00000038401527555657167220000003281229255202201523_);}
	.st386{fill:url(#SVGID_00000108273456160987311320000006030932060262805663_);}
	.st387{fill:url(#SVGID_00000088131853267419927440000013585337478490671488_);}
	.st388{fill:#B86B03;}
	.st389{fill:#FFA443;}
	
		.st390{opacity:0.8;fill:url(#SVGID_00000125561965594418105940000001148254192859380631_);fill-opacity:0.99;enable-background:new    ;}
	.st391{fill:#FFF9C5;}
	.st392{fill:#F4CF92;}
	.st393{opacity:0.2;fill:#EEEEEE;}
	.st394{fill:url(#SVGID_00000109717904598380882240000009143793091156505512_);}
	.st395{fill:url(#SVGID_00000100354831490759450790000006647348246050337666_);}
	.st396{fill:#3D4A99;}
	.st397{fill:#2D2E83;}
	.st398{fill:#175E8E;}
	.st399{fill:none;stroke:#7FC8EF;stroke-miterlimit:10;}
	
		.st400{opacity:0.8;fill:url(#SVGID_00000096038011385735616120000002760186902962333101_);fill-opacity:0.99;enable-background:new    ;}
	
		.st401{opacity:0.8;fill:url(#SVGID_00000142152800238362946270000003716989619997457842_);fill-opacity:0.99;enable-background:new    ;}
	.st402{fill:#F5BC8F;}
	.st403{fill:#E8A878;}
	
		.st404{opacity:0.8;fill:url(#SVGID_00000133488589792820910720000005129284216817460149_);fill-opacity:0.99;enable-background:new    ;}
	
		.st405{opacity:0.8;fill:url(#SVGID_00000141419370780836868260000018219262393628048526_);fill-opacity:0.99;enable-background:new    ;}
	.st406{fill:#FEF100;}
	.st407{fill:#EC1D24;}
	
		.st408{opacity:0.8;fill:url(#SVGID_00000173142437320740384170000013374732639680978333_);fill-opacity:0.99;enable-background:new    ;}
	
		.st409{opacity:0.8;fill:url(#SVGID_00000169556577153371340220000007895225605910738843_);fill-opacity:0.99;enable-background:new    ;}
	.st410{fill:url(#SVGID_00000042719112200183120780000004885341943730331310_);}
	.st411{fill:#73D0F9;}
	.st412{fill:url(#SVGID_00000078043941353472712620000018390416668110275242_);}
	.st413{fill:none;stroke:#1D71B8;stroke-width:2;stroke-miterlimit:10;}
	.st414{clip-path:url(#SVGID_00000083768006832279257720000000197491851041125031_);fill:#FFFFFF;}
	.st415{clip-path:url(#SVGID_00000083768006832279257720000000197491851041125031_);fill:#FEFFFF;}
	.st416{clip-path:url(#SVGID_00000083768006832279257720000000197491851041125031_);fill:#FEFEFF;}
	.st417{clip-path:url(#SVGID_00000083768006832279257720000000197491851041125031_);fill:#FDFEFE;}
	.st418{clip-path:url(#SVGID_00000083768006832279257720000000197491851041125031_);fill:#FDFDFE;}
	.st419{clip-path:url(#SVGID_00000083768006832279257720000000197491851041125031_);fill:#FCFDFE;}
	.st420{clip-path:url(#SVGID_00000083768006832279257720000000197491851041125031_);fill:#FBFDFE;}
	.st421{clip-path:url(#SVGID_00000083768006832279257720000000197491851041125031_);fill:#FBFCFE;}
	.st422{clip-path:url(#SVGID_00000083768006832279257720000000197491851041125031_);fill:#FAFCFE;}
	.st423{clip-path:url(#SVGID_00000083768006832279257720000000197491851041125031_);fill:#FAFCFD;}
	.st424{clip-path:url(#SVGID_00000083768006832279257720000000197491851041125031_);fill:#F9FBFD;}
	.st425{clip-path:url(#SVGID_00000083768006832279257720000000197491851041125031_);fill:#F8FBFD;}
	.st426{clip-path:url(#SVGID_00000083768006832279257720000000197491851041125031_);fill:#F8FAFD;}
	.st427{clip-path:url(#SVGID_00000083768006832279257720000000197491851041125031_);fill:#F7FAFD;}
	.st428{clip-path:url(#SVGID_00000083768006832279257720000000197491851041125031_);fill:#F7FAFC;}
	.st429{clip-path:url(#SVGID_00000083768006832279257720000000197491851041125031_);fill:#F6F9FC;}
	.st430{clip-path:url(#SVGID_00000083768006832279257720000000197491851041125031_);fill:#F5F9FC;}
	.st431{clip-path:url(#SVGID_00000083768006832279257720000000197491851041125031_);fill:#F5F8FC;}
	.st432{clip-path:url(#SVGID_00000083768006832279257720000000197491851041125031_);fill:#F4F8FC;}
	.st433{clip-path:url(#SVGID_00000083768006832279257720000000197491851041125031_);fill:#F3F7FB;}
	.st434{clip-path:url(#SVGID_00000083768006832279257720000000197491851041125031_);fill:#F2F7FB;}
	.st435{clip-path:url(#SVGID_00000083768006832279257720000000197491851041125031_);fill:#F2F6FB;}
	.st436{clip-path:url(#SVGID_00000083768006832279257720000000197491851041125031_);fill:#F1F6FB;}
	.st437{clip-path:url(#SVGID_00000083768006832279257720000000197491851041125031_);fill:#F0F5FB;}
	.st438{clip-path:url(#SVGID_00000083768006832279257720000000197491851041125031_);fill:#F0F5FA;}
	.st439{clip-path:url(#SVGID_00000083768006832279257720000000197491851041125031_);fill:#EFF5FA;}
	.st440{clip-path:url(#SVGID_00000083768006832279257720000000197491851041125031_);fill:#EEF4FA;}
	.st441{clip-path:url(#SVGID_00000083768006832279257720000000197491851041125031_);fill:#EDF3F9;}
	.st442{clip-path:url(#SVGID_00000083768006832279257720000000197491851041125031_);fill:#ECF3F9;}
	.st443{clip-path:url(#SVGID_00000083768006832279257720000000197491851041125031_);fill:#ECF2F9;}
	.st444{clip-path:url(#SVGID_00000083768006832279257720000000197491851041125031_);fill:#EBF2F9;}
	.st445{clip-path:url(#SVGID_00000083768006832279257720000000197491851041125031_);fill:#EAF1F9;}
	.st446{clip-path:url(#SVGID_00000083768006832279257720000000197491851041125031_);fill:#E9F1F8;}
	.st447{clip-path:url(#SVGID_00000083768006832279257720000000197491851041125031_);fill:#E9F0F8;}
	.st448{clip-path:url(#SVGID_00000083768006832279257720000000197491851041125031_);fill:#E8F0F8;}
	.st449{clip-path:url(#SVGID_00000083768006832279257720000000197491851041125031_);fill:#E7EFF8;}
	.st450{clip-path:url(#SVGID_00000083768006832279257720000000197491851041125031_);fill:#E6EFF7;}
	.st451{clip-path:url(#SVGID_00000083768006832279257720000000197491851041125031_);fill:#E5EEF7;}
	.st452{clip-path:url(#SVGID_00000083768006832279257720000000197491851041125031_);fill:#E4EDF7;}
	.st453{clip-path:url(#SVGID_00000083768006832279257720000000197491851041125031_);fill:#E3EDF6;}
	.st454{clip-path:url(#SVGID_00000083768006832279257720000000197491851041125031_);fill:#E2ECF6;}
	.st455{clip-path:url(#SVGID_00000083768006832279257720000000197491851041125031_);fill:#E1EBF6;}
	.st456{clip-path:url(#SVGID_00000083768006832279257720000000197491851041125031_);fill:#E0EBF6;}
	.st457{clip-path:url(#SVGID_00000083768006832279257720000000197491851041125031_);fill:#DFEAF5;}
	.st458{clip-path:url(#SVGID_00000083768006832279257720000000197491851041125031_);fill:#DEEAF5;}
	.st459{clip-path:url(#SVGID_00000083768006832279257720000000197491851041125031_);fill:#DDE9F5;}
	.st460{clip-path:url(#SVGID_00000083768006832279257720000000197491851041125031_);fill:#DCE8F4;}
	.st461{clip-path:url(#SVGID_00000083768006832279257720000000197491851041125031_);fill:#DBE8F4;}
	.st462{clip-path:url(#SVGID_00000083768006832279257720000000197491851041125031_);fill:#DAE7F4;}
	.st463{clip-path:url(#SVGID_00000083768006832279257720000000197491851041125031_);fill:#D9E6F3;}
	.st464{clip-path:url(#SVGID_00000083768006832279257720000000197491851041125031_);fill:#D8E6F3;}
	.st465{clip-path:url(#SVGID_00000083768006832279257720000000197491851041125031_);fill:#D7E5F3;}
	.st466{clip-path:url(#SVGID_00000083768006832279257720000000197491851041125031_);fill:#D6E4F2;}
	.st467{clip-path:url(#SVGID_00000083768006832279257720000000197491851041125031_);fill:#D5E4F2;}
	.st468{clip-path:url(#SVGID_00000083768006832279257720000000197491851041125031_);fill:#D4E3F2;}
	.st469{clip-path:url(#SVGID_00000083768006832279257720000000197491851041125031_);fill:#D3E2F1;}
	.st470{clip-path:url(#SVGID_00000083768006832279257720000000197491851041125031_);fill:#D2E1F1;}
	.st471{clip-path:url(#SVGID_00000083768006832279257720000000197491851041125031_);fill:#D0E1F1;}
	.st472{clip-path:url(#SVGID_00000083768006832279257720000000197491851041125031_);fill:#CFE0F0;}
	.st473{clip-path:url(#SVGID_00000083768006832279257720000000197491851041125031_);fill:#CEDFF0;}
	.st474{clip-path:url(#SVGID_00000083768006832279257720000000197491851041125031_);fill:#CDDEF0;}
	.st475{clip-path:url(#SVGID_00000083768006832279257720000000197491851041125031_);fill:#CCDEEF;}
	.st476{clip-path:url(#SVGID_00000083768006832279257720000000197491851041125031_);fill:#CBDDEF;}
	.st477{clip-path:url(#SVGID_00000083768006832279257720000000197491851041125031_);fill:#C9DCEF;}
	.st478{clip-path:url(#SVGID_00000083768006832279257720000000197491851041125031_);fill:#C8DBEE;}
	.st479{clip-path:url(#SVGID_00000083768006832279257720000000197491851041125031_);fill:#C7DAEE;}
	.st480{clip-path:url(#SVGID_00000083768006832279257720000000197491851041125031_);fill:#C5D9ED;}
	.st481{clip-path:url(#SVGID_00000083768006832279257720000000197491851041125031_);fill:#C4D9ED;}
	.st482{clip-path:url(#SVGID_00000083768006832279257720000000197491851041125031_);fill:#C3D8ED;}
	.st483{clip-path:url(#SVGID_00000083768006832279257720000000197491851041125031_);fill:#C2D7EC;}
	.st484{clip-path:url(#SVGID_00000083768006832279257720000000197491851041125031_);fill:#C0D6EC;}
	.st485{clip-path:url(#SVGID_00000083768006832279257720000000197491851041125031_);fill:#BFD5EB;}
	.st486{clip-path:url(#SVGID_00000083768006832279257720000000197491851041125031_);fill:#BDD4EB;}
	.st487{clip-path:url(#SVGID_00000083768006832279257720000000197491851041125031_);fill:#BCD3EA;}
	.st488{clip-path:url(#SVGID_00000083768006832279257720000000197491851041125031_);fill:#BBD2EA;}
	.st489{clip-path:url(#SVGID_00000083768006832279257720000000197491851041125031_);fill:#B9D1EA;}
	.st490{clip-path:url(#SVGID_00000083768006832279257720000000197491851041125031_);fill:#B8D0E9;}
	.st491{clip-path:url(#SVGID_00000083768006832279257720000000197491851041125031_);fill:#B6D0E9;}
	.st492{clip-path:url(#SVGID_00000083768006832279257720000000197491851041125031_);fill:#B5CFE8;}
	.st493{clip-path:url(#SVGID_00000083768006832279257720000000197491851041125031_);fill:#B3CEE8;}
	.st494{clip-path:url(#SVGID_00000083768006832279257720000000197491851041125031_);fill:#B2CDE7;}
	.st495{clip-path:url(#SVGID_00000083768006832279257720000000197491851041125031_);fill:#B0CCE7;}
	.st496{clip-path:url(#SVGID_00000083768006832279257720000000197491851041125031_);fill:#AFCBE6;}
	.st497{clip-path:url(#SVGID_00000083768006832279257720000000197491851041125031_);fill:#ADCAE6;}
	.st498{clip-path:url(#SVGID_00000083768006832279257720000000197491851041125031_);fill:#ACC9E5;}
	.st499{clip-path:url(#SVGID_00000083768006832279257720000000197491851041125031_);fill:#AAC8E5;}
	.st500{clip-path:url(#SVGID_00000083768006832279257720000000197491851041125031_);fill:#A9C7E5;}
	.st501{clip-path:url(#SVGID_00000083768006832279257720000000197491851041125031_);fill:#A7C6E4;}
	.st502{clip-path:url(#SVGID_00000083768006832279257720000000197491851041125031_);fill:#A5C4E4;}
	.st503{clip-path:url(#SVGID_00000083768006832279257720000000197491851041125031_);fill:#A4C3E3;}
	.st504{clip-path:url(#SVGID_00000083768006832279257720000000197491851041125031_);fill:#A2C2E3;}
	.st505{clip-path:url(#SVGID_00000083768006832279257720000000197491851041125031_);fill:#A0C1E2;}
	.st506{clip-path:url(#SVGID_00000083768006832279257720000000197491851041125031_);fill:#9FC0E1;}
	.st507{clip-path:url(#SVGID_00000083768006832279257720000000197491851041125031_);fill:#9DBFE1;}
	.st508{clip-path:url(#SVGID_00000083768006832279257720000000197491851041125031_);fill:#9BBEE0;}
	.st509{clip-path:url(#SVGID_00000083768006832279257720000000197491851041125031_);fill:#9ABDE0;}
	.st510{clip-path:url(#SVGID_00000083768006832279257720000000197491851041125031_);fill:#98BCDF;}
	.st511{clip-path:url(#SVGID_00000083768006832279257720000000197491851041125031_);fill:#96BADF;}
	.st512{clip-path:url(#SVGID_00000083768006832279257720000000197491851041125031_);fill:#94B9DE;}
	.st513{clip-path:url(#SVGID_00000083768006832279257720000000197491851041125031_);fill:#92B8DE;}
	.st514{clip-path:url(#SVGID_00000083768006832279257720000000197491851041125031_);fill:#91B7DD;}
	.st515{clip-path:url(#SVGID_00000083768006832279257720000000197491851041125031_);fill:#8FB6DD;}
	.st516{clip-path:url(#SVGID_00000083768006832279257720000000197491851041125031_);fill:#8DB5DC;}
	.st517{clip-path:url(#SVGID_00000083768006832279257720000000197491851041125031_);fill:#8BB3DB;}
	.st518{clip-path:url(#SVGID_00000083768006832279257720000000197491851041125031_);fill:#89B2DB;}
	.st519{clip-path:url(#SVGID_00000083768006832279257720000000197491851041125031_);fill:#87B1DA;}
	.st520{clip-path:url(#SVGID_00000083768006832279257720000000197491851041125031_);fill:#85B0DA;}
	.st521{clip-path:url(#SVGID_00000083768006832279257720000000197491851041125031_);fill:#84AED9;}
	.st522{clip-path:url(#SVGID_00000083768006832279257720000000197491851041125031_);fill:#82ADD9;}
	.st523{clip-path:url(#SVGID_00000083768006832279257720000000197491851041125031_);fill:#80ACD8;}
	.st524{clip-path:url(#SVGID_00000083768006832279257720000000197491851041125031_);fill:#7EAAD7;}
	.st525{clip-path:url(#SVGID_00000083768006832279257720000000197491851041125031_);fill:#7CA9D7;}
	.st526{clip-path:url(#SVGID_00000083768006832279257720000000197491851041125031_);fill:#7AA8D6;}
	.st527{clip-path:url(#SVGID_00000083768006832279257720000000197491851041125031_);fill:#78A7D5;}
	.st528{clip-path:url(#SVGID_00000083768006832279257720000000197491851041125031_);fill:#76A5D5;}
	.st529{clip-path:url(#SVGID_00000083768006832279257720000000197491851041125031_);fill:#74A4D4;}
	.st530{clip-path:url(#SVGID_00000083768006832279257720000000197491851041125031_);fill:#71A3D4;}
	.st531{clip-path:url(#SVGID_00000083768006832279257720000000197491851041125031_);fill:#6FA1D3;}
	.st532{clip-path:url(#SVGID_00000083768006832279257720000000197491851041125031_);fill:#6DA0D2;}
	.st533{clip-path:url(#SVGID_00000083768006832279257720000000197491851041125031_);fill:#6B9ED2;}
	.st534{clip-path:url(#SVGID_00000083768006832279257720000000197491851041125031_);fill:#699DD1;}
	.st535{fill:#396CAA;}
	.st536{fill:#5793CE;}
	.st537{fill:#D4ECFF;}
	.st538{opacity:0.8;fill:#4D95D1;}
	.st539{fill:#9C9B9B;}
	.st540{fill:#C6C6C5;}
	.st541{fill:#F9B75A;}
	.st542{fill:#E20613;}
	
		.st543{opacity:0.8;fill:url(#SVGID_00000090287930352511077850000006108837651274667163_);fill-opacity:0.99;enable-background:new    ;}
	.st544{fill:url(#SVGID_00000023963323079576535770000005963443688225399461_);}
	.st545{fill:url(#SVGID_00000094577758423101696820000011927147543380431243_);}
	.st546{fill:url(#SVGID_00000134931327460520821860000000441483447404205489_);}
	.st547{fill:url(#SVGID_00000124850158436952859260000010474411640045576323_);}
	.st548{fill:url(#SVGID_00000125577139827904251320000014844881031415225480_);}
	.st549{fill:url(#SVGID_00000067933396205764739110000008770492820358557327_);}
	.st550{fill:#238DDB;}
	.st551{fill:#6F6F6E;}
	.st552{fill:#F4CB9F;}
	.st553{fill:#E2B982;}
	.st554{fill:#F4CDA2;}
	.st555{fill:#868686;}
	.st556{fill:none;stroke:#E94E1B;stroke-linecap:round;stroke-miterlimit:10;}
	.st557{fill:#331338;}
	.st558{fill:#7381C6;}
	.st559{fill:#1F3DC4;}
	.st560{fill:#C3CBF1;}
	.st561{fill:url(#SVGID_00000160189928685661713390000003874102571687176110_);}
	.st562{fill:url(#SVGID_00000011016050172702971300000011932898483050436277_);}
	.st563{fill:none;stroke:#E6332A;stroke-miterlimit:10;}
	.st564{fill:#2FD34E;}
	.st565{fill:none;stroke:#B2CC19;stroke-miterlimit:10;}
	.st566{fill-rule:evenodd;clip-rule:evenodd;fill:url(#SVGID_00000095316670645162981700000006797828229853505937_);}
	
		.st567{opacity:0.8;fill:url(#SVGID_00000049222586645291634230000015011804543703415231_);fill-opacity:0.99;enable-background:new    ;}
	.st568{fill:url(#SVGID_00000029018144275117130110000007958789749322981508_);}
	.st569{fill:url(#SVGID_00000137127151931846010000000006550409517399934131_);}
	.st570{fill:url(#SVGID_00000023269567589528134810000005837889756239895448_);}
	.st571{fill:url(#SVGID_00000109727751136092172100000017705316747766892945_);}
	.st572{fill:url(#SVGID_00000078760736925171499670000010403382837411432086_);}
	.st573{fill:url(#SVGID_00000051368697876825483920000003154673055951108742_);}
	.st574{fill:url(#SVGID_00000057108490807038510270000016882963261660824208_);}
	.st575{fill:url(#SVGID_00000170261968717873331540000012544639020457605815_);}
	.st576{fill:url(#SVGID_00000126285651072249818650000002561649311115321278_);}
	.st577{fill:url(#SVGID_00000014612712348662829810000007513577622111373972_);}
	.st578{fill:url(#SVGID_00000111181479149915574410000000224397087271473073_);}
	.st579{fill:#FF9900;}
	.st580{fill:#3EF7F7;}
	.st581{fill:#0E7AA5;}
	
		.st582{opacity:0.8;fill:url(#SVGID_00000095299030211399565850000006932839088754437788_);fill-opacity:0.99;enable-background:new    ;}
	
		.st583{fill:#208AD1;stroke:url(#SVGID_00000000902880634911679660000016251659283314049455_);stroke-width:2;stroke-miterlimit:10;}
	
		.st584{fill:#208AD1;stroke:url(#SVGID_00000028315099936180851010000008770259579923883921_);stroke-width:2;stroke-miterlimit:10;}
	
		.st585{opacity:0.8;fill:url(#SVGID_00000171682778002684960410000000427643457724853410_);fill-opacity:0.99;enable-background:new    ;}
	.st586{fill:#208AD1;}
	.st587{fill:url(#SVGID_00000168110827133048575470000002348779675384931248_);}
	.st588{opacity:0.2;fill:url(#SVGID_00000055676451421855292240000015551503578831191733_);}
	.st589{fill:#1374AA;}
	.st590{fill:#FDCA50;}
	.st591{fill:#BF6718;}
	.st592{fill:#F5A23D;}
	.st593{fill:#D38319;}
	.st594{fill:#FFF051;}
	.st595{fill:#F59E1C;}
	.st596{fill:#F5A54A;}
	.st597{fill:#C05836;}
	.st598{fill:none;stroke:#565656;stroke-width:2;stroke-miterlimit:10;}
	.st599{fill:#FFF800;}
	.st600{fill:#19FC00;}
	.st601{fill:#07D3FF;}
	.st602{fill:none;stroke:#3C3C3B;stroke-miterlimit:10;}
	.st603{fill:#58CBF9;}
</style>
<g id="Layer_1">
	<g>
		
			<linearGradient id="SVGID_1_" gradientUnits="userSpaceOnUse" x1="11.0239" y1="-351.7457" x2="475.1881" y2="98.45" gradientTransform="matrix(1 0 0 1 -8.362 366.835)">
			<stop  offset="0" style="stop-color:#1EA0FA"/>
			<stop  offset="1" style="stop-color:#72C4FD"/>
		</linearGradient>
		<path class="st0" d="M201.26,11.65C324.72,3.25,381.99,65.9,413.7,149.9s78.68,112.91,46.26,209.6s-149.61,109.48-195.37,98.16
			c-45.79-11.31-93.29-40.6-150.28-62.58C29.5,362.37,8.54,319.3,6.86,276.89c-2.39-59.99,29.22-66.7,39.39-132.47
			C58.43,65.61,104.69,18.21,201.26,11.65z"/>
		<path class="st3" d="M43.56,136.08c-60.46,97.1-11,220.32,54.78,283.79c58.67,56.6,161.63,95.92,218.39,59.7
			c41.49-26.44,31.13-75.9,94.1-125.74c40.91-32.39,61.12-24.02,74.43-47.06c31.83-55.02-34.4-187.23-141.84-236.71
			C253.61,28.69,107.96,32.63,43.56,136.08z"/>
	</g>
	<g>
		<path class="st11" d="M321.86,261.71l37.73-21.83c1.47-0.83,2.68-3.13,2.68-5.11V144.5c0-1.98-1.21-2.87-2.68-1.98l-37.73,21.77
			c-1.47,0.83-2.68,3.13-2.68,5.11v90.27C319.24,261.64,320.39,262.54,321.86,261.71z"/>
		<path class="st12" d="M321.09,163.84l37.73-21.77c0.83-0.51,1.6-0.38,2.11,0.13c-0.38-0.06-0.83,0-1.28,0.32l-37.73,21.77
			c-1.47,0.83-2.68,3.13-2.68,5.11v90.27c0,0.83,0.19,1.47,0.57,1.85c-0.83-0.13-1.4-0.96-1.4-2.3v-90.27
			C318.41,166.97,319.62,164.67,321.09,163.84z"/>
		
			<linearGradient id="SVGID_00000122714761187605013900000002638001120655134122_" gradientUnits="userSpaceOnUse" x1="-747.1717" y1="-2804.8943" x2="-712.8586" y2="-2799.5845" gradientTransform="matrix(-1 0 0 -1 -387.4783 -2600.261)">
			<stop  offset="0" style="stop-color:#3919BB"/>
			<stop  offset="1" style="stop-color:#6507FA"/>
		</linearGradient>
		<path style="fill:url(#SVGID_00000122714761187605013900000002638001120655134122_);" d="M324.22,256.28l33-19.09
			c1.28-0.77,2.3-2.75,2.3-4.47V148.9c0-1.72-1.02-2.49-2.3-1.79l-33,19.02c-1.28,0.77-2.3,2.75-2.3,4.47v83.89
			C321.92,256.22,322.94,256.98,324.22,256.28z"/>
		
			<linearGradient id="SVGID_00000150797182771294876170000001777571394277354163_" gradientUnits="userSpaceOnUse" x1="-747.1717" y1="-2804.8943" x2="-712.8586" y2="-2799.5845" gradientTransform="matrix(-1 0 0 -1 -387.4783 -2600.261)">
			<stop  offset="0" style="stop-color:#3919BB"/>
			<stop  offset="1" style="stop-color:#6507FA"/>
		</linearGradient>
		<path style="fill:url(#SVGID_00000150797182771294876170000001777571394277354163_);" d="M324.22,256.28l33-19.09
			c1.28-0.77,2.3-2.75,2.3-4.47V148.9c0-1.72-1.02-2.49-2.3-1.79l-33,19.02c-1.28,0.77-2.3,2.75-2.3,4.47v83.89
			C321.92,256.22,322.94,256.98,324.22,256.28z"/>
		<path class="st15" d="M324.22,256.28l33-19.09c1.28-0.77,2.3-2.75,2.3-4.47V148.9c0-1.72-1.02-2.49-2.3-1.79l-33,19.02
			c-1.28,0.77-2.3,2.75-2.3,4.47v83.89C321.92,256.22,322.94,256.98,324.22,256.28z"/>
		<path class="st16" d="M323.2,255.64l32.94-19.09c1.28-0.77,2.3-2.75,2.3-4.47v-83.82c0-0.57-0.13-1.09-0.32-1.4
			c0.83,0,1.4,0.77,1.4,2.04v83.89c0,1.72-1.02,3.7-2.3,4.47l-33,19.02c-0.83,0.51-1.6,0.32-1.98-0.38
			C322.56,255.9,322.88,255.83,323.2,255.64z"/>
		<path class="st17" d="M324.22,217.72l12.26-7.09l19.6,11.3l-34.15,19.73v-19.47C321.92,220.47,322.94,218.49,324.22,217.72z"/>
		<path class="st17" d="M324.22,200.55l12.26-7.09l19.6,11.3l-34.15,19.73v-19.47C321.92,203.29,322.94,201.31,324.22,200.55z"/>
		<path class="st17" d="M324.22,183.37l12.32-7.09l19.53,11.3l-34.15,19.73v-19.47C321.92,186.12,322.94,184.14,324.22,183.37z"/>
		<path class="st17" d="M324.22,166.2l12.32-7.09l19.53,11.3l-34.15,19.73v-19.54C321.92,168.95,322.94,166.9,324.22,166.2z"/>
		<path class="st17" d="M324.22,166.2l27.19-15.71l4.66,2.68l-34.15,19.73v-2.3C321.92,168.95,322.94,166.9,324.22,166.2z"/>
		<path class="st11" d="M321.92,172.9l34.15-19.66v10.85l-34.15,19.73V172.9z"/>
		<path class="st11" d="M321.92,190.14l34.15-19.73v10.85L321.92,201V190.14z"/>
		<path class="st11" d="M321.92,207.32l34.15-19.73v10.85l-34.15,19.73V207.32z"/>
		<path class="st11" d="M321.92,224.49l34.15-19.73v10.85l-34.15,19.73V224.49z"/>
		<path class="st11" d="M321.92,241.66l34.15-19.73v10.85l-34.15,19.73V241.66z"/>
		<path class="st17" d="M324.92,179.93l25.73-14.88c0.7-0.45,1.34-1.53,1.34-2.49v-2.94c0-0.96-0.57-1.4-1.34-1.02l-25.73,14.88
			c-0.7,0.45-1.34,1.53-1.34,2.49v2.94C323.64,179.86,324.22,180.31,324.92,179.93z"/>
		<path class="st18" d="M324.92,196.97l25.73-14.88c0.7-0.45,1.34-1.53,1.34-2.49v-2.87c0-0.96-0.57-1.4-1.34-1.02l-25.73,14.88
			c-0.7,0.45-1.34,1.53-1.34,2.49v2.94C323.64,196.97,324.22,197.42,324.92,196.97z"/>
		<path class="st17" d="M324.92,214.21l25.73-14.87c0.7-0.45,1.34-1.53,1.34-2.49v-2.87c0-0.96-0.57-1.4-1.34-1.02l-25.73,14.88
			c-0.7,0.45-1.34,1.53-1.34,2.49v2.94C323.64,214.21,324.22,214.66,324.92,214.21z"/>
		<path class="st17" d="M324.92,231.64l25.73-14.88c0.7-0.45,1.34-1.53,1.34-2.49v-2.94c0-0.96-0.57-1.4-1.34-1.02l-25.73,14.88
			c-0.7,0.45-1.34,1.53-1.34,2.49v2.94C323.64,231.64,324.22,232.02,324.92,231.64z"/>
		<path class="st17" d="M324.92,248.68l25.73-14.88c0.7-0.45,1.34-1.53,1.34-2.49v-2.87c0-0.96-0.57-1.4-1.34-1.02l-25.73,14.88
			c-0.7,0.45-1.34,1.53-1.34,2.49v2.94C323.64,248.68,324.22,249.13,324.92,248.68z"/>
		<path class="st19" d="M349.37,164.54c0.7-0.45,1.34-1.53,1.34-2.49v-2.94c0-0.13,0-0.32-0.06-0.45h0.06c0.7-0.45,1.34,0,1.34,1.02
			v2.94c0,0.96-0.57,2.11-1.34,2.49l-25.79,14.81c-0.64,0.38-1.15,0.06-1.28-0.57L349.37,164.54z"/>
		<path class="st19" d="M349.37,181.59c0.7-0.45,1.34-1.53,1.34-2.49v-2.94c0-0.13,0-0.32-0.06-0.45h0.06c0.7-0.45,1.34,0,1.34,1.02
			v2.94c0,0.96-0.57,2.11-1.34,2.49l-25.73,14.88c-0.64,0.38-1.15,0.06-1.28-0.57L349.37,181.59z"/>
		<path class="st19" d="M349.37,198.82c0.7-0.45,1.34-1.53,1.34-2.49v-2.94c0-0.13,0-0.32-0.06-0.45h0.06c0.7-0.45,1.34,0,1.34,1.02
			v2.94c0,0.96-0.57,2.11-1.34,2.49l-25.73,14.88c-0.64,0.38-1.15,0.06-1.28-0.57L349.37,198.82z"/>
		<path class="st19" d="M349.37,216.25c0.7-0.45,1.34-1.53,1.34-2.49v-2.94c0-0.13,0-0.32-0.06-0.45h0.06c0.7-0.45,1.34,0,1.34,1.02
			v2.94c0,0.96-0.57,2.11-1.34,2.49l-25.79,14.81c-0.64,0.38-1.15,0.06-1.28-0.57L349.37,216.25z"/>
		<path class="st19" d="M349.37,233.3c0.7-0.45,1.34-1.53,1.34-2.49v-2.94c0-0.13,0-0.32-0.06-0.45h0.06c0.7-0.45,1.34,0,1.34,1.02
			v2.94c0,0.96-0.57,2.11-1.34,2.49l-25.73,14.88c-0.64,0.38-1.15,0.06-1.28-0.57L349.37,233.3z"/>
		<path class="st11" d="M356.07,153.24l-2.68,1.53v10.85l2.68-1.53V153.24z"/>
		<path class="st11" d="M356.07,170.41l-2.68,1.53v10.85l2.68-1.53V170.41z"/>
		<path class="st11" d="M356.07,187.59l-2.68,1.53v10.85l2.68-1.53V187.59z"/>
		<path class="st11" d="M356.07,204.76l-2.68,1.53v10.92l2.68-1.6V204.76z"/>
		<path class="st11" d="M356.07,221.94l-2.68,1.6v10.85l2.68-1.6V221.94z"/>
		<path class="st20" d="M333.03,223.66l15.45-8.94c0.26-0.13,0.45-0.57,0.45-0.89c0-0.32-0.19-0.51-0.45-0.32l-15.45,8.94
			c-0.26,0.13-0.45,0.57-0.45,0.89C332.52,223.66,332.77,223.79,333.03,223.66z"/>
		<path class="st20" d="M327.67,174.37c0,0.32,0.26,0.51,0.57,0.32c0.32-0.19,0.57-0.57,0.57-0.96s-0.26-0.51-0.57-0.32
			C327.92,173.61,327.67,173.99,327.67,174.37z"/>
		<path class="st20" d="M329.96,190.21c0,0.32,0.26,0.51,0.57,0.32c0.32-0.19,0.57-0.57,0.57-0.96c0-0.38-0.26-0.51-0.57-0.32
			C330.22,189.44,329.96,189.82,329.96,190.21z"/>
		<path class="st20" d="M327.67,208.85c0,0.32,0.26,0.51,0.57,0.32c0.32-0.19,0.57-0.57,0.57-0.96c0-0.38-0.26-0.51-0.57-0.32
			C327.92,208.08,327.67,208.46,327.67,208.85z"/>
		<path class="st20" d="M327.67,243.19c0,0.32,0.26,0.51,0.57,0.32c0.32-0.19,0.57-0.57,0.57-0.96s-0.26-0.51-0.57-0.32
			C327.92,242.43,327.67,242.81,327.67,243.19z"/>
		<path class="st12" d="M333.03,171.95l15.45-8.94c0.26-0.13,0.45-0.57,0.45-0.89c0-0.32-0.19-0.51-0.45-0.32l-15.45,8.94
			c-0.26,0.13-0.45,0.57-0.45,0.89C332.52,171.95,332.77,172.07,333.03,171.95z"/>
		<path class="st12" d="M333.03,189.06l15.45-8.94c0.26-0.13,0.45-0.57,0.45-0.89s-0.19-0.51-0.45-0.32l-15.45,8.94
			c-0.26,0.13-0.45,0.57-0.45,0.89C332.52,188.99,332.77,189.18,333.03,189.06z"/>
		<path class="st12" d="M333.03,206.29l15.45-8.94c0.26-0.13,0.45-0.57,0.45-0.89s-0.19-0.51-0.45-0.32l-15.45,8.94
			c-0.26,0.13-0.45,0.57-0.45,0.89C332.52,206.23,332.77,206.42,333.03,206.29z"/>
		<path class="st12" d="M333.03,240.7l15.45-8.94c0.26-0.13,0.45-0.57,0.45-0.89c0-0.32-0.19-0.51-0.45-0.32l-15.45,8.94
			c-0.26,0.13-0.45,0.57-0.45,0.89C332.52,240.7,332.77,240.83,333.03,240.7z"/>
		<path class="st12" d="M330.09,173.36c-0.21-0.12-0.22-0.52,0-0.89c0.21-0.37,0.56-0.56,0.77-0.44c0.21,0.12,0.22,0.52,0,0.89
			C330.65,173.29,330.3,173.49,330.09,173.36z"/>
		<path class="st12" d="M325.37,175.71c0,0.32,0.26,0.51,0.57,0.32c0.32-0.19,0.57-0.57,0.57-0.96c0-0.38-0.26-0.51-0.57-0.32
			C325.56,174.88,325.37,175.33,325.37,175.71z"/>
		<path class="st21" d="M327.67,191.55c0,0.32,0.26,0.51,0.57,0.32c0.32-0.19,0.57-0.57,0.57-0.96s-0.26-0.51-0.57-0.32
			C327.92,190.78,327.67,191.16,327.67,191.55z"/>
		<path class="st12" d="M325.37,192.89c0,0.32,0.26,0.51,0.57,0.32c0.32-0.19,0.57-0.57,0.57-0.96c0-0.32-0.26-0.51-0.57-0.32
			C325.56,192.12,325.37,192.5,325.37,192.89z"/>
		<path class="st12" d="M329.96,207.51c0,0.32,0.26,0.51,0.57,0.32c0.32-0.19,0.57-0.57,0.57-0.96c0-0.38-0.26-0.51-0.57-0.32
			C330.22,206.74,329.96,207.12,329.96,207.51z"/>
		<path class="st12" d="M325.37,210.19c0,0.32,0.26,0.51,0.57,0.32c0.32-0.19,0.57-0.57,0.57-0.96c0-0.38-0.26-0.51-0.57-0.32
			C325.56,209.42,325.37,209.81,325.37,210.19z"/>
		<path class="st12" d="M329.96,224.55c0,0.32,0.26,0.51,0.57,0.32c0.32-0.19,0.57-0.57,0.57-0.96s-0.26-0.51-0.57-0.32
			C330.22,223.79,329.96,224.23,329.96,224.55z"/>
		<path class="st12" d="M327.67,225.89c0,0.32,0.26,0.51,0.57,0.32c0.32-0.19,0.57-0.57,0.57-0.96s-0.26-0.51-0.57-0.32
			C327.92,225.13,327.67,225.51,327.67,225.89z"/>
		<path class="st12" d="M325.37,227.23c0,0.32,0.26,0.51,0.57,0.32c0.32-0.19,0.57-0.57,0.57-0.96c0-0.32-0.26-0.51-0.57-0.32
			C325.56,226.47,325.37,226.85,325.37,227.23z"/>
		<path class="st12" d="M329.96,241.85c0,0.32,0.26,0.51,0.57,0.32c0.32-0.19,0.57-0.57,0.57-0.96c0-0.32-0.26-0.51-0.57-0.32
			C330.22,241.09,329.96,241.47,329.96,241.85z"/>
		<path class="st12" d="M325.37,244.53c0,0.32,0.26,0.51,0.57,0.32c0.32-0.19,0.57-0.57,0.57-0.96c0-0.38-0.26-0.51-0.57-0.32
			C325.56,243.77,325.37,244.15,325.37,244.53z"/>
		<path class="st22" d="M317.04,117.44c-0.45-0.26-1.08-0.26-1.72,0.13l-37.73,21.77c-0.77,0.45-1.4,1.28-1.91,2.23l0.05,0.03
			c-0.5,0.89-0.75,1.9-0.75,2.84v90.27c0,1.02,0.38,1.79,0.89,2.11l0.06,0.06l42.9,24.77l0.13-0.38c-0.6-0.3-1-1.05-1-2.16v-90.27
			c0-0.83,0.22-1.72,0.58-2.53c0,0,1.25-2.1,2.1-2.58l37.73-21.77c0.25-0.15,0.49-0.24,0.73-0.29L317.04,117.44z"/>
		<path class="st23" d="M344.8,149.8l13.58-7.83c0.25-0.15,0.49-0.24,0.73-0.29l-42.06-24.24c-0.45-0.26-1.08-0.26-1.72,0.13
			l-37.73,21.77c-0.77,0.45-1.4,1.28-1.91,2.23l0.05,0.03c-0.5,0.89-0.75,1.9-0.75,2.84v90.27c0,1.02,0.38,1.79,0.89,2.11l0.06,0.06
			l42.9,24.77l0.13-0.38c-0.6-0.3-1-1.05-1-2.16v-90.27c0-0.83,0.22-1.72,0.58-2.53c0,0,1.25-2.1,2.1-2.58L344.8,149.8"/>
		<line class="st24" x1="318.55" y1="166.31" x2="275.73" y2="141.6"/>
	</g>
	<g>
		<circle class="st54" cx="444.66" cy="82.47" r="31.6"/>
		<path class="st55" d="M460.87,55.34c2.18,3.55,3.78,7.53,4.63,11.85c3.87,19.52-8.82,38.48-28.34,42.35
			c-2.55,0.51-5.09,0.72-7.59,0.68c6.26,3.4,13.69,4.73,21.23,3.23c17.12-3.39,28.25-20.02,24.85-37.14
			C473.85,67.2,468.28,59.77,460.87,55.34z"/>
	</g>
	<circle class="st56" cx="108.82" cy="39.26" r="15.1"/>
	<circle class="st56" cx="468.65" cy="322.91" r="7.62"/>
	<g>
		<path class="st214" d="M157.54,182.22c-1,1.75-1.5,3.76-1.5,5.63v177.03c0,2,0.75,3.51,1.75,4.13l0.12,0.12l84.12,48.58
			l63.59-181.16c-24.04-1.88-63.84-5.63-63.84-5.63L157.54,182.22z"/>
		<path class="st225" d="M157.41,182.22l136.45,78.75l4.01-2.25l21.16-60.34l4.01-14.77l-84.5-48.7c-0.88-0.5-2.13-0.5-3.38,0.25
			l-73.98,42.69C159.67,178.72,158.41,180.34,157.41,182.22z"/>
		<path class="st214" d="M240.28,413.58V236.56c0-3.88,2.38-8.39,5.26-10.02l73.98-42.69c2.88-1.75,5.26,0,5.26,3.88v177.03
			c0,3.88-2.38,8.39-5.26,10.02l-73.98,42.82C242.66,419.22,240.41,417.46,240.28,413.58z"/>
		<path class="st12" d="M238.78,235.68v177.03c0,2.63,1.13,4.26,2.75,4.51c-0.75-0.75-1.13-2-1.13-3.63V236.56
			c0-3.88,2.38-8.39,5.26-10.02l73.98-42.69c0.88-0.63,1.75-0.75,2.5-0.63c-1-1-2.5-1.25-4.13-0.25l-73.98,42.69
			C241.16,227.29,238.78,231.8,238.78,235.68z"/>
		
			<linearGradient id="SVGID_00000181804984130704369600000012046812377314979466_" gradientUnits="userSpaceOnUse" x1="-1770.7096" y1="-2905.9241" x2="-1703.4204" y2="-2895.511" gradientTransform="matrix(-1 0 0 -1 -1450.972 -2600.261)">
			<stop  offset="0" style="stop-color:#3919BB"/>
			<stop  offset="1" style="stop-color:#6507FA"/>
		</linearGradient>
		<path style="fill:url(#SVGID_00000181804984130704369600000012046812377314979466_);" d="M245.67,403.44V238.94
			c0-3.38,2-7.26,4.51-8.76l64.72-37.31c2.5-1.38,4.51,0.13,4.51,3.51v164.38c0,3.38-2,7.26-4.51,8.76l-64.72,37.43
			C247.67,408.32,245.67,406.82,245.67,403.44z"/>
		
			<linearGradient id="SVGID_00000034789112981852511960000015714500395758846105_" gradientUnits="userSpaceOnUse" x1="-1770.7096" y1="-2905.9241" x2="-1703.4204" y2="-2895.511" gradientTransform="matrix(-1 0 0 -1 -1450.972 -2600.261)">
			<stop  offset="0" style="stop-color:#3919BB"/>
			<stop  offset="1" style="stop-color:#6507FA"/>
		</linearGradient>
		<path style="fill:url(#SVGID_00000034789112981852511960000015714500395758846105_);" d="M245.67,403.44V238.94
			c0-3.38,2-7.26,4.51-8.76l64.72-37.31c2.5-1.38,4.51,0.13,4.51,3.51v164.38c0,3.38-2,7.26-4.51,8.76l-64.72,37.43
			C247.67,408.32,245.67,406.82,245.67,403.44z"/>
		<path class="st217" d="M245.67,403.44V238.94c0-3.38,2-7.26,4.51-8.76l64.72-37.31c2.5-1.38,4.51,0.13,4.51,3.51v164.38
			c0,3.38-2,7.26-4.51,8.76l-64.72,37.43C247.67,408.32,245.67,406.82,245.67,403.44z"/>
		<path class="st218" d="M246.29,406.2c0.75,1.38,2.25,1.75,3.88,0.75l64.72-37.31c2.5-1.5,4.51-5.38,4.51-8.76V196.37
			c0-2.5-1.13-4.01-2.75-4.01c0.38,0.63,0.63,1.63,0.63,2.75V359.5c0,3.38-2,7.26-4.51,8.76l-64.59,37.43
			C247.54,406.07,246.92,406.2,246.29,406.2z"/>
		<path class="st218" d="M245.67,340.09v38.18l66.97-38.69l-38.43-22.16l-24.03,13.9C247.67,332.83,245.67,336.71,245.67,340.09z"/>
		<path class="st218" d="M245.67,306.42v38.18l66.97-38.69l-38.43-22.16l-24.03,13.9C247.67,299.15,245.67,303.04,245.67,306.42z"/>
		<path class="st218" d="M245.67,272.74v38.18l66.97-38.69l-38.31-22.16l-24.16,13.9C247.67,265.48,245.67,269.36,245.67,272.74z"/>
		<path class="st218" d="M245.67,238.93v38.31l66.97-38.69l-38.31-22.16l-24.16,13.9C247.67,231.67,245.67,235.68,245.67,238.93z"/>
		<path class="st218" d="M245.67,238.93v4.51l66.97-38.69l-9.14-5.26l-53.33,30.8C247.67,231.67,245.67,235.68,245.67,238.93z"/>
		<path class="st214" d="M245.67,264.85l66.97-38.69v-21.28l-66.97,38.56V264.85z"/>
		<path class="st214" d="M245.67,298.53l66.97-38.69v-21.28l-66.97,38.69V298.53z"/>
		<path class="st214" d="M245.67,332.21l66.97-38.69v-21.28l-66.97,38.69V332.21z"/>
		<path class="st214" d="M245.67,365.88l66.97-38.68v-21.28l-66.97,38.69V365.88z"/>
		<path class="st214" d="M245.67,399.56l66.97-38.69v-21.28l-66.97,38.69V399.56z"/>
		<path class="st217" d="M248.92,255.21v-5.76c0-1.88,1.25-4.01,2.63-4.88L302,215.4c1.5-0.75,2.63,0.13,2.63,2v5.76
			c0,1.88-1.25,4.01-2.63,4.88l-50.45,29.17C250.17,257.96,249.05,257.09,248.92,255.21z"/>
		<path class="st217" d="M248.92,288.76V283c0-1.88,1.25-4.01,2.63-4.88L302,248.95c1.5-0.75,2.63,0.12,2.63,2v5.63
			c0,1.88-1.25,4.01-2.63,4.88l-50.45,29.17C250.17,291.52,249.05,290.64,248.92,288.76z"/>
		<path class="st217" d="M248.92,322.57v-5.76c0-1.88,1.25-4.01,2.63-4.88L302,282.75c1.5-0.75,2.63,0.13,2.63,2v5.63
			c0,1.88-1.25,4.01-2.63,4.88l-50.45,29.17C250.17,325.32,249.05,324.44,248.92,322.57z"/>
		<path class="st217" d="M248.92,356.62v-5.76c0-1.88,1.25-4.01,2.63-4.88L302,316.81c1.5-0.75,2.63,0.13,2.63,2v5.76
			c0,1.88-1.25,4.01-2.63,4.88l-50.45,29.17C250.17,359.37,249.05,358.62,248.92,356.62z"/>
		<path class="st217" d="M248.92,390.17v-5.76c0-1.88,1.25-4.01,2.63-4.88L302,350.36c1.5-0.75,2.63,0.12,2.63,2V358
			c0,1.88-1.25,4.01-2.63,4.88l-50.45,29.17C250.17,392.93,249.05,392.05,248.92,390.17z"/>
		<path class="st219" d="M249.05,256.09c0.25,1.25,1.25,1.88,2.5,1.13l50.57-29.05c1.5-0.75,2.63-3.01,2.63-4.88v-5.76
			c0-2-1.25-2.88-2.63-2H302c0.13,0.25,0.13,0.63,0.13,0.88v5.76c0,1.88-1.25,4.01-2.63,4.88L249.05,256.09z"/>
		<path class="st219" d="M249.17,289.64c0.25,1.25,1.25,1.88,2.5,1.13l50.45-29.17c1.5-0.75,2.63-3.01,2.63-4.88v-5.76
			c0-2-1.25-2.88-2.63-2H302c0.13,0.25,0.13,0.63,0.13,0.88v5.76c0,1.88-1.25,4.01-2.63,4.88L249.17,289.64z"/>
		<path class="st219" d="M249.17,323.44c0.25,1.25,1.25,1.88,2.5,1.13l50.45-29.17c1.5-0.75,2.63-3,2.63-4.88v-5.76
			c0-2-1.25-2.88-2.63-2H302c0.13,0.25,0.13,0.63,0.13,0.88v5.76c0,1.88-1.25,4.01-2.63,4.88L249.17,323.44z"/>
		<path class="st219" d="M249.05,357.5c0.25,1.25,1.25,1.88,2.5,1.13l50.57-29.05c1.5-0.75,2.63-3.01,2.63-4.88v-5.76
			c0-2-1.25-2.88-2.63-2H302c0.13,0.25,0.13,0.63,0.13,0.88v5.76c0,1.88-1.25,4.01-2.63,4.88L249.05,357.5z"/>
		<path class="st219" d="M249.17,391.05c0.25,1.25,1.25,1.88,2.5,1.13L302.12,363c1.5-0.75,2.63-3.01,2.63-4.88v-5.76
			c0-2-1.25-2.88-2.63-2H302c0.13,0.25,0.13,0.63,0.13,0.88v5.76c0,1.88-1.25,4.01-2.63,4.88L249.17,391.05z"/>
		<path class="st220" d="M312.64,226.17l-5.26,3.01v-21.28l5.26-3.01V226.17z"/>
		<path class="st220" d="M312.64,259.84l-5.26,3.01v-21.28l5.26-3.01V259.84z"/>
		<path class="st220" d="M312.64,293.52l-5.26,3v-21.28l5.26-3.01V293.52z"/>
		<path class="st220" d="M312.64,327.2l-5.26,3.13v-21.41l5.26-3V327.2z"/>
		<path class="st220" d="M312.64,360.88l-5.26,3.13v-21.28l5.26-3.13V360.88z"/>
		<path class="st86" d="M266.57,342.35c0-0.63,0.38-1.5,0.88-1.75l30.29-17.53c0.5-0.38,0.88,0,0.88,0.63c0,0.63-0.38,1.5-0.88,1.75
			l-30.29,17.53C266.95,343.22,266.45,342.97,266.57,342.35z"/>
		<path class="st86" d="M258.06,244.44c0.63-0.38,1.13-0.13,1.13,0.63c0,0.75-0.5,1.5-1.13,1.88c-0.63,0.38-1.13,0-1.13-0.63
			C256.93,245.57,257.43,244.82,258.06,244.44z"/>
		<path class="st86" d="M262.56,275.49c0.63-0.38,1.13-0.12,1.13,0.63s-0.5,1.5-1.13,1.88c-0.63,0.38-1.13,0-1.13-0.63
			C261.44,276.62,261.94,275.87,262.56,275.49z"/>
		<path class="st86" d="M258.06,312.05c0.63-0.38,1.13-0.12,1.13,0.63c0,0.75-0.5,1.5-1.13,1.88c-0.63,0.38-1.13,0-1.13-0.63
			C256.93,313.18,257.43,312.43,258.06,312.05z"/>
		<path class="st86" d="M258.06,379.4c0.63-0.38,1.13-0.13,1.13,0.63s-0.5,1.5-1.13,1.88c-0.63,0.38-1.13,0-1.13-0.63
			C256.93,380.53,257.43,379.78,258.06,379.4z"/>
		<path class="st12" d="M266.57,240.94c0-0.63,0.38-1.5,0.88-1.75l30.29-17.53c0.5-0.38,0.88,0,0.88,0.63c0,0.63-0.38,1.5-0.88,1.75
			l-30.29,17.53C266.95,241.81,266.45,241.56,266.57,240.94z"/>
		<path class="st12" d="M266.57,274.49c0-0.63,0.38-1.5,0.88-1.75l30.29-17.53c0.5-0.38,0.88,0,0.88,0.63s-0.38,1.5-0.88,1.75
			l-30.29,17.53C266.95,275.37,266.45,274.99,266.57,274.49z"/>
		<path class="st12" d="M266.57,308.29c0-0.63,0.38-1.5,0.88-1.75l30.29-17.53c0.5-0.38,0.88,0,0.88,0.63s-0.38,1.5-0.88,1.75
			l-30.29,17.53C266.95,309.17,266.45,308.79,266.57,308.29z"/>
		<path class="st12" d="M266.57,375.77c0-0.63,0.38-1.5,0.88-1.75l30.29-17.53c0.5-0.38,0.88,0,0.88,0.63c0,0.63-0.38,1.5-0.88,1.75
			l-30.29,17.53C266.95,376.65,266.45,376.4,266.57,375.77z"/>
		<path class="st12" d="M263.19,243.48c0.42-0.72,0.41-1.5-0.01-1.74c-0.42-0.24-1.1,0.14-1.51,0.86c-0.42,0.72-0.41,1.5,0.01,1.74
			C262.1,244.58,262.78,244.19,263.19,243.48z"/>
		<path class="st12" d="M253.55,247.07c0.63-0.38,1.13-0.13,1.13,0.63c0,0.75-0.5,1.5-1.13,1.88c-0.63,0.38-1.13,0-1.13-0.63
			C252.43,248.2,252.8,247.32,253.55,247.07z"/>
		<path class="st12" d="M258.06,278.12c0.63-0.38,1.13-0.12,1.13,0.63s-0.5,1.5-1.13,1.88c-0.63,0.38-1.13,0-1.13-0.63
			C256.93,279.25,257.43,278.5,258.06,278.12z"/>
		<path class="st12" d="M253.55,280.75c0.63-0.38,1.13,0,1.13,0.63c0,0.75-0.5,1.5-1.13,1.88c-0.63,0.38-1.13,0-1.13-0.63
			C252.43,281.88,252.8,281.13,253.55,280.75z"/>
		<path class="st12" d="M262.56,309.42c0.63-0.38,1.13-0.12,1.13,0.63c0,0.75-0.5,1.5-1.13,1.88c-0.63,0.38-1.13,0-1.13-0.63
			C261.44,310.55,261.94,309.8,262.56,309.42z"/>
		<path class="st12" d="M253.55,314.68c0.63-0.38,1.13-0.12,1.13,0.63c0,0.75-0.5,1.5-1.13,1.88c-0.63,0.38-1.13,0-1.13-0.63
			C252.43,315.8,252.8,315.05,253.55,314.68z"/>
		<path class="st12" d="M262.56,342.85c0.63-0.38,1.13-0.12,1.13,0.63c0,0.75-0.5,1.5-1.13,1.88c-0.63,0.38-1.13,0-1.13-0.63
			C261.44,344.1,261.94,343.22,262.56,342.85z"/>
		<path class="st12" d="M258.06,345.48c0.63-0.38,1.13-0.12,1.13,0.63c0,0.75-0.5,1.5-1.13,1.88c-0.63,0.38-1.13,0-1.13-0.63
			C256.93,346.6,257.43,345.85,258.06,345.48z"/>
		<path class="st12" d="M253.55,348.11c0.63-0.38,1.13,0,1.13,0.63c0,0.75-0.5,1.5-1.13,1.88c-0.63,0.38-1.13,0-1.13-0.63
			C252.43,349.23,252.8,348.48,253.55,348.11z"/>
		<path class="st12" d="M262.56,376.78c0.63-0.38,1.13,0,1.13,0.63c0,0.75-0.5,1.5-1.13,1.88c-0.63,0.38-1.13,0-1.13-0.63
			C261.44,377.9,261.94,377.15,262.56,376.78z"/>
		<path class="st12" d="M253.55,382.03c0.63-0.38,1.13-0.12,1.13,0.63c0,0.75-0.5,1.5-1.13,1.88c-0.63,0.38-1.13,0-1.13-0.63
			C252.43,383.16,252.8,382.41,253.55,382.03z"/>
	</g>
	<g>
		<path class="st11" d="M137.41,364.98l37.73-21.83c1.47-0.83,2.68-3.13,2.68-5.11v-90.27c0-1.98-1.21-2.87-2.68-1.98l-37.73,21.77
			c-1.47,0.83-2.68,3.13-2.68,5.11v90.27C134.79,364.91,135.94,365.81,137.41,364.98z"/>
		<path class="st12" d="M136.64,267.11l37.73-21.77c0.83-0.51,1.6-0.38,2.11,0.13c-0.38-0.06-0.83,0-1.28,0.32l-37.73,21.77
			c-1.47,0.83-2.68,3.13-2.68,5.11v90.27c0,0.83,0.19,1.47,0.57,1.85c-0.83-0.13-1.4-0.96-1.4-2.3v-90.27
			C133.96,270.24,135.17,267.94,136.64,267.11z"/>
		
			<linearGradient id="SVGID_00000160163807222305197370000004599758074125782974_" gradientUnits="userSpaceOnUse" x1="-562.7195" y1="-2908.1636" x2="-528.4064" y2="-2902.8538" gradientTransform="matrix(-1 0 0 -1 -387.4783 -2600.261)">
			<stop  offset="0" style="stop-color:#3919BB"/>
			<stop  offset="1" style="stop-color:#6507FA"/>
		</linearGradient>
		<path style="fill:url(#SVGID_00000160163807222305197370000004599758074125782974_);" d="M139.77,359.55l33-19.09
			c1.28-0.77,2.3-2.75,2.3-4.47v-83.82c0-1.72-1.02-2.49-2.3-1.79l-33,19.02c-1.28,0.77-2.3,2.75-2.3,4.47v83.89
			C137.47,359.49,138.49,360.25,139.77,359.55z"/>
		
			<linearGradient id="SVGID_00000159439515381675981090000014909816385622290853_" gradientUnits="userSpaceOnUse" x1="-562.7195" y1="-2908.1636" x2="-528.4064" y2="-2902.8538" gradientTransform="matrix(-1 0 0 -1 -387.4783 -2600.261)">
			<stop  offset="0" style="stop-color:#3919BB"/>
			<stop  offset="1" style="stop-color:#6507FA"/>
		</linearGradient>
		<path style="fill:url(#SVGID_00000159439515381675981090000014909816385622290853_);" d="M139.77,359.55l33-19.09
			c1.28-0.77,2.3-2.75,2.3-4.47v-83.82c0-1.72-1.02-2.49-2.3-1.79l-33,19.02c-1.28,0.77-2.3,2.75-2.3,4.47v83.89
			C137.47,359.49,138.49,360.25,139.77,359.55z"/>
		<path class="st15" d="M139.77,359.55l33-19.09c1.28-0.77,2.3-2.75,2.3-4.47v-83.82c0-1.72-1.02-2.49-2.3-1.79l-33,19.02
			c-1.28,0.77-2.3,2.75-2.3,4.47v83.89C137.47,359.49,138.49,360.25,139.77,359.55z"/>
		<path class="st16" d="M138.75,358.91l32.94-19.09c1.28-0.77,2.3-2.75,2.3-4.47v-83.82c0-0.57-0.13-1.09-0.32-1.4
			c0.83,0,1.4,0.77,1.4,2.04v83.89c0,1.72-1.02,3.7-2.3,4.47l-33,19.02c-0.83,0.51-1.6,0.32-1.98-0.38
			C138.11,359.17,138.43,359.1,138.75,358.91z"/>
		<path class="st17" d="M139.77,320.99l12.26-7.09l19.6,11.3l-34.15,19.73v-19.47C137.47,323.74,138.49,321.76,139.77,320.99z"/>
		<path class="st17" d="M139.77,303.82l12.26-7.09l19.6,11.3l-34.15,19.73v-19.47C137.47,306.56,138.49,304.58,139.77,303.82z"/>
		<path class="st17" d="M139.77,286.64l12.32-7.09l19.53,11.3l-34.15,19.73v-19.47C137.47,289.39,138.49,287.41,139.77,286.64z"/>
		<path class="st17" d="M139.77,269.47l12.32-7.09l19.53,11.3l-34.15,19.73v-19.54C137.47,272.22,138.49,270.17,139.77,269.47z"/>
		<path class="st17" d="M139.77,269.47l27.19-15.71l4.66,2.68l-34.15,19.73v-2.3C137.47,272.22,138.49,270.17,139.77,269.47z"/>
		<path class="st11" d="M137.47,276.17l34.15-19.66v10.85l-34.15,19.73V276.17z"/>
		<path class="st11" d="M137.47,293.41l34.15-19.73v10.85l-34.15,19.73V293.41z"/>
		<path class="st11" d="M137.47,310.58l34.15-19.73v10.85l-34.15,19.73V310.58z"/>
		<path class="st11" d="M137.47,327.76l34.15-19.73v10.85l-34.15,19.73V327.76z"/>
		<path class="st11" d="M137.47,344.93l34.15-19.73v10.85l-34.15,19.73V344.93z"/>
		<path class="st17" d="M140.47,283.2l25.73-14.88c0.7-0.45,1.34-1.53,1.34-2.49v-2.94c0-0.96-0.57-1.4-1.34-1.02l-25.73,14.88
			c-0.7,0.45-1.34,1.53-1.34,2.49v2.94C139.19,283.13,139.77,283.58,140.47,283.2z"/>
		<path class="st18" d="M140.47,300.24l25.73-14.88c0.7-0.45,1.34-1.53,1.34-2.49V280c0-0.96-0.57-1.4-1.34-1.02l-25.73,14.88
			c-0.7,0.45-1.34,1.53-1.34,2.49v2.94C139.19,300.24,139.77,300.69,140.47,300.24z"/>
		<path class="st17" d="M140.47,317.48l25.73-14.87c0.7-0.45,1.34-1.53,1.34-2.49v-2.87c0-0.96-0.57-1.4-1.34-1.02l-25.73,14.88
			c-0.7,0.45-1.34,1.53-1.34,2.49v2.94C139.19,317.48,139.77,317.93,140.47,317.48z"/>
		<path class="st17" d="M140.47,334.91l25.73-14.88c0.7-0.45,1.34-1.53,1.34-2.49v-2.94c0-0.96-0.57-1.4-1.34-1.02l-25.73,14.88
			c-0.7,0.45-1.34,1.53-1.34,2.49v2.94C139.19,334.91,139.77,335.29,140.47,334.91z"/>
		<path class="st17" d="M140.47,351.95l25.73-14.88c0.7-0.45,1.34-1.53,1.34-2.49v-2.87c0-0.96-0.57-1.4-1.34-1.02l-25.73,14.88
			c-0.7,0.45-1.34,1.53-1.34,2.49V351C139.19,351.95,139.77,352.4,140.47,351.95z"/>
		<path class="st19" d="M164.92,267.81c0.7-0.45,1.34-1.53,1.34-2.49v-2.94c0-0.13,0-0.32-0.06-0.45h0.06c0.7-0.45,1.34,0,1.34,1.02
			v2.94c0,0.96-0.57,2.11-1.34,2.49l-25.79,14.81c-0.64,0.38-1.15,0.06-1.28-0.57L164.92,267.81z"/>
		<path class="st19" d="M164.92,284.86c0.7-0.45,1.34-1.53,1.34-2.49v-2.94c0-0.13,0-0.32-0.06-0.45h0.06c0.7-0.45,1.34,0,1.34,1.02
			v2.94c0,0.96-0.57,2.11-1.34,2.49l-25.73,14.88c-0.64,0.38-1.15,0.06-1.28-0.57L164.92,284.86z"/>
		<path class="st19" d="M164.92,302.09c0.7-0.45,1.34-1.53,1.34-2.49v-2.94c0-0.13,0-0.32-0.06-0.45h0.06c0.7-0.45,1.34,0,1.34,1.02
			v2.94c0,0.96-0.57,2.11-1.34,2.49l-25.73,14.88c-0.64,0.38-1.15,0.06-1.28-0.57L164.92,302.09z"/>
		<path class="st19" d="M164.92,319.52c0.7-0.45,1.34-1.53,1.34-2.49v-2.94c0-0.13,0-0.32-0.06-0.45h0.06c0.7-0.45,1.34,0,1.34,1.02
			v2.94c0,0.96-0.57,2.11-1.34,2.49l-25.79,14.81c-0.64,0.38-1.15,0.06-1.28-0.57L164.92,319.52z"/>
		<path class="st19" d="M164.92,336.57c0.7-0.45,1.34-1.53,1.34-2.49v-2.94c0-0.13,0-0.32-0.06-0.45h0.06c0.7-0.45,1.34,0,1.34,1.02
			v2.94c0,0.96-0.57,2.11-1.34,2.49l-25.73,14.88c-0.64,0.38-1.15,0.06-1.28-0.57L164.92,336.57z"/>
		<path class="st11" d="M171.62,256.51l-2.68,1.53v10.85l2.68-1.53V256.51z"/>
		<path class="st11" d="M171.62,273.68l-2.68,1.53v10.85l2.68-1.53V273.68z"/>
		<path class="st11" d="M171.62,290.86l-2.68,1.53v10.85l2.68-1.53V290.86z"/>
		<path class="st11" d="M171.62,308.03l-2.68,1.53v10.92l2.68-1.6V308.03z"/>
		<path class="st11" d="M171.62,325.2l-2.68,1.6v10.85l2.68-1.6V325.2z"/>
		<path class="st20" d="M148.58,326.93l15.45-8.94c0.26-0.13,0.45-0.57,0.45-0.89c0-0.32-0.19-0.51-0.45-0.32l-15.45,8.94
			c-0.26,0.13-0.45,0.57-0.45,0.89C148.07,326.93,148.32,327.06,148.58,326.93z"/>
		<path class="st20" d="M143.21,277.64c0,0.32,0.26,0.51,0.57,0.32c0.32-0.19,0.57-0.57,0.57-0.96c0-0.38-0.26-0.51-0.57-0.32
			C143.47,276.88,143.21,277.26,143.21,277.64z"/>
		<path class="st20" d="M145.51,293.48c0,0.32,0.26,0.51,0.57,0.32c0.32-0.19,0.57-0.57,0.57-0.96c0-0.38-0.26-0.51-0.57-0.32
			C145.77,292.71,145.51,293.09,145.51,293.48z"/>
		<path class="st20" d="M143.21,312.12c0,0.32,0.26,0.51,0.57,0.32c0.32-0.19,0.57-0.57,0.57-0.96c0-0.38-0.26-0.51-0.57-0.32
			C143.47,311.35,143.21,311.73,143.21,312.12z"/>
		<path class="st20" d="M143.21,346.46c0,0.32,0.26,0.51,0.57,0.32c0.32-0.19,0.57-0.57,0.57-0.96c0-0.38-0.26-0.51-0.57-0.32
			C143.47,345.7,143.21,346.08,143.21,346.46z"/>
		<path class="st12" d="M148.58,275.22l15.45-8.94c0.26-0.13,0.45-0.57,0.45-0.89c0-0.32-0.19-0.51-0.45-0.32L148.58,274
			c-0.26,0.13-0.45,0.57-0.45,0.89C148.07,275.22,148.32,275.34,148.58,275.22z"/>
		<path class="st12" d="M148.58,292.33l15.45-8.94c0.26-0.13,0.45-0.57,0.45-0.89c0-0.32-0.19-0.51-0.45-0.32l-15.45,8.94
			c-0.26,0.13-0.45,0.57-0.45,0.89C148.07,292.26,148.32,292.45,148.58,292.33z"/>
		<path class="st12" d="M148.58,309.56l15.45-8.94c0.26-0.13,0.45-0.57,0.45-0.89c0-0.32-0.19-0.51-0.45-0.32l-15.45,8.94
			c-0.26,0.13-0.45,0.57-0.45,0.89C148.07,309.5,148.32,309.69,148.58,309.56z"/>
		<path class="st12" d="M148.58,343.97l15.45-8.94c0.26-0.13,0.45-0.57,0.45-0.89c0-0.32-0.19-0.51-0.45-0.32l-15.45,8.94
			c-0.26,0.13-0.45,0.57-0.45,0.89C148.07,343.97,148.32,344.1,148.58,343.97z"/>
		<path class="st12" d="M145.64,276.63c-0.21-0.12-0.22-0.52,0-0.89c0.21-0.37,0.56-0.56,0.77-0.44c0.21,0.12,0.22,0.52,0,0.89
			C146.2,276.56,145.85,276.75,145.64,276.63z"/>
		<path class="st12" d="M140.92,278.98c0,0.32,0.26,0.51,0.57,0.32c0.32-0.19,0.57-0.57,0.57-0.96c0-0.38-0.26-0.51-0.57-0.32
			C141.11,278.15,140.92,278.6,140.92,278.98z"/>
		<path class="st21" d="M143.21,294.82c0,0.32,0.26,0.51,0.57,0.32c0.32-0.19,0.57-0.57,0.57-0.96s-0.26-0.51-0.57-0.32
			C143.47,294.05,143.21,294.43,143.21,294.82z"/>
		<path class="st12" d="M140.92,296.16c0,0.32,0.26,0.51,0.57,0.32c0.32-0.19,0.57-0.57,0.57-0.96c0-0.32-0.26-0.51-0.57-0.32
			C141.11,295.39,140.92,295.77,140.92,296.16z"/>
		<path class="st12" d="M145.51,310.78c0,0.32,0.26,0.51,0.57,0.32c0.32-0.19,0.57-0.57,0.57-0.96c0-0.38-0.26-0.51-0.57-0.32
			C145.77,310.01,145.51,310.39,145.51,310.78z"/>
		<path class="st12" d="M140.92,313.46c0,0.32,0.26,0.51,0.57,0.32c0.32-0.19,0.57-0.57,0.57-0.96c0-0.38-0.26-0.51-0.57-0.32
			C141.11,312.69,140.92,313.07,140.92,313.46z"/>
		<path class="st12" d="M145.51,327.82c0,0.32,0.26,0.51,0.57,0.32c0.32-0.19,0.57-0.57,0.57-0.96c0-0.38-0.26-0.51-0.57-0.32
			C145.77,327.06,145.51,327.5,145.51,327.82z"/>
		<path class="st12" d="M143.21,329.16c0,0.32,0.26,0.51,0.57,0.32c0.32-0.19,0.57-0.57,0.57-0.96c0-0.38-0.26-0.51-0.57-0.32
			C143.47,328.4,143.21,328.78,143.21,329.16z"/>
		<path class="st12" d="M140.92,330.5c0,0.32,0.26,0.51,0.57,0.32c0.32-0.19,0.57-0.57,0.57-0.96c0-0.32-0.26-0.51-0.57-0.32
			C141.11,329.74,140.92,330.12,140.92,330.5z"/>
		<path class="st12" d="M145.51,345.12c0,0.32,0.26,0.51,0.57,0.32c0.32-0.19,0.57-0.57,0.57-0.96c0-0.32-0.26-0.51-0.57-0.32
			C145.77,344.36,145.51,344.74,145.51,345.12z"/>
		<path class="st12" d="M140.92,347.8c0,0.32,0.26,0.51,0.57,0.32c0.32-0.19,0.57-0.57,0.57-0.96c0-0.38-0.26-0.51-0.57-0.32
			C141.11,347.04,140.92,347.42,140.92,347.8z"/>
		<path class="st22" d="M132.59,220.71c-0.45-0.26-1.08-0.26-1.72,0.13L93.14,242.6c-0.77,0.45-1.4,1.28-1.92,2.23l0.05,0.03
			c-0.5,0.89-0.75,1.9-0.75,2.84v90.27c0,1.02,0.38,1.79,0.89,2.11l0.06,0.06l42.9,24.77l0.13-0.38c-0.6-0.3-1-1.05-1-2.16v-90.27
			c0-0.83,0.22-1.72,0.58-2.53c0,0,1.25-2.1,2.1-2.58l37.73-21.77c0.25-0.15,0.49-0.24,0.73-0.29L132.59,220.71z"/>
		<path class="st23" d="M132.59,220.71c-0.45-0.26-1.08-0.26-1.72,0.13L93.14,242.6c-0.77,0.45-1.4,1.28-1.92,2.23l0.05,0.03
			c-0.5,0.89-0.75,1.9-0.75,2.84v90.27c0,1.02,0.38,1.79,0.89,2.11l0.06,0.06l42.9,24.77l0.13-0.38c-0.6-0.3-1-1.05-1-2.16v-90.27
			c0-0.83,0.22-1.72,0.58-2.53c0,0,1.25-2.1,2.1-2.58l37.73-21.77c0.25-0.15,0.49-0.24,0.73-0.29L132.59,220.71z"/>
		<line class="st24" x1="134.09" y1="269.58" x2="91.28" y2="244.87"/>
	</g>
	<g>
		<path class="st26" d="M319.41,277.67v2.84c0,0,4.81,2.34,8.26,1.6s3.57-2.96,3.33-3.82c0,0-1.73-4.81-1.73-6.16
			c0-1.36,3.08-16.89-0.25-18.61c-3.33-1.73-17.5-1.85-18.12,1.11s-0.25,14.55,0.99,17.26s3.57,6.9,5.92,7.03
			S319.41,277.67,319.41,277.67z"/>
		<path class="st26" d="M286.5,309.85c0,0-0.74-8.51-2.47-9.49s-5.3-3.57-5.3-3.57s-0.37,0.92,0.31,2.28c0,0-4.13,1.6-5.61,4.81
			c0,0,0.25,1.66,1.91,0.62c0,0-1.79,1.6-0.8,2.16c0.99,0.55,2.47-1.6,2.84-0.18s2.71,5.79,4.56,5.86c1.85,0.06,3.33-0.62,3.33-0.62
			L286.5,309.85z"/>
		<path class="st232" d="M305.36,248.83c0,0-0.67,5.76,2.3,7.56c2.97,1.8,8.78,8.05,8.91,9.86l1.28,1.02c0,0,1.72-3.32,3-2.67
			c1.28,0.66,0.53,6.41,0,6.9c0,0,3.41,3.78,4.4,3.78c0.99,0,4.03-3.16,4.03-3.16s3.37-11.96,2.55-14.59
			c-0.82-2.63-3.29-9.7-8.55-8.71l-2.43-1.15C320.84,247.68,313.08,251.13,305.36,248.83z"/>
		<path class="st59" d="M324.96,438.88c0,0,0.45,2.74-0.7,3.56c-1.15,0.82-3.12,1.31-5.42,1.64c-2.3,0.33-9.86-2.54-9.86-2.54
			l-6.57-4.2v-5.92c0,0,2.34-5.15,6.59-2.66s10.5,3.81,10.5,3.81L324.96,438.88z"/>
		<path class="st59" d="M340.86,432.91l0.66,5.42c0,0-3.94,1.81-7.07,2.14c-3.12,0.33-10.03-2.96-10.03-2.96v-9.42l8.55-2.09
			L340.86,432.91z"/>
		<path class="st63" d="M339.97,324.49c0,0-2.86,40.21-1.97,55.99c0.89,15.78,5.57,51.6,5.57,51.6s-1.13,2.02-5.74,3.19
			c-4.61,1.17-9.29,0-9.29,0s-8.72-54.55-7.69-62.68s5.22-42.4,5.22-42.4L339.97,324.49z"/>
		<path class="st100" d="M314.65,327.02c0,0-9.91,32.01-9.35,59.37c0.56,27.37,5.32,52.27,5.32,52.27s5.26,4.19,10.23,2.47
			s5.22-3.94,5.22-3.94s-3.31-57.2-2.58-62.13c0.74-4.93,5.94-27.36,7.59-30.57c1.65-3.2,7.16-12.74,8.89-18.16L314.65,327.02z"/>
		<path class="st12" d="M342.34,314.78c0,0,7.27-2.84,8.01-7.27c0.74-4.44-2.47-29.83-13.93-29.09
			c-11.46,0.74-10.97-0.02-10.97-0.02l-6.04,2.11c0,0-8.75,1.23-11.83,11.09c-3.08,9.86-2.96,21.45-8.38,19.72
			s-10.72-4.19-14.05-1.73c0,0-4.07,3.45-1.73,6.04s10.23,11.34,18.37,9.37c8.14-1.97,10.85-12.08,10.85-12.08s2.8-1.48,2.02,2.47
			c-0.78,3.94-2.88,12.2-2.88,12.2s9.49,5.42,17.87,4.44c8.38-0.99,11.71-7.77,11.71-7.77L342.34,314.78z"/>
	</g>
	<g>
		<path class="st11" d="M179.7,221.31l37.73-21.83c1.47-0.83,2.68-3.13,2.68-5.11V104.1c0-1.98-1.21-2.87-2.68-1.98l-37.73,21.77
			c-1.47,0.83-2.68,3.13-2.68,5.11v90.27C177.08,221.25,178.23,222.14,179.7,221.31z"/>
		<path class="st12" d="M178.93,123.44l37.73-21.77c0.83-0.51,1.6-0.38,2.11,0.13c-0.38-0.06-0.83,0-1.28,0.32l-37.73,21.77
			c-1.47,0.83-2.68,3.13-2.68,5.11v90.27c0,0.83,0.19,1.47,0.57,1.85c-0.83-0.13-1.4-0.96-1.4-2.3v-90.27
			C176.25,126.57,177.47,124.27,178.93,123.44z"/>
		
			<linearGradient id="SVGID_00000114795465059917307370000004930946067263651227_" gradientUnits="userSpaceOnUse" x1="-605.0135" y1="-2764.4956" x2="-570.7004" y2="-2759.1858" gradientTransform="matrix(-1 0 0 -1 -387.4783 -2600.261)">
			<stop  offset="0" style="stop-color:#3919BB"/>
			<stop  offset="1" style="stop-color:#6507FA"/>
		</linearGradient>
		<path style="fill:url(#SVGID_00000114795465059917307370000004930946067263651227_);" d="M182.06,215.88l33-19.09
			c1.28-0.77,2.3-2.75,2.3-4.47V108.5c0-1.72-1.02-2.49-2.3-1.79l-33,19.02c-1.28,0.77-2.3,2.75-2.3,4.47v83.89
			C179.76,215.82,180.78,216.59,182.06,215.88z"/>
		
			<linearGradient id="SVGID_00000032627151283511683990000015669642337989510544_" gradientUnits="userSpaceOnUse" x1="-605.0135" y1="-2764.4956" x2="-570.7004" y2="-2759.1858" gradientTransform="matrix(-1 0 0 -1 -387.4783 -2600.261)">
			<stop  offset="0" style="stop-color:#3919BB"/>
			<stop  offset="1" style="stop-color:#6507FA"/>
		</linearGradient>
		<path style="fill:url(#SVGID_00000032627151283511683990000015669642337989510544_);" d="M182.06,215.88l33-19.09
			c1.28-0.77,2.3-2.75,2.3-4.47V108.5c0-1.72-1.02-2.49-2.3-1.79l-33,19.02c-1.28,0.77-2.3,2.75-2.3,4.47v83.89
			C179.76,215.82,180.78,216.59,182.06,215.88z"/>
		<path class="st15" d="M182.06,215.88l33-19.09c1.28-0.77,2.3-2.75,2.3-4.47V108.5c0-1.72-1.02-2.49-2.3-1.79l-33,19.02
			c-1.28,0.77-2.3,2.75-2.3,4.47v83.89C179.76,215.82,180.78,216.59,182.06,215.88z"/>
		<path class="st16" d="M181.04,215.24l32.94-19.09c1.28-0.77,2.3-2.75,2.3-4.47v-83.82c0-0.57-0.13-1.09-0.32-1.4
			c0.83,0,1.4,0.77,1.4,2.04v83.89c0,1.72-1.02,3.7-2.3,4.47l-33,19.02c-0.83,0.51-1.6,0.32-1.98-0.38
			C180.4,215.5,180.72,215.44,181.04,215.24z"/>
		<path class="st17" d="M182.06,177.32l12.26-7.09l19.6,11.3l-34.15,19.73v-19.47C179.76,180.07,180.78,178.09,182.06,177.32z"/>
		<path class="st17" d="M182.06,160.15l12.26-7.09l19.6,11.3l-34.15,19.73v-19.47C179.76,162.89,180.78,160.92,182.06,160.15z"/>
		<path class="st17" d="M182.06,142.98l12.32-7.09l19.53,11.3l-34.15,19.73v-19.47C179.76,145.72,180.78,143.74,182.06,142.98z"/>
		<path class="st17" d="M182.06,125.8l12.32-7.09l19.53,11.3l-34.15,19.73v-19.54C179.76,128.55,180.78,126.51,182.06,125.8z"/>
		<path class="st17" d="M182.06,125.8l27.19-15.71l4.66,2.68l-34.15,19.73v-2.3C179.76,128.55,180.78,126.51,182.06,125.8z"/>
		<path class="st11" d="M179.76,132.51l34.15-19.66v10.85l-34.15,19.73V132.51z"/>
		<path class="st11" d="M179.76,149.74l34.15-19.73v10.85l-34.15,19.73V149.74z"/>
		<path class="st11" d="M179.76,166.92l34.15-19.73v10.85l-34.15,19.73V166.92z"/>
		<path class="st11" d="M179.76,184.09l34.15-19.73v10.85l-34.15,19.73V184.09z"/>
		<path class="st11" d="M179.76,201.26l34.15-19.73v10.85l-34.15,19.73V201.26z"/>
		<path class="st17" d="M182.76,139.53l25.73-14.88c0.7-0.45,1.34-1.53,1.34-2.49v-2.94c0-0.96-0.57-1.4-1.34-1.02l-25.73,14.88
			c-0.7,0.45-1.34,1.53-1.34,2.49v2.94C181.49,139.47,182.06,139.91,182.76,139.53z"/>
		<path class="st18" d="M182.76,156.57l25.73-14.88c0.7-0.45,1.34-1.53,1.34-2.49v-2.87c0-0.96-0.57-1.4-1.34-1.02l-25.73,14.88
			c-0.7,0.45-1.34,1.53-1.34,2.49v2.94C181.49,156.57,182.06,157.02,182.76,156.57z"/>
		<path class="st17" d="M182.76,173.81l25.73-14.87c0.7-0.45,1.34-1.53,1.34-2.49v-2.87c0-0.96-0.57-1.4-1.34-1.02l-25.73,14.88
			c-0.7,0.45-1.34,1.53-1.34,2.49v2.94C181.49,173.81,182.06,174.26,182.76,173.81z"/>
		<path class="st17" d="M182.76,191.24l25.73-14.88c0.7-0.45,1.34-1.53,1.34-2.49v-2.94c0-0.96-0.57-1.4-1.34-1.02l-25.73,14.88
			c-0.7,0.45-1.34,1.53-1.34,2.49v2.94C181.49,191.24,182.06,191.62,182.76,191.24z"/>
		<path class="st17" d="M182.76,208.29l25.73-14.88c0.7-0.45,1.34-1.53,1.34-2.49v-2.87c0-0.96-0.57-1.4-1.34-1.02l-25.73,14.88
			c-0.7,0.45-1.34,1.53-1.34,2.49v2.94C181.49,208.29,182.06,208.73,182.76,208.29z"/>
		<path class="st19" d="M207.21,124.14c0.7-0.45,1.34-1.53,1.34-2.49v-2.94c0-0.13,0-0.32-0.06-0.45h0.06c0.7-0.45,1.34,0,1.34,1.02
			v2.94c0,0.96-0.57,2.11-1.34,2.49l-25.79,14.81c-0.64,0.38-1.15,0.06-1.28-0.57L207.21,124.14z"/>
		<path class="st19" d="M207.21,141.19c0.7-0.45,1.34-1.53,1.34-2.49v-2.94c0-0.13,0-0.32-0.06-0.45h0.06c0.7-0.45,1.34,0,1.34,1.02
			v2.94c0,0.96-0.57,2.11-1.34,2.49l-25.73,14.88c-0.64,0.38-1.15,0.06-1.28-0.57L207.21,141.19z"/>
		<path class="st19" d="M207.21,158.43c0.7-0.45,1.34-1.53,1.34-2.49V153c0-0.13,0-0.32-0.06-0.45h0.06c0.7-0.45,1.34,0,1.34,1.02
			v2.94c0,0.96-0.57,2.11-1.34,2.49l-25.73,14.88c-0.64,0.38-1.15,0.06-1.28-0.57L207.21,158.43z"/>
		<path class="st19" d="M207.21,175.85c0.7-0.45,1.34-1.53,1.34-2.49v-2.94c0-0.13,0-0.32-0.06-0.45h0.06c0.7-0.45,1.34,0,1.34,1.02
			v2.94c0,0.96-0.57,2.11-1.34,2.49l-25.79,14.81c-0.64,0.38-1.15,0.06-1.28-0.57L207.21,175.85z"/>
		<path class="st19" d="M207.21,192.9c0.7-0.45,1.34-1.53,1.34-2.49v-2.94c0-0.13,0-0.32-0.06-0.45h0.06c0.7-0.45,1.34,0,1.34,1.02
			v2.94c0,0.96-0.57,2.11-1.34,2.49l-25.73,14.88c-0.64,0.38-1.15,0.06-1.28-0.57L207.21,192.9z"/>
		<path class="st11" d="M213.91,112.84l-2.68,1.53v10.85l2.68-1.53V112.84z"/>
		<path class="st11" d="M213.91,130.02l-2.68,1.53v10.85l2.68-1.53V130.02z"/>
		<path class="st11" d="M213.91,147.19l-2.68,1.53v10.85l2.68-1.53V147.19z"/>
		<path class="st11" d="M213.91,164.36l-2.68,1.53v10.92l2.68-1.6V164.36z"/>
		<path class="st11" d="M213.91,181.54l-2.68,1.6v10.85l2.68-1.6V181.54z"/>
		<path class="st20" d="M190.87,183.26l15.45-8.94c0.26-0.13,0.45-0.57,0.45-0.89c0-0.32-0.19-0.51-0.45-0.32l-15.45,8.94
			c-0.26,0.13-0.45,0.57-0.45,0.89C190.36,183.26,190.61,183.39,190.87,183.26z"/>
		<path class="st20" d="M185.51,133.97c0,0.32,0.26,0.51,0.57,0.32c0.32-0.19,0.57-0.57,0.57-0.96s-0.26-0.51-0.57-0.32
			C185.76,133.21,185.51,133.59,185.51,133.97z"/>
		<path class="st20" d="M187.81,149.81c0,0.32,0.26,0.51,0.57,0.32c0.32-0.19,0.57-0.57,0.57-0.96c0-0.38-0.26-0.51-0.57-0.32
			C188.06,149.04,187.81,149.42,187.81,149.81z"/>
		<path class="st20" d="M185.51,168.45c0,0.32,0.26,0.51,0.57,0.32c0.32-0.19,0.57-0.57,0.57-0.96c0-0.38-0.26-0.51-0.57-0.32
			C185.76,167.68,185.51,168.07,185.51,168.45z"/>
		<path class="st20" d="M185.51,202.8c0,0.32,0.26,0.51,0.57,0.32c0.32-0.19,0.57-0.57,0.57-0.96s-0.26-0.51-0.57-0.32
			C185.76,202.03,185.51,202.41,185.51,202.8z"/>
		<path class="st12" d="M190.87,131.55l15.45-8.94c0.26-0.13,0.45-0.57,0.45-0.89c0-0.32-0.19-0.51-0.45-0.32l-15.45,8.94
			c-0.26,0.13-0.45,0.57-0.45,0.89C190.36,131.55,190.61,131.68,190.87,131.55z"/>
		<path class="st12" d="M190.87,148.66l15.45-8.94c0.26-0.13,0.45-0.57,0.45-0.89s-0.19-0.51-0.45-0.32l-15.45,8.94
			c-0.26,0.13-0.45,0.57-0.45,0.89C190.36,148.59,190.61,148.79,190.87,148.66z"/>
		<path class="st12" d="M190.87,165.9l15.45-8.94c0.26-0.13,0.45-0.57,0.45-0.89s-0.19-0.51-0.45-0.32l-15.45,8.94
			c-0.26,0.13-0.45,0.57-0.45,0.89C190.36,165.83,190.61,166.02,190.87,165.9z"/>
		<path class="st12" d="M190.87,200.31l15.45-8.94c0.26-0.13,0.45-0.57,0.45-0.89c0-0.32-0.19-0.51-0.45-0.32l-15.45,8.94
			c-0.26,0.13-0.45,0.57-0.45,0.89C190.36,200.31,190.61,200.43,190.87,200.31z"/>
		<path class="st12" d="M187.93,132.96c-0.21-0.12-0.22-0.52,0-0.89c0.21-0.37,0.56-0.56,0.77-0.44s0.22,0.52,0,0.89
			C188.49,132.89,188.15,133.09,187.93,132.96z"/>
		<path class="st12" d="M183.21,135.32c0,0.32,0.26,0.51,0.57,0.32c0.32-0.19,0.57-0.57,0.57-0.96c0-0.38-0.26-0.51-0.57-0.32
			C183.4,134.49,183.21,134.93,183.21,135.32z"/>
		<path class="st21" d="M185.51,151.15c0,0.32,0.26,0.51,0.57,0.32c0.32-0.19,0.57-0.57,0.57-0.96s-0.26-0.51-0.57-0.32
			C185.76,150.38,185.51,150.76,185.51,151.15z"/>
		<path class="st12" d="M183.21,152.49c0,0.32,0.26,0.51,0.57,0.32c0.32-0.19,0.57-0.57,0.57-0.96c0-0.32-0.26-0.51-0.57-0.32
			C183.4,151.72,183.21,152.11,183.21,152.49z"/>
		<path class="st12" d="M187.81,167.11c0,0.32,0.26,0.51,0.57,0.32c0.32-0.19,0.57-0.57,0.57-0.96c0-0.38-0.26-0.51-0.57-0.32
			C188.06,166.34,187.81,166.73,187.81,167.11z"/>
		<path class="st12" d="M183.21,169.79c0,0.32,0.26,0.51,0.57,0.32c0.32-0.19,0.57-0.57,0.57-0.96c0-0.38-0.26-0.51-0.57-0.32
			C183.4,169.02,183.21,169.41,183.21,169.79z"/>
		<path class="st12" d="M187.81,184.15c0,0.32,0.26,0.51,0.57,0.32c0.32-0.19,0.57-0.57,0.57-0.96s-0.26-0.51-0.57-0.32
			C188.06,183.39,187.81,183.83,187.81,184.15z"/>
		<path class="st12" d="M185.51,185.49c0,0.32,0.26,0.51,0.57,0.32c0.32-0.19,0.57-0.57,0.57-0.96s-0.26-0.51-0.57-0.32
			C185.76,184.73,185.51,185.11,185.51,185.49z"/>
		<path class="st12" d="M183.21,186.84c0,0.32,0.26,0.51,0.57,0.32c0.32-0.19,0.57-0.57,0.57-0.96c0-0.32-0.26-0.51-0.57-0.32
			C183.4,186.07,183.21,186.45,183.21,186.84z"/>
		<path class="st12" d="M187.81,201.45c0,0.32,0.26,0.51,0.57,0.32c0.32-0.19,0.57-0.57,0.57-0.96c0-0.32-0.26-0.51-0.57-0.32
			C188.06,200.69,187.81,201.07,187.81,201.45z"/>
		<path class="st12" d="M183.21,204.14c0,0.32,0.26,0.51,0.57,0.32c0.32-0.19,0.57-0.57,0.57-0.96c0-0.38-0.26-0.51-0.57-0.32
			C183.4,203.37,183.21,203.75,183.21,204.14z"/>
		<path class="st22" d="M174.89,77.04c-0.45-0.26-1.08-0.26-1.72,0.13l-37.73,21.77c-0.77,0.45-1.4,1.28-1.91,2.23l0.05,0.03
			c-0.5,0.89-0.75,1.9-0.75,2.84v90.27c0,1.02,0.38,1.79,0.89,2.11l0.06,0.06l42.9,24.77l0.13-0.38c-0.6-0.3-1-1.05-1-2.16v-90.27
			c0-0.83,0.22-1.72,0.58-2.53c0,0,1.25-2.1,2.1-2.58l37.73-21.77c0.25-0.15,0.49-0.24,0.73-0.29L174.89,77.04z"/>
		<path class="st23" d="M174.89,77.04c-0.45-0.26-1.08-0.26-1.72,0.13l-37.73,21.77c-0.77,0.45-1.4,1.28-1.91,2.23l0.05,0.03
			c-0.5,0.89-0.75,1.9-0.75,2.84v90.27c0,1.02,0.38,1.79,0.89,2.11l0.06,0.06l42.9,24.77l0.13-0.38c-0.6-0.3-1-1.05-1-2.16v-90.27
			c0-0.83,0.22-1.72,0.58-2.53c0,0,1.25-2.1,2.1-2.58l37.73-21.77c0.25-0.15,0.49-0.24,0.73-0.29L174.89,77.04z"/>
		<line class="st24" x1="176.39" y1="125.91" x2="133.57" y2="101.2"/>
	</g>
	<g>
		<path class="st11" d="M274.07,170.78l37.73-21.83c1.47-0.83,2.68-3.13,2.68-5.11V53.57c0-1.98-1.21-2.87-2.68-1.98l-37.73,21.77
			c-1.47,0.83-2.68,3.13-2.68,5.11v90.27C271.46,170.72,272.61,171.61,274.07,170.78z"/>
		<path class="st12" d="M273.31,72.91l37.73-21.77c0.83-0.51,1.6-0.38,2.11,0.13c-0.38-0.06-0.83,0-1.28,0.32l-37.73,21.77
			c-1.47,0.83-2.68,3.13-2.68,5.11v90.27c0,0.83,0.19,1.47,0.57,1.85c-0.83-0.13-1.4-0.96-1.4-2.3V78.02
			C270.63,76.04,271.84,73.74,273.31,72.91z"/>
		
			<linearGradient id="SVGID_00000078765873418319869900000005031120091365673642_" gradientUnits="userSpaceOnUse" x1="-699.3888" y1="-2713.969" x2="-665.0757" y2="-2708.6592" gradientTransform="matrix(-1 0 0 -1 -387.4783 -2600.261)">
			<stop  offset="0" style="stop-color:#3919BB"/>
			<stop  offset="1" style="stop-color:#6507FA"/>
		</linearGradient>
		<path style="fill:url(#SVGID_00000078765873418319869900000005031120091365673642_);" d="M276.44,165.36l33-19.09
			c1.28-0.77,2.3-2.75,2.3-4.47V57.98c0-1.72-1.02-2.49-2.3-1.79l-33,19.02c-1.28,0.77-2.3,2.75-2.3,4.47v83.89
			C274.14,165.29,275.16,166.06,276.44,165.36z"/>
		
			<linearGradient id="SVGID_00000168107497802866088790000004542087351573701018_" gradientUnits="userSpaceOnUse" x1="-699.3888" y1="-2713.969" x2="-665.0757" y2="-2708.6592" gradientTransform="matrix(-1 0 0 -1 -387.4783 -2600.261)">
			<stop  offset="0" style="stop-color:#3919BB"/>
			<stop  offset="1" style="stop-color:#6507FA"/>
		</linearGradient>
		<path style="fill:url(#SVGID_00000168107497802866088790000004542087351573701018_);" d="M276.44,165.36l33-19.09
			c1.28-0.77,2.3-2.75,2.3-4.47V57.98c0-1.72-1.02-2.49-2.3-1.79l-33,19.02c-1.28,0.77-2.3,2.75-2.3,4.47v83.89
			C274.14,165.29,275.16,166.06,276.44,165.36z"/>
		<path class="st15" d="M276.44,165.36l33-19.09c1.28-0.77,2.3-2.75,2.3-4.47V57.98c0-1.72-1.02-2.49-2.3-1.79l-33,19.02
			c-1.28,0.77-2.3,2.75-2.3,4.47v83.89C274.14,165.29,275.16,166.06,276.44,165.36z"/>
		<path class="st16" d="M275.42,164.72l32.94-19.09c1.28-0.77,2.3-2.75,2.3-4.47V57.34c0-0.57-0.13-1.09-0.32-1.4
			c0.83,0,1.4,0.77,1.4,2.04v83.89c0,1.72-1.02,3.7-2.3,4.47l-33,19.02c-0.83,0.51-1.6,0.32-1.98-0.38
			C274.78,164.97,275.1,164.91,275.42,164.72z"/>
		<path class="st17" d="M276.44,126.8l12.26-7.09l19.6,11.3l-34.15,19.73v-19.47C274.14,129.54,275.16,127.56,276.44,126.8z"/>
		<path class="st17" d="M276.44,109.62l12.26-7.09l19.6,11.3l-34.15,19.73v-19.47C274.14,112.37,275.16,110.39,276.44,109.62z"/>
		<path class="st17" d="M276.44,92.45l12.32-7.09l19.53,11.3l-34.15,19.73V96.92C274.14,95.19,275.16,93.22,276.44,92.45z"/>
		<path class="st17" d="M276.44,75.28l12.32-7.09l19.53,11.3l-34.15,19.73V79.68C274.14,78.02,275.16,75.98,276.44,75.28z"/>
		<path class="st17" d="M276.44,75.28l27.19-15.71l4.66,2.68l-34.15,19.73v-2.3C274.14,78.02,275.16,75.98,276.44,75.28z"/>
		<path class="st11" d="M274.14,81.98l34.15-19.66v10.85L274.14,92.9V81.98z"/>
		<path class="st11" d="M274.14,99.22l34.15-19.73v10.85l-34.15,19.73V99.22z"/>
		<path class="st11" d="M274.14,116.39l34.15-19.73v10.85l-34.15,19.73V116.39z"/>
		<path class="st11" d="M274.14,133.56l34.15-19.73v10.85l-34.15,19.73V133.56z"/>
		<path class="st11" d="M274.14,150.74l34.15-19.73v10.85l-34.15,19.73V150.74z"/>
		<path class="st17" d="M277.14,89l25.73-14.88c0.7-0.45,1.34-1.53,1.34-2.49V68.7c0-0.96-0.57-1.4-1.34-1.02l-25.73,14.88
			c-0.7,0.45-1.34,1.53-1.34,2.49v2.94C275.86,88.94,276.44,89.39,277.14,89z"/>
		<path class="st18" d="M277.14,106.05l25.73-14.88c0.7-0.45,1.34-1.53,1.34-2.49v-2.87c0-0.96-0.57-1.4-1.34-1.02l-25.73,14.88
			c-0.7,0.45-1.34,1.53-1.34,2.49v2.94C275.86,106.05,276.44,106.49,277.14,106.05z"/>
		<path class="st17" d="M277.14,123.28l25.73-14.87c0.7-0.45,1.34-1.53,1.34-2.49v-2.87c0-0.96-0.57-1.4-1.34-1.02l-25.73,14.88
			c-0.7,0.45-1.34,1.53-1.34,2.49v2.94C275.86,123.28,276.44,123.73,277.14,123.28z"/>
		<path class="st17" d="M277.14,140.71l25.73-14.88c0.7-0.45,1.34-1.53,1.34-2.49v-2.94c0-0.96-0.57-1.4-1.34-1.02l-25.73,14.88
			c-0.7,0.45-1.34,1.53-1.34,2.49v2.94C275.86,140.71,276.44,141.1,277.14,140.71z"/>
		<path class="st17" d="M277.14,157.76l25.73-14.88c0.7-0.45,1.34-1.53,1.34-2.49v-2.87c0-0.96-0.57-1.4-1.34-1.02l-25.73,14.88
			c-0.7,0.45-1.34,1.53-1.34,2.49v2.94C275.86,157.76,276.44,158.21,277.14,157.76z"/>
		<path class="st19" d="M301.59,73.62c0.7-0.45,1.34-1.53,1.34-2.49v-2.94c0-0.13,0-0.32-0.06-0.45h0.06c0.7-0.45,1.34,0,1.34,1.02
			v2.94c0,0.96-0.57,2.11-1.34,2.49L277.14,89c-0.64,0.38-1.15,0.06-1.28-0.57L301.59,73.62z"/>
		<path class="st19" d="M301.59,90.66c0.7-0.45,1.34-1.53,1.34-2.49v-2.94c0-0.13,0-0.32-0.06-0.45h0.06c0.7-0.45,1.34,0,1.34,1.02
			v2.94c0,0.96-0.57,2.11-1.34,2.49l-25.73,14.88c-0.64,0.38-1.15,0.06-1.28-0.57L301.59,90.66z"/>
		<path class="st19" d="M301.59,107.9c0.7-0.45,1.34-1.53,1.34-2.49v-2.94c0-0.13,0-0.32-0.06-0.45h0.06c0.7-0.45,1.34,0,1.34,1.02
			v2.94c0,0.96-0.57,2.11-1.34,2.49l-25.73,14.88c-0.64,0.38-1.15,0.06-1.28-0.57L301.59,107.9z"/>
		<path class="st19" d="M301.59,125.33c0.7-0.45,1.34-1.53,1.34-2.49v-2.94c0-0.13,0-0.32-0.06-0.45h0.06c0.7-0.45,1.34,0,1.34,1.02
			v2.94c0,0.96-0.57,2.11-1.34,2.49l-25.79,14.81c-0.64,0.38-1.15,0.06-1.28-0.57L301.59,125.33z"/>
		<path class="st19" d="M301.59,142.37c0.7-0.45,1.34-1.53,1.34-2.49v-2.94c0-0.13,0-0.32-0.06-0.45h0.06c0.7-0.45,1.34,0,1.34,1.02
			v2.94c0,0.96-0.57,2.11-1.34,2.49l-25.73,14.88c-0.64,0.38-1.15,0.06-1.28-0.57L301.59,142.37z"/>
		<path class="st11" d="M308.29,62.32l-2.68,1.53V74.7l2.68-1.53V62.32z"/>
		<path class="st11" d="M308.29,79.49l-2.68,1.53v10.85l2.68-1.53V79.49z"/>
		<path class="st11" d="M308.29,96.66l-2.68,1.53v10.85l2.68-1.53V96.66z"/>
		<path class="st11" d="M308.29,113.84l-2.68,1.53v10.92l2.68-1.6V113.84z"/>
		<path class="st11" d="M308.29,131.01l-2.68,1.6v10.85l2.68-1.6V131.01z"/>
		<path class="st20" d="M285.25,132.73l15.45-8.94c0.26-0.13,0.45-0.57,0.45-0.89c0-0.32-0.19-0.51-0.45-0.32l-15.45,8.94
			c-0.26,0.13-0.45,0.57-0.45,0.89C284.74,132.73,284.99,132.86,285.25,132.73z"/>
		<path class="st20" d="M279.88,83.45c0,0.32,0.26,0.51,0.57,0.32c0.32-0.19,0.57-0.57,0.57-0.96c0-0.38-0.26-0.51-0.57-0.32
			C280.14,82.68,279.88,83.07,279.88,83.45z"/>
		<path class="st20" d="M282.18,99.28c0,0.32,0.26,0.51,0.57,0.32c0.32-0.19,0.57-0.57,0.57-0.96c0-0.38-0.26-0.51-0.57-0.32
			C282.44,98.51,282.18,98.9,282.18,99.28z"/>
		<path class="st20" d="M279.88,117.92c0,0.32,0.26,0.51,0.57,0.32c0.32-0.19,0.57-0.57,0.57-0.96c0-0.38-0.26-0.51-0.57-0.32
			C280.14,117.16,279.88,117.54,279.88,117.92z"/>
		<path class="st20" d="M279.88,152.27c0,0.32,0.26,0.51,0.57,0.32c0.32-0.19,0.57-0.57,0.57-0.96c0-0.38-0.26-0.51-0.57-0.32
			C280.14,151.5,279.88,151.89,279.88,152.27z"/>
		<path class="st12" d="M285.25,81.02l15.45-8.94c0.26-0.13,0.45-0.57,0.45-0.89c0-0.32-0.19-0.51-0.45-0.32l-15.45,8.94
			c-0.26,0.13-0.45,0.57-0.45,0.89C284.74,81.02,284.99,81.15,285.25,81.02z"/>
		<path class="st12" d="M285.25,98.13l15.45-8.94c0.26-0.13,0.45-0.57,0.45-0.89s-0.19-0.51-0.45-0.32l-15.45,8.94
			c-0.26,0.13-0.45,0.57-0.45,0.89C284.74,98.07,284.99,98.26,285.25,98.13z"/>
		<path class="st12" d="M285.25,115.37l15.45-8.94c0.26-0.13,0.45-0.57,0.45-0.89c0-0.32-0.19-0.51-0.45-0.32l-15.45,8.94
			c-0.26,0.13-0.45,0.57-0.45,0.89C284.74,115.3,284.99,115.5,285.25,115.37z"/>
		<path class="st12" d="M285.25,149.78l15.45-8.94c0.26-0.13,0.45-0.57,0.45-0.89c0-0.32-0.19-0.51-0.45-0.32l-15.45,8.94
			c-0.26,0.13-0.45,0.57-0.45,0.89C284.74,149.78,284.99,149.91,285.25,149.78z"/>
		<path class="st12" d="M282.31,82.44c-0.21-0.12-0.22-0.52,0-0.89c0.21-0.37,0.56-0.56,0.77-0.44c0.21,0.12,0.22,0.52,0,0.89
			C282.87,82.36,282.52,82.56,282.31,82.44z"/>
		<path class="st12" d="M277.59,84.79c0,0.32,0.26,0.51,0.57,0.32c0.32-0.19,0.57-0.57,0.57-0.96s-0.26-0.51-0.57-0.32
			C277.78,83.96,277.59,84.41,277.59,84.79z"/>
		<path class="st21" d="M279.88,100.62c0,0.32,0.26,0.51,0.57,0.32c0.32-0.19,0.57-0.57,0.57-0.96c0-0.38-0.26-0.51-0.57-0.32
			C280.14,99.86,279.88,100.24,279.88,100.62z"/>
		<path class="st12" d="M277.59,101.96c0,0.32,0.26,0.51,0.57,0.32c0.32-0.19,0.57-0.57,0.57-0.96c0-0.32-0.26-0.51-0.57-0.32
			C277.78,101.2,277.59,101.58,277.59,101.96z"/>
		<path class="st12" d="M282.18,116.58c0,0.32,0.26,0.51,0.57,0.32c0.32-0.19,0.57-0.57,0.57-0.96c0-0.38-0.26-0.51-0.57-0.32
			C282.44,115.82,282.18,116.2,282.18,116.58z"/>
		<path class="st12" d="M277.59,119.26c0,0.32,0.26,0.51,0.57,0.32c0.32-0.19,0.57-0.57,0.57-0.96c0-0.38-0.26-0.51-0.57-0.32
			C277.78,118.5,277.59,118.88,277.59,119.26z"/>
		<path class="st12" d="M282.18,133.63c0,0.32,0.26,0.51,0.57,0.32c0.32-0.19,0.57-0.57,0.57-0.96s-0.26-0.51-0.57-0.32
			C282.44,132.86,282.18,133.31,282.18,133.63z"/>
		<path class="st12" d="M279.88,134.97c0,0.32,0.26,0.51,0.57,0.32c0.32-0.19,0.57-0.57,0.57-0.96s-0.26-0.51-0.57-0.32
			C280.14,134.2,279.88,134.59,279.88,134.97z"/>
		<path class="st12" d="M277.59,136.31c0,0.32,0.26,0.51,0.57,0.32c0.32-0.19,0.57-0.57,0.57-0.96c0-0.32-0.26-0.51-0.57-0.32
			C277.78,135.54,277.59,135.93,277.59,136.31z"/>
		<path class="st12" d="M282.18,150.93c0,0.32,0.26,0.51,0.57,0.32c0.32-0.19,0.57-0.57,0.57-0.96c0-0.32-0.26-0.51-0.57-0.32
			C282.44,150.16,282.18,150.55,282.18,150.93z"/>
		<path class="st12" d="M277.59,153.61c0,0.32,0.26,0.51,0.57,0.32c0.32-0.19,0.57-0.57,0.57-0.96c0-0.38-0.26-0.51-0.57-0.32
			C277.78,152.84,277.59,153.23,277.59,153.61z"/>
		<path class="st22" d="M269.26,26.51c-0.45-0.26-1.08-0.26-1.72,0.13l-37.73,21.77c-0.77,0.45-1.4,1.28-1.91,2.23l0.05,0.03
			c-0.5,0.89-0.75,1.9-0.75,2.84v90.27c0,1.02,0.38,1.79,0.89,2.11l0.06,0.06l42.9,24.77l0.13-0.38c-0.6-0.3-1-1.05-1-2.16V77.92
			c0-0.83,0.22-1.72,0.58-2.53c0,0,1.25-2.1,2.1-2.58l37.73-21.77c0.25-0.15,0.49-0.24,0.73-0.29L269.26,26.51z"/>
		<path class="st23" d="M269.26,26.51c-0.45-0.26-1.08-0.26-1.72,0.13l-37.73,21.77c-0.77,0.45-1.4,1.28-1.91,2.23l0.05,0.03
			c-0.5,0.89-0.75,1.9-0.75,2.84v90.27c0,1.02,0.38,1.79,0.89,2.11l0.06,0.06l42.9,24.77l0.13-0.38c-0.6-0.3-1-1.05-1-2.16V77.92
			c0-0.83,0.22-1.72,0.58-2.53c0,0,1.25-2.1,2.1-2.58l37.73-21.77c0.25-0.15,0.49-0.24,0.73-0.29L269.26,26.51z"/>
		<line class="st24" x1="270.76" y1="75.39" x2="227.95" y2="50.67"/>
	</g>
</g>
<g id="Layer_2">
</g>
</svg>
