<svg width="90" height="90" viewBox="0 0 90 90" fill="none" xmlns="http://www.w3.org/2000/svg">
<path d="M43.5938 69.0842V67.3222C43.7515 67.2815 43.9076 67.234 44.062 67.1796L43.1255 64.5278C42.8243 64.634 42.507 64.688 42.1875 64.6875H8.4375C7.69185 64.6866 6.97696 64.39 6.44971 63.8629C5.92245 63.3355 5.62585 62.6206 5.625 61.875V59.0625C5.62585 58.3169 5.92245 57.602 6.44971 57.0746C6.97696 56.5475 7.69185 56.2509 8.4375 56.25H32.3438V53.4375H16.875V52.0312H35.1562V49.2188H8.4375C7.69185 49.2178 6.97696 48.9213 6.44971 48.3941C5.92245 47.8667 5.62585 47.1519 5.625 46.4062V43.5938C5.62585 42.8481 5.92245 42.1333 6.44971 41.6059C6.97696 41.0787 7.69185 40.7822 8.4375 40.7812H42.1875C42.7691 40.7817 43.3364 40.9622 43.8113 41.2979C44.2863 41.6336 44.6456 42.1081 44.8403 42.6562L47.4921 41.7188C47.1031 40.6226 46.3844 39.6738 45.4347 39.0024C44.485 38.331 43.3505 37.9699 42.1875 37.9688H8.4375C6.94618 37.9705 5.51641 38.5637 4.46188 39.6182C3.40738 40.6726 2.81419 42.1024 2.8125 43.5938V46.4062C2.8141 47.653 3.22907 48.8639 3.99247 49.8496C4.75587 50.8351 5.82457 51.5399 7.03125 51.8533V53.6155C5.82457 53.9289 4.75587 54.6336 3.99247 55.6191C3.22907 56.6048 2.8141 57.8158 2.8125 59.0625V61.875C2.8141 63.1217 3.22907 64.3327 3.99247 65.3184C4.75587 66.3039 5.82457 67.0086 7.03125 67.322V69.0842C5.82457 69.3976 4.75587 70.1024 3.99247 71.0879C3.22907 72.0736 2.8141 73.2845 2.8125 74.5312V77.3438C2.8141 78.5905 3.22907 79.8014 3.99247 80.7871C4.75587 81.7726 5.82457 82.4773 7.03125 82.7908V85.7812C7.03125 86.1543 7.17941 86.5118 7.44313 86.7755C7.70686 87.0392 8.06454 87.1875 8.4375 87.1875H15.4688C15.8417 87.1875 16.1994 87.0392 16.4631 86.7755C16.7268 86.5118 16.875 86.1543 16.875 85.7812V82.9688H33.75V85.7812C33.75 86.1543 33.8983 86.5118 34.162 86.7755C34.4257 87.0392 34.7832 87.1875 35.1562 87.1875H42.1875C42.5606 87.1875 42.9181 87.0392 43.1818 86.7755C43.4455 86.5118 43.5938 86.1543 43.5938 85.7812V82.7908C44.8004 82.4773 45.8692 81.7726 46.6326 80.7871C47.396 79.8014 47.8109 78.5905 47.8125 77.3438V74.5312C47.8109 73.2845 47.396 72.0736 46.6326 71.0879C45.8692 70.1024 44.8004 69.3976 43.5938 69.0842ZM14.0625 53.4375H9.84375V52.0312H14.0625V53.4375ZM9.84375 68.9062V67.5H14.0625V68.9062H9.84375ZM16.875 67.5H33.75V68.9062H16.875V67.5ZM36.5625 67.5H40.7812V68.9062H36.5625V67.5ZM14.0625 84.375H9.84375V82.9688H14.0625V84.375ZM36.5625 84.375V82.9688H40.7812V84.375H36.5625ZM45 77.3438C44.9991 78.0894 44.7025 78.8042 44.1754 79.3316C43.648 79.8588 42.9332 80.1553 42.1875 80.1562H8.4375C7.69185 80.1553 6.97696 79.8588 6.44971 79.3316C5.92245 78.8042 5.62585 78.0894 5.625 77.3438V74.5312C5.62585 73.7856 5.92245 73.0708 6.44971 72.5434C6.97696 72.0162 7.69185 71.7197 8.4375 71.7188H42.1875C42.9332 71.7197 43.648 72.0162 44.1754 72.5434C44.7025 73.0708 44.9991 73.7856 45 74.5312V77.3438Z" fill="#1DA0FA"/>
<path d="M8.4375 77.3438C9.21415 77.3438 9.84375 76.7142 9.84375 75.9375C9.84375 75.1608 9.21415 74.5312 8.4375 74.5312C7.66084 74.5312 7.03125 75.1608 7.03125 75.9375C7.03125 76.7142 7.66084 77.3438 8.4375 77.3438Z" fill="#1DA0FA"/>
<path d="M12.6562 77.3438C13.4329 77.3438 14.0625 76.7142 14.0625 75.9375C14.0625 75.1608 13.4329 74.5312 12.6562 74.5312C11.8796 74.5312 11.25 75.1608 11.25 75.9375C11.25 76.7142 11.8796 77.3438 12.6562 77.3438Z" fill="#1DA0FA"/>
<path d="M16.875 77.3438C17.6517 77.3438 18.2812 76.7142 18.2812 75.9375C18.2812 75.1608 17.6517 74.5312 16.875 74.5312C16.0983 74.5312 15.4688 75.1608 15.4688 75.9375C15.4688 76.7142 16.0983 77.3438 16.875 77.3438Z" fill="#1DA0FA"/>
<path d="M42.1875 74.5312H33.75V77.3438H42.1875V74.5312Z" fill="#1DA0FA"/>
<path d="M8.4375 61.875C9.21415 61.875 9.84375 61.2455 9.84375 60.4688C9.84375 59.692 9.21415 59.0625 8.4375 59.0625C7.66084 59.0625 7.03125 59.692 7.03125 60.4688C7.03125 61.2455 7.66084 61.875 8.4375 61.875Z" fill="#1DA0FA"/>
<path d="M12.6562 61.875C13.4329 61.875 14.0625 61.2455 14.0625 60.4688C14.0625 59.692 13.4329 59.0625 12.6562 59.0625C11.8796 59.0625 11.25 59.692 11.25 60.4688C11.25 61.2455 11.8796 61.875 12.6562 61.875Z" fill="#1DA0FA"/>
<path d="M16.875 61.875C17.6517 61.875 18.2812 61.2455 18.2812 60.4688C18.2812 59.692 17.6517 59.0625 16.875 59.0625C16.0983 59.0625 15.4688 59.692 15.4688 60.4688C15.4688 61.2455 16.0983 61.875 16.875 61.875Z" fill="#1DA0FA"/>
<path d="M8.4375 46.4062C9.21415 46.4062 9.84375 45.7767 9.84375 45C9.84375 44.2233 9.21415 43.5938 8.4375 43.5938C7.66084 43.5938 7.03125 44.2233 7.03125 45C7.03125 45.7767 7.66084 46.4062 8.4375 46.4062Z" fill="#1DA0FA"/>
<path d="M12.6562 46.4062C13.4329 46.4062 14.0625 45.7767 14.0625 45C14.0625 44.2233 13.4329 43.5938 12.6562 43.5938C11.8796 43.5938 11.25 44.2233 11.25 45C11.25 45.7767 11.8796 46.4062 12.6562 46.4062Z" fill="#1DA0FA"/>
<path d="M16.875 46.4062C17.6517 46.4062 18.2812 45.7767 18.2812 45C18.2812 44.2233 17.6517 43.5938 16.875 43.5938C16.0983 43.5938 15.4688 44.2233 15.4688 45C15.4688 45.7767 16.0983 46.4062 16.875 46.4062Z" fill="#1DA0FA"/>
<path d="M42.1875 43.5938H33.75V46.4062H42.1875V43.5938Z" fill="#1DA0FA"/>
<path d="M56.25 42.1875C57.0267 42.1875 57.6562 41.558 57.6562 40.7812C57.6562 40.0045 57.0267 39.375 56.25 39.375C55.4733 39.375 54.8438 40.0045 54.8438 40.7812C54.8438 41.558 55.4733 42.1875 56.25 42.1875Z" fill="#1DA0FA"/>
<path d="M81.5625 39.375H73.125V42.1875H81.5625V39.375Z" fill="#1DA0FA"/>
<path d="M52.0312 26.7188C52.808 26.7188 53.4375 26.0892 53.4375 25.3125C53.4375 24.5358 52.808 23.9062 52.0312 23.9062C51.2545 23.9062 50.625 24.5358 50.625 25.3125C50.625 26.0892 51.2545 26.7188 52.0312 26.7188Z" fill="#1DA0FA"/>
<path d="M56.25 26.7188C57.0267 26.7188 57.6562 26.0892 57.6562 25.3125C57.6562 24.5358 57.0267 23.9062 56.25 23.9062C55.4733 23.9062 54.8438 24.5358 54.8438 25.3125C54.8438 26.0892 55.4733 26.7188 56.25 26.7188Z" fill="#1DA0FA"/>
<path d="M81.5625 23.9062H73.125V26.7188H81.5625V23.9062Z" fill="#1DA0FA"/>
<path d="M87.1875 11.25V8.4375C87.1857 6.94618 86.5926 5.51641 85.538 4.46188C84.4837 3.40738 83.0538 2.81419 81.5625 2.8125H47.8125C46.3212 2.81419 44.8913 3.40738 43.837 4.46188C42.7824 5.51641 42.1893 6.94618 42.1875 8.4375V11.25C42.1891 12.4967 42.604 13.7077 43.3674 14.6933C44.1308 15.679 45.1996 16.3836 46.4062 16.697V19.6875C46.4062 20.0605 46.5545 20.4181 46.8182 20.6819C47.0819 20.9456 47.4394 21.0938 47.8125 21.0938H81.5625C82.3082 21.0946 83.023 21.3912 83.5504 21.9185C84.0775 22.4457 84.3741 23.1606 84.375 23.9062V26.7188C84.3741 27.4644 84.0775 28.1792 83.5504 28.7066C83.023 29.2338 82.3082 29.5303 81.5625 29.5312H54.8438V32.3438H73.125V33.75H57.6562V36.5625H81.5625C82.3082 36.5634 83.023 36.86 83.5504 37.3871C84.0775 37.9145 84.3741 38.6293 84.375 39.375V42.1875C84.3741 42.9332 84.0775 43.648 83.5504 44.1754C83.023 44.7025 82.3082 44.9991 81.5625 45H61.875V47.8125H73.125V50.625C73.125 50.9981 73.2733 51.3556 73.537 51.6193C73.8007 51.883 74.1582 52.0312 74.5312 52.0312H81.5625C81.9356 52.0312 82.2931 51.883 82.5568 51.6193C82.8205 51.3556 82.9688 50.9981 82.9688 50.625V47.6345C84.1754 47.3211 85.2442 46.6164 86.0076 45.6309C86.771 44.6452 87.1859 43.4342 87.1875 42.1875V39.375C87.1859 38.1283 86.771 36.9173 86.0076 35.9316C85.2442 34.9461 84.1754 34.2414 82.9688 33.928V32.1658C84.1754 31.8524 85.2442 31.1476 86.0076 30.1622C86.771 29.1764 87.1859 27.9655 87.1875 26.7188V23.9062C87.1859 22.6595 86.771 21.4486 86.0076 20.4629C85.2442 19.4773 84.1754 18.7726 82.9688 18.4593V16.697C84.1754 16.3836 85.2442 15.679 86.0076 14.6933C86.771 13.7077 87.1859 12.4967 87.1875 11.25ZM75.9375 49.2188V47.8125H80.1562V49.2188H75.9375ZM75.9375 32.3438H80.1562V33.75H75.9375V32.3438ZM73.125 16.875V18.2812H56.25V16.875H73.125ZM75.9375 16.875H80.1562V18.2812H75.9375V16.875ZM45 11.25V8.4375C45.0009 7.69185 45.2975 6.97696 45.8246 6.44971C46.352 5.92245 47.0669 5.62585 47.8125 5.625H81.5625C82.3082 5.62585 83.023 5.92245 83.5504 6.44971C84.0775 6.97696 84.3741 7.69185 84.375 8.4375V11.25C84.3741 11.9957 84.0775 12.7105 83.5504 13.2378C83.023 13.765 82.3082 14.0616 81.5625 14.0625H47.8125C47.0669 14.0616 46.352 13.765 45.8246 13.2378C45.2975 12.7105 45.0009 11.9957 45 11.25ZM49.2188 16.875H53.4375V18.2812H49.2188V16.875Z" fill="#1DA0FA"/>
<path d="M47.8125 11.25C48.5892 11.25 49.2188 10.6204 49.2188 9.84375C49.2188 9.06709 48.5892 8.4375 47.8125 8.4375C47.0358 8.4375 46.4062 9.06709 46.4062 9.84375C46.4062 10.6204 47.0358 11.25 47.8125 11.25Z" fill="#1DA0FA"/>
<path d="M52.0312 11.25C52.808 11.25 53.4375 10.6204 53.4375 9.84375C53.4375 9.06709 52.808 8.4375 52.0312 8.4375C51.2545 8.4375 50.625 9.06709 50.625 9.84375C50.625 10.6204 51.2545 11.25 52.0312 11.25Z" fill="#1DA0FA"/>
<path d="M56.25 11.25C57.0267 11.25 57.6562 10.6204 57.6562 9.84375C57.6562 9.06709 57.0267 8.4375 56.25 8.4375C55.4733 8.4375 54.8438 9.06709 54.8438 9.84375C54.8438 10.6204 55.4733 11.25 56.25 11.25Z" fill="#1DA0FA"/>
<path d="M81.5625 8.4375H73.125V11.25H81.5625V8.4375Z" fill="#1DA0FA"/>
<path d="M50.6251 43.5935C49.1169 43.591 47.6357 43.9938 46.3363 44.7592C45.037 45.5249 43.9673 46.6256 43.2388 47.9461C42.6155 47.7853 41.9637 47.7693 41.3332 47.8993C40.703 48.0294 40.1108 48.3021 39.6021 48.6963C39.0934 49.0907 38.6816 49.5963 38.3986 50.1743C38.1155 50.7523 37.9684 51.3875 37.9688 52.031C37.9688 52.0902 37.9722 52.1489 37.9747 52.2076C36.6483 52.5487 35.4918 53.3619 34.7221 54.495C33.9526 55.6279 33.6227 57.0028 33.7946 58.3616C33.9663 59.7204 34.628 60.9698 35.6554 61.8757C36.6829 62.7813 38.0055 63.281 39.3751 63.2812H57.6563C59.0257 63.281 60.3478 62.7815 61.3751 61.8763C62.4025 60.9709 63.0644 59.722 63.2365 58.3636C63.4089 57.0051 63.0799 55.6306 62.3111 54.4975C61.5423 53.3644 60.3867 52.5505 59.0608 52.2085C59.0619 52.1494 59.0626 52.0904 59.0626 52.031C59.0601 49.7941 58.1702 47.6494 56.5885 46.0676C55.0067 44.4859 52.862 43.5962 50.6251 43.5935ZM60.4688 57.656C60.4679 58.4019 60.1714 59.1167 59.6442 59.6439C59.1168 60.1713 58.402 60.4678 57.6563 60.4685H39.3751C38.9192 60.4685 38.4701 60.3578 38.0667 60.1456C37.663 59.9337 37.3172 59.6266 37.0587 59.251C36.8002 58.8757 36.6368 58.4428 36.5826 57.9904C36.5284 57.5377 36.5851 57.0787 36.7477 56.6527C36.9104 56.2268 37.1741 55.847 37.5161 55.5455C37.8583 55.2442 38.2685 55.0307 38.7115 54.9232C39.1546 54.8154 39.6169 54.8172 40.0591 54.9281C40.5014 55.0388 40.91 55.2555 41.2498 55.5595L43.1256 53.4638C42.4589 52.8671 41.6593 52.4387 40.7935 52.2137C40.7671 52.0153 40.7838 51.8137 40.8418 51.6222C40.8999 51.4305 40.9982 51.2536 41.1303 51.1031C41.2621 50.9528 41.4248 50.8322 41.6073 50.7499C41.7895 50.6673 41.9875 50.6248 42.1876 50.6248C42.5066 50.6236 42.8164 50.7319 43.0648 50.9319C43.2421 51.0739 43.4512 51.1708 43.6741 51.2145C43.8969 51.2579 44.1271 51.2469 44.3449 51.1823C44.5624 51.1175 44.7611 51.001 44.924 50.8428C45.0869 50.6844 45.2091 50.4891 45.28 50.2733C45.698 49.0027 46.5553 47.9227 47.6978 47.227C48.8404 46.5311 50.1933 46.2654 51.514 46.4769C52.835 46.6886 54.0372 47.3638 54.905 48.3817C55.7731 49.3996 56.2498 50.6934 56.2501 52.031C56.2503 52.4101 56.2123 52.7881 56.1371 53.1596C56.0948 53.3677 56.1002 53.5826 56.1529 53.7885C56.2055 53.9941 56.3041 54.1852 56.4411 54.3474C56.5781 54.5096 56.7502 54.6388 56.9442 54.7249C57.1384 54.8111 57.3494 54.8523 57.5616 54.8453C57.5931 54.8444 57.6246 54.8435 57.6563 54.8435C58.402 54.8444 59.1168 55.141 59.6442 55.6684C60.1714 56.1955 60.4679 56.9104 60.4688 57.656Z" fill="#1DA0FA"/>
<path d="M42.1873 22.4999C40.6791 22.4974 39.1979 22.9001 37.8988 23.6655C36.5994 24.4312 35.5295 25.5319 34.801 26.8524C34.1777 26.6915 33.5259 26.6756 32.8955 26.8056C32.2652 26.9357 31.673 27.2084 31.1643 27.6026C30.6556 27.997 30.2438 28.5026 29.9608 29.0806C29.6777 29.6586 29.5308 30.2938 29.531 30.9373C29.531 30.9978 29.5346 31.0577 29.5371 31.118C28.6439 31.3477 27.8206 31.7934 27.14 32.416C26.4591 33.0383 25.9416 33.8184 25.6327 34.6876L28.2845 35.6247C28.4387 35.1894 28.6976 34.7985 29.0385 34.4869C29.3794 34.1753 29.7918 33.9523 30.2391 33.8378C30.6866 33.7232 31.1555 33.7205 31.6042 33.8301C32.0528 33.9397 32.4677 34.1579 32.812 34.4657L34.6878 32.3701C34.0211 31.7734 33.2215 31.345 32.3557 31.12C32.3296 30.9216 32.346 30.7199 32.4041 30.5285C32.4621 30.3368 32.5604 30.1599 32.6925 30.0094C32.8246 29.8591 32.987 29.7385 33.1695 29.6561C33.3518 29.5736 33.5498 29.531 33.7498 29.531C34.0688 29.5299 34.3787 29.6382 34.6273 29.8382C34.8044 29.9802 35.0134 30.0771 35.2364 30.1208C35.4593 30.1644 35.6893 30.1532 35.9071 30.0886C36.1247 30.0238 36.3236 29.9072 36.4862 29.7491C36.6491 29.5907 36.7713 29.3954 36.8422 29.1796C37.2605 27.909 38.1175 26.829 39.26 26.1333C40.4026 25.4374 41.7555 25.1717 43.0765 25.3832C44.3972 25.5949 45.5994 26.2701 46.4672 27.288C47.3353 28.3059 47.8121 29.5997 47.8123 30.9373C47.8125 31.3164 47.7747 31.6944 47.6993 32.0659C47.657 32.274 47.6624 32.4889 47.7151 32.6948C47.7677 32.9004 47.8663 33.0914 48.0033 33.2537C48.1403 33.4159 48.3125 33.545 48.5064 33.6312C48.7006 33.7174 48.9116 33.7586 49.1238 33.7516C49.1553 33.7507 49.1868 33.7498 49.2185 33.7498C49.9644 33.7498 50.6799 34.0461 51.2073 34.5738C51.7347 35.1012 52.031 35.8164 52.031 36.5623C52.031 37.3084 51.7347 38.0237 51.2073 38.5511C50.6799 39.0787 49.9644 39.3748 49.2185 39.3748V42.1875C50.5879 42.1873 51.9102 41.6878 52.9373 40.7826C53.9647 39.8772 54.6266 38.6283 54.799 37.2699C54.9711 35.9114 54.6422 34.5368 53.8733 33.4037C53.1045 32.2706 51.9489 31.4568 50.623 31.1148C50.6243 31.0557 50.6248 30.9967 50.6248 30.9373C50.6223 28.7003 49.7327 26.5556 48.1507 24.9739C46.5689 23.3921 44.4242 22.5025 42.1873 22.4999Z" fill="#1DA0FA"/>
<path d="M12.6562 12.6563H34.5737L31.3495 15.8806L33.338 17.8695L38.963 12.2445C39.0938 12.1139 39.1973 11.9589 39.2679 11.7882C39.3386 11.6176 39.375 11.4348 39.375 11.2501C39.375 11.0654 39.3386 10.8825 39.2679 10.7119C39.1973 10.5413 39.0938 10.3862 38.963 10.2556L33.338 4.63062L31.3495 6.6195L34.5737 9.84382H11.25C10.877 9.84382 10.5194 9.99198 10.2556 10.2557C9.99191 10.5194 9.84375 10.8771 9.84375 11.2501V23.9063H12.6562V12.6563Z" fill="#FC951D"/>
<path d="M12.6562 26.7188H9.84375V29.5312H12.6562V26.7188Z" fill="#1DA0FA"/>
<path d="M12.6562 32.3438H9.84375V35.1562H12.6562V32.3438Z" fill="#1DA0FA"/>
<path d="M77.3438 77.3438H55.4263L58.6505 74.1195L56.662 72.1305L51.037 77.7555C50.9062 77.8862 50.8027 78.0412 50.7321 78.2118C50.6614 78.3823 50.625 78.5653 50.625 78.75C50.625 78.9347 50.6614 79.1177 50.7321 79.2882C50.8027 79.4588 50.9062 79.6138 51.037 79.7445L56.662 85.3695L58.6505 83.3805L55.4263 80.1562H78.75C79.1231 80.1562 79.4806 80.008 79.7443 79.7443C80.0082 79.4806 80.1562 79.123 80.1562 78.75V66.0938H77.3438V77.3438Z" fill="#FC951D"/>
<path d="M80.1562 60.4688H77.3438V63.2812H80.1562V60.4688Z" fill="#1DA0FA"/>
<path d="M80.1562 54.8438H77.3438V57.6562H80.1562V54.8438Z" fill="#1DA0FA"/>
</svg>
