<svg width="90" height="90" viewBox="0 0 90 90" fill="none" xmlns="http://www.w3.org/2000/svg">
<g clip-path="url(#clip0_2_1353)">
<path d="M82.3979 46.7305C82.3979 36.6089 74.1634 28.3745 64.042 28.3745C63.0688 28.3745 62.1135 28.4513 61.1811 28.5979C61.1851 28.5095 61.189 28.4211 61.189 28.3322C61.189 27.0247 60.7484 25.7582 59.9389 24.7113V18.5225C59.9389 8.28979 51.662 0 41.4169 0C41.3705 0 41.3242 0 41.2776 0.00035156C31.1404 0.0745308 22.8935 8.48016 22.8935 18.7382V24.7111C22.0838 25.758 21.6429 27.0247 21.6429 28.3325C21.6429 30.0006 22.3691 31.5623 23.6875 32.733C23.4781 34.4077 22.8647 36.0799 22.1096 36.9625C21.6493 37.5007 20.9799 37.9859 20.0034 38.4896C18.6417 39.1919 17.6049 40.817 17.1595 42.9484C16.7111 45.0947 16.8478 48.1241 18.4184 50.6241C17.9944 51.3416 17.7491 52.1766 17.7447 53.0681L15.3057 54.0135C15.2973 54.0169 15.2888 54.0202 15.2804 54.0238C11.582 55.5457 7.60144 59.9074 7.60144 65.8867V86.3953C7.60144 88.3831 9.21861 90.0004 11.2067 90.0004H71.4721C73.4602 90.0004 75.0776 88.3831 75.0776 86.3953V77.1145C75.0776 76.3864 74.4874 75.796 73.759 75.796C73.0309 75.796 72.4408 76.3864 72.4408 77.1145V86.3953C72.4408 86.9292 72.0063 87.3637 71.4721 87.3637H67.7911C67.9639 86.9096 68.0596 86.4173 68.0596 85.903V83.8429C68.0596 82.7858 67.2021 81.9257 66.148 81.9257H64.6063C64.9141 81.2851 65.088 80.5756 65.088 79.8385V65.0569C67.5146 64.9186 69.9005 64.2994 72.0868 63.2329C72.322 64.1027 72.4405 64.9908 72.4405 65.8867V70.9621C72.4405 71.6902 73.0307 72.2806 73.759 72.2806C74.4871 72.2806 75.0773 71.6902 75.0773 70.9621V65.8867C75.0773 64.5192 74.8555 63.1699 74.4232 61.8604C79.236 58.5477 82.3979 53.0017 82.3979 46.7305ZM57.6229 26.0696C58.1809 26.5379 58.8501 27.8921 58.4048 29.2565C57.4585 29.5616 56.2549 30.0595 55.2116 30.6335L55.2118 25.0805C56.1368 25.1647 56.9702 25.5245 57.6229 26.0696ZM25.5301 18.7382C25.5301 9.92349 32.6029 2.7007 41.2967 2.63722C41.337 2.63671 41.3766 2.63671 41.4164 2.63671C50.1921 2.63671 57.3021 9.73593 57.3021 18.5227V22.8737C56.2426 22.4781 55.0197 22.3301 53.811 22.4865C49.5668 22.487 50.8169 22.5338 48.031 22.2975C45.5366 22.0859 43.4749 20.3571 42.9014 17.9966C42.7347 17.308 42.1243 16.8269 41.4171 16.8264C41.4169 16.8264 41.4166 16.8264 41.4162 16.8264C40.7088 16.8264 40.0984 17.3077 39.931 17.9962C39.3912 20.2228 37.5268 22.0877 34.4864 22.3302C32.0821 22.5223 32.6443 22.4865 29.0182 22.4865C27.8343 22.3375 26.6128 22.4992 25.5301 22.9142V18.7382ZM45.7465 48.2218H35.4343C35.5513 47.9524 35.6344 47.5794 35.6344 47.1881V45.1519C38.7425 46.5345 42.4323 46.7966 45.713 45.7313C45.6644 46.5338 45.6943 47.7241 45.7465 48.2218ZM46.1531 50.8586C47.927 58.5801 54.4795 64.3171 62.4517 65.0171V79.8383C62.4517 80.7599 61.8673 81.596 61.0078 81.9257H21.8247C20.966 81.5963 20.3808 80.7604 20.3808 79.8383C20.3808 78.5117 20.3808 54.4376 20.3808 53.0921C20.3808 51.8526 21.4014 50.8583 22.6147 50.8583C23.5413 50.8586 45.1534 50.8586 46.1531 50.8586ZM46.1216 42.7421C38.8809 46.1122 30.2566 40.8694 30.2566 32.7692V25.1228C34.8595 25.1228 38.8566 25.0994 41.418 21.1263C44.1115 25.29 48.5012 25.132 52.5751 25.1244V32.3964C49.2194 35.0813 46.9825 38.799 46.1216 42.7421ZM25.1426 26.1355C25.8662 25.5724 26.6971 25.1975 27.6201 25.0929V31.7693C25.9234 31.5461 24.2797 30.1448 24.2797 28.3325C24.2797 27.2063 24.9313 26.2998 25.1426 26.1355ZM19.7405 43.4878C20.0103 42.1965 20.5879 41.1545 21.2119 40.8328C23.6878 39.5559 25.3282 37.9825 26.1252 34.1208C26.5837 34.2686 27.1786 34.3919 27.724 34.4322C28.1846 38.2333 30.1871 41.4828 32.9974 43.6001L32.9976 47.1488C32.9344 47.1825 30.3118 48.1957 30.2445 48.2215H22.6147C21.8078 48.2215 21.03 48.4263 20.3851 48.7613C19.4789 47.0178 19.4291 44.9775 19.7405 43.4878ZM14.7729 83.8429V85.9028C14.7729 86.4173 14.8685 86.9094 15.0412 87.3634H11.2069C10.6728 87.3634 10.2383 86.9292 10.2383 86.3951V65.8865C10.2383 60.8056 13.842 57.4726 16.272 56.4667L17.7439 55.8961V79.8385C17.7439 80.5257 17.9006 81.2488 18.2258 81.9257H16.684C15.6304 81.9257 14.7729 82.7854 14.7729 83.8429ZM65.423 84.5622V85.9025C65.423 86.7076 64.7806 87.3623 63.9907 87.3632H18.8417C18.0519 87.3623 17.4096 86.7076 17.4096 85.9025V84.5622H65.423ZM58.6384 61.493C52.5055 59.2409 48.3226 53.3716 48.3226 46.7305C48.3226 38.0873 55.352 31.0111 64.042 31.0111C72.7096 31.0111 79.7614 38.063 79.7614 46.7305C79.7614 57.5586 68.9528 65.2747 58.6384 61.493Z" fill="#1DA0FA"/>
<path d="M59.872 44.4789H59.4474C58.7193 44.4789 58.1292 45.0691 58.1292 45.7972C58.1292 46.5253 58.7193 47.1154 59.4474 47.1154H59.872C60.6003 47.1154 61.1905 46.5253 61.1905 45.7972C61.1905 45.0691 60.6003 44.4789 59.872 44.4789Z" fill="#FC951D"/>
<path d="M63.8296 47.1154H64.254C64.9823 47.1154 65.5725 46.5253 65.5725 45.7972C65.5725 45.0691 64.9823 44.4789 64.254 44.4789H63.8296C63.1013 44.4789 62.5111 45.0691 62.5111 45.7972C62.5111 46.5253 63.1013 47.1154 63.8296 47.1154Z" fill="#FC951D"/>
<path d="M68.6365 47.1154C69.3649 47.1154 69.9548 46.5253 69.9548 45.7972C69.9548 45.0691 69.3649 44.4789 68.6365 44.4789H68.212C67.4836 44.4789 66.8937 45.0691 66.8937 45.7972C66.8937 46.5253 67.4836 47.1154 68.212 47.1154H68.6365Z" fill="#FC951D"/>
<path d="M39.3273 69.0453H43.3516C44.08 69.0453 44.6701 68.4549 44.6701 67.7268C44.6701 66.9987 44.08 66.4085 43.3516 66.4085H39.3273C38.599 66.4085 38.0088 66.9987 38.0088 67.7268C38.0088 68.4549 38.5992 69.0453 39.3273 69.0453Z" fill="#1DA0FA"/>
<path d="M70.5431 37.406H67.331C66.6027 37.406 66.0125 37.9964 66.0125 38.7245C66.0125 39.4526 66.6027 40.0428 67.331 40.0428H70.5431C71.4528 40.0428 72.193 40.783 72.193 41.6929V50.0782C72.193 50.9879 71.4528 51.7282 70.5431 51.7282C69.9678 51.7282 69.412 51.9365 68.9789 52.3147L65.2137 55.5988V53.9095C65.2137 52.7069 64.2352 51.7282 63.0324 51.7282H57.2474C56.3375 51.7282 55.5975 50.9879 55.5975 50.0782V41.6929C55.5975 40.783 56.3375 40.0428 57.2474 40.0428H61.1786C61.9069 40.0428 62.4969 39.4526 62.4969 38.7245C62.4969 37.9964 61.9069 37.406 61.1786 37.406H57.2474C54.8838 37.406 52.9607 39.3291 52.9607 41.6929V50.0782C52.9607 52.4419 54.8835 54.3649 57.2474 54.3649H62.577V56.5321C62.577 57.411 63.0738 58.1825 63.8736 58.5461C64.6713 58.9088 65.5798 58.7783 66.2433 58.1992L70.6407 54.3638C72.9596 54.3118 74.8298 52.4095 74.8298 50.0782V41.6932C74.8296 39.3291 72.9067 37.406 70.5431 37.406Z" fill="#FC951D"/>
</g>
<defs>
<clipPath id="clip0_2_1353">
<rect width="90" height="90" fill="white"/>
</clipPath>
</defs>
</svg>
