<svg width="90" height="90" viewBox="0 0 90 90" fill="none" xmlns="http://www.w3.org/2000/svg">
<path d="M24.7392 87.1596H13.203C11.8638 87.1596 10.773 86.0688 10.773 84.7296V39.4632C10.773 38.124 11.8638 37.0332 13.203 37.0332H24.7392C26.0784 37.0332 27.1692 38.124 27.1692 39.4632V84.7296C27.1692 86.0688 26.0784 87.1596 24.7392 87.1596ZM13.473 84.4596H24.4692V39.7332H13.473V84.4596Z" fill="#1DA0FA"/>
<path d="M21.2652 43.3296H16.677L14.3838 47.3022L16.677 51.2748H21.2652L23.5584 47.3022L21.2652 43.3296Z" fill="#1DA0FA"/>
<path d="M22.2174 56.1833H15.9084V58.8833H22.2174V56.1833Z" fill="#1DA0FA"/>
<path d="M29.5776 84.4596H7.28638V87.1596H29.5776V84.4596Z" fill="#1DA0FA"/>
<path d="M35.5824 84.4596H32.2182V87.1596H35.5824V84.4596Z" fill="#1DA0FA"/>
<path d="M4.7862 84.4596H2.052V87.1596H4.7862V84.4596Z" fill="#1DA0FA"/>
<path d="M29.5877 37.7643L22.7082 42.9615L24.6439 45.5238L31.5234 40.3265L29.5877 37.7643Z" fill="#FC951D"/>
<path d="M41.8933 28.4679L35.0138 33.6652L36.9495 36.2274L43.829 31.0301L41.8933 28.4679Z" fill="#FC951D"/>
<path d="M54.1974 19.1746L47.3179 24.3718L49.2536 26.934L56.1331 21.7368L54.1974 19.1746Z" fill="#FC951D"/>
<path d="M66.503 9.87818L59.6235 15.0754L61.5592 17.6377L68.4386 12.4404L66.503 9.87818Z" fill="#FC951D"/>
<path d="M41.0436 75.7836L42.6636 78.4278V82.4922C42.6636 83.1042 43.164 83.6046 43.776 83.6046H46.557C47.169 83.6046 47.6694 83.1042 47.6694 82.4922V79.524L63.1026 79.4592L78.5358 79.524V82.4922C78.5358 83.1042 79.0362 83.6046 79.6482 83.6046H82.4292C83.0412 83.6046 83.5416 83.1042 83.5416 82.4922V78.4278L85.1616 75.7836H41.0436Z" fill="#1DA0FA"/>
<path d="M80.1702 59.4036L77.301 52.1748C77.301 52.1748 76.2696 48.8214 73.044 48.6918C71.6562 48.636 67.4478 48.6288 63.1026 48.6378C58.7592 48.6288 54.5508 48.6378 53.1612 48.6918C49.9356 48.8214 48.9042 52.1748 48.9042 52.1748L46.035 59.4036C40.0608 60.6834 39.0978 64.044 39.0978 64.044L40.2588 72.945H85.9428L87.1038 64.044C87.1038 64.044 86.1408 60.6834 80.1666 59.4036H80.1702ZM50.5818 53.0784C51.7428 50.3694 53.5482 50.7564 53.5482 50.7564L63.1026 50.454L72.657 50.7564C72.657 50.7564 74.4624 50.3694 75.6234 53.0784C76.7844 55.7874 78.5232 59.1156 78.5232 59.1156C73.4832 58.374 66.3138 58.3254 63.1026 58.347C59.8914 58.3272 52.722 58.374 47.682 59.1156C47.682 59.1156 49.4208 55.7874 50.5818 53.0784ZM48.3966 67.4622C48.3966 68.562 47.673 69.4926 46.674 69.804C46.4436 69.876 46.1988 69.9138 45.945 69.9138C45.7758 69.9138 45.6102 69.8958 45.4518 69.8634C45.3726 69.8472 45.2934 69.8274 45.2178 69.8022C44.2206 69.4926 43.4952 68.562 43.4952 67.4604C43.4952 66.9528 43.65 66.4812 43.9146 66.0906C43.9992 65.9664 44.0946 65.8512 44.199 65.7432C44.2044 65.7378 44.208 65.7324 44.2134 65.727C44.2692 65.6712 44.3268 65.619 44.388 65.5686C44.6904 65.3184 45.054 65.1402 45.4536 65.0592C45.6138 65.0268 45.7776 65.0088 45.9468 65.0088C46.539 65.0088 47.0826 65.2194 47.5056 65.5686C48.051 66.0186 48.3984 66.699 48.3984 67.4604L48.3966 67.4622ZM74.6172 68.8014C74.6172 69.4134 74.1168 69.9138 73.5048 69.9138H52.7022C52.0902 69.9138 51.5898 69.4134 51.5898 68.8014V66.1248C51.5898 65.5128 52.0902 65.0124 52.7022 65.0124H73.5048C74.1168 65.0124 74.6172 65.5128 74.6172 66.1248V68.8014ZM80.991 69.804C80.9136 69.8274 80.8362 69.8472 80.757 69.8652C80.5968 69.8976 80.433 69.9156 80.2638 69.9156C80.01 69.9156 79.7652 69.8778 79.5348 69.8058C78.5376 69.4962 77.8122 68.5656 77.8122 67.464C77.8122 66.7026 78.1596 66.0222 78.705 65.5722C79.128 65.223 79.6716 65.0124 80.2638 65.0124C80.433 65.0124 80.5986 65.0304 80.757 65.0628C81.1566 65.1438 81.5202 65.3238 81.8226 65.5722C82.0044 65.7216 82.1646 65.898 82.296 66.0924C82.5606 66.483 82.7154 66.9546 82.7154 67.4622C82.7154 68.562 81.9918 69.4926 80.9928 69.804H80.991Z" fill="#1DA0FA"/>
<path d="M45.5742 56.3616C45.5742 56.3616 40.9986 52.209 38.817 55.0944C36.6354 57.9798 41.5692 58.8258 41.5692 58.8258C41.5692 58.8258 44.9406 58.7556 45.5724 56.3616H45.5742Z" fill="#1DA0FA"/>
<path d="M80.6328 56.3616C80.6328 56.3616 85.2084 52.209 87.39 55.0944C89.5716 57.9798 84.6378 58.8258 84.6378 58.8258C84.6378 58.8258 81.2664 58.7556 80.6346 56.3616H80.6328Z" fill="#1DA0FA"/>
</svg>
