<svg width="90" height="90" viewBox="0 0 90 90" fill="none" xmlns="http://www.w3.org/2000/svg">
<path d="M78.1236 39.699H30.3066V41.6052H78.1236V39.699Z" fill="#1DA0FA"/>
<path d="M78.1236 42.516H30.3066V44.4222H78.1236V42.516Z" fill="#1DA0FA"/>
<path d="M84.4578 33.7518L70.3458 22.1814L54.0414 17.5266L37.4994 22.1814L23.6322 33.7464L22.4118 32.283L36.5922 20.4588L54.045 15.5466L71.2476 20.4588L85.6656 32.2776L84.4578 33.7518Z" fill="#1DA0FA"/>
<path d="M74.6424 58.4334H64.7118V46.89H74.6424V58.4334ZM66.618 56.5272H72.738V48.7944H66.618V56.5272Z" fill="#FC951D"/>
<path d="M66.3953 47.2385L64.9318 48.457L72.9569 58.096L74.4205 56.8774L66.3953 47.2385Z" fill="#FC951D"/>
<path d="M72.9567 47.2297L64.9315 56.8687L66.3951 58.0872L74.4202 48.4482L72.9567 47.2297Z" fill="#FC951D"/>
<path d="M74.6424 71.2783H61.398V59.7349H74.6424V71.2783ZM63.3042 69.3721H72.738V61.6393H63.3042V69.3721Z" fill="#FC951D"/>
<path d="M73.0735 59.9624L61.7333 69.6001L62.9665 71.0512L74.3068 61.4136L73.0735 59.9624Z" fill="#FC951D"/>
<path d="M62.9664 59.9538L61.7332 61.4049L73.0734 71.0426L74.3067 69.5914L62.9664 59.9538Z" fill="#FC951D"/>
<path d="M87.201 71.9891H83.457V73.8197H77.2056V71.9891H57.9078V73.8935H87.201V71.9891Z" fill="#1DA0FA"/>
<path d="M31.2948 38.016H77.2056V71.9892H83.457V31.5972H81.5526V71.9154H79.11V36.1098H29.3886V52.2324H31.2948V38.016Z" fill="#1DA0FA"/>
<path d="M26.5338 52.2324V31.5972H24.6276V52.5708C25.038 52.3548 25.5024 52.2324 25.9956 52.2324H26.532H26.5338Z" fill="#1DA0FA"/>
<path d="M83.457 71.9891H77.2056V73.8197H83.457V71.9891Z" fill="#1DA0FA"/>
<path d="M18.1548 59.5296H14.0292C12.6504 59.5296 11.0358 60.4692 10.3536 61.6662L8.271 65.3238C7.8516 66.06 7.8138 66.834 8.1684 67.4442C8.523 68.0544 9.2124 68.4036 10.0602 68.4036H18.153C19.7298 68.4036 21.0114 67.122 21.0114 65.5452V62.3862C21.0114 60.8112 19.7298 59.5278 18.153 59.5278L18.1548 59.5296ZM19.107 65.547C19.107 66.0726 18.6804 66.4992 18.1548 66.4992H10.062C9.9576 66.4992 9.8856 66.4866 9.8406 66.4722C9.8514 66.4272 9.8766 66.357 9.927 66.267L12.0096 62.6094C12.3588 61.9938 13.3218 61.4358 14.0292 61.4358H18.1548C18.6804 61.4358 19.107 61.8624 19.107 62.388V65.547Z" fill="#1DA0FA"/>
<path d="M71.2242 32.5493H36.8622V25.4969H71.2242V32.5493ZM38.7684 30.6432H69.3198V27.4013H38.7666V30.6432H38.7684Z" fill="#1DA0FA"/>
<path d="M45.9882 26.4491H44.082V31.5971H45.9882V26.4491Z" fill="#1DA0FA"/>
<path d="M64.0043 26.4491H62.0981V31.5971H64.0043V26.4491Z" fill="#1DA0FA"/>
<path d="M50.0688 62.0298H30.2994V63.936H50.0688V62.0298Z" fill="#1DA0FA"/>
<path d="M21.285 55.899H11.097C9.70921 55.899 8.10721 56.8584 7.45381 58.0824L3.00061 66.4128C2.43361 67.473 1.98901 69.2461 1.98901 70.4485V76.1473C1.98901 77.7222 3.27061 79.0057 4.84741 79.0057H9.12601C9.20881 78.6745 9.32401 78.3559 9.46981 78.0534H4.84561C3.79801 78.0534 2.93941 77.1967 2.93941 76.1473V70.4485C2.93941 69.4009 3.34441 67.7862 3.83761 66.8628L8.29081 58.5324C8.78401 57.609 10.0458 56.8531 11.0952 56.8531H21.285C22.3326 56.8531 23.1912 57.7099 23.1912 58.7593V76.149C23.1912 77.1966 22.3344 78.0553 21.285 78.0553H18.7506C18.8946 78.3577 19.0098 78.6762 19.0944 79.0074H21.2868C22.8636 79.0074 24.1452 77.7258 24.1452 76.149V58.7593C24.1452 57.1843 22.8636 55.9008 21.2868 55.9008L21.285 55.899Z" fill="#1DA0FA"/>
<path d="M4.84562 77.0994C4.32002 77.0994 3.89342 76.6728 3.89342 76.1472V70.4484C3.89342 69.561 4.26062 68.094 4.68002 67.3128L9.13322 58.9824C9.46262 58.3668 10.3986 57.8052 11.097 57.8052H21.2868C21.8124 57.8052 22.239 58.2318 22.239 58.7574V76.1472C22.239 76.6728 21.8124 77.0994 21.2868 77.0994H18.1602C18.3906 77.3928 18.5886 77.7114 18.7506 78.0516H21.285C22.3326 78.0516 23.1912 77.1948 23.1912 76.1454V58.7556C23.1912 57.708 22.3344 56.8494 21.285 56.8494H11.097C10.0494 56.8494 8.78762 57.6054 8.29262 58.5288L3.83942 66.8592C3.34622 67.7826 2.94122 69.3972 2.94122 70.4448V76.1436C2.94122 77.1912 3.79802 78.0498 4.84742 78.0498H9.46802C9.63002 77.7096 9.82982 77.391 10.0584 77.0976H4.84562V77.0994Z" fill="#1DA0FA"/>
<path d="M19.0926 79.0038C19.0098 78.6726 18.8946 78.354 18.7488 78.0516C18.5868 77.7114 18.387 77.3927 18.1584 77.0993C17.217 75.8951 15.7518 75.1176 14.1084 75.1176C12.465 75.1176 10.9998 75.8951 10.0584 77.0993C9.82802 77.3927 9.63002 77.7114 9.46802 78.0516C9.32402 78.354 9.20882 78.6726 9.12422 79.0038C9.02342 79.4052 8.96942 79.8246 8.96942 80.2566C8.96942 83.0898 11.2752 85.3956 14.1084 85.3956C16.9416 85.3956 19.2474 83.0898 19.2474 80.2566C19.2474 79.8246 19.1934 79.4052 19.0926 79.0038ZM14.1084 83.4912C12.3246 83.4912 10.8738 82.0404 10.8738 80.2566C10.8738 79.812 10.9638 79.389 11.1258 79.0038C11.2752 78.6492 11.4894 78.3288 11.7486 78.0516C12.1878 77.5818 12.7638 77.2415 13.4154 77.0993C13.6386 77.0507 13.8708 77.0238 14.1084 77.0238C14.346 77.0238 14.5782 77.0507 14.8014 77.0993C15.453 77.2415 16.029 77.5818 16.4682 78.0516C16.7274 78.3288 16.9416 78.6492 17.091 79.0038C17.253 79.389 17.343 79.812 17.343 80.2566C17.343 82.0404 15.8922 83.4912 14.1084 83.4912Z" fill="#1DA0FA"/>
<path d="M19.0926 79.0038C19.0098 78.6726 18.8946 78.354 18.7488 78.0516C18.5868 77.7114 18.387 77.3927 18.1584 77.0993C17.217 75.8951 15.7518 75.1176 14.1084 75.1176C12.465 75.1176 10.9998 75.8951 10.0584 77.0993C9.82802 77.3927 9.63002 77.7114 9.46802 78.0516C9.32402 78.354 9.20882 78.6726 9.12422 79.0038C9.02342 79.4052 8.96942 79.8246 8.96942 80.2566C8.96942 83.0898 11.2752 85.3956 14.1084 85.3956C16.9416 85.3956 19.2474 83.0898 19.2474 80.2566C19.2474 79.8246 19.1934 79.4052 19.0926 79.0038ZM14.1084 83.4912C12.3246 83.4912 10.8738 82.0404 10.8738 80.2566C10.8738 79.812 10.9638 79.389 11.1258 79.0038C11.2752 78.6492 11.4894 78.3288 11.7486 78.0516C12.1878 77.5818 12.7638 77.2415 13.4154 77.0993C13.6386 77.0507 13.8708 77.0238 14.1084 77.0238C14.346 77.0238 14.5782 77.0507 14.8014 77.0993C15.453 77.2415 16.029 77.5818 16.4682 78.0516C16.7274 78.3288 16.9416 78.6492 17.091 79.0038C17.253 79.389 17.343 79.812 17.343 80.2566C17.343 82.0404 15.8922 83.4912 14.1084 83.4912Z" fill="#1DA0FA"/>
<path d="M54.9432 51.2802H25.9974C23.8374 51.2802 22.0806 53.0369 22.0806 55.1969V75.0887C22.0806 77.2487 23.8374 79.0056 25.9974 79.0056H43.758C43.8408 78.6744 43.956 78.3557 44.1018 78.0533C44.2638 77.7131 44.4636 77.3945 44.6922 77.1011H25.9992C24.8904 77.1011 23.9886 76.1994 23.9886 75.0905V55.1987C23.9886 54.0899 24.8904 53.1881 25.9992 53.1881H54.9468C56.0556 53.1881 56.9574 54.0899 56.9574 55.1987V75.0905C56.9574 76.1994 56.0556 77.1011 54.9468 77.1011H52.794C53.0244 77.3945 53.2224 77.7131 53.3844 78.0533C53.5284 78.3557 53.6436 78.6744 53.7282 79.0056H54.9468C57.1068 79.0056 58.8636 77.2487 58.8636 75.0887V55.1969C58.8636 53.0369 57.1068 51.2802 54.9468 51.2802H54.9432Z" fill="#1DA0FA"/>
<path d="M51.975 80.2566C51.975 82.0404 50.5242 83.4912 48.7404 83.4912C46.9566 83.4912 45.5058 82.0404 45.5058 80.2566C45.5058 79.812 45.5958 79.389 45.7578 79.0038H43.7544C43.6536 79.4052 43.5996 79.8246 43.5996 80.2566C43.5996 83.0898 45.9054 85.3956 48.7386 85.3956C51.5718 85.3956 53.8776 83.0898 53.8776 80.2566C53.8776 79.8246 53.8236 79.4052 53.7228 79.0038H51.7194C51.8814 79.389 51.9714 79.812 51.9714 80.2566H51.975Z" fill="#1DA0FA"/>
<path d="M48.7404 77.0219C48.978 77.0219 49.2102 77.0489 49.4334 77.0975H52.7922C51.8508 75.8933 50.3856 75.1157 48.7422 75.1157C47.0988 75.1157 45.6336 75.8933 44.6922 77.0975H48.051C48.2742 77.0489 48.5064 77.0219 48.744 77.0219H48.7404Z" fill="#1DA0FA"/>
<path d="M46.3807 78.0516C46.8199 77.5818 47.3959 77.2416 48.0475 77.0994H44.6887C44.4583 77.3928 44.2603 77.7114 44.0983 78.0516C43.9543 78.354 43.8391 78.6726 43.7545 79.0038H45.7579C45.9073 78.6492 46.1215 78.3288 46.3807 78.0516Z" fill="#1DA0FA"/>
<path d="M52.7922 77.0994H49.4334C50.085 77.2416 50.661 77.5818 51.1002 78.0516C51.3594 78.3288 51.5736 78.6492 51.723 79.0038H53.7264C53.6436 78.6726 53.5284 78.354 53.3826 78.0516C53.2206 77.7114 53.0208 77.3928 52.7922 77.0994Z" fill="#1DA0FA"/>
</svg>
