<svg width="90" height="90" viewBox="0 0 90 90" fill="none" xmlns="http://www.w3.org/2000/svg">
<g clip-path="url(#clip0_2_1453)">
<path d="M86.5908 25.8399H63.1255V20.6186H60.5149V0H57.8781V20.6186H55.2674V25.8399H34.8044V28.4765H55.2677H63.1255H85.4989L87.3632 30.3408V76.8163H23.7303V79.4531H87.3632V85.4989L85.4989 87.3632H4.50106L2.63673 85.4989V79.4531H21.0936V76.8163H2.63673V30.3408L4.50106 28.4765H10.0194V25.8399H3.40911L0 29.2489V86.5908L3.40911 90H86.591L90 86.5908V29.2489L86.5908 25.8399ZM57.9042 25.8399V23.2553H60.4888V25.8399H57.9042Z" fill="#1DA0FA"/>
<path d="M28.7588 68.9065L32.168 65.4973V12.5498L28.7588 9.14084H16.0653L12.6562 12.5498V65.4973L16.0653 68.9065H28.7588ZM15.293 13.6419L17.1573 11.7775H27.6667L29.531 13.6419V64.4053L27.6667 66.2697H17.1573L15.293 64.4053V13.6419Z" fill="#1DA0FA"/>
<path d="M80.7714 34.2421H37.6216V47.4257H80.7714V34.2421ZM78.1349 44.7889H40.2584V36.8788H78.1349V44.7889Z" fill="#1DA0FA"/>
<path d="M47.3841 52.699H39.526V60.5569H47.3841V52.699ZM44.7473 57.9202H42.1628V55.3356H44.7473V57.9202Z" fill="#1DA0FA"/>
<path d="M39.5255 71.0512H47.3834V63.1933H39.5255V71.0512ZM42.1623 65.83H44.7466V68.4146H42.1623V65.83Z" fill="#1DA0FA"/>
<path d="M57.8778 52.699H50.0201V60.5569H57.8778V52.699ZM55.2413 57.9202H52.6569V55.3356H55.2413V57.9202Z" fill="#1DA0FA"/>
<path d="M50.0201 71.0512H57.8778V63.1933H50.0201V71.0512ZM52.6569 65.83H55.2413V68.4146H52.6569V65.83Z" fill="#1DA0FA"/>
<path d="M68.3723 52.699H60.5144V60.5569H68.3723V52.699ZM65.7355 57.9202H63.151V55.3356H65.7355V57.9202Z" fill="#1DA0FA"/>
<path d="M60.5144 71.0512H68.3723V63.1933H60.5144V71.0512ZM63.151 65.83H65.7355V68.4146H63.151V65.83Z" fill="#1DA0FA"/>
<path d="M78.8674 52.699H71.0095V60.5569H78.8674V52.699ZM76.2309 57.9202H73.6463V55.3356H76.2309V57.9202Z" fill="#1DA0FA"/>
<path d="M71.0095 71.0512H78.8674V63.1933H71.0095V71.0512ZM73.6463 65.83H76.2309V68.4146H73.6463V65.83Z" fill="#FC951D"/>
<path d="M24.2577 19.6877H26.8945V22.3244H24.2577V19.6877Z" fill="#1DA0FA"/>
<path d="M24.2577 14.4143H26.8945V17.051H24.2577V14.4143Z" fill="#1DA0FA"/>
<path d="M57.8777 39.5156H60.5145V42.1524H57.8777V39.5156Z" fill="#1DA0FA"/>
<path d="M65.7877 39.5156H68.4243V42.1524H65.7877V39.5156Z" fill="#1DA0FA"/>
<path d="M5.27344 82.0899H7.91015V84.7265H5.27344V82.0899Z" fill="#1DA0FA"/>
<path d="M49.968 39.5156H52.6048V42.1524H49.968V39.5156Z" fill="#1DA0FA"/>
<path d="M72.3605 82.0899H84.7267V84.7265H72.3605V82.0899Z" fill="#1DA0FA"/>
<path d="M67.0869 82.0899H69.7237V84.7265H67.0869V82.0899Z" fill="#1DA0FA"/>
</g>
<defs>
<clipPath id="clip0_2_1453">
<rect width="90" height="90" fill="white"/>
</clipPath>
</defs>
</svg>
