<svg width="90" height="90" viewBox="0 0 90 90" fill="none" xmlns="http://www.w3.org/2000/svg">
<g clip-path="url(#clip0_2_1060)">
<path d="M88.3303 57.1345C88.3319 57.1268 88.3287 57.1174 88.3319 57.1097C89.4103 53.2535 90 49.1958 90 45C90 40.8042 89.4103 36.7465 88.3319 32.8903C88.3303 32.8826 88.3334 32.8732 88.3303 32.8655C88.3273 32.8531 88.3179 32.8453 88.3148 32.8345C87.9098 31.396 87.4366 29.9885 86.8966 28.6123V28.1018C86.8966 27.5416 86.5847 27.0745 86.1408 26.8015C85.5947 25.5724 85.0003 24.3729 84.3502 23.2045C84.6218 23.4356 84.96 23.5894 85.3448 23.5894C86.2015 23.5894 86.8966 22.8956 86.8966 22.0376V20.5216C86.8966 19.6634 86.2015 18.9698 85.3448 18.9698C84.4882 18.9698 83.7931 19.6634 83.7931 20.5216V22.0376C83.7931 22.1306 83.8303 22.2098 83.8458 22.2982C83.7356 22.1105 83.6208 21.9274 83.5076 21.7411C83.4874 21.7071 83.4673 21.6729 83.4455 21.6403C83.3384 21.465 83.236 21.2866 83.1258 21.1127C83.1103 21.0879 83.084 21.0755 83.0684 21.0523C82.0582 19.4508 80.9566 17.9131 79.7585 16.456C79.7477 16.4405 79.7447 16.4235 79.7339 16.4079C79.425 16.034 79.1116 15.6647 78.7919 15.3015C78.7685 15.2752 78.736 15.2643 78.7111 15.2395C77.4729 13.8383 76.1494 12.5162 74.7466 11.2779C74.7232 11.2547 74.714 11.2236 74.6876 11.2019C74.3245 10.8838 73.9568 10.5703 73.5844 10.2647C73.5734 10.2553 73.5595 10.2538 73.5471 10.2445C72.0869 9.04345 70.546 7.94018 68.9416 6.92845C68.9182 6.91139 68.9058 6.88655 68.8795 6.86948C68.7089 6.76242 68.5334 6.66 68.3611 6.55603C68.3285 6.53585 68.296 6.51569 68.2619 6.49552C68.0726 6.38069 67.8832 6.26276 67.6924 6.15103C67.7902 6.1681 67.8802 6.2069 67.9842 6.2069H69.5002C70.3568 6.2069 71.0519 5.51327 71.0519 4.65518C71.0519 3.79706 70.3568 3.10345 69.5002 3.10345H67.9842C67.1276 3.10345 66.4324 3.79706 66.4324 4.65518C66.4324 5.04776 66.5906 5.39534 66.8297 5.66845C65.6519 5.01206 64.44 4.41 63.2002 3.85915C62.9271 3.41534 62.4584 3.10345 61.8998 3.10345H61.3894C60.0115 2.5619 58.6024 2.08861 57.1624 1.68362C57.1531 1.68207 57.1469 1.67431 57.136 1.67121C57.1298 1.66965 57.1221 1.67121 57.1158 1.67121C53.2582 0.589655 49.1974 0 45 0C40.8026 0 36.7418 0.589655 32.8842 1.67121C32.8765 1.67276 32.8702 1.67121 32.864 1.67121C32.8547 1.67276 32.8484 1.68052 32.8376 1.68362C31.3976 2.08861 29.9885 2.5619 28.6106 3.10345H28.1002C27.54 3.10345 27.0729 3.41534 26.7998 3.85915C25.5708 4.40534 24.3715 4.99966 23.2029 5.64982C23.4342 5.37827 23.5877 5.04 23.5877 4.65518C23.5877 3.79706 22.8926 3.10345 22.036 3.10345H20.52C19.6634 3.10345 18.9682 3.79706 18.9682 4.65518C18.9682 5.51327 19.6634 6.2069 20.52 6.2069H22.036C22.1292 6.2069 22.2098 6.16966 22.2982 6.15415C22.1152 6.26121 21.9352 6.37448 21.7535 6.4831C21.7102 6.50948 21.6682 6.53431 21.6248 6.56069C21.4526 6.66621 21.2789 6.76706 21.1081 6.87258C21.0832 6.8881 21.0708 6.91294 21.0476 6.93C19.4461 7.94327 17.9069 9.045 16.4483 10.2445C16.4359 10.2538 16.4203 10.2569 16.4079 10.2662C16.034 10.5735 15.6647 10.8869 15.3015 11.2081C15.2752 11.2314 15.2659 11.2609 15.2441 11.2841C13.8414 12.524 12.5162 13.8476 11.2779 15.2503C11.2547 15.2752 11.2236 15.2845 11.2003 15.3093C10.8807 15.6724 10.5672 16.0417 10.2585 16.4157C10.2476 16.4297 10.246 16.4467 10.2352 16.4607C9.03724 17.9162 7.93706 19.4555 6.9269 21.0553C6.90982 21.0802 6.8819 21.0942 6.86639 21.1205C6.75466 21.299 6.64915 21.4805 6.54052 21.6605C6.5281 21.6776 6.51724 21.6961 6.50639 21.7148C6.3869 21.9119 6.26585 22.1074 6.14948 22.306C6.1681 22.2098 6.2069 22.1198 6.2069 22.0158V20.4998C6.2069 19.6418 5.51173 18.9481 4.65518 18.9481C3.79861 18.9481 3.10345 19.6418 3.10345 20.4998V22.0158C3.10345 22.874 3.79861 23.5676 4.65518 23.5676C5.04776 23.5676 5.39534 23.4094 5.66845 23.1703C5.01206 24.3481 4.41 25.56 3.85915 26.7998C3.41534 27.0729 3.10345 27.5416 3.10345 28.1002V28.6106C2.56345 29.9871 2.08861 31.396 1.68517 32.8329C1.68207 32.8453 1.67276 32.8531 1.66965 32.864C1.6681 32.8718 1.67121 32.881 1.6681 32.8889C0.589655 36.7465 0 40.8042 0 45C0 49.1958 0.589655 53.2535 1.6681 57.1097C1.66965 57.1174 1.66655 57.1268 1.66965 57.1345C1.67276 57.1484 1.68207 57.1594 1.68672 57.1732C2.09018 58.6085 2.56345 60.0145 3.10345 61.3894V61.8998C3.10345 62.46 3.41534 62.9271 3.85915 63.2002C4.40534 64.4292 4.99966 65.6285 5.64982 66.7971C5.37827 66.5658 5.03845 66.4123 4.65518 66.4123C3.79861 66.4123 3.10345 67.1058 3.10345 67.964V69.48C3.10345 70.3381 3.79861 71.0318 4.65518 71.0318C5.51173 71.0318 6.2069 70.3381 6.2069 69.48V67.964C6.2069 67.8724 6.16966 67.7932 6.15415 67.7048C6.26897 67.9003 6.38845 68.0927 6.50639 68.2852C6.51724 68.3039 6.5281 68.3224 6.54052 68.341C6.65224 68.5242 6.75931 68.7089 6.87258 68.8889C6.89742 68.9292 6.9331 68.9585 6.96103 68.9958C7.96345 70.5802 9.05431 72.104 10.2414 73.5471C10.2522 73.5626 10.2553 73.5797 10.2662 73.5952C10.575 73.9692 10.8885 74.3384 11.2081 74.7016C11.2298 74.7265 11.2609 74.7342 11.2841 74.7574C12.524 76.1618 13.8491 77.4853 15.2535 78.7252C15.2767 78.7484 15.286 78.7795 15.3124 78.8013C15.6755 79.1194 16.0433 79.4327 16.4157 79.7384C16.4281 79.7494 16.4452 79.7524 16.4576 79.7618C17.9162 80.9611 19.4555 82.0629 21.0584 83.0747C21.0818 83.0918 21.0942 83.1166 21.1205 83.1335C21.2911 83.2406 21.4666 83.3431 21.6389 83.4471C21.6715 83.4673 21.704 83.4874 21.7381 83.5076C21.9274 83.6224 22.1152 83.7403 22.3076 83.8521C22.2098 83.8319 22.1198 83.7931 22.0158 83.7931H20.4998C19.6432 83.7931 18.9481 84.4868 18.9481 85.3448C18.9481 86.2029 19.6432 86.8966 20.4998 86.8966H22.0158C22.8724 86.8966 23.5676 86.2029 23.5676 85.3448C23.5676 84.9539 23.4094 84.6047 23.1703 84.3316C24.3481 84.9879 25.56 85.59 26.7998 86.1408C27.0729 86.5847 27.5416 86.8966 28.1002 86.8966H28.6106C29.9885 87.4381 31.3976 87.9115 32.8376 88.3165C32.8469 88.3179 32.8531 88.3256 32.864 88.3289C32.8748 88.3319 32.8842 88.3303 32.895 88.3319C36.7495 89.4103 40.8056 90 45 90C49.1944 90 53.2505 89.4103 57.105 88.3319C57.1158 88.3303 57.1252 88.3303 57.136 88.3289C57.1453 88.3273 57.1516 88.3195 57.1624 88.3165C58.6024 87.9115 60.0115 87.4381 61.3894 86.8966H61.8998C62.46 86.8966 62.9271 86.5847 63.2002 86.1408C64.4292 85.5947 65.6302 85.0003 66.7971 84.3502C66.5658 84.6218 66.4123 84.96 66.4123 85.3448C66.4123 86.2029 67.1074 86.8966 67.964 86.8966H69.48C70.3366 86.8966 71.0318 86.2029 71.0318 85.3448C71.0318 84.4868 70.3366 83.7931 69.48 83.7931H67.964C67.8708 83.7931 67.7902 83.8303 67.7018 83.8458C67.8848 83.7389 68.0648 83.6255 68.2465 83.5169C68.2898 83.4905 68.3318 83.4656 68.3752 83.4394C68.5474 83.3339 68.7211 83.2329 68.8919 83.1274C68.9168 83.1119 68.9292 83.0871 68.9524 83.07C70.5523 82.0598 72.0916 80.9597 73.5471 79.7618C73.561 79.7508 73.5797 79.7461 73.5935 79.7353C73.9676 79.4281 74.3369 79.1147 74.7 78.7934C74.7248 78.7718 74.7342 78.7406 74.7574 78.7174C76.1618 77.476 77.4869 76.1494 78.7282 74.745C78.75 74.7232 78.7795 74.7155 78.7997 74.6923C79.1194 74.3292 79.4327 73.9598 79.7416 73.5858C79.7524 73.5719 79.754 73.5548 79.7648 73.5408C80.9519 72.0977 82.0427 70.574 83.0452 68.9897C83.0731 68.9524 83.1089 68.9229 83.1335 68.8826C83.2453 68.7042 83.3508 68.5226 83.4595 68.3426C83.4703 68.324 83.4827 68.3053 83.4935 68.2868C83.6131 68.0897 83.7342 67.8942 83.8505 67.6955C83.8319 67.7918 83.7931 67.8802 83.7931 67.9842V69.5002C83.7931 70.3582 84.4882 71.0519 85.3448 71.0519C86.2015 71.0519 86.8966 70.3582 86.8966 69.5002V67.9842C86.8966 67.126 86.2015 66.4324 85.3448 66.4324C84.9523 66.4324 84.6047 66.5906 84.3316 66.8297C84.9879 65.6519 85.59 64.44 86.1408 63.2002C86.5847 62.9271 86.8966 62.4584 86.8966 61.8998V61.3894C87.4366 60.016 87.9082 58.6102 88.3132 57.1732C88.3165 57.1594 88.3273 57.15 88.3303 57.1345ZM80.8015 66.7411C77.3131 72.464 72.4934 77.2868 66.7753 80.7797C66.7273 80.8092 66.6776 80.8385 66.6295 80.8681C63.8984 82.5206 60.961 83.866 57.87 84.8653L53.5423 67.5544C59.9866 65.1042 65.1056 59.985 67.5558 53.5406L84.8669 57.8684C83.8615 60.9734 82.5115 63.9248 80.8465 66.6682C80.8308 66.6916 80.8169 66.7165 80.8015 66.7411ZM23.3566 80.8589C23.3177 80.8355 23.279 80.8123 23.2402 80.789C17.519 77.2976 12.6947 72.4718 9.20482 66.749C9.18621 66.7195 9.16758 66.6884 9.15052 66.659C7.48861 63.9185 6.13861 60.9703 5.13466 57.8684L22.4456 53.5406C24.8944 59.985 30.015 65.1042 36.4594 67.5544L32.1316 84.8653C29.0344 83.8629 26.0923 82.516 23.3566 80.8589ZM9.19861 23.2589C12.6869 17.536 17.5065 12.7133 23.2247 9.22034C23.2727 9.19085 23.3224 9.16139 23.3705 9.1319C26.1016 7.47931 29.039 6.13397 32.13 5.13466L36.4577 22.4456C30.0134 24.8958 24.8944 30.015 22.4442 36.4594L5.1331 32.1316C6.13861 29.0266 7.48863 26.0752 9.15361 23.3318C9.16915 23.3084 9.1831 23.2835 9.19861 23.2589ZM21.5302 39.4277C21.105 41.22 20.8552 43.079 20.8552 45C20.8552 46.921 21.105 48.78 21.5302 50.5723L4.29206 54.8815C3.52085 51.7111 3.10345 48.4045 3.10345 45C3.10345 41.5955 3.52085 38.2889 4.29206 35.1185L21.5302 39.4277ZM23.9585 45C23.9585 33.3977 33.3977 23.9585 45 23.9585C56.6023 23.9585 66.0415 33.3977 66.0415 45C66.0415 56.6023 56.6023 66.0415 45 66.0415C33.3977 66.0415 23.9585 56.6023 23.9585 45ZM66.6434 9.14121C66.6823 9.16448 66.721 9.18776 66.7598 9.21103C72.4748 12.6993 77.2929 17.5159 80.7811 23.2294C80.8092 23.2758 80.8371 23.3208 80.8634 23.3658C82.5176 26.0984 83.8629 29.0374 84.8637 32.13L67.5527 36.4577C65.1042 30.0134 59.9834 24.8944 53.5392 22.4442L57.8669 5.1331C60.9656 6.13706 63.9077 7.48397 66.6434 9.14121ZM86.8966 45C86.8966 48.4045 86.4792 51.7111 85.7079 54.8815L68.4698 50.5723C68.895 48.78 69.1448 46.921 69.1448 45C69.1448 43.079 68.895 41.22 68.4698 39.4277L85.7079 35.1185C86.4792 38.2889 86.8966 41.5955 86.8966 45ZM54.8815 4.29206L50.5723 21.5318C48.78 21.105 46.921 20.8552 45 20.8552C43.079 20.8552 41.22 21.105 39.4277 21.5302L35.1185 4.29052C38.2889 3.52242 41.5955 3.10345 45 3.10345C48.4045 3.10345 51.7111 3.52242 54.8815 4.29206ZM35.1185 85.7079L39.4277 68.4682C41.22 68.8934 43.079 69.1432 45 69.1432C46.921 69.1432 48.78 68.8934 50.5723 68.4682L54.8815 85.7079C51.7111 86.4776 48.4045 86.8966 45 86.8966C41.5955 86.8966 38.2889 86.4776 35.1185 85.7079Z" fill="#1DA2FC"/>
<path d="M6.14167 8.75027C6.59477 8.75027 7.04633 8.55164 7.35201 8.17148C7.59874 7.86424 7.87804 7.58492 8.18064 7.3444C8.85098 6.80906 8.96116 5.83303 8.42737 5.16424C7.89201 4.49233 6.91598 4.38216 6.24564 4.91597C5.76461 5.30079 5.32237 5.73993 4.93288 6.22561C4.39598 6.89285 4.50149 7.87045 5.17028 8.40734C5.45582 8.637 5.79874 8.75027 6.14167 8.75027Z" fill="#FC951D"/>
<path d="M4.65512 15.989C5.51167 15.989 6.20683 15.2954 6.20683 14.4373V12.9197C6.20683 12.0616 5.51167 11.368 4.65512 11.368C3.79855 11.368 3.10339 12.0616 3.10339 12.9197V14.4373C3.10339 15.2939 3.79855 15.989 4.65512 15.989Z" fill="#FC951D"/>
<path d="M12.9398 6.20688H14.4558C15.3124 6.20688 16.0075 5.51325 16.0075 4.65515C16.0075 3.79705 15.3124 3.10342 14.4558 3.10342H12.9398C12.0832 3.10342 11.3881 3.79705 11.3881 4.65515C11.3881 5.51325 12.0832 6.20688 12.9398 6.20688Z" fill="#FC951D"/>
<path d="M83.7931 12.9399V14.4575C83.7931 15.3156 84.4882 16.0092 85.3449 16.0092C86.2015 16.0092 86.8967 15.3156 86.8967 14.4575V12.9399C86.8967 12.0818 86.2015 11.3882 85.3449 11.3882C84.4882 11.3882 83.7931 12.0818 83.7931 12.9399Z" fill="#FC951D"/>
<path d="M82.6572 8.1791C82.9645 8.56394 83.4161 8.7641 83.8722 8.7641C84.212 8.7641 84.5519 8.65394 84.839 8.42583C85.5093 7.89049 85.6195 6.91446 85.0856 6.24567C84.6993 5.76152 84.2587 5.31928 83.7745 4.9298C83.1072 4.39601 82.1296 4.50152 81.5927 5.16877C81.0557 5.83756 81.1628 6.81515 81.8317 7.35049C82.1357 7.59722 82.4137 7.87498 82.6572 8.1791Z" fill="#FC951D"/>
<path d="M75.5628 6.20688H77.0787C77.9353 6.20688 78.6305 5.51325 78.6305 4.65515C78.6305 3.79705 77.9353 3.10342 77.0787 3.10342H75.5628C74.7062 3.10342 74.011 3.79705 74.011 4.65515C74.011 5.51325 74.7062 6.20688 75.5628 6.20688Z" fill="#FC951D"/>
<path d="M82.6495 81.8285C82.4028 82.1358 82.1236 82.4152 81.821 82.6556C81.1505 83.191 81.0403 84.1669 81.5742 84.8358C81.8815 85.2206 82.3329 85.4208 82.7892 85.4208C83.1291 85.4208 83.4689 85.3106 83.756 85.0826C84.2386 84.6977 84.6807 84.2585 85.0702 83.7729C85.6071 83.104 85.5016 82.1264 84.8328 81.5911C84.1641 81.0574 83.1865 81.1643 82.6495 81.8285Z" fill="#FC951D"/>
<path d="M77.0602 83.7932H75.5442C74.6876 83.7932 73.9924 84.4868 73.9924 85.3448C73.9924 86.2029 74.6876 86.8966 75.5442 86.8966H77.0602C77.9168 86.8966 78.612 86.2029 78.612 85.3448C78.612 84.4868 77.9168 83.7932 77.0602 83.7932Z" fill="#FC951D"/>
<path d="M85.3449 74.011C84.4882 74.011 83.7931 74.7045 83.7931 75.5627V77.0803C83.7931 77.9384 84.4882 78.6319 85.3449 78.6319C86.2015 78.6319 86.8967 77.9384 86.8967 77.0803V75.5627C86.8967 74.7061 86.2015 74.011 85.3449 74.011Z" fill="#FC951D"/>
<path d="M14.4373 83.7932H12.9212C12.0647 83.7932 11.3695 84.4868 11.3695 85.3448C11.3695 86.2029 12.0647 86.8966 12.9212 86.8966H14.4373C15.2938 86.8966 15.989 86.2029 15.989 85.3448C15.989 84.4868 15.2938 83.7932 14.4373 83.7932Z" fill="#FC951D"/>
<path d="M6.20683 77.0603V75.5426C6.20683 74.6845 5.51167 73.991 4.65512 73.991C3.79855 73.991 3.10339 74.6845 3.10339 75.5426V77.0603C3.10339 77.9184 3.79855 78.6119 4.65512 78.6119C5.51167 78.6119 6.20683 77.9184 6.20683 77.0603Z" fill="#FC951D"/>
<path d="M7.34273 81.8208C6.80739 81.1489 5.83136 81.042 5.16257 81.5742C4.49221 82.1095 4.38203 83.0855 4.91584 83.7544C5.30221 84.2384 5.7429 84.6807 6.22703 85.0702C6.51411 85.2982 6.85703 85.4115 7.19687 85.4115C7.64997 85.4115 8.10152 85.2129 8.40721 84.8311C8.94411 84.1624 8.83703 83.1849 8.16824 82.6495C7.86411 82.4028 7.58636 82.125 7.34273 81.8208Z" fill="#FC951D"/>
</g>
<defs>
<clipPath id="clip0_2_1060">
<rect width="90" height="90" fill="white"/>
</clipPath>
</defs>
</svg>
