<?xml version="1.0"?>
<svg width="34" height="30" xmlns="http://www.w3.org/2000/svg" xmlns:svg="http://www.w3.org/2000/svg">
 <g class="layer">
  <title>Layer 1</title>
  <path d="m21.67,5l0,-3.33c0,-0.92 -0.75,-1.67 -1.67,-1.67l-6.67,0c-0.92,0 -1.66,0.75 -1.66,1.67l0,3.33l-11.67,0l0,3.33l11.67,0l0,3.34c0,0.92 0.74,1.66 1.66,1.66l6.67,0c0.92,0 1.67,-0.74 1.67,-1.66l0,-3.34l11.66,0l0,-3.33l-11.66,0l0,0z" fill="#2448b6" id="svg_1" transform="matrix(1 0 0 1 0 0)"/>
  <path d="m30,18.33c0,-0.92 -0.75,-1.66 -1.67,-1.66l-6.66,0c-0.92,0 -1.67,0.74 -1.67,1.66l0,3.34l-20,0l0,3.33l20,0l0,3.33c0,0.92 0.75,1.67 1.67,1.67l6.66,0c0.92,0 1.67,-0.75 1.67,-1.67l0,-3.33l3.33,0l0,-3.33l-3.33,0l0,-3.34z" fill="#2448b6" id="svg_2"/>
 </g>
</svg>