<?xml version="1.0"?>
<svg width="34" height="34" xmlns="http://www.w3.org/2000/svg" xmlns:svg="http://www.w3.org/2000/svg">
 <g class="layer">
  <title>Layer 1</title>
  <path d="m16.67,0c-4.53,0 -8.71,1.81 -11.77,4.9l-3.23,-3.23l0,10l10,0l-4.42,-4.42c2.46,-2.46 5.8,-3.92 9.42,-3.92c7.35,0 13.33,5.98 13.33,13.34c0,7.35 -5.98,13.33 -13.33,13.33c-7.36,0 -13.34,-5.98 -13.34,-13.33l-3.33,0c0,9.19 7.48,16.66 16.67,16.66c9.19,0 16.66,-7.47 16.66,-16.66c0,-9.2 -7.47,-16.67 -16.66,-16.67z" fill="#2448b6" id="svg_1"/>
 </g>
</svg>