<?xml version="1.0"?>
<svg width="40" height="40" xmlns="http://www.w3.org/2000/svg" xmlns:svg="http://www.w3.org/2000/svg">
 <g class="layer">
  <title>Layer 1</title>
  <path d="m33.33,11l0,-6.67c0,-1.84 -1.49,-3.33 -3.33,-3.33l-26.67,0c-1.84,0 -3.33,1.49 -3.33,3.33l0,6.67l33.33,0zm-6.66,-6.67c0.92,0 1.66,0.75 1.66,1.67c0,0.92 -0.74,1.67 -1.66,1.67c-0.92,0 -1.67,-0.75 -1.67,-1.67c0,-0.92 0.75,-1.67 1.67,-1.67zm-5,0c0.92,0 1.66,0.75 1.66,1.67c0,0.92 -0.74,1.67 -1.66,1.67c-0.92,0 -1.67,-0.75 -1.67,-1.67c0,-0.92 0.75,-1.67 1.67,-1.67zm-16.67,0l8.33,0l0,3.34l-8.33,0l0,-3.34z" fill="#2448b6" id="svg_1"/>
  <path d="m0,11.67l0,10l19.6,0c1.48,-1.84 3.44,-3.28 5.68,-4.13c-0.16,-0.26 -0.28,-0.54 -0.28,-0.87c0,-0.92 0.75,-1.67 1.67,-1.67c0.92,0 1.66,0.75 1.66,1.67c0,0.04 -0.02,0.08 -0.02,0.12c0.55,-0.07 1.12,-0.12 1.69,-0.12c1.15,0 2.27,0.16 3.33,0.43l0,-5.43l-33.33,0zm13.33,6.66l-8.33,0l0,-3.33l8.33,0l0,3.33zm8.34,0c-0.92,0 -1.67,-0.74 -1.67,-1.66c0,-0.92 0.75,-1.67 1.67,-1.67c0.92,0 1.66,0.75 1.66,1.67c0,0.92 -0.74,1.66 -1.66,1.66z" fill="#2448b6" id="svg_2"/>
  <path d="m16.67,30c0,-2.43 0.66,-4.7 1.79,-6.67l-18.46,0l0,6.67c0,1.84 1.49,3.33 3.33,3.33l13.77,0c-0.27,-1.07 -0.43,-2.18 -0.43,-3.33zm-3.34,0l-8.33,0l0,-3.33l8.33,0l0,3.33z" fill="#2448b6" id="svg_3"/>
  <path d="m29,18l2.86,7.14l7.14,0l-6.18,5.22l3.32,7.64l-7.14,-4.72l-7.14,4.72l3.32,-7.64l-6.18,-5.22l7.14,0l2.86,-7.14z" fill="#2448b6" id="svg_4"/>
 </g>
</svg>