<?xml version="1.0" encoding="UTF-8"?>
<!DOCTYPE svg PUBLIC "-//W3C//DTD SVG 1.1//EN" "http://www.w3.org/Graphics/SVG/1.1/DTD/svg11.dtd">
<!-- Creator: CorelDRAW X8 -->
<svg xmlns="http://www.w3.org/2000/svg" xml:space="preserve" width="136.313mm" height="81.9572mm" version="1.1" style="shape-rendering:geometricPrecision; text-rendering:geometricPrecision; image-rendering:optimizeQuality; fill-rule:evenodd; clip-rule:evenodd"
viewBox="0 0 18529 11140"
 xmlns:xlink="http://www.w3.org/1999/xlink">
 <defs>
  <style type="text/css">
   <![CDATA[
    .fil0 {fill:none}
    .fil3 {fill:#84BCFF}
    .fil7 {fill:#FEFEFE;fill-rule:nonzero}
    .fil13 {fill:#FEFEFE;fill-rule:nonzero}
    .fil12 {fill:#E9F0FA;fill-rule:nonzero}
    .fil6 {fill:#D8E3F5;fill-rule:nonzero}
    .fil11 {fill:#5D595E;fill-rule:nonzero}
    .fil16 {fill:#1A59B1;fill-rule:nonzero}
    .fil10 {fill:#5380EA;fill-rule:nonzero}
    .fil5 {fill:#84BCFF;fill-rule:nonzero}
    .fil17 {fill:#FC2C7D;fill-rule:nonzero}
    .fil19 {fill:#FC2C7D;fill-rule:nonzero}
    .fil18 {fill:#FC5F9F;fill-rule:nonzero}
    .fil2 {fill:url(#id0)}
    .fil8 {fill:url(#id1)}
    .fil27 {fill:url(#id2)}
    .fil21 {fill:url(#id3)}
    .fil22 {fill:url(#id4)}
    .fil9 {fill:url(#id5)}
    .fil26 {fill:url(#id6)}
    .fil15 {fill:url(#id7);fill-rule:nonzero}
    .fil25 {fill:url(#id8);fill-rule:nonzero}
    .fil28 {fill:url(#id9);fill-rule:nonzero}
    .fil4 {fill:url(#id10);fill-rule:nonzero}
    .fil23 {fill:url(#id11);fill-rule:nonzero}
    .fil14 {fill:url(#id12);fill-rule:nonzero}
    .fil20 {fill:url(#id13);fill-rule:nonzero}
    .fil24 {fill:url(#id14);fill-rule:nonzero}
    .fil29 {fill:url(#id15);fill-rule:nonzero}
    .fil1 {fill:url(#id16);fill-rule:nonzero}
   ]]>
  </style>
  <linearGradient id="id0" gradientUnits="userSpaceOnUse" x1="14822" y1="3359.68" x2="7819.86" y2="4789.94">
   <stop offset="0" style="stop-opacity:1; stop-color:#1153A8"/>
   <stop offset="1" style="stop-opacity:1; stop-color:#5A85F2"/>
  </linearGradient>
  <linearGradient id="id1" gradientUnits="userSpaceOnUse" x1="10968" y1="9332.88" x2="10974.8" y2="9557.43">
   <stop offset="0" style="stop-opacity:1; stop-color:#CEC5E3"/>
   <stop offset="1" style="stop-opacity:1; stop-color:#553588"/>
  </linearGradient>
  <linearGradient id="id2" gradientUnits="userSpaceOnUse" xlink:href="#id1" x1="4921.11" y1="5434.33" x2="4956.19" y2="5464.37">
  </linearGradient>
  <linearGradient id="id3" gradientUnits="userSpaceOnUse" xlink:href="#id1" x1="5912.38" y1="8497.75" x2="5918.32" y2="8693.61">
  </linearGradient>
  <linearGradient id="id4" gradientUnits="userSpaceOnUse" xlink:href="#id1" x1="5883.62" y1="8865" x2="5934.99" y2="8908.96">
  </linearGradient>
  <linearGradient id="id5" gradientUnits="userSpaceOnUse" xlink:href="#id1" x1="10935" y1="9753.96" x2="10993.9" y2="9804.35">
  </linearGradient>
  <linearGradient id="id6" gradientUnits="userSpaceOnUse" xlink:href="#id1" x1="4940.75" y1="5183.36" x2="4944.82" y2="5317.21">
  </linearGradient>
  <linearGradient id="id7" gradientUnits="userSpaceOnUse" xlink:href="#id0" x1="9256.16" y1="9669.64" x2="8797.72" y2="9819.08">
  </linearGradient>
  <linearGradient id="id8" gradientUnits="userSpaceOnUse" xlink:href="#id0" x1="5492.08" y1="5461.32" x2="5451.29" y2="4965.1">
  </linearGradient>
  <linearGradient id="id9" gradientUnits="userSpaceOnUse" xlink:href="#id0" x1="4184.49" y1="5286.82" x2="3666.28" y2="5423.48">
  </linearGradient>
  <linearGradient id="id10" gradientUnits="userSpaceOnUse" xlink:href="#id0" x1="11892.9" y1="9799.25" x2="11824.5" y2="8966.75">
  </linearGradient>
  <linearGradient id="id11" gradientUnits="userSpaceOnUse" xlink:href="#id0" x1="4805.66" y1="8649.11" x2="4047.36" y2="8849.1">
  </linearGradient>
  <linearGradient id="id12" gradientUnits="userSpaceOnUse" xlink:href="#id0" x1="9699.17" y1="9506.43" x2="8829.78" y2="9735.72">
  </linearGradient>
  <linearGradient id="id13" gradientUnits="userSpaceOnUse" xlink:href="#id0" x1="6719.15" y1="8904.51" x2="6659.47" y2="8178.37">
  </linearGradient>
  <linearGradient id="id14" gradientUnits="userSpaceOnUse" xlink:href="#id0" x1="4419.28" y1="8791.45" x2="4019.38" y2="8921.81">
  </linearGradient>
  <linearGradient id="id15" gradientUnits="userSpaceOnUse" xlink:href="#id0" x1="3920.42" y1="5384.07" x2="3647.17" y2="5473.15">
  </linearGradient>
  <linearGradient id="id16" gradientUnits="userSpaceOnUse" x1="9651.99" y1="8843.54" x2="10898.8" y2="5990.64">
   <stop offset="0" style="stop-opacity:1; stop-color:#BF2B84"/>
   <stop offset="0.419608" style="stop-opacity:1; stop-color:#8746B3"/>
   <stop offset="1" style="stop-opacity:1; stop-color:#4E61E2"/>
  </linearGradient>
 </defs>
 <g id="Слой_x0020_1">
  <metadata id="CorelCorpID_0Corel-Layer"/>
  <rect class="fil0" width="18529" height="11140"/>
  <g id="_3012576614576">
   <path class="fil1" d="M12009 7631l-2732 -1578 -3557 2079 -148 -122 3530 -2059 -3075 -1775 -1657 972 -207 -86 1858 -1087c468,260 2348,1349 3256,1874l1098 -639 88 151 -1010 590c88,51 161,93 214,124l-2 0 2519 1454 -1 1 184 94 -2507 1468 -353 0 2502 -1461z"/>
   <g>
    <path class="fil2" d="M7726 1941l-2 -554 305 -158c475,-245 830,-124 1217,221l327 -247c1280,-992 2728,876 2793,1942 886,189 1410,1035 1531,1784 622,157 1035,897 1020,1369 0,301 -105,514 -275,615l-437 253 -551 -752 -701 -148 -4038 -2331c-516,-298 -953,-942 -1100,-1567l-89 -427z"/>
    <path class="fil3" d="M8949 1825c211,-680 894,-843 1658,-402 834,531 1126,1267 1316,1944 832,174 1459,1101 1507,1846 828,249 1124,1158 982,1661 -112,399 -553,521 -991,268l-5047 -2915c-637,-367 -1153,-1261 -1153,-1996 0,-1254 1424,-981 1728,-406z"/>
   </g>
   <g>
    <g>
     <path class="fil4" d="M12164 9555c0,-203 -142,-450 -318,-552 -91,-52 -173,-55 -231,-18l-62 35 455 778 67 -39c56,-34 89,-104 89,-204z"/>
     <path class="fil5" d="M12095 9595c0,204 -142,286 -318,185 -177,-102 -319,-349 -319,-552 0,-204 142,-286 319,-184 176,101 318,348 318,551z"/>
     <path class="fil6" d="M11939 9505c0,-103 -73,-229 -162,-281 -47,-27 -89,-29 -118,-10l-683 394 233 397 684 -395c28,-18 46,-54 46,-105z"/>
     <path class="fil7" d="M11252 9902c0,103 -72,145 -162,93 -89,-51 -162,-178 -162,-281 0,-104 73,-145 162,-94 90,52 162,178 162,282z"/>
     <path class="fil8" d="M10991 9645c-22,28 -37,80 -37,80 0,0 32,100 78,173l-165 128 0 69 226 -130 17 -26 -17 -43c-44,-25 -79,-86 -79,-136l0 -132 -23 17z"/>
     <polygon class="fil9" points="11014,9628 11006,9632 11006,9631 10768,9767 10775,9811 10994,9689 11006,9635 "/>
     <path class="fil10" d="M11093 9896l-226 130c-182,-31 -79,-267 -79,-267l226 -131c0,0 -71,221 79,268z"/>
     <path class="fil7" d="M10867 10026c-44,-24 -79,-85 -79,-136l0 -131c-36,8 -60,43 -60,97 0,88 62,195 139,239l17 -26 -17 -43z"/>
     <polygon class="fil5" points="10797,9905 10951,9994 11167,9370 10797,9406 "/>
     <polygon class="fil11" points="10951,9494 11167,9370 11013,9281 10797,9406 "/>
     <polygon class="fil10" points="10951,9994 11167,9870 11167,9370 10951,9494 "/>
     <polygon class="fil10" points="10867,10026 10936,9986 10945,9991 11031,9932 11051,10015 10893,10081 "/>
     <path class="fil6" d="M11231 9885c0,-55 -24,-116 -59,-166l-227 131 37 162 -16 92 222 -129c27,-13 43,-45 43,-90z"/>
     <path class="fil7" d="M10867 10095c76,44 138,8 138,-80 0,-54 -24,-116 -60,-165l0 131c0,50 -35,71 -78,45l0 69z"/>
     <path class="fil12" d="M11359 7709l-443 -256c-64,-37 -122,-41 -164,-17l-1749 1009 782 1755 1740 -1004 2 -1 0 0c42,-25 68,-78 68,-152l0 -926c0,-150 -106,-334 -236,-408z"/>
     <path class="fil6" d="M9785 10200l1740 -1004 2 -1 0 0c42,-25 68,-78 68,-152l0 -926 -1745 1007 -132 351 67 725z"/>
     <path class="fil13" d="M9850 10051c0,149 -106,211 -236,136l-443 -256c-129,-75 -235,-259 -235,-408l0 -927c0,-150 106,-211 235,-136l443 256c130,75 236,259 236,408l0 927z"/>
     <path class="fil14" d="M9711 9711c0,-203 -142,-450 -318,-552 -86,-50 -164,-55 -222,-24l-353 213 24 39c-13,31 -19,68 -19,110 0,203 143,450 319,552 46,25 88,40 127,42l17 26 347 -211c49,-37 78,-104 78,-195z"/>
     <path class="fil5" d="M9374 9914c0,203 -143,285 -319,184 -175,-102 -317,-349 -317,-551 0,-203 142,-286 317,-185 176,103 319,349 319,552z"/>
     <path class="fil15" d="M8791 9594c0,161 114,357 253,439 93,53 174,43 218,-17 -38,5 -84,-6 -133,-33 -141,-81 -254,-278 -254,-440 0,-54 13,-97 35,-128 -70,9 -119,75 -119,179z"/>
     <path class="fil16" d="M8875 9543c0,162 113,359 254,440 49,27 95,38 133,33 24,-31 36,-75 36,-129 0,-162 -113,-359 -254,-439 -49,-30 -94,-39 -134,-33 -22,31 -35,74 -35,128z"/>
     <path class="fil17" d="M9507 8919c0,-73 -51,-161 -114,-198 -30,-17 -57,-19 -77,-9l-50 28 14 26 -2 22c1,73 52,161 115,197l18 9 16 27 49 -29 -1 0c20,-12 32,-37 32,-73z"/>
     <path class="fil18" d="M9461 8946c0,73 -51,102 -115,66 -62,-37 -114,-125 -114,-198 0,-72 52,-102 114,-66 64,37 115,125 115,198z"/>
    </g>
    <g>
     <path class="fil19" d="M9115 9596c-48,-29 -87,-6 -87,50 0,56 39,123 87,151 48,28 87,6 87,-50 0,-56 -39,-124 -87,-151z"/>
     <path class="fil19" d="M9105 9519c11,6 21,4 25,-6 -17,-16 -34,-31 -52,-44l0 3c0,17 12,38 27,47z"/>
     <path class="fil19" d="M9105 9886c-15,-8 -27,-2 -27,16 0,17 12,37 27,46 14,8 27,1 27,-15 0,-18 -13,-39 -27,-47z"/>
     <path class="fil19" d="M9234 9656c-7,-14 -16,-29 -24,-42l8 23 16 19z"/>
     <path class="fil19" d="M8954 9745c-10,6 -10,26 0,44 11,18 27,28 38,22 11,-6 11,-26 0,-44 -11,-18 -27,-28 -38,-22z"/>
     <path class="fil19" d="M9264 9795c0,16 12,37 27,46l5 2c-3,-22 -7,-45 -14,-67 -11,-2 -18,4 -18,19z"/>
     <path class="fil19" d="M8919 9564c-15,-9 -27,-2 -27,15 0,17 12,38 27,47 15,8 27,1 27,-16 0,-17 -12,-37 -27,-46z"/>
     <path class="fil19" d="M9218 9898c-11,6 -11,25 0,43 10,18 27,28 37,22 10,-6 10,-26 0,-44 -10,-18 -27,-28 -37,-21z"/>
     <path class="fil19" d="M8954 9442c-10,5 -10,26 0,43 11,19 27,28 38,22 11,-6 11,-25 0,-43 -11,-19 -27,-28 -38,-22z"/>
    </g>
   </g>
   <g>
    <g>
     <path class="fil20" d="M6956 8692c0,-178 -124,-393 -278,-482 -79,-45 -151,-48 -201,-16l-54 31 397 678 58 -33c48,-30 78,-91 78,-178z"/>
     <path class="fil5" d="M6896 8727c0,177 -125,249 -278,160 -154,-88 -279,-304 -279,-481 0,-178 125,-249 279,-160 153,88 278,304 278,481z"/>
     <path class="fil6" d="M6759 8648c0,-90 -63,-200 -141,-245 -41,-23 -78,-25 -103,-9l-595 344 202 346 597 -345c25,-15 40,-47 40,-91z"/>
     <path class="fil7" d="M6160 8994c0,90 -63,126 -141,81 -78,-45 -141,-155 -141,-245 0,-90 63,-127 141,-82 78,45 141,155 141,246z"/>
     <path class="fil21" d="M5933 8770c-20,24 -32,70 -32,70 0,0 27,87 67,150l-144 112 0 61 197 -114 16 -23 -16 -37c-38,-22 -68,-75 -68,-119l0 -114 -20 14z"/>
     <polygon class="fil22" points="5953,8756 5945,8758 5945,8758 5738,8876 5744,8914 5935,8809 5945,8761 "/>
     <path class="fil10" d="M6021 8989l-197 113c-159,-27 -69,-232 -69,-232l198 -114c0,0 -62,192 68,233z"/>
     <path class="fil7" d="M5824 9102c-38,-21 -69,-74 -69,-118l0 -114c-31,7 -52,37 -52,84 0,77 54,170 121,209l15 -23 -15 -38z"/>
     <polygon class="fil5" points="5763,8997 5897,9075 6086,8530 5763,8561 "/>
     <polygon class="fil11" points="5897,8639 6086,8530 5952,8452 5763,8561 "/>
     <polygon class="fil10" points="5897,9075 6086,8966 6086,8530 5897,8639 "/>
     <polygon class="fil10" points="5824,9102 5885,9068 5893,9072 5967,9020 5985,9093 5847,9150 "/>
     <path class="fil6" d="M6142 8979c0,-47 -21,-101 -52,-144l-197 114 32 141 -15 80 195 -112c23,-12 37,-39 37,-79z"/>
     <path class="fil7" d="M5824 9163c67,38 120,7 120,-70 0,-47 -20,-101 -51,-144l0 114c0,44 -31,62 -69,39l0 61z"/>
     <path class="fil12" d="M6254 7081l-387 -223c-55,-32 -106,-36 -143,-15l-1525 880 682 1531 1517 -876 2 -1 0 0c37,-22 59,-67 59,-132l0 -808c0,-131 -92,-291 -205,-356z"/>
     <path class="fil6" d="M4881 9254l1517 -876 2 -1 0 0c37,-22 59,-67 59,-132l0 -808 -1522 879 -115 306 59 632z"/>
     <path class="fil13" d="M4937 9124c0,130 -92,184 -205,118l-387 -223c-113,-65 -205,-225 -205,-356l0 -808c0,-130 92,-184 205,-118l387 223c113,65 205,225 205,356l0 808z"/>
     <path class="fil23" d="M4816 8828c0,-178 -124,-393 -278,-482 -75,-43 -143,-48 -193,-21l-308 186 21 34c-11,27 -16,59 -16,96 0,177 124,392 278,481 39,22 76,35 111,37l14 22 303 -183c43,-32 68,-91 68,-170z"/>
     <path class="fil5" d="M4522 9005c0,176 -125,248 -278,160 -153,-89 -277,-305 -277,-481 0,-177 124,-249 277,-161 153,90 278,305 278,482z"/>
     <path class="fil24" d="M4014 8726c0,140 99,311 220,383 82,46 152,36 191,-16 -34,5 -74,-4 -116,-29 -124,-70 -222,-241 -222,-383 0,-47 11,-85 30,-112 -61,8 -103,66 -103,157z"/>
     <path class="fil16" d="M4087 8681c0,142 98,313 222,383 42,25 82,34 116,29 20,-26 31,-64 31,-112 0,-141 -99,-313 -222,-383 -42,-26 -82,-34 -117,-29 -19,27 -30,65 -30,112z"/>
     <path class="fil17" d="M4638 8137c0,-64 -45,-141 -100,-173 -26,-15 -49,-16 -67,-8l-43 25 12 22 -1 19c0,64 44,141 99,173l17 7 13 23 43 -24 -1 -1c17,-10 28,-32 28,-63z"/>
     <path class="fil18" d="M4598 8160c0,64 -45,90 -100,58 -55,-32 -100,-109 -100,-173 1,-63 45,-89 100,-57 55,31 100,109 100,172z"/>
    </g>
    <g>
     <path class="fil19" d="M4296 8727c-42,-25 -76,-5 -76,44 0,48 34,107 76,132 42,24 76,4 76,-44 0,-49 -34,-108 -76,-132z"/>
     <path class="fil19" d="M4287 8660c10,5 19,3 22,-5 -15,-14 -30,-27 -45,-39l0 3c0,15 10,33 23,41z"/>
     <path class="fil19" d="M4287 8980c-13,-7 -23,-1 -23,14 0,15 10,33 23,40 13,8 24,1 24,-13 0,-15 -11,-34 -24,-41z"/>
     <path class="fil19" d="M4400 8780c-7,-13 -14,-25 -21,-37l7 20 14 17z"/>
     <path class="fil19" d="M4156 8857c-9,6 -9,23 0,39 9,15 24,24 33,19 9,-6 9,-23 0,-38 -9,-16 -24,-25 -33,-20z"/>
     <path class="fil19" d="M4426 8900c0,15 10,33 23,41l5 2c-3,-20 -6,-39 -12,-59 -9,-2 -16,4 -16,16z"/>
     <path class="fil19" d="M4125 8700c-13,-8 -23,-2 -23,13 0,15 10,33 23,40 13,8 23,2 23,-13 0,-15 -10,-33 -23,-40z"/>
     <path class="fil19" d="M4386 8990c-10,6 -10,22 0,38 8,16 23,24 32,19 9,-5 9,-22 0,-38 -9,-16 -24,-24 -32,-19z"/>
     <path class="fil19" d="M4156 8592c-9,6 -9,23 0,39 9,16 24,24 33,19 9,-5 9,-22 0,-38 -9,-16 -24,-25 -33,-20z"/>
    </g>
   </g>
   <g>
    <g>
     <path class="fil25" d="M5654 5316c0,-121 -85,-268 -190,-329 -54,-31 -103,-33 -138,-11l-37 21 272 463 39 -22c34,-21 54,-63 54,-122z"/>
     <path class="fil5" d="M5613 5340c0,121 -85,170 -190,110 -105,-61 -190,-208 -190,-329 0,-122 85,-171 190,-110 105,60 190,208 190,329z"/>
     <path class="fil6" d="M5519 5286c0,-62 -43,-137 -96,-168 -28,-15 -53,-17 -71,-5l-406 235 138 236 408 -236c17,-10 27,-32 27,-62z"/>
     <path class="fil7" d="M5110 5522c0,62 -43,87 -96,56 -54,-31 -97,-106 -97,-168 0,-61 43,-86 97,-56 53,31 96,106 96,168z"/>
     <path class="fil26" d="M4955 5369c-14,17 -22,48 -22,48 0,0 19,59 46,103l-98 77 0 41 134 -78 11 -16 -11 -25c-26,-15 -47,-51 -47,-81l0 -78 -13 9z"/>
     <polygon class="fil27" points="4968,5360 4963,5361 4963,5361 4821,5442 4826,5468 4956,5396 4963,5363 "/>
     <path class="fil10" d="M5015 5519l-134 78c-109,-19 -48,-160 -48,-160l135 -77c0,0 -42,131 47,159z"/>
     <path class="fil7" d="M4881 5597c-27,-15 -48,-51 -48,-81l0 -79c-21,5 -35,26 -35,58 0,53 37,116 83,143l10 -16 -10 -25z"/>
     <polygon class="fil5" points="4839,5525 4930,5578 5059,5205 4839,5227 "/>
     <polygon class="fil11" points="4930,5280 5059,5205 4968,5152 4839,5227 "/>
     <polygon class="fil10" points="4930,5578 5059,5503 5059,5205 4930,5280 "/>
     <polygon class="fil10" points="4881,5597 4922,5573 4927,5576 4978,5540 4991,5590 4896,5629 "/>
     <path class="fil6" d="M5097 5512c0,-32 -14,-69 -35,-98l-135 77 22 97 -10 55 133 -77c16,-8 25,-27 25,-54z"/>
     <path class="fil7" d="M4881 5638c45,26 82,5 82,-48 0,-32 -15,-69 -36,-99l0 79c0,30 -21,42 -46,27l0 41z"/>
     <path class="fil12" d="M5174 4215l-264 -152c-38,-22 -73,-25 -98,-10l-1042 601 466 1046 1037 -598 1 -1 0 0c25,-15 40,-46 40,-90l0 -553c0,-89 -63,-198 -140,-243z"/>
     <path class="fil6" d="M4236 5700l1037 -598 1 -1 0 0c25,-15 40,-46 40,-90l0 -553 -1040 601 -78 209 40 432z"/>
     <path class="fil13" d="M4274 5611c0,89 -63,126 -140,81l-264 -152c-77,-45 -141,-154 -141,-244l0 -552c0,-89 64,-126 141,-81l264 153c77,44 140,154 140,243l0 552z"/>
     <path class="fil28" d="M4192 5409c0,-121 -85,-268 -190,-330 -51,-29 -98,-32 -133,-14l-210 127 15 24c-8,18 -11,40 -11,65 0,121 85,268 189,329 28,15 53,24 76,25l10 16 207 -126c29,-22 47,-62 47,-116z"/>
     <path class="fil5" d="M3991 5530c0,121 -85,170 -190,109 -105,-60 -189,-208 -189,-328 0,-121 84,-170 189,-110 105,61 190,208 190,329z"/>
     <path class="fil29" d="M3643 5339c0,96 68,213 151,262 56,31 104,25 130,-11 -23,4 -50,-3 -79,-19 -84,-49 -151,-166 -151,-262 0,-33 7,-58 20,-77 -42,6 -71,45 -71,107z"/>
     <path class="fil16" d="M3694 5309c0,96 67,213 151,262 29,16 56,23 79,19 14,-18 22,-44 22,-76 0,-97 -68,-214 -152,-262 -29,-18 -56,-23 -80,-20 -13,19 -20,44 -20,77z"/>
     <path class="fil17" d="M4070 4937c0,-44 -31,-96 -68,-118 -18,-10 -34,-11 -46,-6l-30 17 9 15 -1 13c0,44 30,96 68,118l11 5 9 16 29 -17 0 0c12,-7 19,-22 19,-43z"/>
     <path class="fil18" d="M4042 4953c0,43 -30,61 -68,39 -37,-22 -68,-74 -68,-118 0,-43 31,-61 68,-39 38,22 68,74 68,118z"/>
    </g>
    <g>
     <path class="fil19" d="M3836 5340c-28,-17 -52,-3 -52,30 0,33 24,73 52,90 29,17 52,3 52,-30 0,-33 -23,-74 -52,-90z"/>
     <path class="fil19" d="M3830 5294c7,4 13,2 15,-3 -10,-10 -20,-19 -31,-27l0 2c0,10 7,23 16,28z"/>
     <path class="fil19" d="M3830 5513c-9,-5 -16,-1 -16,9 0,10 7,23 16,28 9,5 16,1 16,-9 0,-10 -7,-23 -16,-28z"/>
     <path class="fil19" d="M3907 5376c-4,-9 -9,-17 -14,-25l4 14 10 11z"/>
     <path class="fil19" d="M3740 5429c-6,4 -6,16 0,26 7,11 17,17 23,13 6,-3 6,-15 0,-26 -6,-11 -16,-16 -23,-13z"/>
     <path class="fil19" d="M3925 5459c0,10 7,22 16,27l3 1c-2,-13 -4,-26 -8,-40 -6,-1 -11,3 -11,12z"/>
     <path class="fil19" d="M3719 5321c-8,-5 -16,-1 -16,9 0,10 8,23 16,28 9,5 16,1 16,-9 0,-10 -7,-23 -16,-28z"/>
     <path class="fil19" d="M3897 5520c-6,4 -6,15 0,26 6,11 17,16 23,13 6,-4 6,-15 0,-26 -6,-11 -17,-17 -23,-13z"/>
     <path class="fil19" d="M3740 5248c-6,4 -6,16 0,26 7,11 17,17 23,13 6,-3 6,-15 0,-26 -6,-11 -16,-16 -23,-13z"/>
    </g>
   </g>
  </g>
 </g>
</svg>
