<?xml version="1.0" encoding="UTF-8"?>
<!DOCTYPE svg PUBLIC "-//W3C//DTD SVG 1.1//EN" "http://www.w3.org/Graphics/SVG/1.1/DTD/svg11.dtd">
<!-- Creator: CorelDRAW X8 -->
<svg xmlns="http://www.w3.org/2000/svg" xml:space="preserve" width="136.313mm" height="81.9572mm" version="1.1" style="shape-rendering:geometricPrecision; text-rendering:geometricPrecision; image-rendering:optimizeQuality; fill-rule:evenodd; clip-rule:evenodd"
viewBox="0 0 18529 11140"
 xmlns:xlink="http://www.w3.org/1999/xlink">
 <defs>
  <style type="text/css">
   <![CDATA[
    .fil0 {fill:none}
    .fil2 {fill:#FEFEFE;fill-rule:nonzero}
    .fil1 {fill:#97BFE5;fill-rule:nonzero}
    .fil23 {fill:#86BAE5;fill-rule:nonzero}
    .fil19 {fill:#203A98;fill-rule:nonzero}
    .fil10 {fill:#333333;fill-rule:nonzero}
    .fil21 {fill:#4C7BE3;fill-rule:nonzero}
    .fil9 {fill:#518E90;fill-rule:nonzero}
    .fil18 {fill:#84BCFF;fill-rule:nonzero}
    .fil22 {fill:#D9EAFF;fill-rule:nonzero}
    .fil5 {fill:#DE2A70;fill-rule:nonzero}
    .fil6 {fill:#E361A2;fill-rule:nonzero}
    .fil8 {fill:#F2F2F2;fill-rule:nonzero}
    .fil3 {fill:#FC2C7D;fill-rule:nonzero}
    .fil4 {fill:#FC5F9F;fill-rule:nonzero}
    .fil15 {fill:#FC912D;fill-rule:nonzero}
    .fil13 {fill:#FF7240;fill-rule:nonzero}
    .fil7 {fill:#FF7240;fill-rule:nonzero}
    .fil14 {fill:#FFAF40;fill-rule:nonzero}
    .fil12 {fill:#FFC640;fill-rule:nonzero}
    .fil17 {fill:#FEFEFE;fill-opacity:0.200000}
    .fil16 {fill:url(#id0);fill-rule:nonzero}
    .fil20 {fill:url(#id1);fill-rule:nonzero}
    .fil11 {fill:url(#id2);fill-rule:nonzero}
   ]]>
  </style>
  <linearGradient id="id0" gradientUnits="userSpaceOnUse" x1="9921.18" y1="2538.4" x2="10776.6" y2="4630.97">
   <stop offset="0" style="stop-opacity:1; stop-color:#FFAF40"/>
   <stop offset="1" style="stop-opacity:1; stop-color:#FF6D40"/>
  </linearGradient>
  <linearGradient id="id1" gradientUnits="userSpaceOnUse" x1="7912.05" y1="10262.2" x2="8616.03" y2="7759.93">
   <stop offset="0" style="stop-opacity:1; stop-color:#1153A8"/>
   <stop offset="1" style="stop-opacity:1; stop-color:#5A85F2"/>
  </linearGradient>
  <linearGradient id="id2" gradientUnits="userSpaceOnUse" xlink:href="#id0" x1="9560.35" y1="3338.5" x2="11000.9" y2="7290.96">
  </linearGradient>
 </defs>
 <g id="Слой_x0020_1">
  <metadata id="CorelCorpID_0Corel-Layer"/>
  <rect class="fil0" width="18529" height="11140"/>
  <g id="_3012589748976">
   <g>
    <polygon class="fil1" points="10930,2801 10929,3240 14375,5234 14468,4815 "/>
    <polygon class="fil2" points="14333,5461 14377,5487 14385,5473 14358,5451 "/>
    <path class="fil3" d="M14723 3081l-4138 -2390c-48,-27 -97,-32 -141,-17l1 0 -8 3 -2 0 -149 58 134 65 -2 8 -674 3068c-34,153 34,333 151,400l4039 2332 -15 171 164 -63c55,-26 98,-84 117,-167l674 -3068c33,-154 -34,-333 -151,-400z"/>
    <path class="fil4" d="M13775 6763l-4138 -2389c-117,-68 -184,-247 -151,-401l674 -3068c34,-154 156,-223 274,-156l4138 2389c117,68 184,247 150,401l-674 3068c-33,154 -156,223 -273,156z"/>
    <path class="fil5" d="M13608 6397l-3700 -2135c-102,-59 -161,-215 -131,-348l586 -2669c29,-134 136,-194 238,-136l3699 2135c102,59 161,215 131,349l-586 2669c-29,133 -136,194 -237,135z"/>
    <path class="fil3" d="M13841 6858l-566 -74 -3651 -2108c-117,-68 -322,-60 -457,19l-2587 1493 -342 -45 0 194 0 0c-2,45 23,88 79,120l4138 2389c117,67 321,59 456,-19l2818 -1626c76,-44 114,-101 112,-154l0 -189z"/>
    <path class="fil4" d="M10455 8652l-4138 -2389c-117,-68 -103,-186 32,-264l2818 -1626c135,-78 340,-87 457,-19l4138 2389c117,68 102,186 -33,264l-2818 1626c-135,78 -339,86 -456,19z"/>
    <path class="fil6" d="M11288 7800l-3497 -2018c-99,-57 -86,-157 28,-223l1483 -856c115,-66 287,-73 386,-16l3497 2019c99,57 86,157 -28,223l-1483 855c-115,66 -287,74 -386,16z"/>
    <g>
     <polygon class="fil4" points="13002,3943 11277,2948 11300,2836 13024,3831 "/>
     <polygon class="fil4" points="12384,4133 11181,3438 11203,3326 12406,4021 "/>
     <polygon class="fil4" points="12270,3794 11229,3193 11251,3081 12292,3682 "/>
     <polygon class="fil4" points="12953,4188 12432,3888 12455,3776 12975,4076 "/>
     <polygon class="fil4" points="11094,1970 10573,1670 10595,1557 11116,1858 "/>
     <polygon class="fil4" points="11037,2231 10517,1930 10539,1818 11059,2119 "/>
     <polygon class="fil4" points="13593,5844 13072,5543 13094,5431 13615,5732 "/>
     <polygon class="fil4" points="10924,2752 10404,2451 10426,2339 10946,2639 "/>
     <path class="fil4" d="M12049 2832c-16,36 -58,49 -93,29 -36,-20 -51,-66 -34,-102 17,-36 59,-49 94,-29 35,20 50,66 33,102z"/>
     <path class="fil4" d="M12273 2962c-16,36 -58,49 -93,29 -35,-21 -50,-66 -34,-103 17,-36 59,-49 94,-28 35,20 50,66 33,102z"/>
     <path class="fil4" d="M12498 3091c-17,36 -59,49 -94,29 -35,-20 -50,-66 -33,-102 16,-36 58,-49 93,-29 35,20 50,66 34,102z"/>
     <path class="fil4" d="M12722 3221c-17,36 -59,49 -94,29 -35,-21 -50,-67 -33,-103 16,-36 58,-49 93,-29 35,21 50,67 34,103z"/>
    </g>
   </g>
   <g>
    <g>
     <path class="fil7" d="M11210 7399c-3,10 -7,19 -12,27 5,-8 9,-17 12,-27zm-1137 -4679c8,5 17,10 25,15 -8,-5 -17,-10 -25,-15zm31 19c6,4 13,8 19,12 -6,-4 -13,-8 -19,-12zm25 16c7,4 14,8 21,13 -7,-5 -14,-9 -21,-13zm25 16c8,5 16,10 24,16 -8,-6 -16,-11 -24,-16zm29 20c6,4 13,9 19,13 -6,-4 -13,-9 -19,-13zm26 18c5,4 11,9 17,13 -6,-4 -12,-9 -17,-13zm24 18c7,6 15,12 22,18 -7,-6 -15,-12 -22,-18zm28 22c6,5 12,10 17,14 -5,-4 -11,-9 -17,-14zm49 41c6,5 12,10 18,16 -6,-6 -12,-11 -18,-16zm22 19c7,6 15,13 22,19l-22 -19zm29 26c5,5 10,10 16,15 -6,-5 -11,-10 -16,-15zm46 43c6,7 13,14 20,20 -7,-6 -14,-13 -20,-20zm70 73c7,8 14,15 20,22 -6,-7 -13,-14 -20,-22zm89 103c6,7 12,14 18,22 -6,-8 -12,-15 -18,-22zm253 776c-133,-403 -417,-793 -749,-986 -165,-96 -319,-130 -451,-111 -64,82 -108,192 -125,327l1325 770zm-1563 -770l0 1 0 0 0 -1zm-236 137c9,-319 128,-544 315,-650l-3 1 273 -157c192,-111 454,-95 741,72 538,312 975,1047 1016,1683l412 239c123,72 221,245 218,387l-29 2028c-1,71 -27,120 -67,144l-742 428 3 -2c-41,25 -98,23 -162,-14l-2305 -1340c-122,-71 -220,-244 -218,-387l30 -2027c1,-74 28,-124 71,-147 -1,1 -3,2 -4,3l451 -261zm318 -652c5,-3 10,-5 15,-8 -5,3 -10,5 -15,8zm18 -10c5,-2 10,-5 15,-7 -5,2 -10,5 -15,7zm19 -9c5,-2 10,-4 15,-6 -5,2 -10,4 -15,6zm19 -8c5,-2 10,-4 15,-6 -5,2 -10,4 -15,6zm19 -7c5,-2 11,-4 16,-6 -5,2 -11,4 -16,6zm19 -7c6,-2 12,-3 17,-5 -5,2 -11,3 -17,5zm20 -6c6,-1 12,-3 17,-4 -5,1 -11,3 -17,4zm21 -5c6,-2 12,-3 18,-4 -6,1 -12,2 -18,4zm20 -4c6,-2 12,-3 19,-4 -7,1 -13,2 -19,4zm21 -4c7,-1 13,-2 19,-3 -6,1 -12,2 -19,3zm21 -3c7,-1 14,-2 20,-2 -6,0 -13,1 -20,2zm22 -2c7,-1 13,-1 20,-2 -7,1 -13,1 -20,2zm23 -2c6,0 13,0 19,0 -6,0 -13,0 -19,0zm22 0c7,0 13,0 20,0 -7,0 -13,0 -20,0zm22 0c7,0 14,0 21,1 -7,-1 -14,-1 -21,-1zm23 1c7,0 15,1 22,1 -7,0 -15,-1 -22,-1zm23 2c7,0 15,1 22,2 -7,-1 -15,-2 -22,-2zm24 2c7,1 15,2 22,3 -7,-1 -15,-2 -22,-3zm24 4c7,1 15,2 22,3 -7,-1 -15,-2 -22,-3zm23 4c8,1 16,3 23,4 -7,-1 -15,-3 -23,-4zm25 5c8,1 15,3 23,5 -8,-2 -15,-4 -23,-5zm24 5c8,2 16,4 24,7 -8,-3 -16,-5 -24,-7zm25 7c8,2 16,5 24,7 -8,-2 -16,-5 -24,-7zm25 7c8,3 16,6 24,8 -8,-2 -16,-5 -24,-8zm26 9c8,3 16,5 24,8 -8,-3 -16,-5 -24,-8zm25 9c8,3 16,6 24,9 -8,-3 -16,-6 -24,-9zm25 10c17,7 34,14 51,22 -17,-8 -34,-15 -51,-22zm52 22c9,4 17,8 25,12 -8,-4 -16,-8 -25,-12zm27 13c8,4 16,8 24,13 -8,-5 -16,-9 -24,-13zm26 14c9,4 17,8 25,13 -8,-5 -16,-9 -25,-13zm52 28c-9,-5 -17,-10 -26,-15l-1 0 27 15zm1122 4711c-2,4 -4,8 -7,11 3,-3 5,-7 7,-11zm-10 15c-2,2 -4,5 -6,7 2,-2 4,-5 6,-7zm-10 10c-3,3 -6,6 -10,9 4,-3 7,-6 10,-9zm-2598 -3903c3,-1 6,-2 8,-3 -2,1 -5,2 -8,3zm8 -3c6,-2 11,-4 17,-5 -6,1 -11,3 -17,5zm27 -6c3,-1 6,-1 9,-1 -3,0 -6,0 -9,1zm9 -1c3,0 6,0 9,0 -3,0 -6,0 -9,0z"/>
    </g>
    <path class="fil8" d="M10241 5332c-8,73 30,155 85,187 16,10 34,15 51,15 10,0 21,-2 31,-6 34,-12 63,-44 69,-101 8,-73 -30,-154 -85,-187 -16,-9 -33,-14 -51,-14 -10,0 -22,2 -32,6l-1 0c-33,13 -61,45 -67,100z"/>
    <path class="fil9" d="M10452 5427c-1,9 -3,17 -6,25l0 1c-8,26 -24,45 -45,52 -7,3 -14,4 -21,4 -13,0 -26,-4 -38,-11 -48,-28 -82,-102 -75,-165 4,-39 20,-66 46,-77l3 -2c8,-2 15,-4 22,-4 13,0 26,3 39,12l5 4 1 0c44,30 75,100 69,161z"/>
    <path class="fil10" d="M10452 5427c-1,9 -3,17 -6,25l0 1c-7,11 -16,19 -28,23 -5,2 -12,3 -18,3 -10,0 -21,-3 -31,-10 -40,-23 -68,-84 -63,-137 4,-31 17,-54 39,-64l4 -1c5,-2 11,-4 17,-4 6,0 11,1 16,3l1 0c44,30 75,100 69,161z"/>
    <path class="fil11" d="M8569 3558l741 -428c41,-24 97,-20 159,16l2305 1339c123,72 221,245 218,387l-29 2028c-1,71 -27,120 -67,144l-742 428c41,-24 67,-74 68,-144l29 -2028c2,-142 -96,-315 -218,-387l-2305 -1340c-62,-36 -118,-39 -159,-15z"/>
    <path class="fil12" d="M11033 4913c122,72 220,245 218,387l-29 2028c-2,142 -104,199 -227,128l-2305 -1340c-122,-71 -220,-244 -218,-387l30 -2027c2,-143 103,-200 226,-129l2305 1340z"/>
    <path class="fil13" d="M9427 5142c3,-228 169,-317 369,-193 186,117 336,390 331,605 -2,133 -62,218 -151,239l-8 711c-1,44 -32,62 -69,40l-270 -157c-38,-22 -68,-75 -67,-119l8 -711c-88,-125 -145,-279 -143,-415z"/>
    <path class="fil14" d="M9611 4894c-28,42 -45,98 -45,169 -2,136 55,289 143,414l-8 711c-1,44 29,97 67,119l201 117 -1 80c-1,44 -32,62 -69,40l-270 -157c-38,-22 -68,-75 -67,-119l8 -711c-88,-125 -145,-279 -143,-415 2,-152 76,-241 184,-248z"/>
    <path class="fil15" d="M9468 2885l273 -157c-154,88 -250,276 -254,544l-3 205 -273 158 3 -206c4,-267 100,-455 254,-544z"/>
    <path class="fil16" d="M9332 2648l273 -157c192,-111 454,-95 741,72 572,332 1029,1140 1019,1801l-3 205 -273 158 3 -206c10,-661 -447,-1469 -1019,-1801 -287,-167 -550,-182 -741,-72z"/>
    <path class="fil12" d="M10073 2720c572,332 1029,1140 1019,1801l-3 206 -194 -113 3 -205c8,-538 -363,-1195 -828,-1465 -465,-270 -849,-52 -856,485l-3 206 -194 -113 3 -205c9,-661 482,-929 1053,-597z"/>
   </g>
   <g id="_3012589749872">
    <path class="fil17" d="M4934 2290c1011,0 2211,1149 2678,2566 468,1417 28,2566 -983,2566 -1012,0 -2211,-1149 -2678,-2566 -468,-1417 -28,-2566 983,-2566z"/>
    <g>
     <path class="fil18" d="M7916 6088c0,690 -249,1170 -649,1384 29,-8 62,-22 104,-46 11,-6 388,-234 399,-241 371,-226 599,-694 599,-1355 0,-1353 -956,-3002 -2135,-3682 -444,-257 -856,-339 -1198,-269 -104,21 -202,55 -292,104 -8,4 -323,180 -485,278 217,-128 481,-175 777,-131 232,35 483,125 745,276 1179,681 2135,2329 2135,3682z"/>
     <path class="fil19" d="M8830 10475c-70,0 -137,-14 -186,-43l-1702 -956c-138,23 -287,36 -442,36 -744,0 -1347,-286 -1347,-640 0,-353 603,-639 1347,-639 744,0 1347,286 1347,639 0,129 -80,248 -216,348l1580 887c168,99 2,236 -139,307 -69,40 -158,61 -242,61z"/>
     <path class="fil18" d="M9205 9932c95,176 29,395 -146,490 -176,95 -395,29 -490,-147 -95,-176 -29,-395 147,-490 175,-94 395,-29 489,147z"/>
     <path class="fil20" d="M8061 7658l-783 422 1168 2155 0 -1 2 4c68,126 298,133 514,17 216,-117 337,-313 269,-439l-2 -3 0 0 -1168 -2155z"/>
     <path class="fil21" d="M8062 7660c68,126 -52,322 -268,439 -217,116 -447,109 -515,-17 -68,-126 53,-323 269,-439 216,-117 446,-109 514,17z"/>
     <path class="fil18" d="M7549 7087l-466 251 331 614 0 0 1 1c40,76 177,81 306,11 129,-69 200,-186 160,-261l-1 -1 0 -1 -331 -614z"/>
     <path class="fil22" d="M7916 6088c0,-1353 -956,-3001 -2135,-3682 -262,-151 -513,-242 -745,-276 -811,-122 -1389,441 -1389,1493 0,1052 578,2282 1389,3098 232,233 483,433 745,584 1179,681 2135,136 2135,-1217zm-2880 -3507c219,18 460,98 713,244 1001,577 1812,1976 1812,3124 0,1148 -811,1611 -1812,1033 -253,-146 -494,-345 -713,-580 -646,-690 -1098,-1687 -1098,-2544 0,-858 452,-1332 1098,-1277z"/>
     <path class="fil2" d="M7915 6148l0 0zm1 -8l0 0 0 0zm0 -3c0,-1 0,-1 0,-1 0,0 0,0 0,1zm0 -8c0,-1 0,-1 0,-1 0,0 0,0 0,1zm0 -8c0,0 0,-1 0,-1 0,0 0,0 0,1zm0 -5c0,0 0,0 0,0 0,0 0,0 0,0zm0 -3c0,-1 0,-1 0,-1 0,0 0,0 0,1zm0 -4c0,-1 0,-1 0,-1 0,0 0,0 0,1zm0 -4c0,-1 0,-1 0,-1 0,0 0,0 0,1zm0 -4c0,-1 0,-1 0,-1 0,0 0,0 0,1zm0 -5c0,0 0,0 0,0 0,0 0,0 0,0zm0 -3c0,-1 0,-1 0,-1 0,0 0,0 0,1z"/>
     <path class="fil2" d="M7625 7228l-23 -42c191,-246 304,-597 313,-1038l0 0c1,-2 1,-5 1,-8l0 0c0,-1 0,-2 0,-3 0,-1 0,-1 0,-1 0,-2 0,-5 0,-7 0,-1 0,-1 0,-1 0,-2 0,-5 0,-7 0,-1 0,-1 0,-1 0,-1 0,-2 0,-4 0,0 0,0 0,0 0,-1 0,-2 0,-3 0,-1 0,-1 0,-1 0,-1 0,-2 0,-3 0,-1 0,-1 0,-1 0,-1 0,-2 0,-3 0,-1 0,-1 0,-1 0,-1 0,-2 0,-3 0,-1 0,-1 0,-1 0,-1 0,-2 0,-4 0,0 0,0 0,0 0,-1 0,-2 0,-3 0,-1 0,-1 0,-1 0,-1 0,-3 0,-4l0 0c0,-1353 -956,-3001 -2135,-3682l0 0c-262,-151 -513,-242 -745,-276l0 0c-73,-11 -144,-16 -213,-16 -112,0 -218,14 -318,42 -28,6 -55,12 -82,20 149,-75 318,-113 503,-113 36,0 73,1 110,4 260,21 546,114 848,288 1179,681 2135,2329 2135,3682 0,528 -146,934 -394,1191z"/>
     <path class="fil2" d="M7293 7458c118,-68 222,-159 309,-272l23 42c-96,99 -208,176 -332,230z"/>
     <path class="fil2" d="M7160 7505c415,-207 756,-713 756,-1417 0,1 0,3 0,4 0,0 0,0 0,1 0,1 0,2 0,3 0,0 0,0 0,0 0,2 0,3 0,4 0,0 0,0 0,1 0,1 0,2 0,3 0,0 0,0 0,1 0,1 0,2 0,3 0,0 0,0 0,1 0,1 0,2 0,3 0,0 0,0 0,1 0,1 0,2 0,3 0,0 0,0 0,0 0,2 0,3 0,4 0,0 0,1 0,1 0,2 0,5 0,7 0,0 0,0 0,1 0,2 0,5 0,7 0,0 0,0 0,1 0,1 0,2 0,3l0 0c0,3 0,6 -1,8l0 0c-9,441 -122,792 -313,1038 -87,113 -191,204 -309,272 -43,18 -87,34 -133,47zm756 -1417c0,-1353 -956,-3001 -2135,-3682 -246,-142 -504,-225 -745,-259l0 -17c232,34 483,125 745,276l0 0c1179,681 2135,2329 2135,3682l0 0z"/>
     <path class="fil18" d="M4313 3648c0,-468 135,-822 363,-1038 -448,120 -738,561 -738,1248 0,857 452,1854 1098,2544 219,235 460,434 713,580 593,342 1119,319 1449,6 -300,81 -672,17 -1074,-215 -408,-236 -785,-609 -1088,-1046 -439,-633 -723,-1400 -723,-2079z"/>
     <path class="fil23" d="M4227 2280c-36,22 -60,38 -63,44 20,-16 41,-30 63,-44z"/>
     <path class="fil23" d="M4259 2261c-11,6 -22,13 -32,19 9,-6 20,-12 32,-19z"/>
     <path class="fil2" d="M5036 2147l0 -17c-72,-10 -142,-16 -210,-16l-3 0c-112,0 -218,14 -318,42 87,-17 182,-26 282,-26 80,0 163,5 249,17z"/>
    </g>
   </g>
  </g>
 </g>
</svg>
