<?xml version="1.0" encoding="UTF-8"?>
<!DOCTYPE svg PUBLIC "-//W3C//DTD SVG 1.1//EN" "http://www.w3.org/Graphics/SVG/1.1/DTD/svg11.dtd">
<!-- Creator: CorelDRAW X8 -->
<svg xmlns="http://www.w3.org/2000/svg" xml:space="preserve" width="136.313mm" height="81.9572mm" version="1.1" style="shape-rendering:geometricPrecision; text-rendering:geometricPrecision; image-rendering:optimizeQuality; fill-rule:evenodd; clip-rule:evenodd"
viewBox="0 0 18529 11140"
 xmlns:xlink="http://www.w3.org/1999/xlink">
 <defs>
  <style type="text/css">
   <![CDATA[
    .fil0 {fill:none}
    .fil30 {fill:#84BCFF}
    .fil42 {fill:#FC2C7D}
    .fil43 {fill:#FC5F9F}
    .fil15 {fill:#FEFEFE;fill-rule:nonzero}
    .fil32 {fill:#FAC204;fill-rule:nonzero}
    .fil6 {fill:#F3F4F5;fill-rule:nonzero}
    .fil38 {fill:#F2D7BD;fill-rule:nonzero}
    .fil11 {fill:#EDCAB9;fill-rule:nonzero}
    .fil36 {fill:#E7C4A1;fill-rule:nonzero}
    .fil16 {fill:#E5E4E3;fill-rule:nonzero}
    .fil21 {fill:#E3C0A6;fill-rule:nonzero}
    .fil18 {fill:#DFBCAB;fill-rule:nonzero}
    .fil3 {fill:#953228;fill-rule:nonzero}
    .fil8 {fill:#A57E2A;fill-rule:nonzero}
    .fil9 {fill:#A9A6A5;fill-rule:nonzero}
    .fil53 {fill:#86BAE5;fill-rule:nonzero}
    .fil25 {fill:#655349;fill-rule:nonzero}
    .fil20 {fill:#3B2A26;fill-rule:nonzero}
    .fil45 {fill:#382925;fill-rule:nonzero}
    .fil37 {fill:#3D2A2F;fill-rule:nonzero}
    .fil46 {fill:#312927;fill-rule:nonzero}
    .fil35 {fill:#31302F;fill-rule:nonzero}
    .fil33 {fill:#2C2B29;fill-rule:nonzero}
    .fil19 {fill:#414346;fill-rule:nonzero}
    .fil34 {fill:#2D2B2A;fill-rule:nonzero}
    .fil13 {fill:#292826;fill-rule:nonzero}
    .fil14 {fill:#2E2E2E;fill-rule:nonzero}
    .fil12 {fill:#303233;fill-rule:nonzero}
    .fil17 {fill:#294C6D;fill-rule:nonzero}
    .fil31 {fill:#1455AB;fill-rule:nonzero}
    .fil49 {fill:#203A98;fill-rule:nonzero}
    .fil22 {fill:#346BCC;fill-rule:nonzero}
    .fil23 {fill:#4376DB;fill-rule:nonzero}
    .fil51 {fill:#4C7BE3;fill-rule:nonzero}
    .fil40 {fill:#517FE9;fill-rule:nonzero}
    .fil24 {fill:#5A85F2;fill-rule:nonzero}
    .fil48 {fill:#84BCFF;fill-rule:nonzero}
    .fil52 {fill:#D9EAFF;fill-rule:nonzero}
    .fil4 {fill:#FC2C7D;fill-rule:nonzero}
    .fil5 {fill:#FC5F9F;fill-rule:nonzero}
    .fil7 {fill:#FF7B40;fill-rule:nonzero}
    .fil28 {fill:#FFAF40;fill-rule:nonzero}
    .fil2 {fill:#FFB700;fill-rule:nonzero}
    .fil10 {fill:#FFC640;fill-rule:nonzero}
    .fil47 {fill:#FEFEFE;fill-opacity:0.200000}
    .fil29 {fill:url(#id4)}
    .fil39 {fill:url(#id5);fill-rule:nonzero}
    .fil44 {fill:url(#id6);fill-rule:nonzero}
    .fil50 {fill:url(#id7);fill-rule:nonzero}
    .fil26 {fill:url(#id8);fill-rule:nonzero}
    .fil27 {fill:url(#id9);fill-rule:nonzero}
    .fil41 {fill:url(#id10);fill-rule:nonzero}
    .fil1 {fill:url(#id11);fill-rule:nonzero}
   ]]>
  </style>
   <mask id="id0">
  <linearGradient id="id1" gradientUnits="userSpaceOnUse" x1="16564.3" y1="6296.66" x2="18366.1" y2="5214.12">
   <stop offset="0" style="stop-opacity:1; stop-color:white"/>
   <stop offset="1" style="stop-opacity:0; stop-color:white"/>
  </linearGradient>
    <rect style="fill:url(#id1)" x="13377" y="5009" width="5152" height="2496"/>
   </mask>
   <mask id="id2">
  <linearGradient id="id3" gradientUnits="userSpaceOnUse" x1="5828.8" y1="776.053" x2="4479.72" y2="0">
   <stop offset="0" style="stop-opacity:1; stop-color:white"/>
   <stop offset="1" style="stop-opacity:0; stop-color:white"/>
  </linearGradient>
    <rect style="fill:url(#id3)" x="4231" width="2678" height="2790"/>
   </mask>
  <linearGradient id="id4" gradientUnits="userSpaceOnUse" x1="14386.3" y1="3966.69" x2="8257.87" y2="5218.53">
   <stop offset="0" style="stop-opacity:1; stop-color:#1153A8"/>
   <stop offset="1" style="stop-opacity:1; stop-color:#5A85F2"/>
  </linearGradient>
  <linearGradient id="id5" gradientUnits="userSpaceOnUse" xlink:href="#id4" x1="11921.1" y1="7348.09" x2="11635.8" y2="6039.1">
  </linearGradient>
  <linearGradient id="id6" gradientUnits="userSpaceOnUse" xlink:href="#id4" x1="6585.78" y1="5041.48" x2="6812.76" y2="4018.82">
  </linearGradient>
  <linearGradient id="id7" gradientUnits="userSpaceOnUse" xlink:href="#id4" x1="4694.12" y1="9680.56" x2="5122.72" y2="8157.13">
  </linearGradient>
  <linearGradient id="id8" gradientUnits="userSpaceOnUse" x1="9875.96" y1="7122.8" x2="10728.2" y2="5485.76">
   <stop offset="0" style="stop-opacity:1; stop-color:#BF2B84"/>
   <stop offset="1" style="stop-opacity:1; stop-color:#4E61E2"/>
  </linearGradient>
  <linearGradient id="id9" gradientUnits="userSpaceOnUse" x1="8289.16" y1="5952.81" x2="9360.14" y2="9126.45">
   <stop offset="0" style="stop-opacity:1; stop-color:#FFAF40"/>
   <stop offset="1" style="stop-opacity:1; stop-color:#FF6D40"/>
  </linearGradient>
  <linearGradient id="id10" gradientUnits="userSpaceOnUse" xlink:href="#id8" x1="4571.03" y1="1361.57" x2="6582.4" y2="-720.084">
  </linearGradient>
  <linearGradient id="id11" gradientUnits="userSpaceOnUse" xlink:href="#id8" x1="16849" y1="4678.76" x2="15376.2" y2="7702.41">
  </linearGradient>
 </defs>
 <g id="Слой_x0020_1">
  <metadata id="CorelCorpID_0Corel-Layer"/>
  <rect class="fil0" width="18529" height="11140"/>
  <polygon class="fil1" style="mask:url(#id0)" points="13465,6673 14556,7303 18529,5009 18529,5212 14556,7505 13377,6825 "/>
  <g id="_3012594853856">
   <g>
    <path class="fil2" d="M14346 2203l1 0 -1 -1 10 4 391 41 15 -3c9,-5 13,-17 7,-31l-75 -214 166 -96c77,-45 139,-154 139,-243l-2 -596c0,-64 -32,-100 -79,-99 15,-1 27,3 39,9l-84 -49c-25,-14 -60,-12 -98,10l-678 395 -1 -167c0,-42 -15,-70 -40,-83l-98 -58c-23,-13 -55,-11 -90,9l-740 431c-69,41 -125,139 -125,219l2 538c0,40 14,68 37,81l98 57c23,16 56,15 93,-6l13 -8 -32 132c-3,12 -3,20 0,22l102 60c-2,-2 -3,-6 -2,-14 -2,12 2,16 8,13 4,-2 9,-7 14,-14l352 -448 8 -13 120 -70 1 241c0,44 16,75 40,90l84 48c-3,-1 -6,-3 -9,-6 26,21 65,22 108,-3l306 -178zm-532 -668l-2 2 1 -1 1 -1zm-7 9l-2 2 1 -1 1 -1zm-13 17l-1 3 -1 1 0 1 1 -2 1 -2 0 -1zm-5 10l-1 2 0 -1 1 -1zm-3 4l-1 3 1 -2 0 -1zm-2 5l-1 3 0 -1 1 -2zm-4 8l0 1 0 0 0 -1zm-7 20l-1 2 1 -1 0 -1zm-6 40l0 2 0 0 0 -2zm0 2l0 2 0 0 0 -2zm-482 321l1 0 0 1 0 0 0 0 0 -1 -1 -1 0 1 0 0zm1 1l0 0 1 1 0 0 0 0 -1 -1 0 0 0 0zm241 -152l0 0 0 0 0 1 0 -1 0 0zm0 1l0 0 1 1 0 0 0 0 0 1 0 0 0 0 -1 -2zm0 0l1 1 0 0 0 0 -1 -1zm1 2l0 0 0 0 0 0 0 0 0 0 0 0zm1 1l0 0 0 0 0 0 0 0 0 0 -1 -1 1 1zm0 1l0 0 0 0 0 1 2 2 -1 -1 1 1 0 0 0 0 -2 -3zm0 0l0 0 0 0 0 1 0 0 0 -1zm2 4l0 0 0 0 0 0zm3 4l0 0 0 0 0 0zm1 1l0 0 0 0 0 0zm21 12c2,1 4,1 7,1 -3,0 -5,0 -7,-1zm7 1c3,1 6,1 9,0 -3,1 -6,1 -9,0zm11 0c2,0 3,-1 5,-1 -2,0 -3,1 -5,1zm-287 126l0 0 1 1 0 1 1 0 0 1 0 0 1 1 0 0 1 1 1 1 0 1 0 0 1 0 0 1 1 0 1 1 0 0 0 0 1 1 1 0 0 1 1 0 1 0 1 1 0 1 1 0 0 0 -14 -13zm240 -154l0 1 0 -1zm0 2l0 0 0 0zm0 0l0 0 0 0zm0 0l0 0 0 0zm2 3l0 0 0 1 0 -1zm2 5l1 0 0 1 0 0 0 0 0 0 1 1 0 0 0 0 0 1 0 0 0 0 1 0 0 0 0 1 -3 -4zm3 4l1 0 0 1 0 0 -1 -1zm-5 -8l0 -1 0 1zm0 -1l0 0 0 0zm-2 -3l0 0 0 0zm0 -1l0 -1 0 1zm1388 -855c-3,0 -6,0 -9,1 3,-1 6,-1 9,-1z"/>
   </g>
   <polygon class="fil3" points="14346,2202 14263,2154 14264,2154 14347,2203 "/>
   <path class="fil4" d="M14957 974l-84 -49c-25,-14 -60,-12 -98,10l83 49c38,-23 73,-25 99,-10z"/>
   <path class="fil4" d="M13900 2301l-83 -49c0,44 16,75 40,90l84 48c-25,-14 -41,-45 -41,-89z"/>
   <polygon class="fil4" points="13898,1704 13815,1655 13817,2252 13900,2301 "/>
   <polygon class="fil4" points="14858,984 14775,935 13954,1413 14037,1462 "/>
   <path class="fil3" d="M14037 1462l-83 -49c-77,45 -139,154 -139,242l83 49c0,-88 62,-197 139,-242z"/>
   <path class="fil5" d="M14037 1462c-77,45 -139,154 -139,242l2 597c0,88 63,124 140,80l306 -179 10 4 391 41 15 -3c9,-5 13,-17 7,-31l-75 -214 166 -96c77,-45 139,-154 139,-243l-2 -596c0,-89 -63,-125 -139,-80l-821 478z"/>
   <path class="fil6" d="M14465 1636c-44,26 -80,88 -79,139 0,51 36,72 80,46 44,-25 80,-88 79,-139 0,-51 -36,-72 -80,-46z"/>
   <path class="fil6" d="M14220 1779c-44,26 -80,88 -80,139 0,51 36,72 80,46 44,-25 80,-88 80,-139 0,-51 -36,-72 -80,-46z"/>
   <path class="fil6" d="M14711 1493c-44,26 -80,88 -80,140 0,51 36,71 80,45 44,-25 80,-88 80,-139 -1,-51 -36,-72 -80,-46z"/>
   <path class="fil7" d="M13316 2535l-102 -60c-3,12 -3,20 0,22l102 60c-3,-2 -3,-10 0,-22z"/>
   <path class="fil8" d="M13903 1502l-101 -59c14,8 23,26 23,52 0,51 -36,113 -80,139l102 60c44,-26 80,-88 80,-140 0,-25 -9,-43 -24,-52z"/>
   <path class="fil9" d="M13903 1502l-101 -59c-15,-9 -35,-8 -57,5l102 60c22,-13 42,-14 56,-6z"/>
   <path class="fil9" d="M13847 1508l-102 -60c-44,26 -80,89 -80,140 0,25 9,43 23,52l102 59c-14,-8 -23,-26 -23,-51 0,-52 36,-114 80,-140z"/>
   <polygon class="fil7" points="13382,2264 13280,2204 13214,2475 13316,2535 "/>
   <path class="fil8" d="M13658 1645l-102 -59c14,8 23,26 24,52 0,51 -36,113 -80,139l102 59c44,-25 80,-87 79,-139 0,-25 -9,-43 -23,-52z"/>
   <path class="fil9" d="M13658 1645l-102 -59c-14,-9 -34,-8 -57,5l102 60c23,-13 43,-14 57,-6z"/>
   <path class="fil9" d="M13601 1651l-102 -60c-44,26 -79,88 -79,140 0,25 9,43 23,51l102 60c-14,-8 -23,-26 -23,-52 0,-51 35,-113 79,-139z"/>
   <path class="fil6" d="M13601 1651c-44,26 -79,88 -79,139 0,52 36,72 80,46 44,-25 80,-87 79,-139 0,-51 -36,-72 -80,-46z"/>
   <path class="fil8" d="M13413 1789l-102 -60c14,8 23,26 23,52 0,51 -36,113 -80,139l102 60c44,-26 80,-89 80,-140 0,-25 -9,-43 -23,-51z"/>
   <path class="fil9" d="M13413 1789l-102 -60c-15,-9 -35,-8 -57,5l102 60c22,-13 42,-14 57,-5z"/>
   <path class="fil9" d="M13356 1794l-102 -60c-44,26 -80,88 -80,140 0,25 9,43 24,51l101 60c-14,-8 -23,-26 -23,-52 0,-51 36,-113 80,-139z"/>
   <path class="fil6" d="M13356 1794c-44,26 -80,88 -80,139 0,51 36,72 80,47 44,-26 80,-89 80,-140 0,-51 -36,-72 -80,-46z"/>
   <path class="fil10" d="M13356 1980c44,-26 80,-89 80,-140 0,-51 -36,-72 -80,-46 -44,26 -80,88 -80,139 0,51 36,72 80,47zm246 -144c44,-25 80,-87 79,-139 0,-51 -36,-72 -80,-46 -44,26 -79,88 -79,139 0,52 36,72 80,46zm245 -142c44,-26 80,-88 80,-140 0,-51 -36,-72 -80,-46 -44,26 -80,88 -80,140 0,51 36,71 80,46zm123 -603c70,-40 126,-8 126,72l2 538c0,80 -56,179 -125,219l-277 161 -8 13 -352 448c-5,7 -10,12 -14,14 -8,4 -11,-3 -6,-21l66 -271 -149 87c-69,40 -126,8 -127,-72l-1 -538c0,-80 56,-179 125,-219l740 -431z"/>
   <path class="fil6" d="M13847 1508c-44,26 -80,88 -80,140 0,51 36,71 80,46 44,-26 80,-88 80,-140 0,-51 -36,-72 -80,-46z"/>
   <path class="fil7" d="M14060 1082l-102 -60c-23,-13 -55,-11 -90,9l102 60c35,-20 67,-22 90,-9z"/>
   <path class="fil7" d="M13106 2279l-101 -60c0,40 14,68 37,81l101 60c-22,-13 -36,-41 -37,-81z"/>
   <polygon class="fil7" points="13105,1741 13003,1681 13005,2219 13106,2279 "/>
   <polygon class="fil7" points="13970,1091 13868,1031 13128,1462 13230,1522 "/>
   <path class="fil7" d="M13230 1522l-102 -60c-69,41 -125,139 -125,219l102 60c0,-80 56,-179 125,-219z"/>
  </g>
  <path class="fil11" d="M14093 3328l79 -46c11,-10 23,-21 35,-32 23,-20 51,-31 74,-50 7,-6 26,-28 36,-27l5 5c17,32 -24,52 -44,67 -8,6 -14,14 -21,21 27,-6 54,-11 81,-17 15,-3 93,-22 96,-3 2,10 -11,14 -18,17 -30,11 -60,20 -91,26 26,-5 52,-10 79,-15 11,-2 59,-8 61,11l-8 12c-36,13 -74,18 -112,20 29,-2 58,-5 87,-7 7,-1 22,-1 26,8 5,12 -10,18 -17,21 -33,8 -64,14 -98,17 26,5 106,-6 91,13 -4,5 -10,7 -17,9 -38,10 -60,17 -98,28 -16,4 -41,8 -57,10 -20,1 -36,3 -56,5 -27,4 -79,5 -106,0l-7 -93z"/>
  <path class="fil12" d="M13687 3572c7,0 14,-1 21,-2l477 -114c13,-2 -38,-195 -45,-193l-478 57c-69,13 -113,80 -101,149 12,62 66,104 126,103z"/>
  <path class="fil13" d="M13332 5860c0,0 -30,104 3,140 9,11 49,14 95,4 31,-7 63,-25 93,-29 88,-13 111,-51 147,-100 78,-104 -63,-73 -155,-40 -97,34 -183,25 -183,25z"/>
  <path class="fil13" d="M13422 5967l0 -20 -83 0 0 -2 -17 28 9 42c0,0 47,33 57,31l5 -2 72 -42 -3 -8c15,-5 30,-10 45,-16l1 -1 1 0c6,-2 13,-5 20,-8l3 -2 -110 0z"/>
  <path class="fil14" d="M13464 5940c-57,-10 -103,-31 -145,-60l6 -1627 318 58 -5 1592c-55,29 -113,49 -174,37z"/>
  <path class="fil13" d="M13616 5896c0,0 -31,104 3,141 9,10 49,13 95,3 30,-7 63,-25 93,-29 88,-13 110,-51 147,-100 78,-104 -64,-73 -156,-40 -97,34 -182,25 -182,25z"/>
  <path class="fil13" d="M13706 6003l0 -20 -84 0 0 -2 -16 27 9 43c0,0 47,33 57,31l4 -2 73 -42 -3 -8c14,-5 29,-10 45,-16l1 -1 0 0c7,-2 14,-5 21,-8l3 -2 -110 0z"/>
  <path class="fil12" d="M13778 5985c57,-9 104,-31 145,-61l25 -1228 27 -92 -359 -116 -11 1451c53,33 111,57 173,46z"/>
  <path class="fil15" d="M13812 3459c0,-97 -104,-188 -205,-233 -38,-18 -87,6 -122,25 -46,25 -78,68 -78,122 0,96 14,535 110,535 95,0 295,-353 295,-449z"/>
  <path class="fil16" d="M13772 3423c-13,-21 -127,-61 -222,-61 -95,0 -143,-86 -143,11 0,96 14,535 110,535 95,0 306,-404 255,-485z"/>
  <path class="fil11" d="M13519 3252c0,58 102,74 180,82l0 0c16,-15 25,-29 25,-29l2 -117 -204 -18 -4 80 1 2z"/>
  <path class="fil15" d="M13775 3345c1,-12 -40,-91 -51,-82 -39,32 -156,25 -184,10 -25,-13 -22,-52 -22,-52 0,0 -159,140 61,184 44,9 94,5 134,-14 34,-17 95,-14 62,-46z"/>
  <path class="fil17" d="M13400 4504c153,85 354,88 500,-18 33,-24 61,-54 86,-89l15 -630c-23,-327 -177,-417 -237,-443 0,0 -60,69 -194,39 -136,-30 -85,-112 -85,-112 -178,3 -178,235 -183,318 -10,156 -20,490 -17,750 15,63 51,149 115,185z"/>
  <path class="fil12" d="M13265 3893c-2,73 54,135 128,138 72,2 134,-55 136,-129l21 -520c2,-74 -55,-136 -128,-138 -73,-3 -134,55 -136,129l-21 520z"/>
  <path class="fil15" d="M13812 3459c0,-97 -104,-188 -205,-233 -38,-18 -87,6 -122,25 -46,25 -78,68 -78,122 0,96 14,535 110,535 95,0 295,-353 295,-449z"/>
  <path class="fil16" d="M13772 3423c-13,-21 -127,-61 -222,-61 -95,0 -143,-86 -143,11 0,96 14,535 110,535 95,0 306,-404 255,-485z"/>
  <path class="fil18" d="M13519 3252c0,58 102,74 180,82l0 0c16,-15 25,-29 25,-29l2 -117 -204 -18 -4 80 1 2z"/>
  <path class="fil15" d="M13775 3345c1,-12 -40,-91 -51,-82 -39,32 -156,25 -184,10 -25,-13 -22,-52 -22,-52 0,0 -159,140 61,184 44,9 94,5 134,-14 34,-17 95,-14 62,-46z"/>
  <path class="fil19" d="M13987 4699l14 -932c-23,-327 -175,-420 -234,-446 0,0 -63,72 -197,42 -136,-30 -85,-112 -85,-112 -178,3 -178,235 -183,318 -10,156 -20,755 -17,1016l702 114z"/>
  <path class="fil11" d="M14342 3776l61 -67c7,-14 15,-28 23,-41 16,-26 39,-46 55,-72 5,-7 16,-34 26,-36l6 3c26,26 -7,57 -21,78 -5,7 -9,17 -14,26 24,-14 48,-28 72,-41 14,-8 82,-50 91,-33 5,9 -7,17 -12,22 -25,19 -51,37 -79,53 24,-13 47,-26 71,-38 10,-6 54,-27 62,-9l-4 13c-30,24 -66,41 -101,54 27,-11 53,-22 80,-34 7,-3 22,-7 28,1 9,9 -4,20 -10,24 -29,19 -56,33 -88,47 26,-4 99,-39 91,-16 -2,7 -8,10 -13,14 -33,22 -52,35 -85,57 -14,9 -37,21 -52,27 -18,8 -33,14 -51,22 -24,13 -74,29 -101,33l-35 -87z"/>
  <path class="fil12" d="M14031 4134c7,-2 14,-5 20,-9l414 -259c12,-7 -103,-160 -109,-156l-427 193c-60,34 -83,111 -49,172 30,55 94,79 151,59z"/>
  <path class="fil20" d="M13840 2696c-253,-198 -375,-48 -386,-39 -44,35 -112,101 -126,164l0 0c-48,99 18,198 107,291 24,26 46,45 65,59 49,41 145,56 152,37 2,-4 -6,-18 -14,-36 13,-7 26,-16 41,-27 102,-72 145,-174 121,-325l-1 0c61,12 73,5 73,5 0,0 21,-88 -32,-129z"/>
  <path class="fil11" d="M13625 3136l3 67 -5 36 133 -39 18 -4c6,-2 13,-4 20,-8 14,-10 25,-30 33,-48l3 -9c2,-13 -11,-16 -7,-29 2,-7 7,-12 10,-19 3,-9 2,-17 -1,-23 6,-3 11,-13 12,-20 1,-8 0,-15 3,-23 4,-12 15,-21 24,-31l4 -12c-5,-13 -11,-24 -20,-32 -7,-7 -16,-14 -15,-29 0,-10 5,-20 7,-30 4,-22 -5,-35 -8,-52l-1 -5c-14,-1 -32,-5 -57,-10 -40,-9 -20,75 -34,87 -6,4 -18,22 -34,47 -1,7 -2,14 -2,21 -2,20 -9,43 -10,62 0,12 6,24 -5,38 -5,6 -25,8 -25,6 0,-17 0,-34 -5,-48l0 -1c-4,-13 -12,-23 -24,-25 -13,0 -30,10 -41,28 -12,21 -11,43 -9,62 4,22 14,42 33,43z"/>
  <path class="fil12" d="M13861 4041c25,70 101,106 169,81 69,-25 105,-101 80,-171l-173 -490c-24,-70 -100,-106 -169,-81 -69,25 -104,102 -79,171l172 490z"/>
  <path class="fil21" d="M14674 2769c-1,22 -14,38 -29,55 -18,21 -40,31 -45,32 -27,-13 -85,-45 -104,-58 -18,-13 -32,-22 -50,-34 -15,-9 -38,-26 -51,-38 -31,-29 -49,-47 -81,-77 -5,-4 -10,-10 -12,-17 -4,-25 68,25 95,34 -31,-21 -58,-41 -85,-66 -7,-6 -18,-20 -7,-28 9,-8 23,0 30,5 16,10 32,20 49,31 -25,-17 -48,-35 -67,-56l-2 -16c12,-17 55,13 66,22 23,18 46,36 69,54 -27,-22 -52,-46 -75,-72 -6,-6 -16,-17 -10,-25 13,-16 79,41 93,51 23,20 46,39 69,58 -3,-10 -5,-21 -9,-31 -12,-24 -42,-64 -8,-86l7 -2c10,4 17,34 21,44 13,30 34,55 46,86 6,15 12,32 18,48l72 86z"/>
  <path class="fil13" d="M15191 4977c0,0 160,-31 136,181 0,9 -113,54 -113,54 0,0 -33,-10 -55,1 -28,15 -41,31 -49,37 -93,64 -248,52 -282,5 -48,-68 83,-145 197,-194 120,-52 166,-84 166,-84z"/>
  <path class="fil22" d="M15170 5121c56,-10 101,-31 142,-60l-5 -1605 -314 57 5 1572c53,28 111,48 172,36z"/>
  <path class="fil13" d="M15504 5057c0,0 159,-39 147,174 -1,8 -111,59 -111,59 0,0 -33,-7 -55,5 -27,16 -38,32 -47,39 -89,70 -245,66 -281,20 -52,-64 75,-148 187,-204 117,-58 160,-93 160,-93z"/>
  <path class="fil23" d="M15459 5187c-56,-9 -102,-30 -143,-60l-24 -1212 -27 -90 354 -115 11 1432c-53,32 -110,56 -171,45z"/>
  <path class="fil22" d="M15116 3137c-17,70 -86,113 -155,97 -69,-17 -111,-86 -95,-156l124 -517c16,-69 82,-110 151,-94l3 -2c69,16 112,86 96,155l-124 517z"/>
  <path class="fil22" d="M14647 2690l427 330c54,47 60,128 14,183 -46,54 -127,60 -181,14l-384 -376c15,-14 112,-134 124,-151z"/>
  <path class="fil15" d="M15467 2587c0,-90 -74,-150 -164,-150 -40,0 -82,7 -116,25 -43,23 -73,63 -73,114 0,91 13,505 103,505 90,0 250,-403 250,-494z"/>
  <path class="fil16" d="M15458 2624c-12,-20 -119,-58 -209,-58 -90,0 -135,-81 -135,10 0,91 13,505 103,505 90,0 290,-381 241,-457z"/>
  <polygon class="fil5" points="15306,2607 15274,2589 15243,2571 15181,2923 15206,3016 15282,2939 "/>
  <path class="fil5" d="M15307 2594c5,8 5,22 0,24l-31 13c-4,2 -12,-2 -17,-9l-31 -50c-5,-7 -5,-22 0,-24l40 2 39 44z"/>
  <path class="fil24" d="M15657 3866l-8 -623c-51,-510 11,-622 -18,-666 -9,-14 -162,-71 -199,-85l-220 446 -25 -476c-168,2 -169,1 -193,218 -14,128 -25,918 -19,1179l682 7z"/>
  <polygon class="fil15" points="15320,2666 15427,2580 15342,2542 15265,2550 "/>
  <polygon class="fil15" points="15191,2607 15169,2534 15180,2488 15265,2550 "/>
  <path class="fil18" d="M15252 2546c25,7 51,2 75,-5 38,-10 60,-46 60,-46l1 -95 -167 -15 -6 118c6,19 14,37 37,43z"/>
  <path class="fil25" d="M15510 2254c-81,122 -146,211 -249,143 -86,-57 -157,-185 -165,-310 -1,-25 0,-50 4,-75 3,-21 228,-161 228,-161 0,0 92,-11 147,22 154,92 78,315 35,381z"/>
  <path class="fil22" d="M15212 2938l143 -86 22 -111c0,0 54,-43 70,-76 60,-131 -15,-173 -15,-173l-220 446z"/>
  <path class="fil22" d="M15212 2938l-75 -120 6 -108c0,0 -12,-116 -8,-152 8,-88 52,-96 52,-96l25 476z"/>
  <g>
   <path class="fil11" d="M15460 2208c-7,44 -37,171 -68,194 -44,33 -147,85 -206,45 -77,-53 -90,-194 -90,-333 0,-139 105,-165 194,-106 89,59 191,63 170,200z"/>
   <path class="fil25" d="M15328 1851c-4,-6 -223,87 -228,161 -2,25 -5,50 -4,75l4 -14c9,-26 31,-30 53,-27 44,6 69,17 69,17l2 0c46,19 117,14 127,66 3,17 2,37 1,56 -1,19 3,37 2,56 -2,12 -11,31 0,34 5,1 121,-22 88,-4 12,-1 -6,24 -24,91 3,-8 62,-107 62,-107l0 -219c0,0 -145,-176 -152,-185z"/>
  </g>
  <path class="fil11" d="M15471 2204c-5,-15 -20,-22 -33,-17 -13,4 -25,17 -33,32 -9,15 -21,44 -26,61l24 38c25,3 46,-25 58,-53 9,-19 17,-42 10,-61z"/>
  <path class="fil22" d="M15787 3214c10,61 -31,118 -91,128 -61,10 -118,-31 -128,-92l-92 -558c-10,-61 31,-119 92,-128 60,-10 117,31 127,92l92 558z"/>
  <path class="fil11" d="M15555 3771l-37 69c-9,10 -18,21 -27,31 -16,20 -26,45 -42,65 -5,7 -23,24 -22,32l4 5c28,14 44,-22 57,-40 5,-7 12,-12 17,-18 -4,23 -8,47 -13,70 -2,14 -17,82 0,84 8,2 12,-10 14,-16 9,-26 16,-53 21,-80 -4,23 -8,46 -11,69 -2,11 -7,52 10,54l10 -7c10,-32 14,-65 15,-99 -2,26 -3,51 -5,77 -1,6 0,19 8,22 10,5 16,-9 17,-15 7,-29 11,-56 13,-86 5,23 -3,93 13,80l8 -15c8,-34 13,-53 22,-87 3,-13 6,-35 7,-49 1,-18 2,-31 4,-49 3,-24 2,-69 -2,-93l-81 -4z"/>
  <path class="fil22" d="M15790 3255c0,6 -1,12 -2,19l-118 569c-2,11 -179,-18 -178,-25l77 -582c10,-61 68,-102 128,-92 55,10 93,57 93,111z"/>
  <polygon class="fil26" points="11593,5661 9160,7098 9011,6977 11504,5510 "/>
  <g>
   <path class="fil27" d="M8985 5991l-1108 -218 -325 186 1355 581c605,741 869,582 806,1700l-382 722 -402 232 0 78 279 -117c20,-9 40,-18 60,-28l47 -28 448 -257c374,-285 334,-665 333,-1091l-2 -697 -1109 -1063z"/>
   <path class="fil10" d="M9769 7239l-1108 -1062 -1109 -218 0 828c0,541 205,1175 561,1736l548 861 547 -229c356,-150 561,-546 561,-1088l0 -828z"/>
   <g id="_3012594843328">
    <path class="fil28" d="M8473 8048l-110 -191c-25,-42 -25,-89 0,-103l702 -400c25,-14 65,9 90,52l110 190c25,43 25,89 0,103l-702 401c-25,14 -65,-9 -90,-52z"/>
    <path class="fil28" d="M8673 8036l-110 63c-25,15 -65,-9 -90,-51l-367 -633c-25,-43 -25,-89 0,-103l111 -63c24,-14 65,9 89,52l367 633c25,42 25,88 0,102z"/>
   </g>
  </g>
  <g>
   <path class="fil29" d="M8176 2725l-2 -485 267 -138c416,-214 726,-109 1065,194l286 -217c1120,-868 2388,767 2445,1700 775,165 1234,906 1339,1561 545,138 907,785 894,1198 0,264 -93,450 -241,538l-383 222 -482 -658 -614 -130 -3534 -2040c-451,-261 -834,-824 -962,-1371l-78 -374z"/>
   <path class="fil30" d="M9246 2623c185,-595 783,-737 1451,-352 730,466 986,1109 1152,1702 728,153 1277,964 1319,1616 725,218 984,1014 860,1453 -99,350 -484,456 -868,235l-4417 -2551c-558,-321 -1009,-1104 -1009,-1747 0,-1097 1246,-859 1512,-356z"/>
  </g>
  <g>
   <path class="fil31" d="M11429 6146c-24,-66 -4,-122 62,-146 65,-24 191,-29 215,37l119 508c24,66 -10,139 -76,162 -66,24 -139,-10 -162,-76l-158 -485z"/>
   <path class="fil32" d="M11483 6367l172 -75c54,-32 123,-14 155,40 31,54 13,123 -41,154l-286 156 0 -275z"/>
   <path class="fil33" d="M11423 8400c0,0 -34,114 3,154 10,12 54,15 106,4 33,-7 70,-27 103,-32 98,-14 156,-66 196,-120 87,-115 -70,-81 -173,-44 -107,38 -235,38 -235,38z"/>
   <path class="fil34" d="M11661 8441c61,-31 91,-71 110,-120l0 -1188c0,-101 -82,-184 -184,-184 -102,0 -184,83 -184,184l0 1276 0 8c65,72 175,66 258,24z"/>
   <path class="fil33" d="M11763 8512c0,0 -35,114 2,154 11,12 55,15 106,4 34,-7 70,-28 103,-32 98,-14 156,-66 197,-120 86,-115 -71,-81 -173,-45 -108,38 -235,39 -235,39z"/>
   <path class="fil35" d="M12000 8553c61,-31 92,-72 111,-121l0 -1187c0,-101 -83,-184 -184,-184 -102,0 -185,83 -185,184l0 1276 1 8c64,71 174,66 257,24z"/>
   <path class="fil16" d="M11907 6166c-14,-22 -136,-65 -239,-65 -102,0 -153,-91 -153,11 0,103 15,570 117,570 103,0 330,-430 275,-516z"/>
   <path class="fil36" d="M11635 5984c0,62 109,79 193,87l1 0c17,-15 26,-30 26,-30l3 -125 -220 -19 -5 85 2 2z"/>
   <path class="fil37" d="M11588 5844c103,108 161,71 264,-1 102,-73 145,-158 120,-310 -26,-162 -137,-189 -341,-146 -221,47 -170,324 -43,457z"/>
   <path class="fil38" d="M11650 5705c6,45 33,180 62,205 40,34 154,58 207,16 70,-56 66,-178 66,-325 0,-147 -101,-171 -181,-108 -81,62 -173,67 -154,212z"/>
   <path class="fil37" d="M11483 5542c14,-63 162,-55 162,-55 12,-9 -1,-174 330,-97 66,15 8,173 8,173 0,0 -29,-2 -64,-10 -41,-8 -20,76 -34,88 -13,10 -62,91 -104,163 -5,10 -10,20 -16,29 -22,39 29,104 25,115 -8,20 -114,1 -161,-44 -26,-26 -180,-213 -146,-362z"/>
   <path class="fil38" d="M11787 5736c13,38 31,61 56,58 24,-3 37,-29 32,-70 -6,-40 -41,-70 -65,-66 -24,3 -38,34 -23,78z"/>
   <path class="fil31" d="M11911 6083c0,-13 -44,-96 -55,-87 -43,33 -168,26 -198,10 -27,-14 -21,-54 -21,-54 0,0 -174,149 62,195 48,9 101,5 144,-15 37,-18 102,-15 68,-49z"/>
   <path class="fil39" d="M11492 7371c183,39 660,1 686,-35 0,0 -124,-528 -91,-799 42,-346 -125,-449 -189,-477 0,0 -64,74 -208,42 -146,-32 -83,-116 -83,-116 -191,2 -200,247 -205,335 -11,167 -26,650 -23,927 16,67 49,109 113,123z"/>
   <path class="fil36" d="M12173 7323l-31 34c36,74 93,234 139,250 43,15 88,18 107,-86 8,-40 -58,-161 -87,-209 -49,-19 -87,-19 -128,11z"/>
   <path class="fil40" d="M12222 7365c29,-11 86,-27 139,-30 -1,-12 -3,-25 -8,-37l-153 -504c-3,-7 -6,-14 -10,-20 -1,-6 -3,-12 -5,-18l-119 -508c-24,-66 -150,-60 -215,-37 -66,24 -86,80 -62,146l155 477c0,16 3,33 9,49l165 509c3,9 8,17 13,24 27,-21 58,-39 91,-51z"/>
  </g>
  <polygon class="fil41" style="mask:url(#id2)" points="6552,1303 4301,3 4307,0 4653,0 4650,2 6727,1201 6726,1202 6910,1297 4380,2790 4231,2668 "/>
  <g>
   <g id="_3012594837184">
    <path class="fil42" d="M4318 5668l0 0 -890 -513 890 513 1265 -731 -1265 731zm-1266 -731l24 -13 44 -26 0 0 1198 -691c422,243 843,487 1265,730l0 812 -1265 730 -1266 -730 0 -812z"/>
    <g>
     <path class="fil43" d="M4318 5668l0 0 -927 -535 -339 -196 24 -13 44 -26 0 0 1198 -691c422,243 843,487 1265,730l-1265 731z"/>
     <polygon class="fil42" points="4318,5668 5583,4937 5583,5749 4318,6479 3052,5749 3052,4937 "/>
    </g>
   </g>
   <g id="_3012594836128">
    <path class="fil42" d="M4331 4176l0 0 -889 -514 889 514 1266 -731 -1266 731zm-1266 -731l24 -14 44 -25 0 0 1198 -692c422,244 844,487 1266,731l0 811 -1266 731 -1266 -731 0 -811z"/>
    <g>
     <path class="fil43" d="M4331 4176l0 0 -926 -535 -340 -196 24 -14 44 -25 0 0 1198 -692c422,244 844,487 1266,731l-1266 731z"/>
     <polygon class="fil42" points="4331,4176 5597,3445 5597,4256 4331,4987 3065,4256 3065,3445 "/>
    </g>
   </g>
   <g id="_3012593756288">
    <path class="fil42" d="M4344 2746l0 0 -889 -513 889 513 1266 -730 -1266 730zm-1265 -730l24 -14 44 -25 0 0 1198 -692c421,244 843,487 1265,731l0 811 -1266 731 -1265 -731 0 -811z"/>
    <g>
     <path class="fil43" d="M4344 2746l0 0 -926 -534 -339 -196 24 -14 44 -25 0 0 1198 -692c421,244 843,487 1265,731l-1266 730z"/>
     <polygon class="fil42" points="4344,2746 5610,2016 5610,2827 4344,3558 3079,2827 3079,2016 "/>
    </g>
   </g>
  </g>
  <g>
   <path class="fil5" d="M6798 3863c6,67 66,118 133,112 67,-7 117,-66 111,-134l-40 -481c-6,-68 -65,-118 -133,-112 -67,6 -117,66 -111,134l40 481z"/>
   <path class="fil33" d="M6921 5701c-19,26 -8,51 -9,89l-16 -1c-1,-13 0,-57 -9,-78l-8 -11 42 1z"/>
   <path class="fil11" d="M6735 5600c7,-46 12,-90 10,-141 0,-18 -14,-439 -20,-565l206 -93c4,80 26,370 -15,540 -5,24 -28,137 -32,165 -2,15 -5,47 9,82 2,6 11,25 14,35 4,11 0,14 3,21 6,16 7,11 -6,15 -9,4 -19,4 -28,7 -11,4 -20,11 -29,17 -15,11 -35,17 -45,33 -9,13 -5,35 -12,50 -6,15 -16,26 -36,26l-1 0 -47 -13c-7,-3 -13,-8 -19,-13l-17 -16 23 -44c9,-4 35,-63 42,-106z"/>
   <path class="fil33" d="M6665 5710c9,-3 36,-14 36,-14 0,0 -3,10 8,16l10 4c10,3 18,4 26,3 17,-1 30,-9 41,-19 28,-28 58,-49 94,-67 11,-6 23,-24 25,-21 11,18 19,36 21,41 5,24 9,50 -3,63 -7,8 -28,18 -53,10 -19,-6 -43,-6 -50,0 -19,14 0,79 -32,74 -30,-6 -61,-13 -92,-22 -14,-4 -28,-8 -43,-14 -7,-3 -18,-8 -25,-15 -20,-26 27,-35 37,-39z"/>
   <path class="fil11" d="M6643 3751l-155 -1 -66 33c-6,4 -38,20 -38,40 -1,13 5,88 30,82 17,-5 149,-60 149,-60 9,-3 39,-1 44,-6l35 -35 1 -53z"/>
   <path class="fil5" d="M6714 3713c-64,-15 -128,25 -144,88 -15,64 25,128 89,143l230 27c64,15 128,-24 143,-88 15,-63 -24,-127 -88,-142l-230 -28z"/>
   <path class="fil15" d="M6526 3368c-1,-12 96,-50 106,-41 41,31 89,-10 117,-25 25,-13 30,-41 30,-41 0,0 25,0 43,20 35,40 58,117 -90,146 -45,9 -95,6 -135,-14 -35,-17 -103,-13 -71,-45z"/>
   <path class="fil33" d="M6644 5802c-19,26 -8,51 -9,88l-16 0c-1,-14 0,-57 -9,-78l-8 -11 42 1z"/>
   <path class="fil11" d="M6458 5700c7,-46 12,-89 10,-140 0,-18 -14,-440 -20,-565l206 -94c4,81 26,370 -15,540 -5,24 -28,138 -32,165 -1,16 -5,47 9,83 2,6 12,25 14,34 4,12 1,14 3,21 6,17 7,11 -6,16 -9,3 -19,4 -27,7 -12,3 -21,10 -30,17 -15,10 -35,17 -45,32 -9,14 -5,35 -11,51 -6,15 -17,26 -37,26l-1 0 -47 -13c-7,-4 -13,-8 -19,-13l-16 -17 22 -43c9,-4 35,-64 42,-107z"/>
   <path class="fil33" d="M6388 5811c9,-4 36,-14 36,-14 0,0 -3,10 8,15l10 4c10,3 18,4 27,4 16,-2 29,-10 40,-20 28,-27 59,-49 94,-67 12,-6 23,-24 25,-20 11,18 20,35 21,41 5,24 9,49 -3,62 -7,8 -28,19 -53,11 -19,-6 -43,-6 -50,0 -19,14 1,79 -32,73 -30,-5 -61,-12 -91,-21 -15,-4 -29,-9 -43,-15 -8,-3 -19,-7 -26,-15 -20,-25 27,-34 37,-38z"/>
   <path class="fil4" d="M6942 3977c-7,-15 -13,-31 -20,-46 -152,-322 45,-667 -135,-670 0,0 92,94 -46,125 -135,29 -191,-35 -191,-35 -61,26 -216,147 -113,418 18,47 12,147 -3,278 248,100 422,37 508,-70z"/>
   <path class="fil44" d="M6942 3977c-86,107 -260,170 -508,70 -27,257 -82,636 -32,995 63,80 470,-16 565,-100 -2,-95 129,-577 -25,-965z"/>
   <path class="fil18" d="M6781 3298c2,67 -172,86 -187,39 -10,-34 -8,-133 -8,-133l187 -18 8 112z"/>
   <path class="fil45" d="M6821 3104c-96,100 -134,99 -230,31 -96,-67 -135,-163 -112,-305 24,-150 204,-189 318,-119 218,133 143,268 24,393z"/>
   <path class="fil11" d="M6779 3007c-6,42 -31,168 -57,191 -38,32 -144,54 -193,15 -66,-52 -57,-163 -57,-299 0,-137 89,-163 164,-105 75,59 161,63 143,198z"/>
   <path class="fil45" d="M6934 2868c-9,-59 -151,-64 -151,-64 -10,-9 -73,-236 -310,-51 -49,38 -33,173 -33,173 0,0 107,10 120,21 13,10 58,85 97,152 5,10 10,18 15,27 20,36 45,111 140,49 6,-6 165,-171 122,-307z"/>
   <path class="fil11" d="M6662 3050c-10,28 -24,46 -43,43 -18,-2 -28,-22 -24,-52 4,-30 31,-53 49,-50 18,2 29,26 18,59z"/>
   <path class="fil46" d="M6807 3333c7,-16 15,-32 24,-49 213,-323 -68,-426 -68,-427 -2,-19 5,-33 17,-40 10,-9 22,-14 33,-20 5,-2 28,-29 81,-30 77,-1 197,42 212,398 4,71 32,247 -5,348 -13,23 -34,42 -61,42 -7,0 -14,0 -21,0 -98,-37 -238,-83 -219,-172 3,-16 6,-33 7,-50z"/>
   <path class="fil11" d="M6224 4303l-73 75 -42 74c-4,8 -23,43 -14,62 6,13 48,80 67,57 12,-15 90,-139 90,-139 0,0 0,-28 27,-76l34 -27 -89 -26z"/>
   <path class="fil5" d="M6269 3933c-16,66 24,133 90,149 66,16 132,-25 148,-91l116 -468c16,-67 -24,-133 -90,-149 -66,-16 -132,25 -148,91l-116 468z"/>
   <path class="fil5" d="M6154 4259c-29,59 -6,130 53,160 58,29 130,5 159,-54l133 -352c29,-59 -20,-66 -79,-96 -58,-29 -122,-43 -151,16l-115 326z"/>
  </g>
  <g>
   <path class="fil47" d="M2881 4827c616,0 1346,699 1631,1562 285,863 16,1562 -599,1562 -616,0 -1346,-699 -1631,-1562 -285,-863 -16,-1562 599,-1562z"/>
   <g id="_3012593780128">
    <path class="fil48" d="M4697 7139c0,421 -152,713 -396,843 18,-5 38,-14 64,-28 7,-4 236,-143 243,-147 225,-138 364,-423 364,-825 0,-824 -582,-1827 -1299,-2242 -271,-156 -522,-206 -730,-164 -63,13 -123,34 -178,64 -5,3 -196,110 -295,169 132,-78 293,-106 473,-79 141,21 294,75 454,168 718,414 1300,1418 1300,2241z"/>
    <path class="fil49" d="M5253 9810c-43,0 -83,-9 -114,-26l-1035 -582c-85,14 -175,22 -269,22 -453,0 -820,-174 -820,-389 0,-216 367,-390 820,-390 453,0 820,174 820,390 0,77 -49,150 -132,211l962 540c103,60 1,144 -85,187 -42,24 -96,37 -147,37z"/>
    <path class="fil48" d="M5482 9480c57,107 17,240 -90,298 -107,58 -240,18 -298,-90 -58,-107 -18,-240 89,-298 107,-57 241,-17 299,90z"/>
    <path class="fil50" d="M4785 8095l-477 257 711 1312 0 0 1 2c42,76 182,81 313,10 132,-71 205,-191 164,-267l-1 -2 0 0 -711 -1312z"/>
    <path class="fil51" d="M4785 8096c42,77 -31,197 -163,267 -132,71 -272,67 -313,-10 -41,-77 32,-196 163,-267 132,-71 272,-66 313,10z"/>
    <path class="fil48" d="M4473 7747l-284 153 202 374 0 0 0 1c25,46 108,49 187,7 78,-43 122,-114 97,-159l0 -1 -1 -1 -201 -374z"/>
    <path class="fil52" d="M4697 7139c0,-823 -582,-1827 -1300,-2241 -160,-93 -313,-148 -454,-169 -494,-74 -846,269 -846,910 0,640 352,1389 846,1886 141,142 294,263 454,355 718,415 1300,83 1300,-741zm-1754 -2135c133,11 280,60 434,149 610,351 1103,1203 1103,1902 0,699 -493,980 -1103,629 -154,-89 -301,-211 -434,-353 -393,-421 -668,-1028 -668,-1550 0,-522 275,-811 668,-777z"/>
    <path class="fil15" d="M4696 7176l0 0zm0 -5l0 0 0 0zm0 -2c0,0 0,0 0,0 0,0 0,0 0,0zm0 -5c0,0 0,0 0,0 0,0 0,0 0,0zm0 -5c0,0 0,0 0,0 0,0 0,0 0,0zm0 -2c0,0 0,0 0,-1 0,1 0,1 0,1zm1 -3c0,0 0,0 0,0 0,0 0,0 0,0zm0 -2c0,0 0,0 0,0 0,0 0,0 0,0zm0 -3c0,0 0,0 0,0 0,0 0,0 0,0zm0 -2c0,0 0,0 0,0 0,0 0,0 0,0zm0 -3c0,0 0,0 0,0 0,0 0,0 0,0zm0 -2c0,0 0,0 0,-1 0,1 0,1 0,1z"/>
    <path class="fil15" d="M4519 7833l-14 -25c116,-150 185,-364 191,-632l0 0c0,-2 0,-3 0,-5l0 0c0,-1 0,-1 0,-2 0,0 0,0 0,0 0,-2 0,-4 0,-5 0,0 0,0 0,0 0,-2 0,-3 0,-5 0,0 0,0 0,0 0,-1 0,-2 0,-2 0,0 0,0 0,-1 1,0 1,-1 1,-2 0,0 0,0 0,0 0,-1 0,-2 0,-2 0,0 0,0 0,0 0,-1 0,-2 0,-3 0,0 0,0 0,0 0,-1 0,-1 0,-2 0,0 0,0 0,0 0,-1 0,-2 0,-3 0,0 0,0 0,0 0,-1 0,-1 0,-2 0,0 0,0 0,-1 0,0 0,-1 0,-2l0 0c0,-823 -582,-1827 -1300,-2241l0 0c-160,-93 -313,-148 -454,-169l0 1c-44,-7 -88,-10 -129,-10 -69,0 -133,8 -194,25 -17,4 -34,8 -50,12 91,-45 194,-68 306,-68 22,0 44,1 67,2 158,13 333,70 516,176 718,414 1300,1418 1300,2241 0,322 -89,569 -240,725z"/>
    <path class="fil15" d="M4317 7973c72,-41 135,-96 188,-165l14 25c-58,61 -126,108 -202,140z"/>
    <path class="fil15" d="M4236 8002c253,-126 461,-434 461,-863 0,1 0,2 0,2 0,1 0,1 0,1 0,1 0,1 0,2 0,0 0,0 0,0 0,1 0,2 0,3 0,0 0,0 0,0 0,1 0,1 0,2 0,0 0,0 0,0 0,1 0,2 0,3 0,0 0,0 0,0 0,0 0,1 0,2 0,0 0,0 0,0 0,1 0,2 -1,2 0,1 0,1 0,1 0,0 0,1 0,2 0,0 0,0 0,0 0,2 0,3 0,5 0,0 0,0 0,0 0,1 0,3 0,5 0,0 0,0 0,0 0,1 0,1 0,2l0 0c0,2 0,3 0,5l0 0c-6,268 -75,482 -191,632 -53,69 -116,124 -188,165 -26,12 -53,21 -81,29zm461 -863c0,-823 -582,-1827 -1300,-2241 -150,-87 -307,-137 -454,-158l0 -11c141,21 294,76 454,169l0 0c718,414 1300,1418 1300,2241l0 0z"/>
    <path class="fil48" d="M2503 5654c0,-285 82,-501 221,-632 -273,73 -449,341 -449,759 0,522 275,1129 668,1550 133,142 280,264 434,353 361,208 681,194 882,3 -182,49 -409,10 -653,-131 -249,-144 -478,-371 -663,-636 -267,-386 -440,-853 -440,-1266z"/>
    <path class="fil53" d="M2450 4821c-21,14 -36,23 -38,26 12,-9 25,-18 38,-26z"/>
    <path class="fil53" d="M2470 4809c-7,4 -13,8 -20,12 6,-4 13,-8 20,-12z"/>
    <path class="fil15" d="M2943 4740l0 -10c-44,-7 -86,-10 -127,-10l-2 0c-69,0 -133,8 -194,25 53,-10 110,-16 171,-16 49,0 100,4 152,11z"/>
   </g>
  </g>
 </g>
</svg>
