<?xml version="1.0" encoding="UTF-8"?>
<!DOCTYPE svg PUBLIC "-//W3C//DTD SVG 1.1//EN" "http://www.w3.org/Graphics/SVG/1.1/DTD/svg11.dtd">
<!-- Creator: CorelDRAW X8 -->
<svg xmlns="http://www.w3.org/2000/svg" xml:space="preserve" width="136.313mm" height="81.9572mm" version="1.1" style="shape-rendering:geometricPrecision; text-rendering:geometricPrecision; image-rendering:optimizeQuality; fill-rule:evenodd; clip-rule:evenodd"
viewBox="0 0 18529 11140"
 xmlns:xlink="http://www.w3.org/1999/xlink">
 <defs>
  <style type="text/css">
   <![CDATA[
    .fil0 {fill:none}
    .fil13 {fill:#FEFEFE;fill-rule:nonzero}
    .fil8 {fill:#FEFEFE;fill-rule:nonzero}
    .fil7 {fill:#F5B8D2;fill-rule:nonzero}
    .fil14 {fill:#86BAE5;fill-rule:nonzero}
    .fil10 {fill:#203A98;fill-rule:nonzero}
    .fil12 {fill:#4C7BE3;fill-rule:nonzero}
    .fil5 {fill:#84BCFF;fill-rule:nonzero}
    .fil6 {fill:#D9EAFF;fill-rule:nonzero}
    .fil2 {fill:#F4F4FA;fill-rule:nonzero}
    .fil3 {fill:#FC5F9F;fill-rule:nonzero}
    .fil4 {fill:#FEFEFE;fill-rule:nonzero}
    .fil9 {fill:#FEFEFE;fill-opacity:0.200000}
    .fil1 {fill:#FEFEFE;fill-rule:nonzero;fill-opacity:0.200000}
    .fil11 {fill:url(#id0);fill-rule:nonzero}
   ]]>
  </style>
  <linearGradient id="id0" gradientUnits="userSpaceOnUse" x1="8348.17" y1="9792.88" x2="9052.15" y2="7290.63">
   <stop offset="0" style="stop-opacity:1; stop-color:#1153A8"/>
   <stop offset="1" style="stop-opacity:1; stop-color:#5A85F2"/>
  </linearGradient>
 </defs>
 <g id="Слой_x0020_1">
  <metadata id="CorelCorpID_0Corel-Layer"/>
  <rect class="fil0" width="18529" height="11140"/>
  <g id="_3012592025184">
   <g>
    <path class="fil1" d="M14233 9342c-50,0 -105,-16 -164,-50l-659 -381 -3654 -2887 231 -440c0,-230 -1010,-994 -1211,-1110l-291 -1754 1 -1327c0,-164 82,-258 201,-258 49,0 105,16 163,50l5234 3022c201,115 363,397 362,627l-1 378 -11 3872c0,164 -82,258 -201,258z"/>
    <path class="fil1" d="M13823 9774c-49,0 -105,-16 -163,-50l-103 -60 2 -667 8 -3062 1 -372c1,-227 -159,-504 -357,-618l-4728 -2730 -407 -236 0 -154c0,-164 82,-258 202,-258 49,0 104,16 163,50l44 25 5189 2997c201,116 363,397 363,627l-1 378 -11 3622 0 250c-1,164 -83,258 -202,258z"/>
    <path class="fil2" d="M7890 1889l-91 53c65,-38 155,-33 255,25l91 -53c-100,-58 -190,-63 -255,-25z"/>
    <path class="fil2" d="M7682 6360c-1,227 159,504 357,618l5158 2978c198,114 359,23 359,-205l11 -3816 1 -372c1,-227 -159,-504 -357,-618l-5157 -2978c-198,-114 -359,-23 -360,205l-1 372 -11 3816z"/>
    <path class="fil3" d="M7693 2544l5874 3391 1 -372c1,-227 -159,-504 -357,-618l-5157 -2978c-198,-114 -359,-23 -360,205l-1 372z"/>
    <path class="fil2" d="M12821 5132c0,49 -34,69 -76,45 -42,-25 -76,-84 -76,-133 0,-48 34,-68 76,-44 42,24 76,84 76,132z"/>
    <path class="fil2" d="M13062 5271c0,49 -34,69 -76,45 -43,-25 -77,-84 -77,-133 0,-49 34,-68 77,-44 42,24 76,84 76,132z"/>
    <path class="fil2" d="M13303 5410c0,49 -35,69 -77,44 -42,-24 -76,-83 -76,-132 0,-49 34,-68 76,-44 42,24 77,84 77,132z"/>
    <path class="fil4" d="M13284 9693l0 -2284 -2647 -1528 0 -1387 0 3671 2647 1528zm-2647 -5199l2647 1528 -2647 -1528zm659 3532l0 352 1844 1065 0 -352 -1844 -1065zm0 -488l0 352 1844 1064 0 -351 -1844 -1065zm0 -488l0 351 1844 1065 0 -351 -1844 -1065zm-403 763c-50,0 -84,40 -84,108 0,97 68,215 152,263 24,14 47,21 67,21 50,0 84,-40 84,-109 0,-97 -68,-215 -151,-263 -25,-14 -48,-20 -68,-20zm403 -1252l0 352 1844 1065 0 -352 -1844 -1065zm-403 763c-50,0 -84,40 -84,109 0,97 68,215 152,263 24,14 47,21 67,21 50,0 84,-40 84,-109 0,-97 -68,-215 -151,-263 -25,-14 -48,-21 -68,-21zm0 -488c-50,0 -84,40 -84,109 0,97 68,214 152,263 24,14 47,20 67,20 50,0 84,-40 84,-109 0,-97 -68,-214 -151,-263 -25,-13 -47,-20 -68,-20zm0 -488c-50,0 -84,39 -84,108 0,97 68,215 152,263 24,14 47,21 67,21 50,0 84,-40 84,-109 0,-97 -68,-215 -151,-263 -25,-14 -47,-20 -68,-20l0 0z"/>
    <polygon class="fil3" points="13284,7409 10637,5881 10637,4494 13284,6022 "/>
    <polygon class="fil5" points="13140,7978 10768,6608 10768,6257 13140,7626 "/>
    <polygon class="fil5" points="13140,8466 10771,7098 10771,6747 13140,8115 "/>
    <polygon class="fil5" points="13140,8954 10767,7585 10767,7233 13140,8603 "/>
    <polygon class="fil5" points="13140,9443 10772,8076 10772,7724 13140,9091 "/>
    <path class="fil4" d="M10405 6009l-2549 -1471 0 -1700 2549 1471 0 1700zm-417 -817c-62,0 -105,50 -105,136 0,122 85,269 189,329 31,18 59,26 85,26 62,0 105,-50 105,-136 0,-122 -85,-269 -190,-329 -30,-18 -59,-26 -84,-26zm-628 -363c-62,0 -105,50 -105,137 0,121 85,269 190,329 30,18 59,26 84,26 63,0 105,-50 105,-136 0,-122 -85,-269 -189,-330 -31,-17 -59,-26 -85,-26zm-627 -362c-63,0 -106,50 -106,136 0,122 85,269 190,330 30,17 59,25 84,25 63,0 106,-50 106,-136 0,-121 -85,-269 -190,-329 -30,-18 -59,-26 -84,-26zm-628 -363c-62,0 -105,50 -105,137 0,121 85,269 189,329 31,18 59,26 85,26 62,0 105,-50 105,-136 0,-122 -85,-269 -190,-330 -30,-17 -59,-26 -84,-26zm-74 -970c-19,0 -31,15 -31,41l0 650c0,37 25,81 56,99l1002 578c9,5 17,7 25,7 18,0 31,-14 31,-40l0 -651c0,-36 -25,-80 -56,-98l-1002 -578c-9,-5 -17,-8 -25,-8z"/>
    <path class="fil5" d="M9083 4509c-8,0 -16,-2 -25,-7l-1002 -578c-31,-18 -56,-62 -56,-99l0 -650c0,-26 12,-41 31,-41 8,0 16,3 25,8l1002 578c31,18 56,62 56,98l0 651c0,26 -13,40 -31,40z"/>
    <path class="fil6" d="M8274 4596c-26,0 -54,-8 -85,-26 -104,-60 -189,-208 -189,-329 0,-87 43,-137 105,-137 25,0 54,9 84,26 105,61 190,208 190,330 0,86 -43,136 -105,136z"/>
    <path class="fil6" d="M8901 4958c-25,0 -54,-8 -84,-25 -105,-61 -190,-208 -190,-330 0,-86 43,-136 106,-136 25,0 54,8 84,26 105,60 190,208 190,329 0,86 -43,136 -106,136z"/>
    <path class="fil6" d="M9529 5321c-25,0 -54,-8 -84,-26 -105,-60 -190,-208 -190,-329 0,-87 43,-137 105,-137 26,0 54,9 85,26 104,61 189,208 189,330 0,86 -42,136 -105,136z"/>
    <path class="fil6" d="M10157 5683c-26,0 -54,-8 -85,-26 -104,-60 -189,-207 -189,-329 0,-86 43,-136 105,-136 25,0 54,8 84,26 105,60 190,207 190,329 0,86 -43,136 -105,136z"/>
    <path class="fil3" d="M9083 6480c-8,0 -16,-2 -25,-8l-1002 -578c-31,-18 -56,-62 -56,-98l0 -651c0,-25 12,-40 31,-40 8,0 16,2 25,7l1002 579c31,18 56,62 56,98l0 650c0,26 -13,41 -31,41z"/>
    <path class="fil7" d="M8274 6567c-26,0 -54,-9 -85,-26 -104,-61 -189,-208 -189,-330 0,-86 43,-136 105,-136 25,0 54,8 84,26 105,60 190,208 190,329 0,87 -43,137 -105,137z"/>
    <path class="fil7" d="M8901 6929c-25,0 -54,-8 -84,-26 -105,-60 -190,-208 -190,-329 0,-86 43,-136 106,-136 25,0 54,8 84,25 105,61 190,208 190,330 0,86 -43,136 -106,136z"/>
    <path class="fil7" d="M9529 7292c-25,0 -54,-9 -84,-26 -105,-61 -190,-208 -190,-330 0,-86 43,-136 105,-136 26,0 54,8 85,26 104,60 189,208 189,329 0,87 -43,137 -105,137z"/>
    <path class="fil7" d="M10157 7654c-26,0 -54,-8 -85,-26 -104,-60 -189,-208 -189,-329 0,-87 43,-137 105,-137 25,0 54,9 84,26 105,61 190,208 190,330 0,86 -43,136 -105,136z"/>
    <path class="fil2" d="M13452 9981l91 -53c65,-37 105,-117 105,-230l-92 53c0,113 -40,193 -104,230z"/>
    <path class="fil8" d="M13452 9981l91 -53c65,-37 105,-117 105,-230l11 -3816 1 -372c0,-227 -160,-504 -357,-619l-5158 -2977c-100,-58 -190,-63 -255,-25l-91 53c65,-38 155,-33 255,25l5157 2977c198,115 358,392 357,619l-1 372 -11 3816c0,113 -40,193 -104,230z"/>
   </g>
   <g>
    <path class="fil9" d="M5370 1821c1012,0 2211,1148 2678,2566 468,1417 28,2565 -983,2565 -1012,0 -2211,-1148 -2678,-2565 -468,-1418 -28,-2566 983,-2566z"/>
    <g>
     <path class="fil5" d="M8352 5619c0,690 -249,1170 -649,1384 29,-8 63,-23 104,-46 12,-6 388,-234 399,-241 371,-227 599,-695 599,-1356 0,-1352 -956,-3001 -2135,-3682 -444,-256 -856,-338 -1198,-269 -104,21 -202,56 -292,105 -8,4 -323,180 -485,278 217,-129 481,-175 777,-131 232,35 483,124 746,276 1179,681 2134,2329 2134,3682z"/>
     <path class="fil10" d="M9266 10005c-70,0 -137,-14 -186,-42l-1702 -956c-138,23 -286,36 -441,36 -745,0 -1348,-286 -1348,-640 0,-353 603,-640 1348,-640 743,0 1347,287 1347,640 0,128 -80,247 -217,347l1580 887c169,100 2,236 -139,308 -69,40 -158,60 -242,60z"/>
     <path class="fil5" d="M9642 9463c94,176 29,395 -147,490 -176,94 -395,29 -490,-147 -95,-176 -29,-395 147,-490 176,-95 395,-29 490,147z"/>
     <path class="fil11" d="M8497 7189l-782 422 1167 2154 0 0 2 3c68,126 298,134 514,17 216,-116 337,-313 269,-438l-2 -4 0 0 -1168 -2154z"/>
     <path class="fil12" d="M8498 7191c68,126 -52,322 -268,439 -217,116 -447,108 -515,-17 -67,-126 53,-323 269,-439 216,-117 446,-109 514,17z"/>
     <path class="fil5" d="M7985 6618l-466 251 331 614 0 0 1 1c41,76 177,80 306,11 129,-69 200,-186 160,-261l-1 -1 0 -1 -331 -614z"/>
     <path class="fil6" d="M8352 5619c0,-1353 -955,-3001 -2134,-3682 -263,-152 -514,-242 -746,-277 -811,-121 -1389,442 -1389,1494 0,1052 578,2282 1389,3098 232,233 483,432 746,584 1179,681 2134,136 2134,-1217zm-2880 -3508c219,19 460,98 714,245 1000,577 1811,1976 1811,3124 0,1148 -811,1610 -1811,1033 -254,-147 -495,-346 -714,-580 -646,-690 -1098,-1687 -1098,-2545 0,-857 452,-1332 1098,-1277z"/>
     <path class="fil13" d="M8352 5679l0 0zm0 -8l0 0 0 0zm0 -4c0,0 0,0 0,0 0,0 0,0 0,0zm0 -8c0,0 0,0 0,0 0,0 0,0 0,0zm0 -8c0,0 0,0 0,0 0,0 0,0 0,0zm0 -4c0,0 0,0 0,0 0,0 0,0 0,0zm0 -4c0,0 0,0 0,0 0,0 0,0 0,0zm0 -4c0,0 0,0 0,0 0,0 0,0 0,0zm0 -4c0,0 0,0 0,0 0,0 0,0 0,0zm0 -4c0,0 0,0 0,0 0,0 0,0 0,0zm0 -4c0,0 0,0 0,-1 0,1 0,1 0,1zm0 -4c0,0 0,0 0,-1 0,1 0,1 0,1z"/>
     <path class="fil13" d="M8061 6758l-23 -41c191,-246 304,-597 314,-1038l0 0c0,-3 0,-5 0,-8l0 0c0,-1 0,-3 0,-4 0,0 0,0 0,0 0,-3 0,-5 0,-8 0,0 0,0 0,0 0,-3 0,-5 0,-8 0,0 0,0 0,0 0,-2 0,-3 0,-4 0,0 0,0 0,0 0,-1 0,-2 0,-4 0,0 0,0 0,0 0,-2 0,-3 0,-4 0,0 0,0 0,0 0,-1 0,-3 0,-4 0,0 0,0 0,0 0,-2 0,-3 0,-4 0,0 0,0 0,0 0,-2 0,-3 0,-4 0,0 0,0 0,-1 0,-1 0,-2 0,-3 0,0 0,0 0,-1 0,-1 0,-2 0,-3l0 0c0,-1353 -955,-3001 -2134,-3682l0 0c-263,-152 -514,-242 -746,-277l0 1c-73,-11 -144,-16 -213,-16 -112,0 -218,14 -318,42 -28,5 -55,12 -82,19 149,-74 319,-112 503,-112 36,0 73,1 110,4 260,21 546,114 848,288 1179,680 2135,2329 2135,3682 0,528 -146,933 -394,1190z"/>
     <path class="fil13" d="M7729 6989c118,-68 222,-159 309,-272l23 41c-96,100 -208,177 -332,231z"/>
     <path class="fil13" d="M7596 7036c415,-208 756,-713 756,-1417 0,1 0,2 0,3 0,1 0,1 0,1 0,1 0,2 0,3 0,1 0,1 0,1 0,1 0,2 0,4 0,0 0,0 0,0 0,1 0,2 0,4 0,0 0,0 0,0 0,1 0,3 0,4 0,0 0,0 0,0 0,1 0,2 0,4 0,0 0,0 0,0 0,2 0,3 0,4 0,0 0,0 0,0 0,1 0,2 0,4 0,0 0,0 0,0 0,3 0,5 0,8 0,0 0,0 0,0 0,3 0,5 0,8 0,0 0,0 0,0 0,1 0,3 0,4l0 0c0,3 0,5 0,8l0 0c-10,441 -123,792 -314,1038 -87,113 -191,204 -309,272 -43,18 -87,34 -133,47zm756 -1417c0,-1353 -955,-3001 -2134,-3682 -247,-142 -505,-225 -746,-259l0 -18c232,35 483,125 746,277l0 0c1179,681 2134,2329 2134,3682l0 0z"/>
     <path class="fil5" d="M4749 3179c0,-468 135,-823 363,-1039 -448,121 -738,562 -738,1248 0,858 452,1855 1098,2545 219,234 460,434 714,580 592,342 1118,319 1448,6 -300,80 -672,16 -1074,-216 -408,-236 -785,-608 -1088,-1045 -439,-633 -723,-1400 -723,-2079z"/>
     <path class="fil14" d="M4663 1811c-36,22 -60,38 -63,43 20,-15 41,-29 63,-43z"/>
     <path class="fil14" d="M4695 1792c-11,6 -22,12 -32,19 10,-6 20,-12 32,-19z"/>
     <path class="fil13" d="M5472 1678l0 -17c-72,-11 -142,-16 -209,-16l-4 0c-112,0 -218,14 -318,42 87,-18 182,-27 282,-27 80,0 163,6 249,18z"/>
    </g>
   </g>
  </g>
 </g>
</svg>
