<?xml version="1.0" encoding="utf-8"?>
<!-- Generator: Adobe Illustrator 26.2.1, SVG Export Plug-In . SVG Version: 6.00 Build 0)  -->
<svg version="1.1" xmlns="http://www.w3.org/2000/svg" xmlns:xlink="http://www.w3.org/1999/xlink" x="0px" y="0px"
	 viewBox="0 0 500 500" style="enable-background:new 0 0 500 500;" xml:space="preserve">
<style type="text/css">
	.st0{opacity:0.8;fill:url(#SVGID_1_);fill-opacity:0.99;enable-background:new    ;}
	
		.st1{opacity:0.8;fill:url(#SVGID_00000152260919344174509920000015185644788336103337_);fill-opacity:0.99;enable-background:new    ;}
	
		.st2{opacity:0.8;fill:url(#SVGID_00000172421957230617208260000003979361482391798148_);fill-opacity:0.99;enable-background:new    ;}
	.st3{opacity:0.2;fill:#1EA0FA;enable-background:new    ;}
	.st4{fill:#DADADA;}
	.st5{fill:#F6F6F6;}
	.st6{fill:#1D71B8;}
	.st7{fill:#EA5B0C;}
	.st8{fill:#009FE3;}
	.st9{fill:#F39200;}
	
		.st10{opacity:0.8;fill:url(#SVGID_00000070816307276591357750000000801001704623995554_);fill-opacity:0.99;enable-background:new    ;}
	.st11{opacity:0.64;fill:#FFFFFF;}
	.st12{fill:#FFFFFF;}
	.st13{fill:url(#SVGID_00000034049647673081549160000010332181425934753198_);}
	.st14{fill:url(#SVGID_00000137119021463162150080000008741522319376620173_);}
	.st15{fill:#6CC7EF;}
	.st16{fill:#2FC1F4;}
	.st17{fill:#7DDDFF;}
	.st18{opacity:0.64;fill:#7DDDFF;}
	.st19{opacity:0.3;fill:#52B7EF;enable-background:new    ;}
	.st20{fill:#32FF51;}
	.st21{fill:#5FDDFF;}
	.st22{opacity:0.35;fill:#FFFFFF;stroke:#FFFFFF;stroke-width:2;stroke-miterlimit:10;}
	.st23{fill:none;stroke:#FFFFFF;stroke-miterlimit:10;}
	.st24{fill:none;stroke:#FFFFFF;stroke-width:2;stroke-miterlimit:10;}
	
		.st25{opacity:0.8;fill:url(#SVGID_00000013873694274411589590000001174820218432027821_);fill-opacity:0.99;enable-background:new    ;}
	.st26{fill:#FDE4CC;}
	.st27{fill:#E4C8AB;}
	
		.st28{opacity:0.8;fill:url(#SVGID_00000180355378370025008880000006402762977992755647_);fill-opacity:0.99;enable-background:new    ;}
	.st29{fill:none;stroke:#1E0E00;stroke-width:10;stroke-miterlimit:10;}
	.st30{fill:#B0B0B0;}
	.st31{fill:#5A5550;}
	.st32{fill:#249250;}
	.st33{fill:#44B658;}
	.st34{fill:#575756;}
	.st35{fill:#D8D8D8;}
	.st36{fill:#707070;}
	.st37{fill:#F46A3F;}
	.st38{fill:#3C3C3A;}
	.st39{fill:#C7C8CA;}
	.st40{fill:#818588;}
	.st41{fill:#B5B9BA;}
	.st42{fill:#B2B4B1;}
	.st43{fill:#2B2B2D;}
	.st44{fill:#858585;}
	.st45{fill:#1C1C1B;}
	.st46{fill:#E8E8E8;}
	.st47{fill:#F7F7F7;}
	.st48{fill:#C8CCCF;}
	.st49{fill:#D2AA87;}
	.st50{fill:#FFDB37;}
	.st51{fill:#F14941;}
	.st52{fill:#1E0E00;}
	.st53{fill:none;stroke:#5A5550;stroke-miterlimit:10;}
	.st54{fill:#EEEEEE;}
	.st55{fill:#E2E2E2;}
	.st56{fill:#F8B65A;}
	
		.st57{opacity:0.8;fill:url(#SVGID_00000129911052550336903190000013640271607174567554_);fill-opacity:0.99;enable-background:new    ;}
	.st58{fill:#E30613;}
	.st59{fill:#706F6F;}
	.st60{fill:#F9B233;}
	.st61{fill:#EDEDED;}
	.st62{fill:#E8502D;}
	.st63{fill:#878787;}
	.st64{fill:#6D6D6D;}
	.st65{fill:#1D1D1B;}
	
		.st66{opacity:0.8;fill:url(#SVGID_00000010286481893103804870000011873226961929904563_);fill-opacity:0.99;enable-background:new    ;}
	.st67{fill:#F2FF00;}
	.st68{fill:none;stroke:#B2B2B2;stroke-miterlimit:10;}
	.st69{fill:#DFB083;}
	.st70{fill:#5C4F4F;}
	.st71{fill:#170021;}
	.st72{fill:#CAC8C8;}
	.st73{fill:none;stroke:#F9ED42;stroke-width:14;stroke-miterlimit:10;}
	
		.st74{opacity:0.8;fill:url(#SVGID_00000155867888331834651780000003893790532812635800_);fill-opacity:0.99;enable-background:new    ;}
	
		.st75{opacity:0.8;fill:url(#SVGID_00000024704538661613521520000000057367161431650436_);fill-opacity:0.99;enable-background:new    ;}
	.st76{fill:#6C6966;}
	.st77{fill:none;stroke:#5A5550;stroke-width:3;stroke-miterlimit:10;}
	.st78{fill:#48423B;}
	
		.st79{opacity:0.8;fill:url(#SVGID_00000039100906636127110910000007151118448040507303_);fill-opacity:0.99;enable-background:new    ;}
	.st80{opacity:0.2;fill:#1DA2FC;enable-background:new    ;}
	.st81{opacity:0.29;}
	.st82{opacity:0.2;}
	.st83{clip-path:url(#SVGID_00000136408074947187811070000016720397381821921682_);}
	.st84{fill:#3C3C3B;}
	.st85{fill:#E7CAAD;}
	.st86{fill:#FC951D;}
	.st87{fill:none;stroke:#FCEA0D;stroke-width:2;stroke-miterlimit:10;}
	.st88{fill:#73F20F;}
	.st89{fill:#FFF7AB;}
	.st90{fill:#FCEA0D;}
	.st91{fill:#F8B133;stroke:#FC951D;stroke-miterlimit:10;}
	.st92{fill:#FFEC00;}
	
		.st93{opacity:0.8;fill:url(#SVGID_00000029045106901160405600000002819946855421227939_);fill-opacity:0.99;enable-background:new    ;}
	.st94{fill:none;}
	
		.st95{opacity:0.8;fill:url(#SVGID_00000078038159684203345260000009841494052973445508_);fill-opacity:0.99;enable-background:new    ;}
	.st96{fill:#BF4A10;}
	.st97{fill:#455159;}
	.st98{fill:#AFE213;}
	.st99{fill:#C6C6C6;}
	.st100{fill:#9D9D9C;}
	.st101{fill:#B2B2B2;}
	.st102{fill:none;stroke:#FFFFFF;stroke-width:4;stroke-miterlimit:10;}
	.st103{fill:#FFED00;}
	
		.st104{opacity:0.8;fill:url(#SVGID_00000009548097418064955120000000841054824053701544_);fill-opacity:0.99;enable-background:new    ;}
	
		.st105{opacity:0.8;fill:url(#SVGID_00000123404362067244982310000000105743446577096626_);fill-opacity:0.99;enable-background:new    ;}
	.st106{fill:#E6332A;}
	.st107{fill:#E0A477;}
	.st108{fill:#B17F4A;}
	.st109{fill:#F2C3AF;}
	.st110{fill:#E5AF7F;}
	.st111{fill:#E94E1B;}
	.st112{fill:#E5B8A8;}
	.st113{fill:#A3DAF7;}
	.st114{clip-path:url(#SVGID_00000109010477789391284710000008268304851861034113_);fill:#A3DAF7;}
	.st115{opacity:0.8;clip-path:url(#SVGID_00000109010477789391284710000008268304851861034113_);fill:#4D95D1;}
	.st116{clip-path:url(#SVGID_00000109010477789391284710000008268304851861034113_);}
	.st117{opacity:0.3;fill:#CABA9F;}
	.st118{opacity:0.5;fill:#CABA9F;}
	.st119{clip-path:url(#SVGID_00000109010477789391284710000008268304851861034113_);fill:#9C9B9B;}
	.st120{clip-path:url(#SVGID_00000109010477789391284710000008268304851861034113_);fill:#FFFFFF;}
	.st121{clip-path:url(#SVGID_00000109010477789391284710000008268304851861034113_);fill:#3C3C3B;}
	.st122{clip-path:url(#SVGID_00000109010477789391284710000008268304851861034113_);fill:#FDE4CC;}
	.st123{clip-path:url(#SVGID_00000109010477789391284710000008268304851861034113_);fill:#C6C6C5;}
	.st124{clip-path:url(#SVGID_00000109010477789391284710000008268304851861034113_);fill:#F9B75A;}
	.st125{clip-path:url(#SVGID_00000109010477789391284710000008268304851861034113_);fill:#575756;}
	.st126{clip-path:url(#SVGID_00000109010477789391284710000008268304851861034113_);fill:#E20613;}
	.st127{opacity:0.29;clip-path:url(#SVGID_00000109010477789391284710000008268304851861034113_);}
	.st128{fill:#D1A98B;}
	
		.st129{opacity:0.8;fill:url(#SVGID_00000067222858833064578410000005960896237032131262_);fill-opacity:0.99;enable-background:new    ;}
	.st130{fill:#E2BD9F;}
	.st131{fill:#DDB79B;}
	.st132{fill:#D6AE8A;}
	.st133{fill:none;stroke:#1D1D1B;stroke-miterlimit:10;}
	.st134{fill:#A48A7B;}
	.st135{fill:#FFF385;}
	.st136{fill:none;stroke:#575756;stroke-miterlimit:10;}
	.st137{fill:#575756;stroke:#FFFFFF;stroke-miterlimit:10;}
	.st138{fill:#2CF721;stroke:#FFED00;stroke-miterlimit:10;}
	
		.st139{opacity:0.8;fill:url(#SVGID_00000068673375452362011650000018178913105961221031_);fill-opacity:0.99;enable-background:new    ;}
	.st140{fill:#C9CACC;}
	.st141{fill:#83878A;}
	.st142{fill:#B8BBBC;}
	.st143{fill:#B4B6B3;}
	.st144{fill:#EAEAEA;}
	.st145{fill:#F9F9F9;}
	.st146{fill:#CACED1;}
	.st147{fill:#58B8E8;}
	.st148{fill:#D1B397;}
	.st149{fill:#ACAEAD;}
	.st150{fill:#969997;}
	.st151{fill:#BFC7D2;}
	.st152{fill:#BCC7C9;}
	.st153{fill:#E2E6F1;}
	.st154{fill:#C4C9CD;}
	.st155{fill:#C1C3C6;}
	.st156{fill:#D9E2E8;}
	.st157{fill:#B8B9BE;}
	.st158{fill:#CFD7DA;}
	.st159{fill:#C6C6C8;}
	.st160{fill:#E5EEF7;}
	.st161{fill:#D4D8DB;}
	.st162{fill:#A4A2A5;}
	.st163{fill:#707172;}
	.st164{fill:#D7DDE9;}
	.st165{fill:#CCD1D5;}
	.st166{fill:#4F5054;}
	.st167{fill:none;stroke:#E30613;stroke-miterlimit:10;}
	
		.st168{opacity:0.8;fill:url(#SVGID_00000038405362370873710520000011719608328733002116_);fill-opacity:0.99;enable-background:new    ;}
	.st169{fill:#FFF3DE;}
	.st170{opacity:0.42;fill:#FFFFFF;}
	.st171{fill:#AAABAB;}
	.st172{fill:#1C3AA9;}
	.st173{fill:#4285F3;}
	.st174{fill:#E2DABA;}
	
		.st175{opacity:0.8;fill:url(#SVGID_00000132048183084717735590000006617487656958106512_);fill-opacity:0.99;enable-background:new    ;}
	.st176{fill:#C49D82;}
	.st177{fill:#EFD5BD;}
	
		.st178{opacity:0.8;fill:url(#SVGID_00000166666157832101573540000001006172920685017731_);fill-opacity:0.99;enable-background:new    ;}
	.st179{opacity:0.56;fill:#575756;}
	.st180{fill:none;stroke:#3C3C3B;stroke-width:3;stroke-miterlimit:10;}
	.st181{fill:#FF6F27;}
	.st182{fill:#1D1D1B;stroke:#1D1D1B;stroke-miterlimit:10;}
	
		.st183{opacity:0.8;fill:url(#SVGID_00000152263126914230582150000004233167535640713903_);fill-opacity:0.99;enable-background:new    ;}
	
		.st184{opacity:0.8;fill:url(#SVGID_00000110442548789493627180000009711459295752731317_);fill-opacity:0.99;enable-background:new    ;}
	.st185{fill:none;stroke:#575756;stroke-width:4;stroke-miterlimit:10;}
	.st186{fill:#FF3333;}
	.st187{fill:#BE1622;}
	.st188{fill:#FCEA10;}
	
		.st189{opacity:0.8;fill:url(#SVGID_00000009561327268944941220000012880322533881407152_);fill-opacity:0.99;enable-background:new    ;}
	.st190{fill:url(#SVGID_00000079451865619751335970000005504250017642748049_);}
	.st191{fill:url(#SVGID_00000036973145542695220710000001605349457016850570_);}
	.st192{enable-background:new    ;}
	.st193{opacity:0.99;fill:#878787;}
	.st194{opacity:0.49;fill:#BE1622;}
	
		.st195{opacity:0.8;fill:url(#SVGID_00000157290652890939450090000006996117330509252787_);fill-opacity:0.99;enable-background:new    ;}
	.st196{fill:url(#SVGID_00000091009375168473022080000013946176706701903282_);}
	.st197{fill:url(#SVGID_00000028308948497321431210000011226601891728423838_);}
	.st198{fill:#F26522;}
	.st199{fill:#F1F2F2;}
	.st200{fill:url(#SVGID_00000043441591491514560770000011673738906650767543_);}
	.st201{fill:#B7B7B7;}
	.st202{fill:#171715;}
	.st203{fill:#19D10F;}
	.st204{fill:url(#SVGID_00000177477403856675307540000008681227634923700154_);}
	.st205{fill:url(#SVGID_00000089541661830403394470000010676679079450320058_);}
	
		.st206{opacity:0.8;fill:url(#SVGID_00000021077875392983950500000014482277454012888496_);fill-opacity:0.99;enable-background:new    ;}
	.st207{fill:url(#SVGID_00000168800071074630513740000008316116115615069114_);}
	.st208{fill:#F47400;}
	.st209{fill:none;stroke:#1D1D1B;stroke-width:4;stroke-linecap:round;stroke-miterlimit:10;}
	
		.st210{opacity:0.8;fill:url(#SVGID_00000072960052342797286180000015746432191694762144_);fill-opacity:0.99;enable-background:new    ;}
	.st211{fill:url(#SVGID_00000055686898982198771760000001052822899799597495_);}
	.st212{fill:none;stroke:#1D1D1B;stroke-width:4;stroke-miterlimit:10;}
	
		.st213{opacity:0.8;fill:url(#SVGID_00000090976018175965212060000003845579873345180583_);fill-opacity:0.99;enable-background:new    ;}
	.st214{fill:#1DA2FC;}
	.st215{fill:url(#SVGID_00000148638835977988056900000008691419752004682665_);}
	.st216{fill:url(#SVGID_00000026860181783559257400000000869636497569095301_);}
	.st217{fill:#118FE4;}
	.st218{fill:#0C82D1;}
	.st219{opacity:0.3;fill:#0C82D1;enable-background:new    ;}
	.st220{opacity:0.5;fill:#0C82D1;enable-background:new    ;}
	.st221{opacity:0.21;fill:#1D71B8;}
	.st222{fill:url(#SVGID_00000110451388578332264200000007108330833637732540_);}
	.st223{fill:url(#SVGID_00000092435991804562612350000013066409051918354307_);}
	
		.st224{opacity:0.8;fill:url(#SVGID_00000025409770924409368170000011841566969966848924_);fill-opacity:0.99;enable-background:new    ;}
	.st225{fill:#35AEFF;}
	.st226{fill:url(#SVGID_00000047748940749465066860000014227568443451494840_);}
	.st227{fill:url(#SVGID_00000075121253381736322140000002637575607074985360_);}
	.st228{fill:url(#SVGID_00000064347481967521073670000009562629686494356357_);}
	.st229{fill:url(#SVGID_00000067926345961971645660000004055429289042849460_);}
	.st230{fill:url(#SVGID_00000104705732308199107840000014795319591323734968_);}
	.st231{fill:url(#SVGID_00000168111712753992401840000003687884474494117032_);}
	.st232{fill:#432918;}
	.st233{fill:url(#SVGID_00000069396233099909296650000013044884188398726274_);}
	.st234{fill:url(#SVGID_00000030489092260252856240000005969892779095588261_);}
	.st235{fill:url(#SVGID_00000098198621060186939730000011329172871376062127_);}
	.st236{fill:url(#SVGID_00000182485978936306308040000004868361886417363901_);}
	.st237{fill:url(#SVGID_00000112600264310725989770000005078525577067389871_);}
	.st238{fill:url(#SVGID_00000018951418627667716700000015596642718446779817_);}
	.st239{fill:none;stroke:#F39200;stroke-miterlimit:10;}
	.st240{fill:#FFDABB;}
	.st241{fill:url(#SVGID_00000008148283057074865580000014564511285507323835_);}
	.st242{fill:url(#SVGID_00000035504173595617229970000006648633665791711929_);}
	.st243{fill:url(#SVGID_00000123403744740626337450000008356853884158885260_);}
	.st244{fill:url(#SVGID_00000169521028733463355370000007296993334193052056_);}
	.st245{fill:url(#SVGID_00000168099609816094165240000017623704399045040276_);}
	.st246{fill:url(#SVGID_00000052092393191927740770000008305009131709234320_);}
	.st247{fill:url(#SVGID_00000070113905150802573310000003458905277235962292_);}
	.st248{fill:url(#SVGID_00000073722915515366392720000008344426636884937893_);}
	
		.st249{opacity:0.8;fill:url(#SVGID_00000035524168515728586470000000771083125083424690_);fill-opacity:0.99;enable-background:new    ;}
	.st250{opacity:0.3;fill:#F1F2F2;}
	.st251{fill:#465051;}
	.st252{fill:#FBDC4C;}
	.st253{fill:#55C3FE;}
	.st254{fill:#97DFFF;}
	.st255{fill:#7BD7FF;}
	.st256{fill:#F0FBFF;}
	.st257{fill:#CBE9F4;}
	.st258{opacity:0.37;}
	.st259{fill:#16EF0F;}
	.st260{opacity:0.15;fill:#BBEDFF;}
	.st261{fill:url(#SVGID_00000178189564915058925220000008799108613646148519_);}
	.st262{fill:#36A9E1;}
	.st263{fill:#FFFFFF;stroke:#CBE9F4;stroke-width:4;stroke-miterlimit:10;}
	.st264{fill:none;stroke:#CBE9F4;stroke-width:4;stroke-miterlimit:10;}
	
		.st265{opacity:0.8;fill:url(#SVGID_00000016760696605531416470000007713370049357136571_);fill-opacity:0.99;enable-background:new    ;}
	
		.st266{opacity:0.8;fill:url(#SVGID_00000133498671230165411960000006492741344667532703_);fill-opacity:0.99;enable-background:new    ;}
	.st267{fill:url(#SVGID_00000168830622988336704650000009636743375201516419_);}
	.st268{fill:#C97200;}
	.st269{fill:#A3CBD8;}
	.st270{fill:#BEDEE5;}
	.st271{fill:#EFEFEF;}
	.st272{fill:url(#SVGID_00000047054671005266227970000003638244598936407734_);}
	
		.st273{opacity:0.8;fill:url(#SVGID_00000180330929473090065980000015917881427641086133_);fill-opacity:0.99;enable-background:new    ;}
	
		.st274{opacity:0.8;fill:url(#SVGID_00000135673144880027438760000010728987567530062241_);fill-opacity:0.99;enable-background:new    ;}
	.st275{opacity:0.5;}
	.st276{fill:url(#SVGID_00000083091339820641786960000015506615190868853646_);}
	.st277{fill:url(#SVGID_00000165211962874295152230000008234608372420382624_);}
	.st278{fill:#F4CC06;}
	.st279{opacity:0.37;fill:#CBE9F4;}
	.st280{fill:#FC0000;}
	
		.st281{opacity:0.8;fill:url(#SVGID_00000130635579754463048180000003158553333798651012_);fill-opacity:0.99;enable-background:new    ;}
	
		.st282{opacity:0.8;fill:url(#SVGID_00000056421764528150652240000011857301103625747880_);fill-opacity:0.99;enable-background:new    ;}
	
		.st283{opacity:0.8;fill:url(#SVGID_00000039821664344902755170000005289470591515072899_);fill-opacity:0.99;enable-background:new    ;}
	
		.st284{opacity:0.8;fill:url(#SVGID_00000092423722192366671900000014738779257909884600_);fill-opacity:0.99;enable-background:new    ;}
	.st285{fill:#60BFF4;enable-background:new    ;}
	.st286{fill:#F39200;stroke:#E94E1B;stroke-width:20;stroke-miterlimit:10;}
	.st287{opacity:0.51;}
	.st288{fill:url(#SVGID_00000106869678005517764020000007360353640105408407_);}
	.st289{fill:url(#SVGID_00000072995767159689420880000014599659727866608520_);}
	.st290{fill:url(#SVGID_00000076587474617577819560000012963704946110795155_);}
	.st291{fill:url(#SVGID_00000160897044119126092060000002857778531082635941_);}
	.st292{fill:url(#SVGID_00000175280489937920816630000017551211890225908920_);}
	.st293{fill:url(#SVGID_00000060003853158459977110000009422829316079264135_);}
	.st294{fill:url(#SVGID_00000039104656658555978180000002557615588503760259_);}
	.st295{fill:url(#SVGID_00000073712129623899245540000000322971892814998941_);}
	.st296{fill:url(#SVGID_00000101788377690894612670000016501134030593471666_);}
	.st297{fill:url(#SVGID_00000080185725680935739330000000542067777255515048_);}
	.st298{opacity:0.88;}
	.st299{fill:#27262A;}
	.st300{fill:#3FA5EF;}
	.st301{fill:url(#SVGID_00000134221452166546214500000009085552407013007273_);}
	.st302{fill:url(#SVGID_00000035533120550716635460000013076254140541216686_);}
	.st303{fill:url(#SVGID_00000165231198630159213600000010078559170078715567_);}
	.st304{fill:#37373D;}
	.st305{fill:url(#SVGID_00000165231419475829756660000014029701218859978421_);}
	.st306{fill:url(#SVGID_00000111883239925349974750000007589821332627965609_);}
	.st307{opacity:0.6;fill:#27262A;}
	.st308{fill:url(#SVGID_00000044151899434764413570000005021176579078407563_);}
	
		.st309{fill:url(#SVGID_00000164503838135631952980000009582618770789199521_);stroke:url(#SVGID_00000033361750793095019590000013194345741221975231_);stroke-miterlimit:10;}
	.st310{fill:url(#SVGID_00000016794084937792929160000003508280795572546210_);}
	.st311{fill:url(#SVGID_00000045613306332238038180000007967855046643541392_);}
	.st312{fill:url(#SVGID_00000052086163128416543420000013338782537777016969_);}
	.st313{fill:url(#SVGID_00000115493830236580202500000013396124503950813314_);}
	
		.st314{opacity:0.8;fill:url(#SVGID_00000037691753565765856920000015202707822022840449_);fill-opacity:0.99;enable-background:new    ;}
	
		.st315{opacity:0.8;fill:url(#SVGID_00000152952801178849245870000005721692022713836989_);fill-opacity:0.99;enable-background:new    ;}
	.st316{fill:#1EA0FA;}
	.st317{fill:url(#SVGID_00000155843555186449022040000004947481210479776906_);}
	.st318{fill:url(#SVGID_00000183226597983830474270000013433812776558812594_);}
	.st319{fill:url(#SVGID_00000122701963702134133760000011614083778489154698_);}
	.st320{fill:url(#SVGID_00000178900917567180360180000005916501526049123734_);}
	.st321{fill:url(#SVGID_00000173142649304002047570000005851908012136182177_);}
	.st322{fill:url(#SVGID_00000167395887068607745960000016437046667073392035_);}
	.st323{fill:none;stroke:#FFFFFF;stroke-width:6;stroke-linecap:round;stroke-linejoin:round;stroke-miterlimit:10;}
	.st324{fill:url(#SVGID_00000085253083728948775540000012649063286867302297_);}
	.st325{fill:url(#SVGID_00000096022229072833750510000012389219754399600822_);}
	.st326{fill:url(#SVGID_00000009589114932608703720000004391756367394126769_);}
	.st327{fill:url(#SVGID_00000024713154936308236210000008827794326700501392_);}
	.st328{fill:url(#SVGID_00000144330663401417282700000016012570044605361328_);}
	.st329{fill:url(#SVGID_00000057855461330601960250000017470626037458141066_);}
	.st330{fill:url(#SVGID_00000023960979906623294310000016531676606781953682_);}
	.st331{fill:url(#SVGID_00000096776809455299567430000001207595111284769677_);}
	.st332{fill:#256653;}
	.st333{fill:#3C8F7C;}
	.st334{fill:#327F6B;}
	.st335{fill:#96D9C9;}
	.st336{fill:#EDD7BE;}
	.st337{fill:#9BC1F9;}
	.st338{fill:#F47458;}
	.st339{fill:#E0C8A9;}
	.st340{fill:#FEF8F8;}
	.st341{fill:#B75742;}
	.st342{fill:#A54737;}
	.st343{fill:#184655;}
	.st344{fill:#F7CC7F;}
	.st345{fill:#FAE0B2;}
	.st346{fill-rule:evenodd;clip-rule:evenodd;fill:url(#SVGID_00000048475279920644312120000002170751910373392258_);}
	.st347{fill-rule:evenodd;clip-rule:evenodd;fill:url(#SVGID_00000057829110658137672670000003385423613870770313_);}
	.st348{fill-rule:evenodd;clip-rule:evenodd;fill:url(#SVGID_00000136409900574896871140000001888078614072579989_);}
	.st349{fill-rule:evenodd;clip-rule:evenodd;fill:url(#SVGID_00000181081590677975499220000009989663847210686906_);}
	.st350{fill-rule:evenodd;clip-rule:evenodd;fill:url(#SVGID_00000071558927773220456890000011012815082512238745_);}
	.st351{fill-rule:evenodd;clip-rule:evenodd;fill:url(#SVGID_00000173866756610462193380000012739032595728666814_);}
	.st352{fill-rule:evenodd;clip-rule:evenodd;fill:url(#SVGID_00000116951288483277704570000003071514974005233825_);}
	.st353{fill-rule:evenodd;clip-rule:evenodd;fill:url(#SVGID_00000062153711293051456650000005795936245113985469_);}
	.st354{fill-rule:evenodd;clip-rule:evenodd;fill:url(#SVGID_00000090297124346249969330000012629850373320349356_);}
	.st355{fill-rule:evenodd;clip-rule:evenodd;fill:url(#SVGID_00000142855009010698957760000008743124537464964483_);}
	.st356{opacity:0.5;fill-rule:evenodd;clip-rule:evenodd;fill:#FBF9FA;}
	.st357{fill-rule:evenodd;clip-rule:evenodd;fill:url(#SVGID_00000143583654759371085570000005571514021045962147_);}
	.st358{fill-rule:evenodd;clip-rule:evenodd;fill:url(#SVGID_00000067208960840669775010000000000778679462358705_);}
	.st359{fill-rule:evenodd;clip-rule:evenodd;fill:url(#SVGID_00000093874865867170301740000006075088315376176565_);}
	.st360{fill-rule:evenodd;clip-rule:evenodd;fill:url(#SVGID_00000135681269155438250100000013563154888203496105_);}
	.st361{opacity:0.5;fill-rule:evenodd;clip-rule:evenodd;fill:#282828;}
	.st362{fill-rule:evenodd;clip-rule:evenodd;fill:url(#SVGID_00000073718029624853180120000005625755788997937587_);}
	
		.st363{opacity:0.8;fill:url(#SVGID_00000073712386898661215790000010440267310746854299_);fill-opacity:0.99;enable-background:new    ;}
	.st364{fill:url(#SVGID_00000154394340494409761200000014852815446159084455_);}
	.st365{fill:url(#SVGID_00000162342738808818479780000000676709628249393822_);}
	.st366{fill:url(#SVGID_00000042735162887056467080000008114416847926811787_);}
	
		.st367{opacity:0.8;fill:url(#SVGID_00000066479193850254128460000013098458146695875974_);fill-opacity:0.99;enable-background:new    ;}
	.st368{fill:url(#SVGID_00000078034229657563842010000018155541509373333677_);}
	.st369{fill:url(#SVGID_00000176728517713379972100000015055099557264317576_);}
	.st370{fill:url(#SVGID_00000172426505288989793450000014072686620160634020_);}
	.st371{fill:#E94A42;}
	.st372{fill-rule:evenodd;clip-rule:evenodd;fill:#F39200;}
	.st373{fill-rule:evenodd;clip-rule:evenodd;fill:#2D2E83;}
	.st374{fill-rule:evenodd;clip-rule:evenodd;fill:#EDEDED;}
	.st375{fill-rule:evenodd;clip-rule:evenodd;fill:#A695CF;}
	.st376{fill:#2C0045;}
	.st377{opacity:0.5;fill-rule:evenodd;clip-rule:evenodd;fill:#8E4072;}
	.st378{fill-rule:evenodd;clip-rule:evenodd;fill:#27348B;}
	.st379{fill:#FF4F4A;}
	.st380{fill-rule:evenodd;clip-rule:evenodd;fill:url(#SVGID_00000112612514409281073830000002951151963490504374_);}
	.st381{opacity:0.25;fill:#1D71B8;}
	.st382{fill:#373735;}
	
		.st383{opacity:0.8;fill:url(#SVGID_00000086655914351975650860000003951331806209386169_);fill-opacity:0.99;enable-background:new    ;}
	.st384{fill:url(#SVGID_00000153701465642289615880000016144495310746735035_);}
	.st385{fill:url(#SVGID_00000158002695906146561420000009436165072638976164_);}
	.st386{fill:url(#SVGID_00000097464548997125956090000012997546843569591192_);}
	.st387{fill:url(#SVGID_00000018232699788321861630000007085713643515606429_);}
	.st388{fill:#B86B03;}
	.st389{fill:#FFA443;}
	
		.st390{opacity:0.8;fill:url(#SVGID_00000132063526785711532640000002116071270399162787_);fill-opacity:0.99;enable-background:new    ;}
	.st391{fill:#FFF9C5;}
	.st392{fill:#F4CF92;}
	.st393{opacity:0.2;fill:#EEEEEE;}
	.st394{fill:url(#SVGID_00000147929776099977527190000015570878116805878964_);}
	.st395{fill:url(#SVGID_00000080923588427201657220000010741184374743471035_);}
	.st396{fill:#3D4A99;}
	.st397{fill:#2D2E83;}
	.st398{fill:#175E8E;}
	.st399{fill:none;stroke:#7FC8EF;stroke-miterlimit:10;}
	
		.st400{opacity:0.8;fill:url(#SVGID_00000121998038917674843220000016701769868500457382_);fill-opacity:0.99;enable-background:new    ;}
	
		.st401{opacity:0.8;fill:url(#SVGID_00000097490021237607682950000014215691392466249392_);fill-opacity:0.99;enable-background:new    ;}
	.st402{fill:#F5BC8F;}
	.st403{fill:#E8A878;}
	
		.st404{opacity:0.8;fill:url(#SVGID_00000039819526899189175400000001692557451603885962_);fill-opacity:0.99;enable-background:new    ;}
	
		.st405{opacity:0.8;fill:url(#SVGID_00000098919310585488638130000008596694887930279585_);fill-opacity:0.99;enable-background:new    ;}
	.st406{fill:#FEF100;}
	.st407{fill:#EC1D24;}
	
		.st408{opacity:0.8;fill:url(#SVGID_00000055700459750971196870000010817525868630561957_);fill-opacity:0.99;enable-background:new    ;}
	
		.st409{opacity:0.8;fill:url(#SVGID_00000029007461986172801380000004363993364407089844_);fill-opacity:0.99;enable-background:new    ;}
	.st410{fill:url(#SVGID_00000003091478382009113050000005397676755676266920_);}
	.st411{fill:#73D0F9;}
	.st412{fill:url(#SVGID_00000010994814172466720880000000144439037521325960_);}
	.st413{fill:none;stroke:#1D71B8;stroke-width:2;stroke-miterlimit:10;}
	.st414{clip-path:url(#SVGID_00000142888176266888830860000011251783556178502048_);fill:#FFFFFF;}
	.st415{clip-path:url(#SVGID_00000142888176266888830860000011251783556178502048_);fill:#FEFFFF;}
	.st416{clip-path:url(#SVGID_00000142888176266888830860000011251783556178502048_);fill:#FEFEFF;}
	.st417{clip-path:url(#SVGID_00000142888176266888830860000011251783556178502048_);fill:#FDFEFE;}
	.st418{clip-path:url(#SVGID_00000142888176266888830860000011251783556178502048_);fill:#FDFDFE;}
	.st419{clip-path:url(#SVGID_00000142888176266888830860000011251783556178502048_);fill:#FCFDFE;}
	.st420{clip-path:url(#SVGID_00000142888176266888830860000011251783556178502048_);fill:#FBFDFE;}
	.st421{clip-path:url(#SVGID_00000142888176266888830860000011251783556178502048_);fill:#FBFCFE;}
	.st422{clip-path:url(#SVGID_00000142888176266888830860000011251783556178502048_);fill:#FAFCFE;}
	.st423{clip-path:url(#SVGID_00000142888176266888830860000011251783556178502048_);fill:#FAFCFD;}
	.st424{clip-path:url(#SVGID_00000142888176266888830860000011251783556178502048_);fill:#F9FBFD;}
	.st425{clip-path:url(#SVGID_00000142888176266888830860000011251783556178502048_);fill:#F8FBFD;}
	.st426{clip-path:url(#SVGID_00000142888176266888830860000011251783556178502048_);fill:#F8FAFD;}
	.st427{clip-path:url(#SVGID_00000142888176266888830860000011251783556178502048_);fill:#F7FAFD;}
	.st428{clip-path:url(#SVGID_00000142888176266888830860000011251783556178502048_);fill:#F7FAFC;}
	.st429{clip-path:url(#SVGID_00000142888176266888830860000011251783556178502048_);fill:#F6F9FC;}
	.st430{clip-path:url(#SVGID_00000142888176266888830860000011251783556178502048_);fill:#F5F9FC;}
	.st431{clip-path:url(#SVGID_00000142888176266888830860000011251783556178502048_);fill:#F5F8FC;}
	.st432{clip-path:url(#SVGID_00000142888176266888830860000011251783556178502048_);fill:#F4F8FC;}
	.st433{clip-path:url(#SVGID_00000142888176266888830860000011251783556178502048_);fill:#F3F7FB;}
	.st434{clip-path:url(#SVGID_00000142888176266888830860000011251783556178502048_);fill:#F2F7FB;}
	.st435{clip-path:url(#SVGID_00000142888176266888830860000011251783556178502048_);fill:#F2F6FB;}
	.st436{clip-path:url(#SVGID_00000142888176266888830860000011251783556178502048_);fill:#F1F6FB;}
	.st437{clip-path:url(#SVGID_00000142888176266888830860000011251783556178502048_);fill:#F0F5FB;}
	.st438{clip-path:url(#SVGID_00000142888176266888830860000011251783556178502048_);fill:#F0F5FA;}
	.st439{clip-path:url(#SVGID_00000142888176266888830860000011251783556178502048_);fill:#EFF5FA;}
	.st440{clip-path:url(#SVGID_00000142888176266888830860000011251783556178502048_);fill:#EEF4FA;}
	.st441{clip-path:url(#SVGID_00000142888176266888830860000011251783556178502048_);fill:#EDF3F9;}
	.st442{clip-path:url(#SVGID_00000142888176266888830860000011251783556178502048_);fill:#ECF3F9;}
	.st443{clip-path:url(#SVGID_00000142888176266888830860000011251783556178502048_);fill:#ECF2F9;}
	.st444{clip-path:url(#SVGID_00000142888176266888830860000011251783556178502048_);fill:#EBF2F9;}
	.st445{clip-path:url(#SVGID_00000142888176266888830860000011251783556178502048_);fill:#EAF1F9;}
	.st446{clip-path:url(#SVGID_00000142888176266888830860000011251783556178502048_);fill:#E9F1F8;}
	.st447{clip-path:url(#SVGID_00000142888176266888830860000011251783556178502048_);fill:#E9F0F8;}
	.st448{clip-path:url(#SVGID_00000142888176266888830860000011251783556178502048_);fill:#E8F0F8;}
	.st449{clip-path:url(#SVGID_00000142888176266888830860000011251783556178502048_);fill:#E7EFF8;}
	.st450{clip-path:url(#SVGID_00000142888176266888830860000011251783556178502048_);fill:#E6EFF7;}
	.st451{clip-path:url(#SVGID_00000142888176266888830860000011251783556178502048_);fill:#E5EEF7;}
	.st452{clip-path:url(#SVGID_00000142888176266888830860000011251783556178502048_);fill:#E4EDF7;}
	.st453{clip-path:url(#SVGID_00000142888176266888830860000011251783556178502048_);fill:#E3EDF6;}
	.st454{clip-path:url(#SVGID_00000142888176266888830860000011251783556178502048_);fill:#E2ECF6;}
	.st455{clip-path:url(#SVGID_00000142888176266888830860000011251783556178502048_);fill:#E1EBF6;}
	.st456{clip-path:url(#SVGID_00000142888176266888830860000011251783556178502048_);fill:#E0EBF6;}
	.st457{clip-path:url(#SVGID_00000142888176266888830860000011251783556178502048_);fill:#DFEAF5;}
	.st458{clip-path:url(#SVGID_00000142888176266888830860000011251783556178502048_);fill:#DEEAF5;}
	.st459{clip-path:url(#SVGID_00000142888176266888830860000011251783556178502048_);fill:#DDE9F5;}
	.st460{clip-path:url(#SVGID_00000142888176266888830860000011251783556178502048_);fill:#DCE8F4;}
	.st461{clip-path:url(#SVGID_00000142888176266888830860000011251783556178502048_);fill:#DBE8F4;}
	.st462{clip-path:url(#SVGID_00000142888176266888830860000011251783556178502048_);fill:#DAE7F4;}
	.st463{clip-path:url(#SVGID_00000142888176266888830860000011251783556178502048_);fill:#D9E6F3;}
	.st464{clip-path:url(#SVGID_00000142888176266888830860000011251783556178502048_);fill:#D8E6F3;}
	.st465{clip-path:url(#SVGID_00000142888176266888830860000011251783556178502048_);fill:#D7E5F3;}
	.st466{clip-path:url(#SVGID_00000142888176266888830860000011251783556178502048_);fill:#D6E4F2;}
	.st467{clip-path:url(#SVGID_00000142888176266888830860000011251783556178502048_);fill:#D5E4F2;}
	.st468{clip-path:url(#SVGID_00000142888176266888830860000011251783556178502048_);fill:#D4E3F2;}
	.st469{clip-path:url(#SVGID_00000142888176266888830860000011251783556178502048_);fill:#D3E2F1;}
	.st470{clip-path:url(#SVGID_00000142888176266888830860000011251783556178502048_);fill:#D2E1F1;}
	.st471{clip-path:url(#SVGID_00000142888176266888830860000011251783556178502048_);fill:#D0E1F1;}
	.st472{clip-path:url(#SVGID_00000142888176266888830860000011251783556178502048_);fill:#CFE0F0;}
	.st473{clip-path:url(#SVGID_00000142888176266888830860000011251783556178502048_);fill:#CEDFF0;}
	.st474{clip-path:url(#SVGID_00000142888176266888830860000011251783556178502048_);fill:#CDDEF0;}
	.st475{clip-path:url(#SVGID_00000142888176266888830860000011251783556178502048_);fill:#CCDEEF;}
	.st476{clip-path:url(#SVGID_00000142888176266888830860000011251783556178502048_);fill:#CBDDEF;}
	.st477{clip-path:url(#SVGID_00000142888176266888830860000011251783556178502048_);fill:#C9DCEF;}
	.st478{clip-path:url(#SVGID_00000142888176266888830860000011251783556178502048_);fill:#C8DBEE;}
	.st479{clip-path:url(#SVGID_00000142888176266888830860000011251783556178502048_);fill:#C7DAEE;}
	.st480{clip-path:url(#SVGID_00000142888176266888830860000011251783556178502048_);fill:#C5D9ED;}
	.st481{clip-path:url(#SVGID_00000142888176266888830860000011251783556178502048_);fill:#C4D9ED;}
	.st482{clip-path:url(#SVGID_00000142888176266888830860000011251783556178502048_);fill:#C3D8ED;}
	.st483{clip-path:url(#SVGID_00000142888176266888830860000011251783556178502048_);fill:#C2D7EC;}
	.st484{clip-path:url(#SVGID_00000142888176266888830860000011251783556178502048_);fill:#C0D6EC;}
	.st485{clip-path:url(#SVGID_00000142888176266888830860000011251783556178502048_);fill:#BFD5EB;}
	.st486{clip-path:url(#SVGID_00000142888176266888830860000011251783556178502048_);fill:#BDD4EB;}
	.st487{clip-path:url(#SVGID_00000142888176266888830860000011251783556178502048_);fill:#BCD3EA;}
	.st488{clip-path:url(#SVGID_00000142888176266888830860000011251783556178502048_);fill:#BBD2EA;}
	.st489{clip-path:url(#SVGID_00000142888176266888830860000011251783556178502048_);fill:#B9D1EA;}
	.st490{clip-path:url(#SVGID_00000142888176266888830860000011251783556178502048_);fill:#B8D0E9;}
	.st491{clip-path:url(#SVGID_00000142888176266888830860000011251783556178502048_);fill:#B6D0E9;}
	.st492{clip-path:url(#SVGID_00000142888176266888830860000011251783556178502048_);fill:#B5CFE8;}
	.st493{clip-path:url(#SVGID_00000142888176266888830860000011251783556178502048_);fill:#B3CEE8;}
	.st494{clip-path:url(#SVGID_00000142888176266888830860000011251783556178502048_);fill:#B2CDE7;}
	.st495{clip-path:url(#SVGID_00000142888176266888830860000011251783556178502048_);fill:#B0CCE7;}
	.st496{clip-path:url(#SVGID_00000142888176266888830860000011251783556178502048_);fill:#AFCBE6;}
	.st497{clip-path:url(#SVGID_00000142888176266888830860000011251783556178502048_);fill:#ADCAE6;}
	.st498{clip-path:url(#SVGID_00000142888176266888830860000011251783556178502048_);fill:#ACC9E5;}
	.st499{clip-path:url(#SVGID_00000142888176266888830860000011251783556178502048_);fill:#AAC8E5;}
	.st500{clip-path:url(#SVGID_00000142888176266888830860000011251783556178502048_);fill:#A9C7E5;}
	.st501{clip-path:url(#SVGID_00000142888176266888830860000011251783556178502048_);fill:#A7C6E4;}
	.st502{clip-path:url(#SVGID_00000142888176266888830860000011251783556178502048_);fill:#A5C4E4;}
	.st503{clip-path:url(#SVGID_00000142888176266888830860000011251783556178502048_);fill:#A4C3E3;}
	.st504{clip-path:url(#SVGID_00000142888176266888830860000011251783556178502048_);fill:#A2C2E3;}
	.st505{clip-path:url(#SVGID_00000142888176266888830860000011251783556178502048_);fill:#A0C1E2;}
	.st506{clip-path:url(#SVGID_00000142888176266888830860000011251783556178502048_);fill:#9FC0E1;}
	.st507{clip-path:url(#SVGID_00000142888176266888830860000011251783556178502048_);fill:#9DBFE1;}
	.st508{clip-path:url(#SVGID_00000142888176266888830860000011251783556178502048_);fill:#9BBEE0;}
	.st509{clip-path:url(#SVGID_00000142888176266888830860000011251783556178502048_);fill:#9ABDE0;}
	.st510{clip-path:url(#SVGID_00000142888176266888830860000011251783556178502048_);fill:#98BCDF;}
	.st511{clip-path:url(#SVGID_00000142888176266888830860000011251783556178502048_);fill:#96BADF;}
	.st512{clip-path:url(#SVGID_00000142888176266888830860000011251783556178502048_);fill:#94B9DE;}
	.st513{clip-path:url(#SVGID_00000142888176266888830860000011251783556178502048_);fill:#92B8DE;}
	.st514{clip-path:url(#SVGID_00000142888176266888830860000011251783556178502048_);fill:#91B7DD;}
	.st515{clip-path:url(#SVGID_00000142888176266888830860000011251783556178502048_);fill:#8FB6DD;}
	.st516{clip-path:url(#SVGID_00000142888176266888830860000011251783556178502048_);fill:#8DB5DC;}
	.st517{clip-path:url(#SVGID_00000142888176266888830860000011251783556178502048_);fill:#8BB3DB;}
	.st518{clip-path:url(#SVGID_00000142888176266888830860000011251783556178502048_);fill:#89B2DB;}
	.st519{clip-path:url(#SVGID_00000142888176266888830860000011251783556178502048_);fill:#87B1DA;}
	.st520{clip-path:url(#SVGID_00000142888176266888830860000011251783556178502048_);fill:#85B0DA;}
	.st521{clip-path:url(#SVGID_00000142888176266888830860000011251783556178502048_);fill:#84AED9;}
	.st522{clip-path:url(#SVGID_00000142888176266888830860000011251783556178502048_);fill:#82ADD9;}
	.st523{clip-path:url(#SVGID_00000142888176266888830860000011251783556178502048_);fill:#80ACD8;}
	.st524{clip-path:url(#SVGID_00000142888176266888830860000011251783556178502048_);fill:#7EAAD7;}
	.st525{clip-path:url(#SVGID_00000142888176266888830860000011251783556178502048_);fill:#7CA9D7;}
	.st526{clip-path:url(#SVGID_00000142888176266888830860000011251783556178502048_);fill:#7AA8D6;}
	.st527{clip-path:url(#SVGID_00000142888176266888830860000011251783556178502048_);fill:#78A7D5;}
	.st528{clip-path:url(#SVGID_00000142888176266888830860000011251783556178502048_);fill:#76A5D5;}
	.st529{clip-path:url(#SVGID_00000142888176266888830860000011251783556178502048_);fill:#74A4D4;}
	.st530{clip-path:url(#SVGID_00000142888176266888830860000011251783556178502048_);fill:#71A3D4;}
	.st531{clip-path:url(#SVGID_00000142888176266888830860000011251783556178502048_);fill:#6FA1D3;}
	.st532{clip-path:url(#SVGID_00000142888176266888830860000011251783556178502048_);fill:#6DA0D2;}
	.st533{clip-path:url(#SVGID_00000142888176266888830860000011251783556178502048_);fill:#6B9ED2;}
	.st534{clip-path:url(#SVGID_00000142888176266888830860000011251783556178502048_);fill:#699DD1;}
	.st535{fill:#396CAA;}
	.st536{fill:#5793CE;}
	.st537{fill:#D4ECFF;}
	.st538{opacity:0.8;fill:#4D95D1;}
	.st539{fill:#9C9B9B;}
	.st540{fill:#C6C6C5;}
	.st541{fill:#F9B75A;}
	.st542{fill:#E20613;}
	
		.st543{opacity:0.8;fill:url(#SVGID_00000058548678850336684620000016342899642894779014_);fill-opacity:0.99;enable-background:new    ;}
	.st544{fill:url(#SVGID_00000106833422094435056880000017753132480466442686_);}
	.st545{fill:url(#SVGID_00000021823432298395079650000005498014146465986709_);}
	.st546{fill:url(#SVGID_00000137813723147031789640000001744358411352760195_);}
	.st547{fill:url(#SVGID_00000015313586439524136160000012716284826640136612_);}
	.st548{fill:url(#SVGID_00000142890536939451486580000015859256475880116356_);}
	.st549{fill:url(#SVGID_00000094603581003747452880000011433884364414935224_);}
	.st550{fill:#238DDB;}
	.st551{fill:#6F6F6E;}
	.st552{fill:#F4CB9F;}
	.st553{fill:#E2B982;}
	.st554{fill:#F4CDA2;}
	.st555{fill:#868686;}
	.st556{fill:none;stroke:#E94E1B;stroke-linecap:round;stroke-miterlimit:10;}
	.st557{fill:#331338;}
	.st558{fill:#7381C6;}
	.st559{fill:#1F3DC4;}
	.st560{fill:#C3CBF1;}
	.st561{fill:url(#SVGID_00000048480538842200521900000010661875352211656857_);}
	.st562{fill:url(#SVGID_00000060743172322367803490000011610693373270851473_);}
	.st563{fill:none;stroke:#E6332A;stroke-miterlimit:10;}
	.st564{fill:#2FD34E;}
	.st565{fill:none;stroke:#B2CC19;stroke-miterlimit:10;}
	.st566{fill-rule:evenodd;clip-rule:evenodd;fill:url(#SVGID_00000008834624752070014040000010280420655848815496_);}
	
		.st567{opacity:0.8;fill:url(#SVGID_00000119076615658494349830000006326267946966792598_);fill-opacity:0.99;enable-background:new    ;}
	.st568{fill:url(#SVGID_00000124134867074156286850000008269719217012518819_);}
	.st569{fill:url(#SVGID_00000020364427590157871490000017666794562849881252_);}
	.st570{fill:url(#SVGID_00000072986264257902814160000007849590590539307967_);}
	.st571{fill:url(#SVGID_00000129180339767811182650000014806664022532031160_);}
	.st572{fill:url(#SVGID_00000173859160207185944360000004300892754599806901_);}
	.st573{fill:url(#SVGID_00000096742588194227916490000004367866352970219679_);}
	.st574{fill:url(#SVGID_00000049182455890027159430000017689325905164298140_);}
	.st575{fill:url(#SVGID_00000114765956684872852750000015733417445419837583_);}
	.st576{fill:url(#SVGID_00000003795913926905533040000012029948052048861331_);}
	.st577{fill:url(#SVGID_00000085212397721039752960000000722134754261589950_);}
	.st578{fill:url(#SVGID_00000053521759921225432350000012372711718745594535_);}
	.st579{fill:#FF9900;}
	.st580{fill:#3EF7F7;}
	.st581{fill:#0E7AA5;}
	
		.st582{opacity:0.8;fill:url(#SVGID_00000087413227789381827420000015750337629871319214_);fill-opacity:0.99;enable-background:new    ;}
	
		.st583{fill:#208AD1;stroke:url(#SVGID_00000013906859359109867070000004679254058766065045_);stroke-width:2;stroke-miterlimit:10;}
	
		.st584{fill:#208AD1;stroke:url(#SVGID_00000139280316665014947520000006808608376214127805_);stroke-width:2;stroke-miterlimit:10;}
	
		.st585{opacity:0.8;fill:url(#SVGID_00000134943503469881226300000008900403516378412476_);fill-opacity:0.99;enable-background:new    ;}
	.st586{fill:#208AD1;}
	.st587{fill:url(#SVGID_00000081628345760838307040000011267613386451011481_);}
	.st588{opacity:0.2;fill:url(#SVGID_00000157288899242631208220000007086580360179697081_);}
	.st589{fill:#1374AA;}
	.st590{fill:#FDCA50;}
	.st591{fill:#BF6718;}
	.st592{fill:#F5A23D;}
	.st593{fill:#D38319;}
	.st594{fill:#FFF051;}
	.st595{fill:#F59E1C;}
	.st596{fill:#F5A54A;}
	.st597{fill:#C05836;}
	.st598{fill:none;stroke:#565656;stroke-width:2;stroke-miterlimit:10;}
	.st599{fill:#FFF800;}
	.st600{fill:#19FC00;}
	.st601{fill:#07D3FF;}
	.st602{fill:none;stroke:#3C3C3B;stroke-miterlimit:10;}
	.st603{fill:#58CBF9;}
</style>
<g id="Layer_1">
	
		<linearGradient id="SVGID_1_" gradientUnits="userSpaceOnUse" x1="13.4153" y1="-353.9563" x2="477.5795" y2="96.2393" gradientTransform="matrix(1 0 0 1 -8.362 366.835)">
		<stop  offset="0" style="stop-color:#1EA0FA"/>
		<stop  offset="1" style="stop-color:#72C4FD"/>
	</linearGradient>
	<path class="st0" d="M203.65,9.44c123.46-8.4,180.73,54.25,212.44,138.25c31.71,84,78.68,112.91,46.26,209.6
		s-149.61,109.48-195.37,98.16c-45.79-11.31-93.29-40.6-150.28-62.58C31.89,360.16,10.93,317.09,9.25,274.68
		c-2.39-59.99,29.22-66.7,39.39-132.47C60.82,63.4,107.08,16,203.65,9.44z"/>
	<path class="st3" d="M45.95,133.86c-60.46,97.1-11,220.32,54.78,283.79c58.67,56.6,161.63,95.92,218.39,59.7
		c41.49-26.44,31.13-75.9,94.1-125.74c40.91-32.39,61.12-24.02,74.43-47.06c31.83-55.02-34.4-187.23-141.84-236.71
		C256.01,26.48,110.35,30.42,45.95,133.86z"/>
	<path class="st29" d="M116.6,180.32c0,0,22.15,17.65,8.97,34.24c-13.63,17.16-11.48,33.92-11.48,33.92"/>
	<path class="st29" d="M98.26,117.96c0,0-20.55-22.12-27.31-6.86c-6.88,15.54,47.36,31.23,47.89,48.44
		c0.11,3.59-2.24,16.34-2.24,16.34"/>
	<path class="st30" d="M260.85,194.02c0,0-12.19-3.1-23.74,0.94c-8.55,2.99-16.92,11.3-18.38,15.98c0,0,6.6,8.36,26.65-0.33
		C245.38,210.61,256.8,204.33,260.85,194.02z"/>
	<path class="st34" d="M213.88,203.8c-5.54-7.69-9.53-16.5-11.56-25.76c-0.29-1.34-0.52-2.84,0.19-4.01c0.55-0.9,1.54-1.41,2.5-1.85
		c7.37-3.37,15.62-4.81,23.7-4.12c1.34,0.11,2.69,0.29,3.94,0.8c0.93,0.38,1.77,0.94,2.59,1.5c5.03,3.46,9.7,7.52,13.34,12.42
		s6.24,10.66,6.9,16.73c0.1,0.92,0.15,1.86-0.09,2.74c-0.5,1.81-2.13,3.07-3.74,4.04c-6.3,3.84-13.65,5.48-20.94,5.95
		c-2.84,0.18-6.98,0.9-9.51-0.52C218.26,210.07,215.79,206.46,213.88,203.8z"/>
	<path class="st35" d="M268.89,208.84c11.48,19.7,55.66,64.45,55.66,64.45l-13.35,60.5l-52.43-17.66l-40.03-105.19
		c0,0,17.11,0.09,25.9-2.45c11.34-3.28,16.22-14.47,16.22-14.47S267.48,206.42,268.89,208.84z"/>
	<path class="st34" d="M149.26,266.91l8.09-28.08c0,0-9.14-23.59-16.88-24.63c-7.74-1.04-7.03,4.14-7.03,4.14s4.89,9.94-0.02,13.45
		c-4.91,3.52-17.21,8.44-17.92-1.41s2.11-18.63,2.11-18.63s-1.76-13.01-11.25-5.27c-9.49,7.74-10.55,19.34-10.55,19.34
		s-8.79,2.46-9.14,6.68c-0.35,4.22-1.76,17.58-1.76,17.58l-3.87,6.68c0,0-2.46,13.36,1.76,20.39c4.22,7.03,24.1,15.9,26.12,22.89
		L149.26,266.91z"/>
	<path class="st27" d="M328.23,157.61c0,0-34.46,25.67-32.7,30.94c1.76,5.27,5.98,10.9,5.27,12.66c-0.7,1.76-8.79,29.41-2.46,36.15
		c6.33,6.74,13.5,7.1,13.5,7.1l-4.01,25.67h67.51c0,0,2.81-27.55,5.63-32.76c2.1-3.89,5.18-10.56,9.09-17.05
		c1.33-2.21,2.75-4.39,4.27-6.44c5.98-8.09,25.67-44.65-1.76-63.99C365.15,130.53,328.23,157.61,328.23,157.61z"/>
	<path class="st36" d="M331.7,157.44c0,0,20.44,34.72,31.78,41.31c11.34,6.59,9.01,14.35,2.89,19.32
		c-6.12,4.97,16.45,15.72,16.45,15.72s5.17-9.21,8.6-15.66c3.44-6.46,29.81-44.69,2.38-65.79
		C366.38,131.24,341.06,141.44,331.7,157.44z"/>
	<path class="st37" d="M293.77,135.81c0,0,90.17,44.38,97.65,82.31l0,0c0,0,48.97-28.17,8.89-66.49s-68.21-3.52-68.21-3.52
		l-36.63-14.42L293.77,135.81z"/>
	<g>
		<path class="st38" d="M309.59,221.6c-3.89,1.53-12.37,2.26-12.76-3.53C298.59,222.94,305.44,221.59,309.59,221.6L309.59,221.6z"/>
	</g>
	
		<ellipse transform="matrix(0.357 -0.9341 0.9341 0.357 38.7456 414.2752)" class="st38" cx="320.29" cy="178.99" rx="1.35" ry="0.7"/>
	<path class="st12" d="M299.05,272.58l4.17-14.06c0,0,11.3-5.98,41.19-7.74c29.89-1.76,37.97,0,37.97,0s-3.87,9.14-2.81,15.12
		c0,0,24.26,26.37,24.26,56.26c0,29.89-5.63,71.38-5.63,71.38s-44.65,29.53-74.54,39.73c-29.89,10.2-60.43,16.88-60.43,16.88h-6.72
		l6.72-74.89c0,0-34.15,4.57-47.86,9.14c-13.71,4.57-28.13,8.44-28.13,8.44l-80.87-86.85c0,0,4.83-18.24,15.82-28.48
		c15.47-14.42,28.83-13.71,28.83-13.71l58.37,56.61c0,0,4.57,3.6,9.14,1.05C226.11,317.22,273.73,278.91,299.05,272.58z"/>
	<path class="st35" d="M258.3,430.1c0,0,55.1,4.59,63.21-9.54c8.11-14.13,13.97-42.05,13.97-42.05l-15.18,66.54l-61.99-2.09v-10.57"
		/>
	<path class="st37" d="M313.81,270.87c0,0,25.67,2.76,25.32,30.19c-0.35,27.42-2.46,77.35-5.27,88.6
		c-2.81,11.25-6.68,37.27-24.26,40.43c-17.58,3.16-49.84,2.81-51.29,0l-3.21,0.7l-2.11,19.34c0,0,27.95,38.63,92.3,8.75
		c64.34-29.89,56.08-66.06,56.08-66.06l1.16-40.98c0,0-1.7,15.22-12.42,27.27c-6.17,6.94-28.83,10.2-28.83,10.2
		s6.01-62.68,3.25-90.1C361.82,272.21,351.44,270.22,313.81,270.87z"/>
	<g>
		<circle class="st39" cx="146.49" cy="164.48" r="11.97"/>
		<path class="st40" d="M268.52,128.33c0,0,10.27-3.07,7.23,3.61c-3.04,6.69-27.33,31.36-27.33,31.36l-65.67-16.64l19.36-19.93
			l27.42-3.28L268.52,128.33z"/>
		<path class="st41" d="M91.88,102.59c0,0-2.61,8.81-2.9,15.57c-0.15,3.44-0.93,6.05,2.09,7.3c5.86,2.41,7.48,5.19,7.94,7.79
			c0.28,1.61-0.57,3.4,0.22,4.48c0.56,0.77,3.53,1.42,3.53,1.42l89.1,35.85l21.71-37.15L91.88,102.59z"/>
		<path class="st42" d="M257.91,131.94c0,0-10.12,22.06-14.11,30.19c-1.8,3.66-4.24,8.13-13.59,9.05
			c-12.47,1.22-38.35,3.81-38.35,3.81s-6.71-1.31-1.01-16.11l16.96-27.08c0,0,4.81-6.08,10.88-6.33c6.07-0.25,39.23,3.36,39.23,3.36
			V131.94z"/>
		<path class="st43" d="M249.17,129.23l-11.69,25.53c0,0-2.53,6.57-11.84,6.93c-6.12,0.24-23.15,1.61-23.15,1.61
			s-7.59-3.36-0.76-13.07s14.98-24.02,22.29-23.51C231.34,127.24,249.17,129.23,249.17,129.23z"/>
		<path class="st44" d="M247.34,127.6l-11.69,25.53c0,0-2.53,6.57-11.84,6.93c-6.12,0.24-23.15,1.61-23.15,1.61
			s-7.59-3.36-0.76-13.07c6.83-9.71,14.98-24.02,22.29-23.51C229.51,125.61,247.34,127.6,247.34,127.6z"/>
		<path class="st45" d="M246.61,126.14l-11.69,25.53c0,0-2.53,6.57-11.84,6.93c-6.12,0.24-23.15,1.61-23.15,1.61
			s-7.59-3.36-0.76-13.07s14.98-24.02,22.29-23.51S246.61,126.14,246.61,126.14z"/>
		<path class="st46" d="M84.04,96.55c0,0,1.9-9.49,10.25-9.49s33.03,1.52,33.03,1.52l148.99,39.45l-55.23,2.52
			c0,0-3.04,0.67-4.18,2.8c-1.14,2.13-20.34,28.74-20.34,28.74l-89.24-37.89c0,0-2.97,0-3.04-5.82
			c-0.12-10.74-6.96-12.35-6.96-12.35l-13.29-5.31V96.55z"/>
		<path class="st47" d="M95.05,88.9l132.9,41.32c0,0-9.01,0.79-14.39,7.62L88.98,94.21C88.98,94.21,89.69,90.6,95.05,88.9z"/>
		<polygon class="st39" points="89.11,186.57 66.33,193.32 66.33,138.48 89.11,141.7 		"/>
		<polygon class="st40" points="89.11,159.5 101.53,163.73 125.57,171.92 122.84,176.2 70.96,159.5 70.96,150.22 70.96,144.26 
			89.11,147.68 		"/>
		<polygon class="st46" points="70.96,159.5 122.84,176.2 128.04,168.04 150.68,170.55 143.09,197.97 70.96,178.73 		"/>
		<polygon class="st39" points="143.09,197.97 157.69,194.09 167.75,170.55 150.68,170.55 		"/>
		<path class="st48" d="M232.25,133.24c0.19,0.95,0.29,1.92,0.29,2.93c0,8.39-6.8,15.18-15.19,15.18c-2.98,0-5.76-0.87-8.11-2.36
			c2.58,2.77,6.24,4.51,10.32,4.51c7.79,0,14.11-6.32,14.11-14.11C233.68,137.19,233.16,135.1,232.25,133.24z"/>
	</g>
	<path class="st49" d="M311.85,244.45c0,0,5.13,1.76,10.4-3.52l-12.21,15.08L311.85,244.45z"/>
	<path class="st35" d="M296.89,353.8c0,0-104.55,33.23-108.25,32.7c-3.69-0.53-1.41,6.33-1.41,6.33l75.7-14.32
		c0,0,26.44-6.77,26.97,2.72c0,0,2.64-7.74-9.49-10.72C268.28,367.51,296.89,353.8,296.89,353.8z"/>
	<path class="st34" d="M259.28,190.26c0.3-1.08-1.04-9.45-2.49-12.15c-1.4-2.6-4.92-3.72-5.82-6.52c-1.07-3.33,2.18-6.42,2.93-9.84
		c0.09-0.42,0.14-0.89-0.07-1.27c-0.3-0.55-1.01-0.71-1.64-0.79c-2.27-0.27-4.54-0.22-6.71,0.49c-4.59,1.5-6.5,7.04-6.55,11.87
		c-0.05,4.83-2.14,28.1,7.67,28.88C254.93,201.6,256.41,200.76,259.28,190.26z"/>
	<path class="st50" d="M166.2,46.72c0,0,5.32,15.33,13.61,18.31C264.54,71.71,145.27,140.41,166.2,46.72z"/>
	<path class="st51" d="M166.87,67.3c1.31,10.71,17.07-3.86,22.34,4.46c4.4,5.87,2.4,12.47-4.64,16.55
		c-11.53,8.23-38.28-12.97-21.83-7.91c-1.71,0.65-13.14-9.95-10.64-11.16c11.55,7.15,10.31,7.17,3.95-2.94
		c2.49-4.73,8.62,5.9,8.75,6C164.8,72.29,161.64,65.71,166.87,67.3z"/>
	<circle class="st37" cx="203.93" cy="79.68" r="3.27"/>
	<circle class="st52" cx="204.52" cy="73.63" r="0.9"/>
	<path class="st31" d="M209.47,75.35l4.25-2.5c0,0-1.64,4.34-3.26,5.13l3.85,0.86l-3.65,0.96C210.66,79.8,210.92,78.21,209.47,75.35
		z"/>
	<path class="st51" d="M159.82,39.75c-3.48-5.48,2.66-3.94,4.18-0.19c-3.94-1.89-2.52-16.83,2.15-10.06
		c0.65,3.19-2.3,14.66,1.24,6.85c0.72,0,1.25,0.75,1.3,1.47C166.37,48.11,166.12,49.8,159.82,39.75z"/>
	<path class="st53" d="M176.96,94.51c-0.4-0.16-0.76,0.28-0.96,0.66c-1.57,2.97-2.86,6.09-3.85,9.3c-0.6,1.94-1.07,2.4,0.34,3.78
		c1.15,1.13,2.92,1.89,4.32,2.67"/>
	<path class="st53" d="M185.85,107.59c-1.63-0.69-3.23-1.48-4.76-2.37c-0.16-0.09-0.32-0.19-0.42-0.34
		c-0.11-0.17-0.11-0.39-0.11-0.59c0.04-1.69,0.65-3.3,1.24-4.88c0.48-1.27,0.96-2.54,1.44-3.81"/>
	<g>
		<circle class="st54" cx="42.96" cy="333.79" r="33.84"/>
		<path class="st55" d="M65.63,308.67c1.55,4.18,2.4,8.7,2.4,13.42c0,21.31-17.28,38.59-38.59,38.59c-2.78,0-5.5-0.3-8.11-0.86
			c5.86,4.88,13.4,7.82,21.63,7.82c18.69,0,33.84-15.15,33.84-33.84C76.8,323.82,72.49,314.87,65.63,308.67z"/>
	</g>
	<circle class="st56" cx="252.99" cy="21.6" r="9.71"/>
</g>
<g id="Layer_2">
</g>
</svg>
