<svg width="90" height="90" viewBox="0 0 90 90" fill="none" xmlns="http://www.w3.org/2000/svg">
<path d="M33.4746 83.0952H7.78503V66.8556L33.4764 51.3288V83.0952H33.4746ZM10.4832 80.3952H30.7746V56.115L10.4832 68.3784V80.3952Z" fill="#1DA0FA"/>
<path d="M26.8075 67.8564V65.2896H24.2227L24.2047 67.8564H26.8075Z" fill="#1DA0FA"/>
<path d="M23.6053 65.2896H21.0547V67.8564H23.5855L23.6053 65.2896Z" fill="#1DA0FA"/>
<path d="M21.0547 68.4756V71.0424H23.5675L23.5855 68.4756H21.0547Z" fill="#1DA0FA"/>
<path d="M26.8075 68.4756H24.2047L24.1849 71.0424H26.8075V68.4756Z" fill="#1DA0FA"/>
<path d="M55.926 82.5551H31.3146V67.1597L55.926 52.2845V82.5533V82.5551ZM32.9346 80.9352H54.306V55.1573L32.9346 68.0741V80.9352Z" fill="#1DA0FA"/>
<path d="M49.7988 67.8564V65.2896H47.214L47.1942 67.8564H49.7988Z" fill="#1DA0FA"/>
<path d="M46.5948 65.2896H44.0442V67.8564H46.5768L46.5948 65.2896Z" fill="#1DA0FA"/>
<path d="M44.0442 68.4755V71.0423H46.557L46.5768 68.4755H44.0442Z" fill="#1DA0FA"/>
<path d="M49.7987 68.4755H47.1941L47.1761 71.0423H49.7987V68.4755Z" fill="#1DA0FA"/>
<path d="M14.2399 65.8458C13.9249 65.8458 13.6189 65.7612 13.3507 65.592C12.7837 65.2356 12.4885 64.575 12.5587 63.8244L14.1373 47.6694C13.7557 47.3004 13.5235 46.7226 13.5235 46.0386C13.5235 44.8992 14.5333 43.974 15.7735 43.974H28.3519C29.5921 43.974 30.6019 44.901 30.6019 46.0386C30.6019 46.7244 30.3679 47.304 29.9845 47.6712L30.5191 54.522C30.5671 55.1544 30.5911 55.4886 30.5911 55.5246V56.286L15.2839 65.538C14.9455 65.7432 14.5855 65.8458 14.2381 65.8458H14.2399ZM16.7383 46.674C16.8517 47.07 16.8589 47.466 16.8427 47.7288L16.8391 47.7846L15.4189 62.3016L27.8317 54.7992L27.8263 54.729L27.2809 47.7288C27.2665 47.466 27.2719 47.0682 27.3853 46.6722H16.7365L16.7383 46.674Z" fill="#1DA0FA"/>
<path d="M65.6064 69.0822C65.4966 69.0822 65.3868 69.0732 65.277 69.057L63.3546 68.7672C62.2116 68.5944 61.3152 67.554 61.3152 66.3984V36.4518C61.3152 35.2116 62.325 34.2018 63.5652 34.2018H65.4678C66.708 34.2018 67.7178 35.2116 67.7178 36.4518V66.9582C67.7178 67.5882 67.4514 68.1786 66.987 68.5782C66.6054 68.9076 66.114 69.084 65.6064 69.084V69.0822ZM64.0152 66.1374L65.0178 66.2886V36.9018H64.0152V66.1392V66.1374Z" fill="#1DA0FA"/>
<path d="M73.8756 70.326C73.7658 70.326 73.656 70.317 73.5462 70.3008L71.6238 70.011C70.4808 69.8382 69.5844 68.7978 69.5844 67.6422V23.9382C69.5844 22.698 70.5942 21.6882 71.8344 21.6882H73.737C74.9772 21.6882 75.987 22.698 75.987 23.9382V68.2002C75.987 68.8302 75.7206 69.4206 75.2562 69.8202C74.8746 70.1496 74.3832 70.326 73.8756 70.326ZM72.2844 67.3812L73.287 67.5324V24.3882H72.2844V67.3812Z" fill="#1DA0FA"/>
<path d="M78.4332 72.4031H55.4418V75.1031H78.4332V72.4031Z" fill="#1DA0FA"/>
<path d="M78.4332 74.8799H55.0548V77.5799H78.4332V74.8799Z" fill="#1DA0FA"/>
<path d="M79.7832 82.971H54.0918V64.728L79.7832 68.5926V82.971ZM56.7918 80.271H77.0832V70.9164L56.7918 67.8636V80.271Z" fill="#1DA0FA"/>
<path d="M32.5459 67.9356C32.2435 67.9356 31.9501 67.8618 31.6855 67.7106C31.1149 67.3866 30.7765 66.7602 30.7765 66.0366V55.5336L30.7063 55.575C30.1033 55.9404 29.3995 55.98 28.8253 55.6848C28.2511 55.3896 27.8767 54.792 27.8227 54.09L27.2827 47.1492C27.2683 46.8864 27.2737 46.4886 27.3871 46.0926H27.0973C26.6869 46.0926 26.3035 45.9234 26.0173 45.6174C25.5277 45.0918 25.4701 44.3142 25.5079 43.7526L25.8445 38.9376C25.2361 38.5722 24.8401 37.8288 24.8401 36.9306V36.4482C24.8401 35.208 25.8499 34.1982 27.0901 34.1982H48.2257C49.4659 34.1982 50.4757 35.208 50.4757 36.4482V36.9306C50.4757 37.8198 50.0869 38.556 49.4893 38.925L50.8267 55.557C50.9077 56.5632 50.3371 57.6666 49.4695 58.1832L33.5899 67.6332C33.2551 67.8312 32.8969 67.932 32.5459 67.932V67.9356ZM31.7107 52.1442C32.0095 52.1442 32.3011 52.218 32.5639 52.3656C33.1363 52.6878 33.4765 53.3142 33.4765 54.0396V64.5624L48.0637 55.881C48.0907 55.8504 48.1231 55.7874 48.1321 55.7478L46.7713 38.8386C46.7191 38.1348 46.9243 37.4814 47.3329 37.0404C47.3797 36.99 47.4283 36.9432 47.4769 36.9H27.8353C27.8821 36.9414 27.9289 36.9846 27.9721 37.0314C28.3843 37.467 28.5985 38.115 28.5589 38.808V38.826L28.2385 43.3944H28.3519C29.5921 43.3944 30.6019 44.3214 30.6019 45.459C30.6019 46.1448 30.3679 46.7244 29.9845 47.0916L30.4129 52.596L30.6541 52.4502C30.9907 52.2468 31.3543 52.1442 31.7071 52.1442H31.7107Z" fill="#1DA0FA"/>
<path d="M40.7359 62.6148H38.0359V48.8592C38.0359 44.0244 41.6287 42.6672 43.5277 42.624H62.6653V45.324H43.5817C43.0993 45.3474 40.7359 45.6264 40.7359 48.8592V62.6148Z" fill="#1DA0FA"/>
<path d="M84.0583 81.0288H5.76367V83.1888H84.0583V81.0288Z" fill="#1DA0FA"/>
<path d="M4.42444 81.0288H2.06104V83.1888H4.42444V81.0288Z" fill="#1DA0FA"/>
<path d="M88.8336 81.0288H86.553V83.1888H88.8336V81.0288Z" fill="#1DA0FA"/>
<path d="M54.441 21.8646H38.2122V23.4846H54.441V21.8646Z" fill="#FC951D"/>
<path d="M54.4194 14.2848H42.948V15.9048H54.4194V14.2848Z" fill="#FC951D"/>
<path d="M65.8584 18.0936H58.0104V19.7136H65.8584V18.0936Z" fill="#FC951D"/>
<path d="M57.2544 14.2848H55.5336V15.9048H57.2544V14.2848Z" fill="#FC951D"/>
<path d="M68.8662 18.0936H66.9258V19.7136H68.8662V18.0936Z" fill="#FC951D"/>
<path d="M32.6808 18.0936H30.7314V19.7136H32.6808V18.0936Z" fill="#FC951D"/>
</svg>
