<svg width="90" height="90" viewBox="0 0 90 90" fill="none" xmlns="http://www.w3.org/2000/svg">
<path d="M79.7094 77.3478H10.6218V79.5078H79.7094V77.3478Z" fill="#1DA0FA"/>
<path d="M6.98581 77.3478H3.91321V79.5078H6.98581V77.3478Z" fill="#1DA0FA"/>
<path d="M86.0868 77.3478H82.4868V79.5078H86.0868V77.3478Z" fill="#1DA0FA"/>
<path d="M57.609 75.3174H32.3622V42.2658H38.3418V34.92H39.4218C40.5792 34.92 41.5206 34.0614 41.5206 33.0048V31.9248H48.321V33.0048C48.321 34.0614 49.2624 34.92 50.4198 34.92H51.4998V42.2658H57.6108V75.3174H57.609ZM34.5222 73.1574H55.449V44.4258H49.338V36.9468C47.8728 36.5796 46.7136 35.4798 46.3122 34.0848H43.5276C43.1262 35.4816 41.967 36.5796 40.5018 36.9468V44.4258H34.5222V73.1574Z" fill="#1DA0FA"/>
<path d="M51.3144 75.3174H37.7892V58.3146H51.3144V75.3174ZM39.9492 73.1574H49.1544V60.4746H39.9492V73.1574Z" fill="#1DA0FA"/>
<path d="M45.6318 59.3946H43.4718V74.1996H45.6318V59.3946Z" fill="#1DA0FA"/>
<path d="M69.9966 75.2796H55.449V48.258H69.9966V75.2796ZM57.609 73.1196H67.8366V50.418H57.609V73.1196Z" fill="#1DA0FA"/>
<path d="M34.5222 75.2796H19.9746V48.258H34.5222V75.2796ZM22.1346 73.1196H32.3622V50.418H22.1346V73.1196Z" fill="#1DA0FA"/>
<path d="M31.8222 50.418H18.3402C17.0748 50.418 16.659 49.7124 16.5384 49.41C16.4178 49.1076 16.2378 48.3084 17.1576 47.4408L26.3484 38.7792C27.198 37.9782 28.7208 37.3734 29.889 37.3734H37.8C39.2886 37.3734 40.5 38.5848 40.5 40.0734V41.7258C40.5 43.2144 39.2886 44.4258 37.8 44.4258H35.0604C34.767 44.4258 34.5204 44.6724 34.5204 44.9658V47.718C34.5204 49.2066 33.309 50.418 31.8204 50.418H31.8222ZM19.4418 48.258H31.8222C32.1156 48.258 32.3622 48.0114 32.3622 47.718V44.9658C32.3622 43.4772 33.5736 42.2658 35.0622 42.2658H37.8018C38.0952 42.2658 38.3418 42.0192 38.3418 41.7258V40.0734C38.3418 39.78 38.0952 39.5334 37.8018 39.5334H29.8908C29.2788 39.5334 28.278 39.9312 27.8316 40.3506L19.4418 48.258Z" fill="#1DA0FA"/>
<path d="M71.6598 50.418H58.1778C56.6892 50.418 55.4778 49.2066 55.4778 47.718V44.9658C55.4778 44.6724 55.2312 44.4258 54.9378 44.4258H52.1982C50.7096 44.4258 49.4982 43.2144 49.4982 41.7258V40.0734C49.4982 38.5848 50.7096 37.3734 52.1982 37.3734H60.1092C61.2774 37.3734 62.7984 37.9782 63.6498 38.7792L72.8406 47.4408C73.7604 48.3084 73.5804 49.1076 73.4598 49.41C73.3392 49.7124 72.9234 50.418 71.658 50.418H71.6598ZM52.2 39.5352C51.9066 39.5352 51.66 39.7818 51.66 40.0752V41.7276C51.66 42.021 51.9066 42.2676 52.2 42.2676H54.9396C56.4282 42.2676 57.6396 43.479 57.6396 44.9676V47.7198C57.6396 48.0132 57.8862 48.2598 58.1796 48.2598H70.56L62.1702 40.3524C61.7238 39.933 60.7248 39.5352 60.111 39.5352H52.2Z" fill="#1DA0FA"/>
<path d="M72.729 79.3872H17.271V73.1574H72.729V79.3872ZM19.4328 77.2272H70.569V75.3174H19.431V77.2272H19.4328Z" fill="#1DA0FA"/>
<path d="M50.8536 53.2134H39.1446V55.3734H50.8536V53.2134Z" fill="#FC951D"/>
<path d="M29.5038 56.1492V53.9064H27.2466L27.2286 56.1492H29.5038Z" fill="#1DA0FA"/>
<path d="M26.7066 53.9064H24.4782V56.1492H26.6886L26.7066 53.9064Z" fill="#1DA0FA"/>
<path d="M24.4782 56.6891V58.9319H26.6724L26.6886 56.6891H24.4782Z" fill="#1DA0FA"/>
<path d="M29.5038 56.6891H27.2286L27.2124 58.9319H29.5038V56.6891Z" fill="#1DA0FA"/>
<path d="M29.5038 56.1492V53.9064H27.2466L27.2286 56.1492H29.5038Z" fill="#1DA0FA"/>
<path d="M26.7066 53.9064H24.4782V56.1492H26.6886L26.7066 53.9064Z" fill="#1DA0FA"/>
<path d="M24.4782 56.6891V58.9319H26.6724L26.6886 56.6891H24.4782Z" fill="#1DA0FA"/>
<path d="M29.5038 56.6891H27.2286L27.2124 58.9319H29.5038V56.6891Z" fill="#1DA0FA"/>
<path d="M65.4246 56.1492V53.9064H63.1674L63.1512 56.1492H65.4246Z" fill="#1DA0FA"/>
<path d="M62.6274 53.9064H60.399V56.1492H62.6112L62.6274 53.9064Z" fill="#1DA0FA"/>
<path d="M60.399 56.6891V58.9319H62.595L62.6112 56.6891H60.399Z" fill="#1DA0FA"/>
<path d="M65.4246 56.6891H63.1512L63.135 58.9319H65.4246V56.6891Z" fill="#1DA0FA"/>
<path d="M47.5128 48.4218V38.4534H45.2556L45.2376 48.4218H47.5128Z" fill="#1DA0FA"/>
<path d="M44.7156 38.4534H42.4872V48.4218H44.6976L44.7156 38.4534Z" fill="#1DA0FA"/>
<path d="M44.5518 29.4498C33.1578 29.4498 28.8126 23.7294 28.6344 23.4864L28.098 22.7574L28.7226 22.1022C28.98 21.8322 35.1468 15.4728 45.2394 15.4728C55.332 15.4728 60.9858 21.87 61.2198 22.1436L61.8336 22.8564L61.2126 23.562C61.0002 23.8032 55.8918 29.4516 44.5554 29.4516L44.5518 29.4498ZM31.0374 22.9032C32.5386 24.3 36.6714 27.2898 44.5518 27.2898C52.4322 27.2898 57.1446 24.2244 58.8402 22.8186C57.105 21.2346 52.371 17.631 45.2376 17.631C38.1042 17.631 32.8806 21.3336 31.0374 22.9032Z" fill="#1DA0FA"/>
<path d="M45.2376 29.313C41.5224 29.313 38.5002 26.2908 38.5002 22.5756C38.5002 18.8604 41.5224 15.8382 45.2376 15.8382C48.9528 15.8382 51.975 18.8604 51.975 22.5756C51.975 26.2908 48.9528 29.313 45.2376 29.313ZM45.2376 17.9982C42.714 17.9982 40.6602 20.052 40.6602 22.5756C40.6602 25.0992 42.714 27.153 45.2376 27.153C47.7612 27.153 49.815 25.0992 49.815 22.5756C49.815 20.052 47.7612 17.9982 45.2376 17.9982Z" fill="#1DA0FA"/>
<path d="M45.2376 24.4908C46.4942 24.4908 47.5128 23.4722 47.5128 22.2156C47.5128 20.9591 46.4942 19.9404 45.2376 19.9404C43.981 19.9404 42.9624 20.9591 42.9624 22.2156C42.9624 23.4722 43.981 24.4908 45.2376 24.4908Z" fill="#FC951D"/>
<path d="M11.5218 79.0002C7.6032 72.7398 5.5332 65.5092 5.5332 58.095C5.5332 50.139 7.8912 42.4692 12.3498 35.9154C16.7022 29.52 22.7682 24.5772 29.889 21.6234L30.717 23.6178C16.731 29.4192 7.6932 42.9516 7.6932 58.0932C7.6932 65.1024 9.6498 71.9352 13.3524 77.8536L11.5218 79.0002Z" fill="#1DA0FA"/>
<path d="M78.4782 79.0002L76.6476 77.8536C80.3502 71.937 82.3068 65.1042 82.3068 58.0932C82.3068 42.8832 73.2132 29.3274 59.139 23.5584L59.958 21.5604C67.1184 24.4962 73.2204 29.4354 77.6034 35.847C82.0926 42.4152 84.465 50.1066 84.465 58.0932C84.465 65.5092 82.3932 72.738 78.4764 78.9984L78.4782 79.0002Z" fill="#1DA0FA"/>
</svg>
