<svg width="40" height="40" viewBox="0 0 40 40" fill="none" xmlns="http://www.w3.org/2000/svg">
<path d="M33.3333 10V3.33333C33.3333 1.49333 31.84 0 30 0H3.33333C1.49333 0 0 1.49333 0 3.33333V10H33.3333ZM26.6667 3.33333C27.5867 3.33333 28.3333 4.07833 28.3333 5C28.3333 5.92167 27.5867 6.66667 26.6667 6.66667C25.745 6.66667 25 5.92167 25 5C25 4.07833 25.745 3.33333 26.6667 3.33333ZM21.6667 3.33333C22.5867 3.33333 23.3333 4.07833 23.3333 5C23.3333 5.92167 22.5867 6.66667 21.6667 6.66667C20.745 6.66667 20 5.92167 20 5C20 4.07833 20.745 3.33333 21.6667 3.33333ZM5 3.33333H13.3333V6.66667H5V3.33333Z" fill="white"/>
<path d="M0 11.6667V21.6668H19.6C21.0783 19.8251 23.0367 18.3918 25.2833 17.5401C25.12 17.2834 25 16.9951 25 16.6668C25 15.7451 25.745 15.0001 26.6667 15.0001C27.5883 15.0001 28.3333 15.7451 28.3333 16.6668C28.3333 16.7084 28.3117 16.7451 28.3083 16.7851C28.8633 16.7151 29.4267 16.6668 30 16.6668C31.1517 16.6668 32.265 16.8301 33.3333 17.1034V11.6667H0ZM13.3333 18.3334H5V15.0001H13.3333V18.3334ZM21.6667 18.3334C20.745 18.3334 20 17.5884 20 16.6668C20 15.7451 20.745 15.0001 21.6667 15.0001C22.5883 15.0001 23.3333 15.7451 23.3333 16.6668C23.3333 17.5884 22.5883 18.3334 21.6667 18.3334Z" fill="white"/>
<path d="M16.6667 29.9999C16.6667 27.5683 17.3267 25.2966 18.4633 23.3333H0V29.9999C0 31.8383 1.49333 33.3333 3.33333 33.3333H17.1033C16.83 32.2649 16.6667 31.1533 16.6667 29.9999ZM13.3333 29.9999H5V26.6666H13.3333V29.9999Z" fill="white"/>
<path d="M30 20L32.8567 27.1433H40L33.82 32.36L37.1417 40L30 35.2767L22.8567 40L26.18 32.36L20 27.1433H27.1417L30 20Z" fill="white"/>
</svg>
