<svg width="40" height="40" viewBox="0 0 40 40" fill="none" xmlns="http://www.w3.org/2000/svg">
<path d="M15 16.6667C26.3067 16.6667 30 12.9484 30 11.6667V8.28003C26.985 10.2617 21.96 11.6667 15 11.6667C8.04 11.6667 3.015 10.2617 0 8.28003V11.6667C0 12.9484 3.69333 16.6667 15 16.6667Z" fill="white"/>
<path d="M15 19.9999C8.04 19.9999 3.015 18.5949 0 16.6133V19.9999C0 21.2816 3.69333 24.9999 15 24.9999C16.705 24.9999 18.2167 24.9066 19.5867 24.7599C21.5067 20.9499 25.4433 18.3333 30 18.3333V16.6133C26.985 18.5949 21.96 19.9999 15 19.9999Z" fill="white"/>
<path d="M15.0003 8.33333C23.6587 8.33333 27.842 6.155 29.3337 4.55833C27.3403 1.56 21.147 0 15.0003 0C8.85366 0 2.66033 1.56 0.666992 4.55833C2.15866 6.155 6.34199 8.33333 15.0003 8.33333Z" fill="white"/>
<path d="M18.3333 30.0001C18.3333 29.3851 18.395 28.7851 18.4867 28.1968C17.38 28.2801 16.2267 28.3334 15 28.3334C8.04 28.3334 3.015 26.9284 0 24.9468V26.6668C0 31.0434 7.545 33.3334 15 33.3334C16.2683 33.3334 17.535 33.2618 18.77 33.1301C18.4933 32.1318 18.3333 31.0851 18.3333 30.0001Z" fill="white"/>
<path d="M30 20L32.8567 27.1433H40L33.82 32.36L37.1417 40L30 35.2767L22.8567 40L26.18 32.36L20 27.1433H27.1417L30 20Z" fill="white"/>
</svg>
