<?xml version="1.0" encoding="UTF-8"?>
<!DOCTYPE svg PUBLIC "-//W3C//DTD SVG 1.1//EN" "http://www.w3.org/Graphics/SVG/1.1/DTD/svg11.dtd">
<!-- Creator: CorelDRAW X8 -->
<svg xmlns="http://www.w3.org/2000/svg" xml:space="preserve" width="136.313mm" height="81.9572mm" version="1.1" style="shape-rendering:geometricPrecision; text-rendering:geometricPrecision; image-rendering:optimizeQuality; fill-rule:evenodd; clip-rule:evenodd"
viewBox="0 0 18529 11140"
 xmlns:xlink="http://www.w3.org/1999/xlink">
 <defs>
  <style type="text/css">
   <![CDATA[
    .fil0 {fill:none}
    .fil13 {fill:#84BCFF}
    .fil15 {fill:#9C208A}
    .fil16 {fill:#CA3AAC}
    .fil14 {fill:#FC5F9F}
    .fil7 {fill:#FEFEFE;fill-rule:nonzero}
    .fil4 {fill:#D11981;fill-rule:nonzero}
    .fil5 {fill:#97BFE5;fill-rule:nonzero}
    .fil6 {fill:#6097D0;fill-rule:nonzero}
    .fil10 {fill:#DE2A70;fill-rule:nonzero}
    .fil11 {fill:#E361A2;fill-rule:nonzero}
    .fil8 {fill:#FC2C7D;fill-rule:nonzero}
    .fil9 {fill:#FC5F9F;fill-rule:nonzero}
    .fil12 {fill:url(#id0)}
    .fil2 {fill:url(#id1);fill-rule:nonzero}
    .fil1 {fill:url(#id2);fill-rule:nonzero}
    .fil3 {fill:url(#id3);fill-rule:nonzero}
   ]]>
  </style>
  <linearGradient id="id0" gradientUnits="userSpaceOnUse" x1="15460.7" y1="2870.67" x2="9482.67" y2="4091.77">
   <stop offset="0" style="stop-opacity:1; stop-color:#1153A8"/>
   <stop offset="1" style="stop-opacity:1; stop-color:#5A85F2"/>
  </linearGradient>
  <linearGradient id="id1" gradientUnits="userSpaceOnUse" x1="8253.74" y1="7750.57" x2="10097" y2="4082.75">
   <stop offset="0" style="stop-opacity:1; stop-color:#BF2B84"/>
   <stop offset="1" style="stop-opacity:1; stop-color:#4E61E2"/>
  </linearGradient>
  <linearGradient id="id2" gradientUnits="userSpaceOnUse" xlink:href="#id1" x1="6281.73" y1="6286.31" x2="8125" y2="2618.49">
  </linearGradient>
  <linearGradient id="id3" gradientUnits="userSpaceOnUse" xlink:href="#id1" x1="10596" y1="9171.27" x2="12439.3" y2="5503.45">
  </linearGradient>
 </defs>
 <g id="Слой_x0020_1">
  <metadata id="CorelCorpID_0Corel-Layer"/>
  <rect class="fil0" width="18529" height="11140"/>
  <g id="_3012587293968">
   <polygon class="fil1" points="10156,2850 4399,6206 4251,6084 10067,2699 "/>
   <polygon class="fil2" points="12128,4314 6371,7670 6223,7548 12039,4163 "/>
   <polygon class="fil3" points="14470,5735 8714,9091 8565,8969 14382,5584 "/>
   <g>
    <path class="fil4" d="M4627 6515l1010 -368c60,-34 108,-118 108,-187l0 -90c-19,0 -39,0 -59,1l0 124c0,31 -22,68 -49,84l-1010 368c-17,9 -30,32 -30,51 0,19 13,27 30,17z"/>
    <polygon class="fil5" points="4605,5852 4605,6003 5793,6690 5825,6546 "/>
    <path class="fil6" d="M5834 6551l-1220 -705 -26 -15 -23 -14c-5,9 -8,19 -8,28 0,9 3,15 8,18l0 1 1 0 0 0 1229 711 39 -24z"/>
    <polygon class="fil7" points="5778,6769 5794,6778 5797,6773 5787,6765 "/>
    <polygon class="fil7" points="5779,6566 5795,6575 5791,6566 "/>
    <path class="fil8" d="M5913 5948l-1427 -824c-17,-10 -33,-11 -48,-6l0 0 -3 1 -1 0 -51 20 46 23 -1 2 -232 1058c-12,53 12,115 52,138l1393 804 -5 59 56 -22c19,-8 34,-28 41,-57l232 -1058c12,-53 -12,-115 -52,-138z"/>
    <path class="fil9" d="M5586 7218l-1427 -824c-40,-24 -63,-85 -52,-138l233 -1058c11,-53 53,-77 94,-54l1427 824c40,23 63,85 52,138l-233 1058c-11,53 -53,77 -94,54z"/>
    <path class="fil10" d="M5528 7092l-1275 -737c-36,-20 -56,-74 -46,-120l202 -920c11,-46 47,-67 82,-47l1276 736c35,21 56,74 45,121l-202 920c-10,46 -47,67 -82,47z"/>
    <path class="fil8" d="M5609 7251l-195 -26 -1259 -727c-41,-23 -111,-20 -158,6l-892 515 -118 -15 0 67 0 0c-1,15 8,30 27,41l1427 824c40,23 111,20 158,-7l971 -560c26,-16 40,-35 39,-53l0 -65z"/>
    <path class="fil9" d="M4441 7869l-1427 -824c-40,-23 -35,-64 11,-91l972 -560c47,-27 117,-30 158,-7l1427 824c40,23 35,64 -12,91l-971 561c-47,27 -118,29 -158,6z"/>
    <path class="fil11" d="M4728 7576l-1205 -697c-34,-19 -30,-54 9,-76l512 -296c39,-22 99,-25 133,-5l1206 696c34,20 29,54 -10,77l-512 295c-39,23 -99,25 -133,6z"/>
    <g>
     <polygon class="fil9" points="5319,6245 4725,5902 4732,5864 5327,6207 "/>
     <polygon class="fil9" points="5106,6311 4691,6071 4699,6032 5114,6272 "/>
     <polygon class="fil9" points="5067,6194 4708,5987 4716,5948 5075,6155 "/>
     <polygon class="fil9" points="5303,6330 5123,6226 5131,6188 5310,6291 "/>
     <polygon class="fil9" points="4661,5565 4482,5461 4490,5423 4669,5526 "/>
     <polygon class="fil9" points="4642,5655 4462,5551 4470,5512 4650,5616 "/>
     <polygon class="fil9" points="5523,6901 5344,6797 5351,6758 5531,6862 "/>
     <polygon class="fil9" points="4603,5834 4424,5731 4431,5692 4611,5796 "/>
     <path class="fil9" d="M4991 5862c-6,13 -20,17 -32,10 -12,-7 -18,-23 -12,-35 6,-13 20,-17 32,-10 12,7 18,23 12,35z"/>
     <path class="fil9" d="M5068 5907c-5,12 -20,17 -32,10 -12,-7 -17,-23 -12,-35 6,-13 21,-17 33,-10 12,7 17,22 11,35z"/>
     <path class="fil9" d="M5146 5952c-6,12 -21,16 -33,10 -12,-7 -17,-23 -11,-36 5,-12 20,-17 32,-10 12,7 17,23 12,36z"/>
     <path class="fil9" d="M5223 5996c-6,13 -20,17 -32,10 -12,-7 -18,-23 -12,-35 6,-13 20,-17 32,-10 12,7 18,23 12,35z"/>
    </g>
   </g>
   <g>
    <path class="fil4" d="M6530 7702l1011 -368c60,-34 108,-118 108,-187l0 -90c-20,0 -39,0 -59,1l0 124c0,31 -22,68 -49,84l-1011 368c-16,9 -29,32 -29,51 0,19 13,27 29,17z"/>
    <polygon class="fil5" points="6509,7038 6508,7190 7697,7877 7729,7733 "/>
    <path class="fil6" d="M7738 7738l-1220 -705 -26 -15 -23 -14c-5,9 -8,19 -8,27 0,10 3,16 8,19l0 0 0 1 0 0 1230 711 39 -24z"/>
    <polygon class="fil7" points="7682,7956 7698,7965 7700,7960 7691,7952 "/>
    <polygon class="fil7" points="7683,7753 7698,7762 7694,7753 "/>
    <path class="fil8" d="M7817 7135l-1427 -824c-17,-10 -34,-11 -49,-6l0 0 -2 1 -1 0 -51 20 46 22 -1 3 -232 1058c-12,53 11,115 52,138l1393 804 -5 59 56 -22c19,-9 34,-29 40,-57l233 -1058c11,-53 -12,-115 -52,-138z"/>
    <path class="fil9" d="M7490 8405l-1427 -824c-40,-24 -64,-85 -52,-138l232 -1058c12,-53 54,-77 95,-54l1427 824c40,23 63,85 52,138l-233 1058c-12,53 -54,77 -94,54z"/>
    <path class="fil10" d="M7432 8279l-1276 -737c-35,-20 -55,-74 -45,-120l202 -920c10,-46 47,-67 82,-47l1276 736c35,21 55,74 45,120l-202 921c-10,46 -47,67 -82,47z"/>
    <path class="fil8" d="M7513 8438l-196 -26 -1259 -727c-40,-23 -111,-21 -157,6l-892 515 -118 -15 0 67 0 0c-1,15 8,30 27,41l1427 824c40,23 111,20 157,-7l972 -560c26,-16 39,-35 39,-53l0 -65z"/>
    <path class="fil9" d="M6345 9056l-1427 -824c-41,-23 -35,-64 11,-91l972 -561c46,-26 117,-29 157,-6l1427 824c41,23 36,64 -11,91l-972 561c-46,26 -117,29 -157,6z"/>
    <path class="fil11" d="M6632 8762l-1206 -696c-34,-19 -29,-54 10,-76l511 -296c40,-22 99,-25 134,-5l1205 696c34,20 30,54 -9,77l-512 295c-39,23 -99,25 -133,5z"/>
    <g>
     <polygon class="fil9" points="7223,7432 6629,7089 6636,7050 7231,7394 "/>
     <polygon class="fil9" points="7010,7498 6595,7258 6603,7219 7018,7459 "/>
     <polygon class="fil9" points="6971,7381 6612,7174 6619,7135 6979,7342 "/>
     <polygon class="fil9" points="7206,7517 7027,7413 7035,7375 7214,7478 "/>
     <polygon class="fil9" points="6565,6752 6386,6648 6393,6610 6573,6713 "/>
     <polygon class="fil9" points="6546,6842 6366,6738 6374,6699 6553,6803 "/>
     <polygon class="fil9" points="7427,8088 7247,7984 7255,7945 7435,8049 "/>
     <polygon class="fil9" points="6507,7021 6327,6918 6335,6879 6514,6983 "/>
     <path class="fil9" d="M6895 7049c-6,13 -20,17 -33,10 -12,-7 -17,-23 -11,-35 6,-13 20,-17 32,-10 12,7 17,23 12,35z"/>
     <path class="fil9" d="M6972 7094c-6,12 -20,17 -32,10 -12,-7 -18,-23 -12,-35 6,-13 20,-17 32,-10 13,7 18,22 12,35z"/>
     <path class="fil9" d="M7049 7139c-5,12 -20,16 -32,9 -12,-7 -17,-22 -11,-35 5,-12 20,-17 32,-10 12,7 17,23 11,36z"/>
     <path class="fil9" d="M7127 7183c-6,13 -20,17 -33,10 -12,-7 -17,-23 -11,-35 6,-13 20,-17 32,-10 12,7 17,23 12,35z"/>
    </g>
   </g>
   <g>
    <path class="fil4" d="M8482 8915l1011 -369c60,-34 108,-117 108,-186l0 -91c-20,0 -39,0 -59,1l0 124c0,31 -22,69 -49,84l-1010 368c-17,10 -30,33 -30,52 0,19 13,26 29,17z"/>
    <polygon class="fil5" points="8461,8251 8461,8402 9649,9090 9681,8946 "/>
    <path class="fil6" d="M9690 8951l-1220 -706 -26 -15 -23 -14c-5,9 -8,19 -8,28 0,9 3,16 8,19l0 0 0 0 1 0 1229 711 39 -23z"/>
    <polygon class="fil7" points="9634,9168 9650,9177 9652,9172 9643,9165 "/>
    <polygon class="fil7" points="9635,8965 9650,8974 9647,8965 "/>
    <path class="fil8" d="M9769 8347l-1427 -824c-17,-9 -34,-11 -49,-5l1 -1 -3 1 -1 1 -51 19 46 23 -1 2 -232 1059c-12,52 12,114 52,138l1393 804 -5 59 56 -22c19,-9 34,-29 40,-58l233 -1058c11,-53 -12,-114 -52,-138z"/>
    <path class="fil9" d="M9442 9617l-1427 -824c-40,-23 -64,-85 -52,-138l233 -1058c11,-53 53,-77 94,-54l1427 824c40,24 63,85 52,138l-233 1058c-11,53 -54,77 -94,54z"/>
    <path class="fil10" d="M9384 9491l-1276 -736c-35,-21 -55,-74 -45,-120l202 -921c10,-46 47,-67 82,-46l1276 736c35,20 55,74 45,120l-202 920c-10,46 -47,67 -82,47z"/>
    <path class="fil8" d="M9465 9650l-195 -26 -1260 -727c-40,-23 -110,-20 -157,7l-892 515 -118 -16 0 67 0 0c-1,16 8,31 27,42l1427 823c40,24 111,21 157,-6l972 -561c26,-15 39,-35 39,-53l0 -65z"/>
    <path class="fil9" d="M8297 10269l-1427 -824c-40,-24 -35,-64 11,-91l972 -561c47,-27 117,-30 157,-7l1427 824c41,24 36,64 -11,91l-972 561c-46,27 -117,30 -157,7z"/>
    <path class="fil11" d="M8584 9975l-1205 -696c-35,-20 -30,-54 9,-77l512 -295c39,-23 99,-25 133,-6l1205 696c34,20 30,55 -9,77l-512 295c-39,23 -99,26 -133,6z"/>
    <g>
     <polygon class="fil9" points="9175,8645 8581,8302 8588,8263 9183,8606 "/>
     <polygon class="fil9" points="8962,8710 8547,8470 8555,8432 8970,8671 "/>
     <polygon class="fil9" points="8923,8593 8564,8386 8572,8347 8931,8555 "/>
     <polygon class="fil9" points="9159,8729 8979,8626 8987,8587 9166,8691 "/>
     <polygon class="fil9" points="8517,7964 8338,7861 8345,7822 8525,7926 "/>
     <polygon class="fil9" points="8498,8054 8318,7951 8326,7912 8506,8016 "/>
     <polygon class="fil9" points="9379,9300 9200,9197 9207,9158 9387,9262 "/>
     <polygon class="fil9" points="8459,8234 8279,8130 8287,8092 8467,8195 "/>
     <path class="fil9" d="M8847 8262c-6,12 -20,17 -32,10 -13,-7 -18,-23 -12,-36 6,-12 20,-17 32,-10 12,7 18,23 12,36z"/>
     <path class="fil9" d="M8924 8306c-6,13 -20,17 -32,10 -12,-7 -17,-23 -12,-35 6,-12 20,-17 33,-10 12,7 17,23 11,35z"/>
     <path class="fil9" d="M9001 8351c-5,12 -20,17 -32,10 -12,-7 -17,-23 -11,-35 5,-13 20,-17 32,-10 12,7 17,23 11,35z"/>
     <path class="fil9" d="M9079 8396c-6,12 -20,17 -32,10 -13,-7 -18,-23 -12,-36 6,-12 20,-17 32,-10 12,7 18,23 12,36z"/>
    </g>
   </g>
   <g>
    <path class="fil12" d="M9403 1660l-2 -474 260 -134c406,-209 709,-107 1040,189l278 -212c1093,-846 2330,748 2385,1659 756,161 1204,883 1307,1522 531,135 884,766 871,1169 0,258 -90,439 -235,525l-373 217 -471 -643 -598 -126 -3448 -1990c-440,-255 -813,-804 -938,-1338l-76 -364z"/>
    <path class="fil13" d="M10446 1560c181,-580 764,-719 1416,-343 712,454 961,1082 1124,1660 710,149 1246,940 1286,1576 707,213 960,989 839,1418 -96,341 -472,444 -846,228l-4309 -2487c-544,-314 -985,-1077 -985,-1705 0,-1070 1216,-837 1475,-347z"/>
   </g>
   <g>
    <polygon class="fil14" points="5158,2341 5551,2109 12761,6294 12761,6978 12675,7026 12662,7926 12761,8667 12351,8904 11020,8005 8558,6577 6109,5153 5151,4727 5278,3989 5258,3124 "/>
    <g>
     <g>
      <polygon class="fil15" points="6436,3079 6546,3016 8848,4345 8848,5029 8738,5093 6436,3763 "/>
      <polygon class="fil16" points="8738,4409 8738,4409 7053,3436 6436,3079 6546,3016 8848,4345 "/>
     </g>
     <g>
      <polygon class="fil15" points="6146,4627 6256,4564 8558,5893 8558,6577 8448,6640 6146,5311 "/>
      <polygon class="fil16" points="8448,5957 8448,5957 6763,4984 6146,4627 6256,4564 8558,5893 "/>
     </g>
     <g>
      <polygon class="fil15" points="5148,3187 5258,3124 7561,4453 7561,5137 7451,5200 5148,3871 "/>
      <polygon class="fil16" points="7451,4516 7451,4516 5765,3543 5148,3187 5258,3124 7561,4453 "/>
     </g>
     <polygon class="fil15" points="10061,6036 10171,5972 12474,7301 12767,7132 12767,7816 12364,8049 10061,6720 "/>
     <polygon class="fil16" points="12364,7365 12364,7365 10678,6392 10061,6036 10171,5972 12474,7301 "/>
     <g>
      <polygon class="fil15" points="7603,4618 7713,4555 10016,5884 10016,6568 9906,6631 7603,5302 "/>
      <polygon class="fil16" points="9906,5948 9906,5948 8220,4975 7603,4618 7713,4555 10016,5884 "/>
     </g>
     <polygon class="fil15" points="8898,4507 9008,4443 11310,5773 11310,6457 11200,6520 8898,5191 "/>
     <polygon class="fil16" points="11200,5836 11200,5836 9515,4863 8898,4507 9295,4278 11598,5607 "/>
     <polygon class="fil16" points="8738,4409 8738,4409 7053,3436 6436,3079 6833,2850 9136,4179 "/>
     <g>
      <polygon class="fil15" points="8608,6055 8718,5991 11020,7321 11020,8005 10910,8068 8608,6739 "/>
      <polygon class="fil16" points="10910,7384 10910,7384 9225,6411 8608,6055 8718,5991 11020,7321 "/>
     </g>
     <polygon class="fil15" points="11054,7472 11164,7408 12461,8157 12761,7983 12761,8667 12351,8904 11054,8155 "/>
     <polygon class="fil16" points="12351,8220 12351,8220 11671,7828 11054,7472 11164,7408 12461,8157 "/>
     <polygon class="fil15" points="5151,4043 5261,3980 6109,4469 6109,5153 5999,5217 5151,4727 "/>
     <polygon class="fil15" points="5154,2338 5264,2275 6402,2932 6402,3615 6292,3679 5154,3022 "/>
     <polygon class="fil15" points="11346,5927 11736,5702 12760,6293 12760,6977 12370,7202 11346,6611 "/>
     <polygon class="fil16" points="5999,4533 5999,4533 5434,4206 5151,4043 5261,3980 6109,4469 "/>
     <polygon class="fil16" points="6292,2995 6292,2995 5437,2502 5154,2338 5551,2109 6689,2766 "/>
     <polygon class="fil16" points="12371,6519 12423,6548 11629,6090 11346,5927 11735,5702 12761,6294 "/>
     <polygon class="fil16" points="12378,7357 12279,7299 12668,7075 12767,7132 "/>
     <polygon class="fil15" points="11307,5889 11208,5832 11598,5607 11697,5664 "/>
     <polygon class="fil15" points="8845,4461 8746,4404 9136,4179 9235,4236 "/>
     <polygon class="fil15" points="6398,3048 6299,2991 6689,2766 6788,2823 "/>
     <polygon class="fil16" points="12372,8208 12273,8151 12662,7926 12761,7983 "/>
    </g>
   </g>
  </g>
 </g>
</svg>
