<svg width="91" height="91" viewBox="0 0 91 91" fill="none" xmlns="http://www.w3.org/2000/svg">
<path d="M83.6818 82.5006H1.9856V85.2306H83.6818V82.5006Z" fill="#1DA0FA"/>
<path d="M11.9883 74.2942H9.76245V77.0242H11.9883V74.2942Z" fill="#1DA0FA"/>
<path d="M89.0162 82.5006H86.3171V85.2306H89.0162V82.5006Z" fill="#1DA0FA"/>
<path d="M73.9448 84.2551C73.8265 83.5434 71.0801 66.6393 75.1023 50.6124L77.7504 51.2767C73.8701 66.7376 76.6092 83.6363 76.6365 83.8055L73.9448 84.2551Z" fill="#1DA0FA"/>
<path d="M68.3555 56.1069C67.5729 54.4926 67.5784 52.4087 68.7723 50.9472C69.564 49.9626 70.7561 49.4257 71.9646 49.1873C75.6992 48.4629 83.1685 50.6306 84.6828 54.4271C85.2033 55.6337 85.0231 57.0661 84.2569 58.1071C83.9147 58.5876 83.4998 58.9916 83.0193 59.2828C83.2723 58.7878 83.4561 58.2837 83.5653 57.7904C84.1641 55.2552 81.9837 54.0704 79.9708 53.2623C77.6903 52.4123 75.2042 51.6771 72.7727 51.5424C72.6744 51.5442 72.3595 51.546 72.2613 51.546C72.143 51.5551 71.8845 51.577 71.7662 51.5861C69.3183 51.8299 68.5448 53.9029 68.3537 56.1069H68.3555Z" fill="#1DA0FA"/>
<path d="M67.2017 45.7403C68.4848 44.7065 70.2611 44.3607 71.8791 44.6919C73.599 45.0359 75.0859 46.168 76.1178 47.553C76.804 48.4557 77.3063 49.4458 77.6994 50.4522L75.5555 49.8953C77.8741 48.0571 81.9127 45.8768 84.8356 47.4729C85.8621 48.0589 86.4263 49.1637 86.5046 50.2721C85.9258 49.5331 85.2233 48.8543 84.3242 48.7141C82.173 48.341 78.9916 50.6907 77.3008 51.9956L75.8303 53.1659C75.317 51.8573 74.7292 50.1829 73.9921 49.0235C72.5106 46.5047 70.1592 45.4127 67.2053 45.7403H67.2017Z" fill="#1DA0FA"/>
<path d="M76.4272 50.9436C76.3945 49.8971 76.5273 49.0126 76.6602 48.1645C76.8586 46.8741 77.2062 45.7785 77.1498 44.6028C77.1115 44.3552 76.9132 44.1641 76.7075 44.0131C76.258 43.6782 75.7393 43.4998 75.2188 43.2196C76.804 41.8509 79.1536 42.3787 79.6978 44.4917C80.3111 46.9815 78.6203 49.8425 76.4254 50.9455L76.4272 50.9436Z" fill="#1DA0FA"/>
<path d="M70.1137 83.3269L67.3928 83.0994C67.4001 83.012 68.0644 74.0849 63.4288 66.5319L65.7548 65.1032C70.8726 73.4388 70.1464 82.9265 70.1137 83.325V83.3269Z" fill="#1DA0FA"/>
<path d="M69.908 67.2563C69.3857 66.441 68.6267 65.5109 67.5875 65.7767C66.1952 66.1243 64.7847 67.1744 63.5744 67.9843C62.1621 69.0326 61.2121 69.7825 62.4151 71.5279C61.2121 71.4605 60.202 70.3212 60.2911 69.0836C60.3294 67.8788 61.1083 66.7795 61.8818 66.0242C63.1704 64.8084 64.7101 63.8511 66.501 63.6072C68.7414 63.2869 70.5942 64.9995 69.9098 67.2581L69.908 67.2563Z" fill="#1DA0FA"/>
<path d="M68.7523 61.3741C65.733 62.5389 66.0533 65.0778 65.8294 67.7659L64.0731 67.0816C63.6127 66.9032 63.1358 66.7394 62.6681 66.5884C61.6871 66.3245 60.2966 65.7421 59.4794 66.4919C59.2883 66.6666 59.1264 66.9105 58.948 67.1853C58.8224 66.8905 58.746 66.5592 58.7751 66.2025C59.0044 64.1823 61.6016 63.7746 63.2177 64.0549C63.8729 64.1496 64.4899 64.3115 65.1069 64.5536L63.2286 65.7293C63.3105 64.3698 63.8038 62.8756 64.8557 61.9219C65.9059 60.95 67.5275 60.6242 68.7523 61.3741Z" fill="#1DA0FA"/>
<path d="M64.5918 65.8185C62.8482 66.0223 61.1957 64.7065 61.1374 62.9029C61.0792 61.3832 62.6608 60.3567 63.922 61.3741C63.7837 61.6707 63.174 62.4151 63.4707 62.6535C63.5617 62.6954 63.649 62.5989 63.7145 62.6244C63.7637 62.6481 63.8146 62.7518 63.8802 62.8883C64.0148 63.1704 64.1914 63.5635 64.3297 64.0367C64.4662 64.5208 64.5918 65.0577 64.5918 65.8185Z" fill="#1DA0FA"/>
<path d="M55.3425 84.6154H7.63306L7.6367 38.1508C7.8187 28.4793 15.743 20.6679 25.4581 20.6679H55.3425V84.6154ZM10.3631 81.8854H52.6125V23.3979H25.4563C17.1335 23.3979 10.3631 30.1683 10.3631 38.4912C10.3631 38.7915 10.374 39.1063 10.394 39.4321L10.4832 40.8808H10.3631V81.8854Z" fill="#1DA0FA"/>
<path d="M23.5763 22.0329H20.8463V82.5151H23.5763V22.0329Z" fill="#1DA0FA"/>
<path d="M22.2112 38.3292H6.20251V41.0592H22.2112V38.3292Z" fill="#1DA0FA"/>
<path d="M22.2112 44.5299H6.20251V47.2599H22.2112V44.5299Z" fill="#1DA0FA"/>
<path d="M22.2112 50.7307H6.20251V53.4607H22.2112V50.7307Z" fill="#1DA0FA"/>
<path d="M22.2112 56.9314H6.20251V59.6614H22.2112V56.9314Z" fill="#1DA0FA"/>
<path d="M22.2112 63.1321H6.20251V65.8621H22.2112V63.1321Z" fill="#1DA0FA"/>
<path d="M22.2112 69.3329H6.20251V72.0629H22.2112V69.3329Z" fill="#1DA0FA"/>
<path d="M22.2112 75.5336H6.20251V78.2636H22.2112V75.5336Z" fill="#1DA0FA"/>
<path d="M29.3366 3.75104H26.6066V21.8309H29.3366V3.75104Z" fill="#1DA0FA"/>
<path d="M32.8528 18.2601H30.1228V22.0329H32.8528V18.2601Z" fill="#1DA0FA"/>
<path d="M44.135 84.3388H31.7062V69.3329H44.135V84.3388ZM34.4362 81.6088H41.405V72.0629H34.4362V81.6088Z" fill="#1DA0FA"/>
<path d="M39.2865 71.5988H36.5565V83.8602H39.2865V71.5988Z" fill="#1DA0FA"/>
<path d="M37.1334 38.311H29.0107V27.451H37.1334V38.311ZM31.7407 35.581H34.4034V30.181H31.7407V35.581Z" fill="#1DA0FA"/>
<path d="M47.471 38.311H39.3484V27.451H47.471V38.311ZM42.0784 35.581H44.741V30.181H42.0784V35.581Z" fill="#1DA0FA"/>
<path d="M37.1334 51.6189H29.0107V40.7589H37.1334V51.6189ZM31.7407 48.8889H34.4034V43.4889H31.7407V48.8889Z" fill="#1DA0FA"/>
<path d="M47.471 51.6189H39.3484V40.7589H47.471V51.6189ZM42.0784 48.8889H44.741V43.4889H42.0784V48.8889Z" fill="#1DA0FA"/>
<path d="M37.1334 65.995H29.0107V55.1351H37.1334V65.995ZM31.7407 63.265H34.4034V57.8651H31.7407V63.265Z" fill="#1DA0FA"/>
<path d="M47.471 65.995H39.3484V55.1351H47.471V65.995ZM42.0784 63.265H44.741V57.8651H42.0784V63.265Z" fill="#1DA0FA"/>
<path d="M72.2704 31.0965L71.1929 29.7151C70.0627 28.2664 68.6759 26.8177 68.2245 26.6157C67.7659 26.441 65.7602 26.4846 63.9366 26.7103L62.1985 26.9251L62.4132 25.187C62.6389 23.3633 62.6826 21.3577 62.5061 20.8954C62.3059 20.4477 60.8571 19.0609 59.4084 17.9306L57.6758 16.5802L59.6541 15.6247C60.9227 15.0114 62.2968 14.1487 62.5698 13.7956C62.8227 13.2205 62.7536 10.7908 62.4187 8.55581L62.062 6.17525L64.2878 7.09254C65.8731 7.74409 67.7495 8.25552 68.2882 8.18454C68.816 7.87696 70.1191 6.00781 71.0601 4.2042L72.2722 1.87823L73.4825 4.2042C74.4216 6.00781 75.7247 7.87696 76.2525 8.18454C76.7912 8.25552 78.6677 7.74409 80.2529 7.09254L82.4769 6.17889L82.122 8.55763C81.789 10.7926 81.7198 13.2187 81.971 13.7992C82.2458 14.1523 83.6199 15.015 84.8866 15.6283L86.8631 16.5838L85.1323 17.9343C83.6854 19.0627 82.2385 20.4477 82.0328 20.9009C81.8563 21.3668 81.9 23.3688 82.1257 25.1906L82.3404 26.9287L80.6023 26.714C78.7787 26.4883 76.773 26.4446 76.3108 26.6211C75.863 26.8213 74.4744 28.2701 73.346 29.7188L72.2685 31.1002L72.2704 31.0965ZM66.8486 23.7747C67.7895 23.7747 68.6922 23.8547 69.271 24.0932C70.1737 24.4663 71.3549 25.6729 72.2704 26.7249C73.184 25.6711 74.367 24.4663 75.2697 24.0913C76.1724 23.7182 77.8614 23.7346 79.2519 23.8329C79.1536 22.4424 79.1372 20.7535 79.5103 19.8507C79.8525 19.0263 80.8881 17.9689 81.8672 17.0953C80.8881 16.5019 79.9344 15.7867 79.5649 15.0878C79.0207 14.0559 79.028 12.0702 79.1627 10.3831C77.7759 10.8072 76.2616 11.0947 75.3243 10.7526C74.2669 10.3667 73.1421 8.92527 72.2722 7.56392C71.4022 8.92527 70.2756 10.3667 69.22 10.7526C68.2809 11.0947 66.7685 10.8072 65.3817 10.3831C65.5163 12.0702 65.5236 14.0559 64.9794 15.0878C64.61 15.7867 63.6563 16.5019 62.6771 17.0953C63.6563 17.9689 64.6919 19.0281 65.034 19.8507C65.4071 20.7535 65.3908 22.4424 65.2925 23.8329C65.7912 23.7983 66.3281 23.7728 66.8522 23.7728L66.8486 23.7747Z" fill="#FC951D"/>
<path d="M72.2704 22.8847C68.9452 22.8847 66.2389 20.1783 66.2389 16.8532C66.2389 13.5281 68.9452 10.8217 72.2704 10.8217C75.5955 10.8217 78.3019 13.5281 78.3019 16.8532C78.3019 20.1783 75.5955 22.8847 72.2704 22.8847ZM72.2704 13.5517C70.4504 13.5517 68.9689 15.0332 68.9689 16.8532C68.9689 18.6732 70.4504 20.1547 72.2704 20.1547C74.0904 20.1547 75.5719 18.6732 75.5719 16.8532C75.5719 15.0332 74.0904 13.5517 72.2704 13.5517Z" fill="#FC951D"/>
</svg>
