<svg width="90" height="90" viewBox="0 0 90 90" fill="none" xmlns="http://www.w3.org/2000/svg">
<path d="M31.4856 65.574H26.5914V59.247H31.4856V65.574ZM28.7514 63.414H29.3256V61.407H28.7514V63.414Z" fill="#1DA0FA"/>
<path d="M46.4886 40.1544H39.1194V29.9196H46.4886V40.1544ZM41.2794 37.9944H44.3286V32.0796H41.2794V37.9944Z" fill="#1DA0FA"/>
<path d="M44.4762 30.5676H41.1354V26.0676H44.4762V30.5676ZM42.5754 29.1276H43.0362V27.5076H42.5754V29.1276Z" fill="#1DA0FA"/>
<path d="M43.884 11.2428H41.724V26.9694H43.884V11.2428Z" fill="#1DA0FA"/>
<path d="M49.9085 73.4796H35.6147V75.6396H49.9085V73.4796Z" fill="#1DA0FA"/>
<path d="M42.4583 74.5596H40.2983V82.5048H42.4583V74.5596Z" fill="#1DA0FA"/>
<path d="M45.5184 74.5596H43.3584V82.5048H45.5184V74.5596Z" fill="#1DA0FA"/>
<path d="M21.3534 83.583H7.73279V61.497H21.3534V83.583ZM9.89279 81.423H19.1934V63.657H9.89279V81.423Z" fill="#1DA0FA"/>
<path d="M19.8557 63.657H9.23035V54.3348H19.8557V63.657ZM11.3903 61.497H17.6957V56.4948H11.3903V61.497Z" fill="#1DA0FA"/>
<path d="M17.1216 56.4949H11.9664V50.0941H17.1216V56.4949ZM14.1264 54.3349H14.9616V52.2541H14.1264V54.3349Z" fill="#1DA0FA"/>
<path d="M14.5422 60.1021C15.1536 60.1021 15.6492 59.6064 15.6492 58.9951C15.6492 58.3837 15.1536 57.8881 14.5422 57.8881C13.9308 57.8881 13.4352 58.3837 13.4352 58.9951C13.4352 59.6064 13.9308 60.1021 14.5422 60.1021Z" fill="#1DA0FA"/>
<path d="M15.6222 48.7728H13.4622V51.174H15.6222V48.7728Z" fill="#1DA0FA"/>
<path d="M33.5574 81.873H19.9872V83.133H33.5574V81.873Z" fill="#1DA0FA"/>
<path d="M33.5574 63.4842H20.2734V65.6442H33.5574V63.4842Z" fill="#1DA0FA"/>
<path d="M59.0183 65.574H54.1241V59.247H59.0183V65.574ZM56.2841 63.414H56.8583V61.407H56.2841V63.414Z" fill="#1DA0FA"/>
<path d="M77.8769 83.583H64.2563V61.497H77.8769V83.583ZM66.4163 81.423H75.7169V63.657H66.4163V81.423Z" fill="#1DA0FA"/>
<path d="M76.3794 63.657H65.754V54.3348H76.3794V63.657ZM67.914 61.497H74.2194V56.4948H67.914V61.497Z" fill="#1DA0FA"/>
<path d="M73.6434 56.4948H68.4882V50.094H73.6434V56.4948ZM70.6482 54.3348H71.4834V52.254H70.6482V54.3348Z" fill="#1DA0FA"/>
<path d="M71.0657 60.102C71.6771 60.102 72.1727 59.6064 72.1727 58.995C72.1727 58.3836 71.6771 57.888 71.0657 57.888C70.4544 57.888 69.9587 58.3836 69.9587 58.995C69.9587 59.6064 70.4544 60.102 71.0657 60.102Z" fill="#1DA0FA"/>
<path d="M72.1458 48.7728H69.9858V51.174H72.1458V48.7728Z" fill="#1DA0FA"/>
<path d="M65.6209 81.873H52.0507V83.133H65.6209V81.873Z" fill="#1DA0FA"/>
<path d="M65.3347 63.4842H52.0507V65.6442H65.3347V63.4842Z" fill="#1DA0FA"/>
<path d="M43.443 69.9336V72.3438C43.443 72.747 43.7976 73.1322 44.2134 73.1142C44.6292 73.0962 44.9838 72.7758 44.9838 72.3438V69.9336C44.9838 69.5304 44.6292 69.1452 44.2134 69.1632C43.7976 69.1812 43.443 69.5016 43.443 69.9336Z" fill="#1DA0FA"/>
<path d="M40.0734 58.6998V61.11C40.0734 61.5132 40.428 61.8984 40.8438 61.8804C41.2596 61.8624 41.6142 61.542 41.6142 61.11V58.6998C41.6142 58.2966 41.2596 57.9114 40.8438 57.9294C40.428 57.9474 40.0734 58.2678 40.0734 58.6998Z" fill="#1DA0FA"/>
<path d="M43.443 53.0838V55.494C43.443 55.8972 43.7976 56.2824 44.2134 56.2644C44.6292 56.2464 44.9838 55.926 44.9838 55.494V53.0838C44.9838 52.6806 44.6292 52.2954 44.2134 52.3134C43.7976 52.3314 43.443 52.6518 43.443 53.0838Z" fill="#1DA0FA"/>
<path d="M43.443 58.6998V61.11C43.443 61.5132 43.7976 61.8984 44.2134 61.8804C44.6292 61.8624 44.9838 61.542 44.9838 61.11V58.6998C44.9838 58.2966 44.6292 57.9114 44.2134 57.9294C43.7976 57.9474 43.443 58.2678 43.443 58.6998Z" fill="#1DA0FA"/>
<path d="M40.0734 69.9336V72.3438C40.0734 72.747 40.428 73.1322 40.8438 73.1142C41.2596 73.0962 41.6142 72.7758 41.6142 72.3438V69.9336C41.6142 69.5304 41.2596 69.1452 40.8438 69.1632C40.428 69.1812 40.0734 69.5016 40.0734 69.9336Z" fill="#1DA0FA"/>
<path d="M40.0734 64.3158V66.726C40.0734 67.1292 40.428 67.5144 40.8438 67.4964C41.2596 67.4784 41.6142 67.158 41.6142 66.726V64.3158C41.6142 63.9126 41.2596 63.5274 40.8438 63.5454C40.428 63.5634 40.0734 63.8838 40.0734 64.3158Z" fill="#1DA0FA"/>
<path d="M10.9044 66.1896V68.5998C10.9044 69.003 11.259 69.3882 11.6748 69.3702C12.0906 69.3522 12.4452 69.0318 12.4452 68.5998V66.1896C12.4452 65.7864 12.0906 65.4012 11.6748 65.4192C11.259 65.4372 10.9044 65.7576 10.9044 66.1896Z" fill="#1DA0FA"/>
<path d="M16.6536 66.1896V68.5998C16.6536 69.003 17.0082 69.3882 17.424 69.3702C17.8398 69.3522 18.1944 69.0318 18.1944 68.5998V66.1896C18.1944 65.7864 17.8398 65.4012 17.424 65.4192C17.0082 65.4372 16.6536 65.7576 16.6536 66.1896Z" fill="#1DA0FA"/>
<path d="M10.9044 71.8056V74.2158C10.9044 74.619 11.259 75.0042 11.6748 74.9862C12.0906 74.9682 12.4452 74.6478 12.4452 74.2158V71.8056C12.4452 71.4024 12.0906 71.0172 11.6748 71.0352C11.259 71.0532 10.9044 71.3736 10.9044 71.8056Z" fill="#1DA0FA"/>
<path d="M16.6536 71.8056V74.2158C16.6536 74.619 17.0082 75.0042 17.424 74.9862C17.8398 74.9682 18.1944 74.6478 18.1944 74.2158V71.8056C18.1944 71.4024 17.8398 71.0172 17.424 71.0352C17.0082 71.0532 16.6536 71.3736 16.6536 71.8056Z" fill="#1DA0FA"/>
<path d="M10.9044 77.4216V79.8318C10.9044 80.235 11.259 80.6202 11.6748 80.6022C12.0906 80.5842 12.4452 80.2638 12.4452 79.8318V77.4216C12.4452 77.0184 12.0906 76.6332 11.6748 76.6512C11.259 76.6692 10.9044 76.9896 10.9044 77.4216Z" fill="#1DA0FA"/>
<path d="M16.6536 77.4216V79.8318C16.6536 80.235 17.0082 80.6202 17.424 80.6022C17.8398 80.5842 18.1944 80.2638 18.1944 79.8318V77.4216C18.1944 77.0184 17.8398 76.6332 17.424 76.6512C17.0082 76.6692 16.6536 76.9896 16.6536 77.4216Z" fill="#1DA0FA"/>
<path d="M26.1252 66.9006V69.3108C26.1252 69.714 26.4798 70.0992 26.8956 70.0812C27.3114 70.0632 27.666 69.7428 27.666 69.3108V66.9006C27.666 66.4974 27.3114 66.1122 26.8956 66.1302C26.4798 66.1482 26.1252 66.4686 26.1252 66.9006Z" fill="#1DA0FA"/>
<path d="M26.1252 72.5184V74.9286C26.1252 75.3318 26.4798 75.717 26.8956 75.699C27.3114 75.681 27.666 75.3606 27.666 74.9286V72.5184C27.666 72.1152 27.3114 71.73 26.8956 71.748C26.4798 71.766 26.1252 72.0864 26.1252 72.5184Z" fill="#1DA0FA"/>
<path d="M26.1252 78.1344V80.5446C26.1252 80.9478 26.4798 81.333 26.8956 81.315C27.3114 81.297 27.666 80.9766 27.666 80.5446V78.1344C27.666 77.7312 27.3114 77.346 26.8956 77.364C26.4798 77.382 26.1252 77.7024 26.1252 78.1344Z" fill="#1DA0FA"/>
<path d="M22.9429 66.9006V69.3108C22.9429 69.714 23.2975 70.0992 23.7133 70.0812C24.1291 70.0632 24.4837 69.7428 24.4837 69.3108V66.9006C24.4837 66.4974 24.1291 66.1122 23.7133 66.1302C23.2975 66.1482 22.9429 66.4686 22.9429 66.9006Z" fill="#1DA0FA"/>
<path d="M22.9429 72.5184V74.9286C22.9429 75.3318 23.2975 75.717 23.7133 75.699C24.1291 75.681 24.4837 75.3606 24.4837 74.9286V72.5184C24.4837 72.1152 24.1291 71.73 23.7133 71.748C23.2975 71.766 22.9429 72.0864 22.9429 72.5184Z" fill="#1DA0FA"/>
<path d="M22.9429 78.1344V80.5446C22.9429 80.9478 23.2975 81.333 23.7133 81.315C24.1291 81.297 24.4837 80.9766 24.4837 80.5446V78.1344C24.4837 77.7312 24.1291 77.346 23.7133 77.364C23.2975 77.382 22.9429 77.7024 22.9429 78.1344Z" fill="#1DA0FA"/>
<path d="M29.3094 66.9006V69.3108C29.3094 69.714 29.664 70.0992 30.0798 70.0812C30.4956 70.0632 30.8502 69.7428 30.8502 69.3108V66.9006C30.8502 66.4974 30.4956 66.1122 30.0798 66.1302C29.664 66.1482 29.3094 66.4686 29.3094 66.9006Z" fill="#1DA0FA"/>
<path d="M29.3094 72.5184V74.9286C29.3094 75.3318 29.664 75.717 30.0798 75.699C30.4956 75.681 30.8502 75.3606 30.8502 74.9286V72.5184C30.8502 72.1152 30.4956 71.73 30.0798 71.748C29.664 71.766 29.3094 72.0864 29.3094 72.5184Z" fill="#1DA0FA"/>
<path d="M29.3094 78.1344V80.5446C29.3094 80.9478 29.664 81.333 30.0798 81.315C30.4956 81.297 30.8502 80.9766 30.8502 80.5446V78.1344C30.8502 77.7312 30.4956 77.346 30.0798 77.364C29.664 77.382 29.3094 77.7024 29.3094 78.1344Z" fill="#1DA0FA"/>
<path d="M73.0818 66.1896V68.5998C73.0818 69.003 73.4364 69.3882 73.8522 69.3702C74.268 69.3522 74.6226 69.0318 74.6226 68.5998V66.1896C74.6226 65.7864 74.268 65.4012 73.8522 65.4192C73.4364 65.4372 73.0818 65.7576 73.0818 66.1896Z" fill="#1DA0FA"/>
<path d="M67.7412 66.1896V68.5998C67.7412 69.003 68.0958 69.3882 68.5116 69.3702C68.9274 69.3522 69.282 69.0318 69.282 68.5998V66.1896C69.282 65.7864 68.9274 65.4012 68.5116 65.4192C68.0958 65.4372 67.7412 65.7576 67.7412 66.1896Z" fill="#1DA0FA"/>
<path d="M73.0818 71.8056V74.2158C73.0818 74.619 73.4364 75.0042 73.8522 74.9862C74.268 74.9682 74.6226 74.6478 74.6226 74.2158V71.8056C74.6226 71.4024 74.268 71.0172 73.8522 71.0352C73.4364 71.0532 73.0818 71.3736 73.0818 71.8056Z" fill="#1DA0FA"/>
<path d="M67.7412 71.8056V74.2158C67.7412 74.619 68.0958 75.0042 68.5116 74.9862C68.9274 74.9682 69.282 74.6478 69.282 74.2158V71.8056C69.282 71.4024 68.9274 71.0172 68.5116 71.0352C68.0958 71.0532 67.7412 71.3736 67.7412 71.8056Z" fill="#1DA0FA"/>
<path d="M73.0818 77.4216V79.8318C73.0818 80.235 73.4364 80.6202 73.8522 80.6022C74.268 80.5842 74.6226 80.2638 74.6226 79.8318V77.4216C74.6226 77.0184 74.268 76.6332 73.8522 76.6512C73.4364 76.6692 73.0818 76.9896 73.0818 77.4216Z" fill="#1DA0FA"/>
<path d="M67.743 77.4216V79.8318C67.743 80.235 68.0976 80.6202 68.5134 80.6022C68.9292 80.5842 69.2838 80.2638 69.2838 79.8318V77.4216C69.2838 77.0184 68.9292 76.6332 68.5134 76.6512C68.0976 76.6692 67.743 76.9896 67.743 77.4216Z" fill="#1DA0FA"/>
<path d="M57.8593 66.9006V69.3108C57.8593 69.714 58.2139 70.0992 58.6297 70.0812C59.0455 70.0632 59.4001 69.7428 59.4001 69.3108V66.9006C59.4001 66.4974 59.0455 66.1122 58.6297 66.1302C58.2139 66.1482 57.8593 66.4686 57.8593 66.9006Z" fill="#1DA0FA"/>
<path d="M57.8593 72.5184V74.9286C57.8593 75.3318 58.2139 75.717 58.6297 75.699C59.0455 75.681 59.4001 75.3606 59.4001 74.9286V72.5184C59.4001 72.1152 59.0455 71.73 58.6297 71.748C58.2139 71.766 57.8593 72.0864 57.8593 72.5184Z" fill="#1DA0FA"/>
<path d="M57.8593 78.1344V80.5446C57.8593 80.9478 58.2139 81.333 58.6297 81.315C59.0455 81.297 59.4001 80.9766 59.4001 80.5446V78.1344C59.4001 77.7312 59.0455 77.346 58.6297 77.364C58.2139 77.382 57.8593 77.7024 57.8593 78.1344Z" fill="#1DA0FA"/>
<path d="M61.0416 66.9006V69.3108C61.0416 69.714 61.3962 70.0992 61.812 70.0812C62.2278 70.0632 62.5824 69.7428 62.5824 69.3108V66.9006C62.5824 66.4974 62.2278 66.1122 61.812 66.1302C61.3962 66.1482 61.0416 66.4686 61.0416 66.9006Z" fill="#1DA0FA"/>
<path d="M61.0416 72.5184V74.9286C61.0416 75.3318 61.3962 75.717 61.812 75.699C62.2278 75.681 62.5824 75.3606 62.5824 74.9286V72.5184C62.5824 72.1152 62.2278 71.73 61.812 71.748C61.3962 71.766 61.0416 72.0864 61.0416 72.5184Z" fill="#1DA0FA"/>
<path d="M61.0416 78.1344V80.5446C61.0416 80.9478 61.3962 81.333 61.812 81.315C62.2278 81.297 62.5824 80.9766 62.5824 80.5446V78.1344C62.5824 77.7312 62.2278 77.346 61.812 77.364C61.3962 77.382 61.0416 77.7024 61.0416 78.1344Z" fill="#1DA0FA"/>
<path d="M54.6769 66.9006V69.3108C54.6769 69.714 55.0315 70.0992 55.4473 70.0812C55.8631 70.0632 56.2177 69.7428 56.2177 69.3108V66.9006C56.2177 66.4974 55.8631 66.1122 55.4473 66.1302C55.0315 66.1482 54.6769 66.4686 54.6769 66.9006Z" fill="#1DA0FA"/>
<path d="M54.6769 72.5184V74.9286C54.6769 75.3318 55.0315 75.717 55.4473 75.699C55.8631 75.681 56.2177 75.3606 56.2177 74.9286V72.5184C56.2177 72.1152 55.8631 71.73 55.4473 71.748C55.0315 71.766 54.6769 72.0864 54.6769 72.5184Z" fill="#1DA0FA"/>
<path d="M54.6769 78.1344V80.5446C54.6769 80.9478 55.0315 81.333 55.4473 81.315C55.8631 81.297 56.2177 80.9766 56.2177 80.5446V78.1344C56.2177 77.7312 55.8631 77.346 55.4473 77.364C55.0315 77.382 54.6769 77.7024 54.6769 78.1344Z" fill="#1DA0FA"/>
<path d="M40.0734 53.0838V55.494C40.0734 55.8972 40.428 56.2824 40.8438 56.2644C41.2596 56.2464 41.6142 55.926 41.6142 55.494V53.0838C41.6142 52.6806 41.2596 52.2954 40.8438 52.3134C40.428 52.3314 40.0734 52.6518 40.0734 53.0838Z" fill="#1DA0FA"/>
<path d="M43.443 64.3158V66.726C43.443 67.1292 43.7976 67.5144 44.2134 67.4964C44.6292 67.4784 44.9838 67.158 44.9838 66.726V64.3158C44.9838 63.9126 44.6292 63.5274 44.2134 63.5454C43.7976 63.5634 43.443 63.8838 43.443 64.3158Z" fill="#1DA0FA"/>
<path d="M43.6608 47.5668V49.977C43.6608 50.3802 44.0154 50.7654 44.4312 50.7474C44.847 50.7294 45.2016 50.409 45.2016 49.977V47.5668C45.2016 47.1636 44.847 46.7784 44.4312 46.7964C44.0154 46.8144 43.6608 47.1348 43.6608 47.5668Z" fill="#1DA0FA"/>
<path d="M40.2913 47.5668V49.977C40.2913 50.3802 40.6459 50.7654 41.0617 50.7474C41.4775 50.7294 41.8321 50.409 41.8321 49.977V47.5668C41.8321 47.1636 41.4775 46.7784 41.0617 46.7964C40.6459 46.8144 40.2913 47.1348 40.2913 47.5668Z" fill="#1DA0FA"/>
<path d="M43.6608 41.6142V44.0244C43.6608 44.4276 44.0154 44.8128 44.4312 44.7948C44.847 44.7768 45.2016 44.4564 45.2016 44.0244V41.6142C45.2016 41.211 44.847 40.8258 44.4312 40.8438C44.0154 40.8618 43.6608 41.1822 43.6608 41.6142Z" fill="#1DA0FA"/>
<path d="M40.2913 41.6142V44.0244C40.2913 44.4276 40.6459 44.8128 41.0617 44.7948C41.4775 44.7768 41.8321 44.4564 41.8321 44.0244V41.6142C41.8321 41.211 41.4775 40.8258 41.0617 40.8438C40.6459 40.8618 40.2913 41.1822 40.2913 41.6142Z" fill="#1DA0FA"/>
<path d="M83.2932 81.7848H5.30103V83.9448H83.2932V81.7848Z" fill="#1DA0FA"/>
<path d="M3.40738 81.7848H1.05298V83.9448H3.40738V81.7848Z" fill="#1DA0FA"/>
<path d="M88.9469 81.7848H85.7789V83.9448H88.9469V81.7848Z" fill="#1DA0FA"/>
<path d="M42.7626 10.2618C41.652 10.2618 40.7484 9.3582 40.7484 8.2476C40.7484 7.137 41.652 6.2334 42.7626 6.2334C43.8732 6.2334 44.7768 7.137 44.7768 8.2476C44.7768 9.3582 43.8732 10.2618 42.7626 10.2618ZM42.7626 7.4934C42.3468 7.4934 42.0084 7.8318 42.0084 8.2476C42.0084 8.6634 42.3468 9.0018 42.7626 9.0018C43.1784 9.0018 43.5168 8.6634 43.5168 8.2476C43.5168 7.8318 43.1784 7.4934 42.7626 7.4934Z" fill="#FC951D"/>
<path d="M52.65 83.583H32.4774V38.5542H52.65V83.5848V83.583ZM34.6374 81.423H50.49V40.7142H34.6374V81.4248V81.423Z" fill="#1DA0FA"/>
<path d="M48.7224 83.583H36.7092V38.5542H48.7224V83.5848V83.583ZM38.8692 81.423H46.5624V40.7142H38.8692V81.4248V81.423Z" fill="#1DA0FA"/>
</svg>
