<svg width="90" height="90" viewBox="0 0 90 90" fill="none" xmlns="http://www.w3.org/2000/svg">
<g clip-path="url(#clip0_2_1786)">
<path d="M69.3787 0H5.62721C2.52255 0 0 2.52255 0 5.62721V50.6272C0 53.7319 2.52255 56.2544 5.62721 56.2544H30.0059V52.497H5.62721C4.58644 52.497 3.75735 51.6504 3.75735 50.6272V5.62721C3.75735 4.58644 4.60408 3.75735 5.62721 3.75735H69.3787C70.4195 3.75735 71.2485 4.60408 71.2485 5.62721V39.3728H75.0059V5.62721C75.0059 2.52255 72.4833 0 69.3787 0Z" fill="#1DA0FA"/>
<path d="M26.2663 54.3846H22.5089V65.6389H26.2663V54.3846Z" fill="#1DA0FA"/>
<path d="M13.1243 45C12.0835 45 11.2544 44.1532 11.2544 43.1302V39.3728H7.49707V43.1302C7.49707 46.2348 10.0196 48.7574 13.1243 48.7574H16.8816V45H13.1243Z" fill="#1DA0FA"/>
<path d="M11.2544 31.8757H7.49707V35.6331H11.2544V31.8757Z" fill="#1DA0FA"/>
<path d="M68.5319 39.7256C64.7041 35.8977 59.5355 33.7632 54.1199 33.7632C42.8656 33.7632 33.7456 42.8832 33.7456 54.1376C33.7456 65.3919 42.8656 74.5119 54.1199 74.5119C59.5179 74.5119 64.7041 72.3599 68.5319 68.5495C76.4876 60.5762 76.4876 47.6812 68.5319 39.7256ZM54.1199 70.7545C44.947 70.7545 37.503 63.3104 37.503 54.12C37.503 44.947 44.947 37.5029 54.1375 37.5029C58.5475 37.4853 62.7813 39.2493 65.8859 42.3716C69.0082 45.4938 70.7546 49.7098 70.7546 54.12C70.7369 63.3104 63.2929 70.7545 54.1199 70.7545Z" fill="#1DA0FA"/>
<path d="M89.4532 81.5679L77.6872 69.8019C77.3344 69.4491 76.8581 69.2551 76.3642 69.2551C75.8702 69.2551 75.394 69.4491 75.0412 69.8019L69.8021 75.0411C69.0788 75.7821 69.0788 76.9639 69.8021 77.6871L81.568 89.4531C81.9208 89.8059 82.397 90 82.891 90C83.385 90 83.8612 89.8059 84.214 89.4531L89.4532 84.214C90.194 83.4907 90.194 82.3089 89.4532 81.5679ZM82.891 85.4841L73.7711 76.3641L76.3465 73.7887L85.4664 82.9086L82.891 85.4841Z" fill="#1DA0FA"/>
<path d="M68.5381 65.871L65.8813 68.5278L72.4174 75.0639L75.0742 72.4071L68.5381 65.871Z" fill="#1DA0FA"/>
<path d="M54.3845 41.2602V45.0176C59.5531 45.0176 63.7515 49.216 63.7515 54.3846H67.5088C67.4911 47.1344 61.6169 41.2602 54.3845 41.2602Z" fill="#1DA0FA"/>
<path d="M33.7456 63.7515H18.7515V67.5089H33.7456V63.7515Z" fill="#1DA0FA"/>
<path d="M28.1183 7.49707C25.0137 7.49707 22.4911 10.0196 22.4911 13.1243C22.4911 16.2289 25.0137 18.7515 28.1183 18.7515C31.223 18.7515 33.7456 16.2289 33.7456 13.1243C33.7456 10.0196 31.2406 7.49707 28.1183 7.49707ZM28.1183 14.9941C27.0776 14.9941 26.2485 14.1474 26.2485 13.1243C26.2485 12.1011 27.0952 11.2544 28.1183 11.2544C29.1414 11.2544 29.9882 12.1011 29.9882 13.1243C30.0058 14.1651 29.1591 14.9941 28.1183 14.9941Z" fill="#FA931D"/>
<path d="M41.2602 20.6213C38.1556 20.6213 35.6331 23.1439 35.6331 26.2485C35.6331 29.3532 38.1556 31.8757 41.2602 31.8757C44.365 31.8757 46.8876 29.3532 46.8876 26.2485C46.8698 23.1439 44.365 20.6213 41.2602 20.6213ZM41.2602 28.1184C40.2196 28.1184 39.3904 27.2717 39.3904 26.2485C39.3904 25.2255 40.2372 24.3787 41.2602 24.3787C42.2834 24.3787 43.1302 25.2255 43.1302 26.2485C43.1302 27.2893 42.2834 28.1184 41.2602 28.1184Z" fill="#FA931D"/>
<path d="M24.9363 13.6682L15.5564 23.0481L18.2132 25.7049L27.5931 16.325L24.9363 13.6682Z" fill="#1DA0FA"/>
<path d="M31.3321 13.6776L28.6753 16.3344L38.0552 25.7143L40.712 23.0575L31.3321 13.6776Z" fill="#1DA0FA"/>
<path d="M54.3845 7.49707C51.2799 7.49707 48.7573 10.0196 48.7573 13.1243C48.7573 16.2289 51.2799 18.7515 54.3845 18.7515C57.4892 18.7515 60.0117 16.2289 60.0117 13.1243C60.0117 10.0196 57.4892 7.49707 54.3845 7.49707ZM54.3845 14.9941C53.3437 14.9941 52.5147 14.1474 52.5147 13.1243C52.5147 12.1011 53.3613 11.2544 54.3845 11.2544C55.4253 11.2544 56.2543 12.1011 56.2543 13.1243C56.2543 14.1651 55.4077 14.9941 54.3845 14.9941Z" fill="#FA931D"/>
<path d="M51.1807 13.6719L41.8008 23.0518L44.4576 25.7086L53.8376 16.3287L51.1807 13.6719Z" fill="#1DA0FA"/>
</g>
<defs>
<clipPath id="clip0_2_1786">
<rect width="90" height="90" fill="white"/>
</clipPath>
</defs>
</svg>
