<svg width="90" height="90" viewBox="0 0 90 90" fill="none" xmlns="http://www.w3.org/2000/svg">
<path d="M78.9497 78.9786H9.13135V81.1386H78.9497V78.9786Z" fill="#1DA0FA"/>
<path d="M5.45754 78.9786H2.35254V81.1386H5.45754V78.9786Z" fill="#1DA0FA"/>
<path d="M85.3955 78.9786H81.7577V81.1386H85.3955V78.9786Z" fill="#1DA0FA"/>
<path d="M49.941 75.897L46.3878 61.9308H43.7238V59.7708H48.0672L48.771 62.5338H65.4678L63.0774 72.684L51.363 72.7254L51.6204 73.7352L62.1774 73.719L62.181 75.879L49.941 75.8988V75.897ZM50.3424 68.7114L50.814 70.5654L51.9552 70.5618L51.6942 68.7114H50.3442H50.3424ZM53.874 68.7114L54.135 70.5546L54.9972 70.551V68.7114H53.874ZM57.1572 68.7114V70.5438L58.1238 70.5402L58.3596 68.7114H57.1572ZM60.5376 68.7114L60.3018 70.533L61.3638 70.5294L61.7922 68.7114H60.5358H60.5376ZM60.8166 66.5514H62.3016L62.739 64.6938H61.056L60.8166 66.5514ZM57.1572 66.5514H58.6386L58.878 64.6938H57.1572V66.5514ZM53.5698 66.5514H54.9972V64.6938H53.307L53.5698 66.5514ZM49.7934 66.5514H51.3882L51.1254 64.6938H49.32L49.7934 66.5514Z" fill="#1DA0FA"/>
<path d="M60.2477 78.1308C60.9346 78.1308 61.4915 77.5739 61.4915 76.887C61.4915 76.2001 60.9346 75.6432 60.2477 75.6432C59.5608 75.6432 59.0039 76.2001 59.0039 76.887C59.0039 77.5739 59.5608 78.1308 60.2477 78.1308Z" fill="#1DA0FA"/>
<path d="M52.7075 78.1308C53.3945 78.1308 53.9513 77.5739 53.9513 76.887C53.9513 76.2001 53.3945 75.6432 52.7075 75.6432C52.0206 75.6432 51.4637 76.2001 51.4637 76.887C51.4637 77.5739 52.0206 78.1308 52.7075 78.1308Z" fill="#1DA0FA"/>
<path d="M78.0749 80.5355H12.4919V42.2441H14.6519V78.3755H75.9149V42.9317H78.0749V80.5355Z" fill="#1DA0FA"/>
<path d="M68.4648 80.5356H39.3624V47.2572H68.4666V80.5356H68.4648ZM41.5206 78.3756H66.3048V49.4172H41.5224V78.3756H41.5206Z" fill="#1DA0FA"/>
<path d="M11.9304 44.0352C8.76415 44.0352 6.18835 41.4594 6.18835 38.2932V37.9872L15.9876 22.05H25.9794L17.6652 38.5614C17.5248 41.6034 15.0066 44.0334 11.9304 44.0334V44.0352ZM8.36095 38.5812C8.50675 40.4226 10.053 41.8752 11.9304 41.8752C13.905 41.8752 15.5124 40.2678 15.5124 38.2932V38.0358L22.473 24.21H17.1954L8.36095 38.5794V38.5812Z" fill="#1DA0FA"/>
<path d="M21.2525 44.0352C18.0863 44.0352 15.5105 41.4594 15.5105 38.2932V38.0358L23.5601 22.05H31.7717L26.9909 38.4552C26.9045 41.5458 24.3629 44.0352 21.2525 44.0352ZM17.6795 38.5344C17.8037 40.3974 19.3589 41.8752 21.2525 41.8752C23.1461 41.8752 24.8345 40.2678 24.8345 38.2932V38.1384L28.8935 24.21H24.8921L17.6813 38.5326L17.6795 38.5344Z" fill="#1DA0FA"/>
<path d="M30.5748 44.0352C27.4086 44.0352 24.8328 41.4594 24.8328 38.2932V38.1384L29.5218 22.05H38.9268L36.3132 38.3832C36.2646 41.508 33.7086 44.0334 30.573 44.0334L30.5748 44.0352ZM26.9964 38.439C27.072 40.347 28.6488 41.8752 30.5748 41.8752C32.5008 41.8752 34.1568 40.2678 34.1568 38.2932V38.2068L36.396 24.21H31.1436L26.9964 38.4372V38.439Z" fill="#1DA0FA"/>
<path d="M40.0877 44.0352C36.9215 44.0352 34.3457 41.4594 34.3457 38.2932V38.214L34.3565 38.1348L36.7271 22.05H45.8279V38.2932C45.8279 41.4594 43.2521 44.0352 40.0859 44.0352H40.0877ZM36.5075 38.3688C36.5471 40.3092 38.1383 41.8752 40.0877 41.8752C42.0371 41.8752 43.6697 40.2678 43.6697 38.2932V24.21H38.5937L36.5075 38.367V38.3688Z" fill="#1DA0FA"/>
<path d="M77.4629 44.0353C74.3867 44.0353 71.8685 41.6053 71.7281 38.5633L63.4139 22.0519H73.4057L83.2049 37.9891V38.2951C83.2049 41.4613 80.6291 44.0371 77.4629 44.0371V44.0353ZM66.9203 24.2119L73.8809 38.0377V38.2951C73.8809 40.2697 75.4865 41.8771 77.4629 41.8771C79.4393 41.8771 80.8865 40.4245 81.0323 38.5831L72.1979 24.2137H66.9203V24.2119Z" fill="#1DA0FA"/>
<path d="M68.1408 44.0352C65.0286 44.0352 62.487 41.5476 62.4024 38.4552L57.6216 22.05H65.8332L73.8828 38.0358V38.2932C73.8828 41.4594 71.307 44.0352 68.1408 44.0352ZM60.4998 24.2118L64.5588 38.1402V38.295C64.5588 40.2696 66.1644 41.877 68.1408 41.877C70.1172 41.877 71.5896 40.3992 71.7138 38.5362L64.503 24.2136H60.4998V24.2118Z" fill="#1DA0FA"/>
<path d="M58.8185 44.0353C55.6829 44.0353 53.1269 41.5081 53.0783 38.3851L50.4647 22.0519H59.8697L64.5587 38.1403V38.2951C64.5587 41.4613 61.9829 44.0371 58.8167 44.0371L58.8185 44.0353ZM52.9991 24.2119L55.2383 38.2087V38.2951C55.2383 40.2697 56.8439 41.8771 58.8203 41.8771C60.7967 41.8771 62.3231 40.3489 62.3987 38.4409L58.2515 24.2137H52.9991V24.2119Z" fill="#1DA0FA"/>
<path d="M49.3038 44.0353C46.1376 44.0353 43.5618 41.4595 43.5618 38.2933V22.0519H52.6626L55.044 38.2159V38.2951C55.044 41.4613 52.4682 44.0371 49.302 44.0371L49.3038 44.0353ZM45.7218 24.2119V38.2951C45.7218 40.2697 47.3292 41.8771 49.3038 41.8771C51.2784 41.8771 52.8444 40.3111 52.884 38.3707L50.7978 24.2137H45.7218V24.2119Z" fill="#1DA0FA"/>
<path d="M34.9128 80.5356H18.1476V53.8326H34.9128V80.5356ZM20.3076 78.3756H32.7528V55.9926H20.3076V78.3756Z" fill="#1DA0FA"/>
<path d="M31.3812 64.0044H29.2212V72.2988H31.3812V64.0044Z" fill="#1DA0FA"/>
<path d="M50.6285 48.3372C50.6285 50.1516 52.0991 51.6222 53.9135 51.6222C55.7279 51.6222 57.1985 50.1516 57.1985 48.3372H50.6285Z" fill="#1DA0FA"/>
<path d="M10.8432 54.7237V49.6891H10.4328L12.1842 49.2751L11.7576 47.4661L4.81323 49.1077L5.23983 50.9185L8.98383 50.0329V56.0899L13.7502 57.5821L14.3064 55.8073L10.8432 54.7237Z" fill="#1DA0FA"/>
<path d="M79.9651 54.7237V49.6891H80.3773L78.6241 49.2751L79.0525 47.4661L85.9969 49.1077L85.5685 50.9185L81.8245 50.0329V56.0899L77.0599 57.5821L76.5037 55.8073L79.9651 54.7237Z" fill="#1DA0FA"/>
</svg>
