<svg width="90" height="90" viewBox="0 0 90 90" fill="none" xmlns="http://www.w3.org/2000/svg">
<path d="M44.055 68.7726C39.015 68.7726 35.0676 62.856 35.0676 55.3032C35.0676 53.838 35.2224 52.3926 35.5284 51.0066L35.7624 49.9482H52.3494L52.5834 51.0066C52.8894 52.3926 53.0442 53.838 53.0442 55.3032C53.0442 62.856 49.0968 68.7726 44.0568 68.7726H44.055ZM37.9674 52.6482C37.8342 53.514 37.7676 54.4032 37.7676 55.3032C37.7676 61.1406 40.6476 66.0726 44.055 66.0726C47.4624 66.0726 50.3424 61.1406 50.3424 55.3032C50.3424 54.4032 50.2758 53.514 50.1426 52.6482H37.9656H37.9674Z" fill="#1DA0FA"/>
<path d="M45.405 67.4226H42.705V86.7402H45.405V67.4226Z" fill="#1DA0FA"/>
<path d="M51.1776 85.3902H36.9342V88.0902H51.1776V85.3902Z" fill="#1DA0FA"/>
<path d="M31.5648 88.0902H18.585C16.947 88.0902 15.615 86.7582 15.615 85.1202V44.8488C15.615 43.8102 15.8886 42.228 16.2378 41.2488L16.3008 41.0706L19.6092 36.4482L19.7694 36.3258C20.1438 36.0396 20.5254 35.2656 20.5254 34.794V28.1304C20.5254 27.9756 20.5092 27.8478 20.4876 27.7524C19.5786 27.4194 18.9666 26.3358 18.9666 24.9354C18.9666 23.4234 19.6794 22.2804 20.7108 22.0518C21.1068 21.3246 22.1148 20.8854 23.4954 20.8854H26.6508C28.0314 20.8854 29.0376 21.3246 29.4354 22.0518C30.4668 22.2804 31.1796 23.4216 31.1796 24.9354C31.1796 26.3358 30.5676 27.4194 29.6586 27.7524C29.637 27.8478 29.6208 27.9738 29.6208 28.1304V34.794C29.6208 35.2656 30.0024 36.0396 30.3768 36.3258L30.537 36.4482L33.8454 41.0706L33.9084 41.2488C34.2576 42.228 34.5294 43.8084 34.5294 44.8488V85.1202C34.5294 86.7582 33.1974 88.0902 31.5594 88.0902H31.5648ZM18.7254 42.3234C18.5022 43.0398 18.315 44.1666 18.315 44.8488V85.1202C18.315 85.266 18.4392 85.3902 18.585 85.3902H31.563C31.7088 85.3902 31.833 85.266 31.833 85.1202V44.8488C31.833 44.1666 31.6476 43.0398 31.4244 42.3234L28.5642 38.3274C27.6174 37.4994 26.9226 36.0234 26.9226 34.794V28.1304C26.9226 26.7048 27.5364 25.6032 28.449 25.2666C28.467 25.182 28.4814 25.0704 28.4814 24.9354C28.4814 24.8184 28.4706 24.7176 28.4562 24.6384C27.8604 24.4872 27.3798 24.1164 27.1242 23.6232C27.0036 23.6034 26.847 23.5872 26.6544 23.5872H23.499C23.3064 23.5872 23.148 23.6034 23.0292 23.6232C22.7736 24.1164 22.2912 24.489 21.6972 24.6384C21.6828 24.7194 21.672 24.8184 21.672 24.9354C21.672 25.0704 21.6864 25.182 21.7044 25.2666C22.617 25.6032 23.2308 26.7048 23.2308 28.1304V34.794C23.2308 36.0234 22.536 37.4976 21.5892 38.3274L18.729 42.3234H18.7254Z" fill="#1DA0FA"/>
<path d="M22.0482 45.1944H19.3482V82.197H22.0482V45.1944Z" fill="#1DA0FA"/>
<path d="M22.1502 40.1198L20.782 41.4881L22.6912 43.3973L24.0594 42.029L22.1502 40.1198Z" fill="#1DA0FA"/>
<path d="M67.0878 88.0902H52.6176L52.3116 87.1632C51.9354 86.0238 43.0974 59.1786 43.0974 52.1172C43.0974 46.6776 46.3374 46.3248 48.7026 46.0674C50.0436 45.9216 51.3108 45.783 52.2054 44.8884C54.1404 42.9534 52.8372 37.4418 52.0542 35.0838L48.735 33.2154V27.6138H70.9704V33.2154L67.6512 35.0838C66.8682 37.44 65.5668 42.9534 67.5 44.8884C68.3946 45.783 69.6618 45.9216 71.0028 46.0674C73.368 46.3248 76.608 46.6794 76.608 52.1172C76.608 59.1768 67.77 86.0238 67.3938 87.1632L67.0878 88.0902ZM54.5724 85.3902H65.133C66.7116 80.532 73.908 58.05 73.908 52.1172C73.908 49.9518 73.3086 49.4964 73.1124 49.347C72.603 48.9582 71.7246 48.8628 70.7094 48.7512C69.1272 48.5784 67.1562 48.3642 65.5902 46.7964C61.9236 43.1298 64.9242 34.6428 65.2788 33.687L65.4516 33.2226L68.2704 31.635V30.312H51.435V31.635L54.2538 33.2226L54.4266 33.687C54.7812 34.6428 57.7818 43.1298 54.1152 46.7964C52.5492 48.3624 50.5782 48.5784 48.996 48.7512C47.9808 48.8628 47.1024 48.9582 46.593 49.347C46.3968 49.4964 45.7974 49.9536 45.7974 52.1172C45.7974 58.05 52.9956 80.532 54.5724 85.3902Z" fill="#1DA0FA"/>
<path d="M72.0684 53.1396H69.1686V55.8396H72.0684V53.1396Z" fill="#1DA0FA"/>
<path d="M58.5108 26.9064C58.5072 26.8794 58.1832 24.093 56.6928 21.3858C54.8028 17.9496 51.9534 16.209 48.222 16.209V13.509C52.9776 13.509 56.7396 15.8112 59.103 20.1654C60.8238 23.3388 61.1802 26.4834 61.1946 26.6148L58.5108 26.9046L59.8536 26.7588L58.5108 26.9064Z" fill="#1DA0FA"/>
<path d="M54.837 16.3782L54.7758 15.057C54.7668 14.8608 54.585 10.2132 57.5766 7.40878C59.2992 5.79418 61.6518 5.14078 64.5678 5.46658L65.6586 5.58898L65.7612 6.68158C65.7756 6.83818 66.0942 10.539 63.6012 13.3506C61.9146 15.2532 59.409 16.2612 56.1564 16.344L54.8352 16.3782H54.837ZM63.0324 8.08918C61.5276 8.11438 60.3198 8.54458 59.4324 9.37078C58.1814 10.5354 57.726 12.294 57.5622 13.5216C59.2992 13.2624 60.642 12.6108 61.5672 11.5776C62.5752 10.4508 62.9208 9.05398 63.0324 8.08738V8.08918Z" fill="#1DA0FA"/>
<path d="M33.4062 13.4154C33.4062 13.4154 36.8676 18.153 41.5746 18.3006C46.2816 18.4464 46.3896 14.553 46.3896 14.553C46.3896 14.553 47.3634 9.80823 42.7104 10.044C38.0574 10.2798 33.4062 13.4172 33.4062 13.4172V13.4154Z" fill="#FC951D"/>
<path d="M37.9764 7.31522L38.9502 9.15482C38.9502 9.15482 43.4142 7.63922 44.9424 9.15482C44.9424 9.15482 45.8208 6.39542 37.9764 7.31522Z" fill="#FC951D"/>
<path d="M39.2436 21.5514L39.8466 19.5588C39.8466 19.5588 44.5176 20.1888 45.7272 18.4086C45.7272 18.4086 47.1186 20.9484 39.2436 21.5514Z" fill="#FC951D"/>
</svg>
