<svg width="90" height="90" viewBox="0 0 90 90" fill="none" xmlns="http://www.w3.org/2000/svg">
<g clip-path="url(#clip0_2_1151)">
<path d="M45.0009 28.3421C52.8147 28.3421 59.1718 21.9851 59.1718 14.171C59.1718 6.35706 52.8147 0 45.0009 0C37.1869 0 30.8297 6.35706 30.8297 14.171C30.8297 21.9851 37.1869 28.3421 45.0009 28.3421ZM45.0009 2.87235C51.2309 2.87235 56.2995 7.94088 56.2995 14.171C56.2995 20.4011 51.2309 25.4698 45.0009 25.4698C38.7706 25.4698 33.7021 20.4011 33.7021 14.171C33.7021 7.94088 38.7706 2.87235 45.0009 2.87235Z" fill="#1DA0FA"/>
<path d="M45 34.0873C56.4534 34.0873 65.8575 43.0279 66.5989 54.2968H33.4073C32.6142 54.2968 31.9711 54.9396 31.9711 55.7329C31.9711 56.5263 32.6142 57.1691 33.4073 57.1691H68.0823C68.8754 57.1691 69.5185 56.5263 69.5185 55.7329C69.5185 42.2136 58.5196 31.2149 45 31.2149C31.4806 31.2149 20.4818 42.2136 20.4818 55.7329C20.4818 56.5263 21.1248 57.1691 21.918 57.1691H27.6626C28.4557 57.1691 29.0988 56.5263 29.0988 55.7329C29.0988 54.9396 28.4557 54.2968 27.6626 54.2968H23.4013C24.1427 43.0279 33.547 34.0873 45 34.0873Z" fill="#1DA0FA"/>
<path d="M26.8868 72.3283L19.0084 71.006L15.3163 63.9218C15.0689 63.4471 14.5781 63.1494 14.0427 63.1494C13.5073 63.1494 13.0165 63.4471 12.7691 63.9218L9.07704 71.006L1.19858 72.3283C0.670646 72.4169 0.235775 72.7916 0.0703274 73.3007C-0.0951194 73.8099 0.0364339 74.3688 0.41137 74.7506L6.00804 80.4512L4.83095 88.3526C4.75204 88.8822 4.97419 89.4116 5.40733 89.7262C5.8401 90.041 6.41246 90.0884 6.89157 89.8499L14.0425 86.2889L21.1935 89.8499C21.3961 89.9505 21.6154 90.0005 21.8335 90.0005C22.1316 90.0005 22.4279 89.9078 22.6778 89.726C23.1109 89.4114 23.333 88.8822 23.2542 88.3526L22.077 80.451L27.6737 74.7504C28.0487 74.3686 28.1801 73.8097 28.0148 73.3007C27.8496 72.7916 27.4149 72.4169 26.8868 72.3283ZM19.5266 78.9494C19.2112 79.2707 19.0645 79.7216 19.131 80.1671L20.0074 86.0501L14.6831 83.3987C14.28 83.1978 13.8059 83.1978 13.4026 83.3987L8.07804 86.0501L8.95448 80.1671C9.02092 79.7216 8.87443 79.2704 8.55887 78.9494L4.39166 74.7047L10.2577 73.7201C10.702 73.6454 11.0856 73.3669 11.2937 72.9675L14.0427 67.6926L16.7917 72.9675C16.9999 73.3669 17.3835 73.6454 17.8277 73.7201L23.6938 74.7047L19.5266 78.9494Z" fill="#1DA0FA"/>
<path d="M57.8442 72.3283L49.9658 71.006L46.2735 63.9218C46.0263 63.4471 45.5355 63.1494 45 63.1494C44.4645 63.1494 43.9738 63.4471 43.7265 63.9218L40.0343 71.006L32.1559 72.3283C31.6281 72.4169 31.1931 72.7916 31.0275 73.3007C30.8622 73.8099 30.9938 74.3688 31.3686 74.7506L36.9653 80.4512L35.7885 88.3526C35.7096 88.8822 35.9316 89.4116 36.3648 89.7262C36.7977 90.041 37.3701 90.0884 37.8491 89.8499L45 86.2889L52.151 89.8499C52.3535 89.9505 52.5729 90.0005 52.7909 90.0005C53.089 90.0005 53.3853 89.9078 53.6353 89.726C54.0684 89.4114 54.2905 88.8822 54.2115 88.3526L53.0348 80.451L58.6314 74.7504C59.0063 74.3686 59.1379 73.8097 58.9723 73.3007C58.8069 72.7916 58.372 72.4169 57.8442 72.3283ZM50.484 78.9494C50.1685 79.2707 50.0218 79.7216 50.0882 80.1671L50.9646 86.0501L45.6402 83.3987C45.4386 83.2984 45.2192 83.2482 45 83.2482C44.7807 83.2482 44.5613 83.2984 44.3599 83.3987L39.0355 86.0501L39.9119 80.1671C39.9783 79.7216 39.8318 79.2704 39.5161 78.9494L35.3489 74.7047L41.2151 73.7201C41.6592 73.6454 42.0429 73.3669 42.251 72.9675L45 67.6928L47.7491 72.9677C47.9572 73.3671 48.3408 73.6457 48.785 73.7204L54.6512 74.705L50.484 78.9494Z" fill="#1DA0FA"/>
<path d="M89.9298 73.3007C89.7642 72.7916 89.3295 72.4169 88.8014 72.3283L80.9231 71.006L77.2308 63.9218C76.9835 63.4471 76.4928 63.1494 75.9573 63.1494C75.4218 63.1494 74.9311 63.4471 74.6838 63.9218L70.9916 71.006L63.1132 72.3283C62.5851 72.4169 62.1504 72.7916 61.9848 73.3007C61.8194 73.8099 61.9511 74.3688 62.3259 74.7506L67.9226 80.4512L66.7456 88.3526C66.6666 88.8822 66.8887 89.4116 67.3218 89.7262C67.7547 90.041 68.3271 90.0884 68.8061 89.8499L75.9571 86.2889L83.108 89.8499C83.3108 89.9505 83.5299 90.0005 83.7482 90.0005C84.0463 90.0005 84.3424 89.9078 84.5924 89.726C85.0255 89.4114 85.2476 88.8822 85.1688 88.3526L83.9916 80.451L89.5883 74.7504C89.9636 74.3688 90.0952 73.8099 89.9298 73.3007ZM81.4415 78.9494C81.126 79.2707 80.9793 79.7216 81.0457 80.1671L81.9223 86.0501L76.5977 83.3987C76.3961 83.2984 76.1767 83.2482 75.9575 83.2482C75.7379 83.2482 75.5188 83.2984 75.3174 83.3987L69.993 86.0501L70.8694 80.1671C70.936 79.7216 70.7893 79.2704 70.4738 78.9494L66.3066 74.7047L72.1728 73.7201C72.617 73.6454 73.0006 73.3669 73.2087 72.9675L75.9578 67.6926L78.7068 72.9675C78.9149 73.3669 79.2983 73.6454 79.7427 73.7201L85.6087 74.7047L81.4415 78.9494Z" fill="#1DA0FA"/>
<path d="M45.0002 20.6826C46.8828 20.6826 48.6738 19.8645 49.914 18.4381C50.4342 17.8395 50.371 16.9324 49.7725 16.412C49.1735 15.8915 48.2666 15.9549 47.7464 16.5535C47.052 17.3522 46.051 17.8102 45.0002 17.8102C43.9495 17.8102 42.9487 17.3522 42.2543 16.5535C41.7339 15.9549 40.8267 15.8917 40.2282 16.412C39.6295 16.9324 39.5663 17.8395 40.0867 18.4381C41.3267 19.8643 43.1177 20.6826 45.0002 20.6826Z" fill="#FC951D"/>
</g>
<defs>
<clipPath id="clip0_2_1151">
<rect width="90" height="90" fill="white"/>
</clipPath>
</defs>
</svg>
