<svg width="90" height="90" viewBox="0 0 90 90" fill="none" xmlns="http://www.w3.org/2000/svg">
<g clip-path="url(#clip0_2_2289)">
<path d="M3 35.9999H27C28.6568 35.9999 30 34.6567 30 32.9999V31.4999C29.9934 25.7035 25.2964 21.0065 19.5 21H10.5C4.70362 21.0065 0.00659179 25.7035 0 31.4999V32.9999C0 34.6567 1.34326 35.9999 3 35.9999ZM27 31.4999V32.9999H16.6319L20.4477 24.0958C24.1831 24.566 26.9883 27.736 27 31.4999ZM17.2259 23.9999L15 29.1913L12.7742 23.9999H17.2259ZM3 31.4999C3.01172 27.736 5.81689 24.566 9.55225 24.0958L13.3682 32.9999H3V31.4999Z" fill="#1DA2FC"/>
<path d="M21.0002 28.5H24.0002V31.5001H21.0002V28.5Z" fill="#FC951D"/>
<path d="M22.4997 13.5V10.5C23.3281 10.5 23.9998 9.82837 23.9998 9V7.5C23.9946 3.35962 20.6402 0.00512697 16.4998 0H13.4997C9.35938 0.00512697 6.00489 3.35962 5.99976 7.5V9C5.99976 9.82837 6.67139 10.5 7.49976 10.5V13.5C7.49976 17.6418 10.8579 21 14.9998 21C19.1416 21 22.4997 17.6418 22.4997 13.5ZM13.4997 3H16.4998C18.9848 3 20.9998 5.01489 20.9998 7.5H15.3536L12.6699 6.15747C12.0928 5.8689 11.3955 5.98315 10.9392 6.43945L9.87867 7.5H8.99976C8.99976 5.01489 11.0147 3 13.4997 3ZM14.9998 18C12.5146 18 10.4998 15.9852 10.4998 13.5V10.5C10.8975 10.5 11.2791 10.3418 11.5603 10.0605L12.2949 9.3252L14.3296 10.3425C14.5375 10.4465 14.7669 10.5 14.9998 10.5H19.4998V13.5C19.4998 15.9852 17.4849 18 14.9998 18Z" fill="#1DA2FC"/>
<path d="M79.4998 21H70.4998C64.7034 21.0065 60.0063 25.7035 59.9998 31.4999V32.9999C59.9998 34.6567 61.3431 35.9999 62.9997 35.9999H86.9998C88.6565 35.9999 89.9997 34.6567 89.9997 32.9999V31.4999C89.9932 25.7035 85.2962 21.0065 79.4998 21ZM77.2256 23.9999L74.9998 29.1913L72.774 23.9999H77.2256ZM62.9997 31.4999C63.0115 27.736 65.8167 24.566 69.552 24.0958L73.368 32.9999H62.9997V31.4999ZM76.6316 32.9999L80.4475 24.0958C84.1829 24.566 86.9881 27.736 86.9998 31.4999V32.9999H76.6316Z" fill="#1DA2FC"/>
<path d="M81 28.5H84V31.5001H81V28.5Z" fill="#FC951D"/>
<path d="M82.5002 13.5V10.5C83.3286 10.5 84.0002 9.82837 84.0002 9V7.5C83.9951 3.35962 80.6407 0.00512697 76.5003 0H73.5002C69.3598 0.00512697 66.0054 3.35962 66.0002 7.5V9C66.0002 9.82837 66.6719 10.5 67.5003 10.5V13.5C67.5003 17.6418 70.8584 21 75.0002 21C79.142 21 82.5002 17.6418 82.5002 13.5ZM73.5002 3H76.5003C78.9853 3 81.0003 5.01489 81.0003 7.5H75.3539L72.6704 6.15747C72.0932 5.8689 71.396 5.98315 70.9397 6.43945L69.8791 7.5H69.0002C69.0002 5.01489 71.0152 3 73.5002 3ZM75.0002 18C72.5151 18 70.5002 15.9852 70.5002 13.5V10.5C70.8979 10.5 71.2795 10.3418 71.5608 10.0605L72.2954 9.3252L74.3301 10.3425C74.538 10.4465 74.7673 10.5 75.0002 10.5H79.5002V13.5C79.5002 15.9852 77.4854 18 75.0002 18Z" fill="#1DA2FC"/>
<path d="M19.5 75H10.5C4.70362 75.0065 0.00659179 79.7035 0 85.4999V86.9999C0 88.6567 1.34326 89.9999 3 89.9999H27C28.6568 89.9999 30 88.6567 30 86.9999V85.4999C29.9934 79.7035 25.2964 75.0065 19.5 75ZM17.2259 77.9999L15 83.1913L12.7742 77.9999H17.2259ZM3 85.4999C3.01172 81.736 5.81689 78.566 9.55225 78.0958L13.3682 86.9999H3V85.4999ZM27 86.9999H16.6319L20.4477 78.0958C24.1831 78.566 26.9883 81.736 27 85.4999V86.9999Z" fill="#1DA2FC"/>
<path d="M21.0002 82.5001H24.0002V85.5001H21.0002V82.5001Z" fill="#FC951D"/>
<path d="M22.4997 67.5V64.5C23.3281 64.5 23.9998 63.8284 23.9998 63V61.5C23.9946 57.3596 20.6402 54.0051 16.4998 54H13.4997C9.35938 54.0051 6.00489 57.3596 5.99976 61.5V63C5.99976 63.8284 6.67139 64.5 7.49976 64.5V67.5C7.49976 71.6418 10.8579 75 14.9998 75C19.1416 75 22.4997 71.6418 22.4997 67.5ZM13.4997 57H16.4998C18.9848 57 20.9998 59.0149 20.9998 61.5H15.3536L12.6699 60.1501C12.0928 59.8616 11.3955 59.9751 10.9392 60.4322L9.87867 61.5H8.99976C8.99976 59.0149 11.0147 57 13.4997 57ZM14.9998 72C12.5146 72 10.4998 69.9852 10.4998 67.5V64.5C10.8975 64.5 11.2791 64.3418 11.5603 64.0606L12.2949 63.3252L14.3296 64.3425C14.5375 64.4466 14.7669 64.5 14.9998 64.5H19.4998V67.5C19.4998 69.9852 17.4849 72 14.9998 72Z" fill="#1DA2FC"/>
<path d="M79.4998 75H70.4998C64.7034 75.0065 60.0063 79.7035 59.9998 85.4999V86.9999C59.9998 88.6567 61.3431 89.9999 62.9997 89.9999H86.9998C88.6565 89.9999 89.9997 88.6567 89.9997 86.9999V85.4999C89.9932 79.7035 85.2962 75.0065 79.4998 75ZM77.2256 77.9999L74.9998 83.1913L72.774 77.9999H77.2256ZM62.9997 85.4999C63.0115 81.736 65.8167 78.566 69.552 78.0958L73.368 86.9999H62.9997V85.4999ZM86.9998 86.9999H76.6316L80.4475 78.0958C84.1829 78.566 86.9881 81.736 86.9998 85.4999V86.9999Z" fill="#1DA2FC"/>
<path d="M81 82.5001H84V85.5001H81V82.5001Z" fill="#FC951D"/>
<path d="M82.5002 67.5V64.5C83.3286 64.5 84.0002 63.8284 84.0002 63V61.5C83.9951 57.3596 80.6407 54.0051 76.5003 54H73.5002C69.3598 54.0051 66.0054 57.3596 66.0002 61.5V63C66.0002 63.8284 66.6719 64.5 67.5003 64.5V67.5C67.5003 71.6418 70.8584 75 75.0002 75C79.142 75 82.5002 71.6418 82.5002 67.5ZM73.5002 57H76.5003C78.9853 57 81.0003 59.0149 81.0003 61.5H75.3539L72.6704 60.1501C72.0932 59.8616 71.396 59.9751 70.9397 60.4322L69.8791 61.5H69.0002C69.0002 59.0149 71.0152 57 73.5002 57ZM75.0002 72C72.5151 72 70.5002 69.9852 70.5002 67.5V64.5C70.8979 64.5 71.2795 64.3418 71.5608 64.0606L72.2954 63.3252L74.3301 64.3425C74.538 64.4466 74.7673 64.5 75.0002 64.5H79.5002V67.5C79.5002 69.9852 77.4854 72 75.0002 72Z" fill="#1DA2FC"/>
<path d="M57.087 50.0055L60.2473 49.4789C60.9702 49.358 61.4998 48.7325 61.4998 48.0001V42.0002C61.4998 41.2677 60.9702 40.6422 60.2473 40.5213L57.0854 39.9947L58.9495 37.3873C59.3764 36.7903 59.3083 35.9722 58.7891 35.4545L54.5476 31.2122C54.029 30.6929 53.2109 30.6248 52.614 31.0519L50.0065 32.913L49.48 29.7526C49.3592 29.0296 48.7329 28.4994 47.9998 28.5H41.9998C41.2673 28.5 40.6419 29.0296 40.5211 29.7526L39.9944 32.9144L37.387 31.0504C36.79 30.6234 35.9719 30.6915 35.4541 31.2108L31.212 35.4523C30.6927 35.9708 30.6245 36.7889 31.0515 37.3859L32.9126 39.9933L29.7522 40.5199C29.0293 40.6408 28.499 41.2669 28.4998 42.0002V48.0001C28.4998 48.7325 29.0293 49.358 29.7522 49.4789L32.9141 50.0055L31.0501 52.613C30.6231 53.2098 30.6911 54.0279 31.2104 54.5458L35.4519 58.788C35.9705 59.3073 36.7886 59.3753 37.3855 58.9483L39.9929 57.0872L40.5195 60.2477C40.6404 60.9706 41.2666 61.5008 41.9998 61.5001H47.9998C48.7321 61.5001 49.3576 60.9706 49.4785 60.2477L50.0051 57.0858L52.6126 58.9499C53.2095 59.3768 54.0276 59.3087 54.5454 58.7894L58.7876 54.548C59.3069 54.0294 59.375 53.2113 58.948 52.6144L57.087 50.0055ZM54.645 51.7501L55.7686 53.3233L53.323 55.7689L51.7497 54.6454C50.9074 54.0433 49.8139 53.9189 48.8574 54.3158C47.9009 54.712 47.2168 55.5741 47.0476 56.5951L46.729 58.5001H43.2706L42.952 56.5937C42.7828 55.5727 42.0986 54.7106 41.1421 54.3143C40.1856 53.9173 39.092 54.0419 38.2497 54.6439L36.6765 55.7675L34.231 53.3219L35.3545 51.7501C35.9565 50.9078 36.0811 49.8143 35.6841 48.8578C35.2878 47.9012 34.4257 47.2172 33.4048 47.048L31.4997 46.7294V43.2708L33.4063 42.9522C34.4273 42.783 35.2894 42.099 35.6856 41.1425C36.0825 40.1859 35.9581 39.0924 35.356 38.2501L34.2324 36.6769L36.6779 34.2314L38.2513 35.3548C39.0943 35.9569 40.187 36.0814 41.1436 35.6845C42.1 35.2882 42.7842 34.4261 42.9541 33.4052L43.2706 31.5001H46.729L47.0476 33.4066C47.2168 34.4276 47.9009 35.2896 48.8574 35.6859C49.8139 36.0829 50.9074 35.9583 51.7497 35.3564L53.323 34.2328L55.7686 36.6783L54.645 38.2501C54.0429 39.0924 53.9185 40.1859 54.3155 41.1425C54.7116 42.099 55.5737 42.783 56.5947 42.9522L58.4997 43.2708V46.7294L56.5933 47.048C55.5723 47.2172 54.7102 47.9012 54.3139 48.8578C53.917 49.8143 54.0415 50.9078 54.6436 51.7501H54.645Z" fill="#FC951D"/>
<path d="M44.9997 37.5C40.8579 37.5 37.4998 40.8582 37.4998 45.0001C37.4998 49.1419 40.8579 52.5001 44.9997 52.5001C49.1416 52.5001 52.4998 49.1419 52.4998 45.0001C52.4947 40.8597 49.1401 37.5052 44.9997 37.5ZM44.9997 49.5001C42.5147 49.5001 40.4997 47.4851 40.4997 45.0001C40.4997 42.515 42.5147 40.5001 44.9997 40.5001C47.4849 40.5001 49.4997 42.515 49.4997 45.0001C49.4997 47.4851 47.4849 49.5001 44.9997 49.5001Z" fill="#FC951D"/>
<path d="M13.5 39H16.5V50.9999H13.5V39Z" fill="#1DA2FC" fill-opacity="0.6"/>
<path d="M32.9998 73.5H56.9998V76.5001H32.9998V73.5Z" fill="#1DA2FC" fill-opacity="0.6"/>
<path d="M73.4998 39H76.4997V50.9999H73.4998V39Z" fill="#1DA2FC" fill-opacity="0.6"/>
<path d="M32.9998 13.5H56.9998V16.5H32.9998V13.5Z" fill="#1DA2FC" fill-opacity="0.6"/>
</g>
<defs>
<clipPath id="clip0_2_2289">
<rect width="90" height="90" fill="white"/>
</clipPath>
</defs>
</svg>
