<svg width="90" height="90" viewBox="0 0 90 90" fill="none" xmlns="http://www.w3.org/2000/svg">
<g clip-path="url(#clip0_158_1463)">
<path d="M77.4126 45.1206C79.0506 42.6978 79.9146 39.8646 79.9146 36.9288C79.9146 28.8504 73.3428 22.2768 65.2626 22.2768C63.9108 22.2768 62.5698 22.4604 61.281 22.824L61.695 24.2928C62.8506 23.967 64.0512 23.8014 65.2626 23.8014C72.5004 23.8014 78.3882 29.6892 78.3882 36.927C78.3882 39.5568 77.6124 42.0948 76.1472 44.2656L77.4126 45.1206Z" fill="#FC951D"/>
<path d="M65.2643 21.042C74.0249 21.042 81.1511 28.1682 81.1511 36.9288C81.1511 40.2786 80.1215 43.4808 78.1739 46.1916L78.8813 46.701C80.937 43.8408 82.0241 40.4622 82.0241 36.9288C82.0241 27.6876 74.5055 20.169 65.2643 20.169C63.5651 20.169 61.8876 20.4228 60.2802 20.9232L60.5393 21.7566C62.0621 21.2832 63.6533 21.042 65.2643 21.042Z" fill="#FC951D"/>
<path d="M2.961 81.9288H0V83.8908H2.961V81.9288Z" fill="#1DA0FA"/>
<path d="M3.14095 84.0708H-0.180054V81.7488H3.14095V84.0708ZM0.179946 83.7108H2.78095V82.1088H0.179946V83.7108Z" fill="#1DA0FA"/>
<path d="M90.0001 81.9288H87.3667V83.8908H90.0001V81.9288Z" fill="#1DA0FA"/>
<path d="M90.18 84.0708H87.1866V81.7488H90.18V84.0708ZM87.5466 83.7108H89.82V82.1088H87.5466V83.7108Z" fill="#1DA0FA"/>
<path d="M79.2378 52.2072L74.0898 50.8698V45.279H72.1278V50.3604L69.4134 49.6548V38.1636H67.4514V49.1436L63.7758 48.1878V25.8786L36.621 13.986L28.9224 26.0892V35.37L20.6712 39.8142V37.2492H18.7092V40.8708L16.5384 42.0408V34.3152H14.5764V43.0974L12.618 44.1522V71.6436L12.6432 81.9288H5.1012V83.8908H84.7962V81.9288H84.0564V74.6892H85.7538V72.7272H79.236V52.2054L79.2378 52.2072ZM30.8844 26.6598L37.3752 16.4574L61.812 27.1602V47.6766L49.4316 44.46V44.2332H48.5604L47.6874 44.0064V44.2332H38.349V49.1166H47.6874V51.2496H38.349V56.133H47.6874V58.266H38.349V63.1494H47.6874V65.2824H38.349V70.1658H47.6874V72.2988H38.349V77.1822H47.6874V81.864L33.6906 81.8028L30.8844 81.7902V26.6598ZM47.6874 47.592H39.8754V45.7614H47.6874V47.592ZM47.6874 54.6084H39.8754V52.7778H47.6874V54.6084ZM47.6874 61.6248H39.8754V59.7942H47.6874V61.6248ZM47.6874 68.6412H39.8754V66.8106H47.6874V68.6412ZM47.6874 75.6576H39.8754V73.827H47.6874V75.6576ZM14.607 81.9324L14.598 78.3756H24.7932V76.8492H14.5944L14.5872 73.6992H24.7932V72.1728H14.5836V69.0228H24.7932V67.4964H14.5818V64.3446H24.7932V62.8182H14.5818V59.6682H24.7932V58.1418H14.5818V54.9918H24.7932V53.4654H14.5818V50.3154H24.7932V48.789H14.5818V45.3294L28.9242 37.6038V81.9342H14.6052L14.607 81.9324ZM73.872 81.9324V80.8128H72.3456V81.9324H69.1362C69.2082 81.5904 69.2514 81.1944 69.2514 80.7714C69.2514 79.5078 68.8824 78.4746 68.4324 78.4746C67.9824 78.4746 67.6134 79.5078 67.6134 80.7714C67.6134 81.1944 67.6548 81.5922 67.7286 81.9324H59.895C59.8842 81.315 59.5224 80.8128 59.0778 80.8128C58.6332 80.8128 58.2732 81.315 58.2606 81.9324H55.1034C55.1754 81.5904 55.2168 81.1944 55.2168 80.7714C55.2168 79.5078 54.8478 78.4746 54.3978 78.4746C53.9478 78.4746 53.5788 79.5078 53.5788 80.7714C53.5788 81.1944 53.6202 81.5922 53.694 81.9324H49.6476V46.5498L77.274 53.7282V81.9342H73.8702L73.872 81.9324ZM82.0962 74.6928V81.9324H79.2378V74.6928H82.0962Z" fill="#1DA0FA"/>
<path d="M84.9761 84.0708H4.92114V81.7488H12.4631L12.4379 71.6436V44.046L14.3963 42.9912V34.1352H16.7183V41.7402L18.5291 40.7646V37.071H20.8511V39.5136L28.7423 35.2638V26.0388L36.5525 13.761L63.9539 25.7634V48.051L67.2695 48.9132V37.9854H69.5915V49.5162L71.9459 50.1282V45.099H74.2679V50.7312L79.4159 52.0686V72.549H85.9337V74.871H84.2364V81.7506H84.9761V84.0726V84.0708ZM5.27934 83.7108H84.6161V82.1088H83.8764V74.5092H85.5737V72.9072H79.0559V52.344L73.9079 51.0066V45.4554H72.3059V50.589L69.2315 49.7898V38.34H67.6295V49.374L63.5939 48.3246V25.9938L36.6893 14.2128L29.1005 26.1414V35.478L20.4893 40.1166V37.431H18.8873V40.9806L16.3565 42.3432V34.4952H14.7545V43.2054L12.7961 44.2602V71.6436L12.8213 82.1088H5.28114V83.7108H5.27934ZM82.2725 82.1088H79.0541V74.5092H82.2725V82.1088ZM79.4141 81.7488H81.9125V74.8692H79.4141V81.7488ZM77.4521 82.1088H73.6883V80.9892H72.5219V82.1088H68.9093L68.9543 81.891C69.0263 81.549 69.0641 81.1602 69.0641 80.766C69.0641 79.4736 68.6861 78.6492 68.4251 78.6492C68.1642 78.6492 67.7861 79.4736 67.7861 80.766C67.7861 81.1602 67.8239 81.549 67.8959 81.891L67.9409 82.1088H59.7077L59.7041 81.9324C59.6951 81.4212 59.4035 80.9892 59.0669 80.9892C58.7303 80.9892 58.4405 81.4212 58.4297 81.9324L58.4261 82.1088H54.8711L54.9161 81.891C54.9881 81.549 55.0259 81.1602 55.0259 80.766C55.0259 79.4736 54.6479 78.6492 54.3869 78.6492C54.1259 78.6492 53.7479 79.4736 53.7479 80.766C53.7479 81.1602 53.7857 81.549 53.8577 81.891L53.9027 82.1088H49.4549V46.3122L77.4413 53.5842V82.1088H77.4521ZM74.0483 81.7488H77.0921V53.8632L49.8257 46.7784V81.7488H53.4743C53.4239 81.4392 53.3969 81.1044 53.3969 80.7678C53.3969 79.5672 53.7461 78.291 54.3959 78.291C55.0457 78.291 55.3949 79.5672 55.3949 80.7678C55.3949 81.1044 55.3679 81.441 55.3175 81.7488H58.0895C58.1633 81.108 58.5737 80.6292 59.0741 80.6292C59.5745 80.6292 59.9849 81.108 60.0587 81.7488H67.5071C67.4567 81.4392 67.4297 81.1044 67.4297 80.7678C67.4297 79.5672 67.7789 78.291 68.4287 78.291C69.0785 78.291 69.4277 79.5672 69.4277 80.7678C69.4277 81.1062 69.4007 81.441 69.3503 81.7488H72.1637V80.6292H74.0501V81.7488H74.0483ZM29.1005 82.1088H14.4251L14.4143 78.192H24.6095V77.0256H14.4107L14.4017 73.5156H24.6095V72.3492H14.3999V68.8392H24.6095V67.6728H14.3981V64.161H24.6095V62.9946H14.3981V59.4846H24.6095V58.3182H14.3981V54.8082H24.6095V53.6418H14.3981V50.1318H24.6095V48.9654H14.3981V45.2178L29.1005 37.2978V82.1106V82.1088ZM14.7833 81.7488H28.7405V37.9008L14.7581 45.432V48.6036H24.9695V50.49H14.7581V53.28H24.9695V55.1664H14.7581V57.9564H24.9695V59.8428H14.7581V62.6328H24.9695V64.5192H14.7581V67.311H24.9695V69.1974H14.7581V71.9874H24.9695V73.8738H14.7635L14.7707 76.6638H24.9695V78.5502H14.7761L14.7833 81.747V81.7488ZM47.8655 82.0422L30.7025 81.9666V26.6076L37.3031 16.2306L61.9883 27.0432V47.9106L49.2479 44.6004V44.415L48.5117 44.4096L47.8637 44.2404V44.415H38.5253V48.9384H47.8637V51.4314H38.5253V55.9548H47.8637V58.4478H38.5253V62.9712H47.8637V65.4642H38.5253V69.9876H47.8637V72.4806H38.5253V77.004H47.8637V82.0458L47.8655 82.0422ZM31.0625 81.6084L47.5055 81.6804V77.3604H38.1671V72.117H47.5055V70.344H38.1671V65.1006H47.5055V63.3276H38.1671V58.0842H47.5055V56.3112H38.1671V51.0678H47.5055V49.2948H38.1671V44.0514H47.5055V43.7724L48.5819 44.0514H49.6097V44.3178L61.6301 47.4408V27.2736L37.4417 16.6788L31.0625 26.7066V81.6084ZM47.8655 75.834H39.6935V73.6434H47.8655V75.834ZM40.0535 75.474H47.5055V74.0034H40.0535V75.474ZM47.8655 68.8176H39.6935V66.627H47.8655V68.8176ZM40.0535 68.4576H47.5055V66.987H40.0535V68.4576ZM47.8655 61.8012H39.6935V59.6106H47.8655V61.8012ZM40.0535 61.4412H47.5055V59.9706H40.0535V61.4412ZM47.8655 54.7848H39.6935V52.5942H47.8655V54.7848ZM40.0535 54.4248H47.5055V52.9542H40.0535V54.4248ZM47.8655 47.7684H39.6935V45.5778H47.8655V47.7684ZM40.0535 47.4084H47.5055V45.9378H40.0535V47.4084Z" fill="#1DA0FA"/>
<path d="M54.3997 50.409C53.9497 50.409 53.5807 51.4422 53.5807 52.7058C53.5807 53.9694 53.9497 55.0026 54.3997 55.0026C54.8497 55.0026 55.2187 53.9694 55.2187 52.7058C55.2187 51.4422 54.8497 50.409 54.3997 50.409Z" fill="#1DA0FA"/>
<path d="M54.3996 55.1808C53.7516 55.1808 53.4006 53.9046 53.4006 52.704C53.4006 51.5034 53.7498 50.2272 54.3996 50.2272C55.0494 50.2272 55.3986 51.5034 55.3986 52.704C55.3986 53.9046 55.0494 55.1808 54.3996 55.1808ZM54.3996 50.589C54.1386 50.589 53.7606 51.4134 53.7606 52.7058C53.7606 53.9982 54.1386 54.8226 54.3996 54.8226C54.6606 54.8226 55.0386 53.9982 55.0386 52.7058C55.0386 51.4134 54.6606 50.589 54.3996 50.589Z" fill="#1DA0FA"/>
<path d="M59.0761 52.7473C58.6261 52.7473 58.2571 53.7804 58.2571 55.044C58.2571 56.3076 58.6261 57.3409 59.0761 57.3409C59.5261 57.3409 59.8951 56.3076 59.8951 55.044C59.8951 53.7804 59.5261 52.7473 59.0761 52.7473Z" fill="#1DA0FA"/>
<path d="M59.076 57.519C58.428 57.519 58.077 56.2428 58.077 55.0422C58.077 53.8416 58.4262 52.5654 59.076 52.5654C59.7258 52.5654 60.075 53.8416 60.075 55.0422C60.075 56.2428 59.7258 57.519 59.076 57.519ZM59.076 52.9272C58.815 52.9272 58.437 53.7516 58.437 55.044C58.437 56.3364 58.815 57.1608 59.076 57.1608C59.337 57.1608 59.715 56.3364 59.715 55.044C59.715 53.7516 59.337 52.9272 59.076 52.9272Z" fill="#1DA0FA"/>
<path d="M63.7525 55.0854C63.3025 55.0854 62.9335 56.1187 62.9335 57.3823C62.9335 58.6459 63.3025 59.679 63.7525 59.679C64.2025 59.679 64.5715 58.6459 64.5715 57.3823C64.5715 56.1187 64.2025 55.0854 63.7525 55.0854Z" fill="#1DA0FA"/>
<path d="M63.7524 59.8572C63.1044 59.8572 62.7534 58.581 62.7534 57.3804C62.7534 56.1798 63.1026 54.9036 63.7524 54.9036C64.4022 54.9036 64.7514 56.1798 64.7514 57.3804C64.7514 58.581 64.4022 59.8572 63.7524 59.8572ZM63.7524 55.2654C63.4914 55.2654 63.1134 56.0898 63.1134 57.3822C63.1134 58.6746 63.4914 59.499 63.7524 59.499C64.0134 59.499 64.3914 58.6746 64.3914 57.3822C64.3914 56.0898 64.0134 55.2654 63.7524 55.2654Z" fill="#1DA0FA"/>
<path d="M68.4307 57.4236C67.9807 57.4236 67.6117 58.4568 67.6117 59.7204C67.6117 60.984 67.9807 62.0172 68.4307 62.0172C68.8807 62.0172 69.2497 60.984 69.2497 59.7204C69.2497 58.4568 68.8807 57.4236 68.4307 57.4236Z" fill="#1DA0FA"/>
<path d="M68.4306 62.1972C67.7826 62.1972 67.4316 60.921 67.4316 59.7204C67.4316 58.5198 67.7808 57.2436 68.4306 57.2436C69.0804 57.2436 69.4296 58.5198 69.4296 59.7204C69.4296 60.921 69.0804 62.1972 68.4306 62.1972ZM68.4306 57.6054C68.1696 57.6054 67.7916 58.4298 67.7916 59.7222C67.7916 61.0146 68.1696 61.839 68.4306 61.839C68.6916 61.839 69.0696 61.0146 69.0696 59.7222C69.0696 58.4298 68.6916 57.6054 68.4306 57.6054Z" fill="#1DA0FA"/>
<path d="M73.1071 64.3554C73.5594 64.3554 73.9261 63.3271 73.9261 62.0586C73.9261 60.7901 73.5594 59.7618 73.1071 59.7618C72.6548 59.7618 72.2881 60.7901 72.2881 62.0586C72.2881 63.3271 72.6548 64.3554 73.1071 64.3554Z" fill="#1DA0FA"/>
<path d="M73.107 64.5354C72.459 64.5354 72.108 63.2592 72.108 62.0586C72.108 60.858 72.4572 59.5818 73.107 59.5818C73.7568 59.5818 74.106 60.858 74.106 62.0586C74.106 63.2592 73.7568 64.5354 73.107 64.5354ZM73.107 59.9436C72.846 59.9436 72.468 60.768 72.468 62.0604C72.468 63.3528 72.846 64.1772 73.107 64.1772C73.368 64.1772 73.746 63.3528 73.746 62.0604C73.746 60.768 73.368 59.9436 73.107 59.9436Z" fill="#1DA0FA"/>
<path d="M54.3997 57.4236C53.9497 57.4236 53.5807 58.4568 53.5807 59.7204C53.5807 60.984 53.9497 62.0172 54.3997 62.0172C54.8497 62.0172 55.2187 60.984 55.2187 59.7204C55.2187 58.4568 54.8497 57.4236 54.3997 57.4236Z" fill="#1DA0FA"/>
<path d="M54.3996 62.1972C53.7516 62.1972 53.4006 60.921 53.4006 59.7204C53.4006 58.5198 53.7498 57.2436 54.3996 57.2436C55.0494 57.2436 55.3986 58.5198 55.3986 59.7204C55.3986 60.921 55.0494 62.1972 54.3996 62.1972ZM54.3996 57.6054C54.1386 57.6054 53.7606 58.4298 53.7606 59.7222C53.7606 61.0146 54.1386 61.839 54.3996 61.839C54.6606 61.839 55.0386 61.0146 55.0386 59.7222C55.0386 58.4298 54.6606 57.6054 54.3996 57.6054Z" fill="#1DA0FA"/>
<path d="M59.0761 59.7636C58.6261 59.7636 58.2571 60.7968 58.2571 62.0604C58.2571 63.324 58.6261 64.3572 59.0761 64.3572C59.5261 64.3572 59.8951 63.324 59.8951 62.0604C59.8951 60.7968 59.5261 59.7636 59.0761 59.7636Z" fill="#1DA0FA"/>
<path d="M59.076 64.5354C58.428 64.5354 58.077 63.2592 58.077 62.0586C58.077 60.858 58.4262 59.5818 59.076 59.5818C59.7258 59.5818 60.075 60.858 60.075 62.0586C60.075 63.2592 59.7258 64.5354 59.076 64.5354ZM59.076 59.9436C58.815 59.9436 58.437 60.768 58.437 62.0604C58.437 63.3528 58.815 64.1772 59.076 64.1772C59.337 64.1772 59.715 63.3528 59.715 62.0604C59.715 60.768 59.337 59.9436 59.076 59.9436Z" fill="#1DA0FA"/>
<path d="M63.7525 62.1018C63.3025 62.1018 62.9335 63.135 62.9335 64.3986C62.9335 65.6622 63.3025 66.6954 63.7525 66.6954C64.2025 66.6954 64.5715 65.6622 64.5715 64.3986C64.5715 63.135 64.2025 62.1018 63.7525 62.1018Z" fill="#1DA0FA"/>
<path d="M63.7524 66.8736C63.1044 66.8736 62.7534 65.5974 62.7534 64.3968C62.7534 63.1962 63.1026 61.92 63.7524 61.92C64.4022 61.92 64.7514 63.1962 64.7514 64.3968C64.7514 65.5974 64.4022 66.8736 63.7524 66.8736ZM63.7524 62.2818C63.4914 62.2818 63.1134 63.1062 63.1134 64.3986C63.1134 65.691 63.4914 66.5154 63.7524 66.5154C64.0134 66.5154 64.3914 65.691 64.3914 64.3986C64.3914 63.1062 64.0134 62.2818 63.7524 62.2818Z" fill="#1DA0FA"/>
<path d="M68.4307 64.44C67.9807 64.44 67.6117 65.4732 67.6117 66.7368C67.6117 68.0004 67.9807 69.0336 68.4307 69.0336C68.8807 69.0336 69.2497 68.0004 69.2497 66.7368C69.2497 65.4732 68.8807 64.44 68.4307 64.44Z" fill="#1DA0FA"/>
<path d="M68.4306 69.2118C67.7826 69.2118 67.4316 67.9356 67.4316 66.735C67.4316 65.5344 67.7808 64.2582 68.4306 64.2582C69.0804 64.2582 69.4296 65.5344 69.4296 66.735C69.4296 67.9356 69.0804 69.2118 68.4306 69.2118ZM68.4306 64.62C68.1696 64.62 67.7916 65.4444 67.7916 66.7368C67.7916 68.0292 68.1696 68.8536 68.4306 68.8536C68.6916 68.8536 69.0696 68.0292 69.0696 66.7368C69.0696 65.4444 68.6916 64.62 68.4306 64.62Z" fill="#1DA0FA"/>
<path d="M73.1071 71.3718C73.5594 71.3718 73.9261 70.3435 73.9261 69.075C73.9261 67.8065 73.5594 66.7782 73.1071 66.7782C72.6548 66.7782 72.2881 67.8065 72.2881 69.075C72.2881 70.3435 72.6548 71.3718 73.1071 71.3718Z" fill="#1DA0FA"/>
<path d="M73.107 71.55C72.459 71.55 72.108 70.2738 72.108 69.0732C72.108 67.8726 72.4572 66.5964 73.107 66.5964C73.7568 66.5964 74.106 67.8726 74.106 69.0732C74.106 70.2738 73.7568 71.55 73.107 71.55ZM73.107 66.9582C72.846 66.9582 72.468 67.7826 72.468 69.075C72.468 70.3674 72.846 71.1918 73.107 71.1918C73.368 71.1918 73.746 70.3674 73.746 69.075C73.746 67.7826 73.368 66.9582 73.107 66.9582Z" fill="#1DA0FA"/>
<path d="M54.3997 64.44C53.9497 64.44 53.5807 65.4732 53.5807 66.7368C53.5807 68.0004 53.9497 69.0336 54.3997 69.0336C54.8497 69.0336 55.2187 68.0004 55.2187 66.7368C55.2187 65.4732 54.8497 64.44 54.3997 64.44Z" fill="#1DA0FA"/>
<path d="M54.3996 69.2118C53.7516 69.2118 53.4006 67.9356 53.4006 66.735C53.4006 65.5344 53.7498 64.2582 54.3996 64.2582C55.0494 64.2582 55.3986 65.5344 55.3986 66.735C55.3986 67.9356 55.0494 69.2118 54.3996 69.2118ZM54.3996 64.62C54.1386 64.62 53.7606 65.4444 53.7606 66.7368C53.7606 68.0292 54.1386 68.8536 54.3996 68.8536C54.6606 68.8536 55.0386 68.0292 55.0386 66.7368C55.0386 65.4444 54.6606 64.62 54.3996 64.62Z" fill="#1DA0FA"/>
<path d="M59.0761 66.7782C58.6261 66.7782 58.2571 67.8114 58.2571 69.075C58.2571 70.3386 58.6261 71.3718 59.0761 71.3718C59.5261 71.3718 59.8951 70.3386 59.8951 69.075C59.8951 67.8114 59.5261 66.7782 59.0761 66.7782Z" fill="#1DA0FA"/>
<path d="M59.076 71.55C58.428 71.55 58.077 70.2738 58.077 69.0732C58.077 67.8726 58.4262 66.5964 59.076 66.5964C59.7258 66.5964 60.075 67.8726 60.075 69.0732C60.075 70.2738 59.7258 71.55 59.076 71.55ZM59.076 66.9582C58.815 66.9582 58.437 67.7826 58.437 69.075C58.437 70.3674 58.815 71.1918 59.076 71.1918C59.337 71.1918 59.715 70.3674 59.715 69.075C59.715 67.7826 59.337 66.9582 59.076 66.9582Z" fill="#1DA0FA"/>
<path d="M63.7525 69.1164C63.3025 69.1164 62.9335 70.1496 62.9335 71.4132C62.9335 72.6768 63.3025 73.71 63.7525 73.71C64.2025 73.71 64.5715 72.6768 64.5715 71.4132C64.5715 70.1496 64.2025 69.1164 63.7525 69.1164Z" fill="#1DA0FA"/>
<path d="M63.7524 73.89C63.1044 73.89 62.7534 72.6138 62.7534 71.4132C62.7534 70.2126 63.1026 68.9364 63.7524 68.9364C64.4022 68.9364 64.7514 70.2126 64.7514 71.4132C64.7514 72.6138 64.4022 73.89 63.7524 73.89ZM63.7524 69.2982C63.4914 69.2982 63.1134 70.1226 63.1134 71.415C63.1134 72.7074 63.4914 73.5318 63.7524 73.5318C64.0134 73.5318 64.3914 72.7074 64.3914 71.415C64.3914 70.1226 64.0134 69.2982 63.7524 69.2982Z" fill="#1DA0FA"/>
<path d="M68.4307 71.4564C67.9807 71.4564 67.6117 72.4896 67.6117 73.7532C67.6117 75.0168 67.9807 76.05 68.4307 76.05C68.8807 76.05 69.2497 75.0168 69.2497 73.7532C69.2497 72.4896 68.8807 71.4564 68.4307 71.4564Z" fill="#1DA0FA"/>
<path d="M68.4306 76.2282C67.7826 76.2282 67.4316 74.952 67.4316 73.7514C67.4316 72.5508 67.7808 71.2746 68.4306 71.2746C69.0804 71.2746 69.4296 72.5508 69.4296 73.7514C69.4296 74.952 69.0804 76.2282 68.4306 76.2282ZM68.4306 71.6364C68.1696 71.6364 67.7916 72.4608 67.7916 73.7532C67.7916 75.0456 68.1696 75.87 68.4306 75.87C68.6916 75.87 69.0696 75.0456 69.0696 73.7532C69.0696 72.4608 68.6916 71.6364 68.4306 71.6364Z" fill="#1DA0FA"/>
<path d="M73.1071 78.3864C73.5594 78.3864 73.9261 77.3581 73.9261 76.0896C73.9261 74.8211 73.5594 73.7928 73.1071 73.7928C72.6548 73.7928 72.2881 74.8211 72.2881 76.0896C72.2881 77.3581 72.6548 78.3864 73.1071 78.3864Z" fill="#1DA0FA"/>
<path d="M73.107 78.5664C72.459 78.5664 72.108 77.2902 72.108 76.0896C72.108 74.889 72.4572 73.6128 73.107 73.6128C73.7568 73.6128 74.106 74.889 74.106 76.0896C74.106 77.2902 73.7568 78.5664 73.107 78.5664ZM73.107 73.9746C72.846 73.9746 72.468 74.799 72.468 76.0914C72.468 77.3838 72.846 78.2082 73.107 78.2082C73.368 78.2082 73.746 77.3838 73.746 76.0914C73.746 74.799 73.368 73.9746 73.107 73.9746Z" fill="#1DA0FA"/>
<path d="M54.3997 71.4564C53.9497 71.4564 53.5807 72.4896 53.5807 73.7532C53.5807 75.0168 53.9497 76.05 54.3997 76.05C54.8497 76.05 55.2187 75.0168 55.2187 73.7532C55.2187 72.4896 54.8497 71.4564 54.3997 71.4564Z" fill="#1DA0FA"/>
<path d="M54.3996 76.2282C53.7516 76.2282 53.4006 74.952 53.4006 73.7514C53.4006 72.5508 53.7498 71.2746 54.3996 71.2746C55.0494 71.2746 55.3986 72.5508 55.3986 73.7514C55.3986 74.952 55.0494 76.2282 54.3996 76.2282ZM54.3996 71.6364C54.1386 71.6364 53.7606 72.4608 53.7606 73.7532C53.7606 75.0456 54.1386 75.87 54.3996 75.87C54.6606 75.87 55.0386 75.0456 55.0386 73.7532C55.0386 72.4608 54.6606 71.6364 54.3996 71.6364Z" fill="#1DA0FA"/>
<path d="M59.0761 73.7946C58.6261 73.7946 58.2571 74.8278 58.2571 76.0914C58.2571 77.355 58.6261 78.3882 59.0761 78.3882C59.5261 78.3882 59.8951 77.355 59.8951 76.0914C59.8951 74.8278 59.5261 73.7946 59.0761 73.7946Z" fill="#1DA0FA"/>
<path d="M59.076 78.5664C58.428 78.5664 58.077 77.2902 58.077 76.0896C58.077 74.889 58.4262 73.6128 59.076 73.6128C59.7258 73.6128 60.075 74.889 60.075 76.0896C60.075 77.2902 59.7258 78.5664 59.076 78.5664ZM59.076 73.9746C58.815 73.9746 58.437 74.799 58.437 76.0914C58.437 77.3838 58.815 78.2082 59.076 78.2082C59.337 78.2082 59.715 77.3838 59.715 76.0914C59.715 74.799 59.337 73.9746 59.076 73.9746Z" fill="#1DA0FA"/>
<path d="M63.7525 76.1328C63.3025 76.1328 62.9335 77.166 62.9335 78.4296C62.9335 79.6932 63.3025 80.7264 63.7525 80.7264C64.2025 80.7264 64.5715 79.6932 64.5715 78.4296C64.5715 77.166 64.2025 76.1328 63.7525 76.1328Z" fill="#1DA0FA"/>
<path d="M63.7524 80.9046C63.1044 80.9046 62.7534 79.6284 62.7534 78.4278C62.7534 77.2272 63.1026 75.951 63.7524 75.951C64.4022 75.951 64.7514 77.2272 64.7514 78.4278C64.7514 79.6284 64.4022 80.9046 63.7524 80.9046ZM63.7524 76.3128C63.4914 76.3128 63.1134 77.1372 63.1134 78.4296C63.1134 79.722 63.4914 80.5464 63.7524 80.5464C64.0134 80.5464 64.3914 79.722 64.3914 78.4296C64.3914 77.1372 64.0134 76.3128 63.7524 76.3128Z" fill="#1DA0FA"/>
<path d="M49.4316 28.2204H38.1384V33.5736H49.4316V28.2204ZM47.9052 32.0472H39.6648V29.7468H47.9052V32.0472Z" fill="#1DA0FA"/>
<path d="M49.6116 33.7536H37.9584V28.0404H49.6116V33.7536ZM38.3184 33.3936H49.2516V28.4004H38.3184V33.3936ZM48.0852 32.2272H39.4848V29.5668H48.0852V32.2272ZM39.8448 31.8672H47.7252V29.9268H39.8448V31.8672Z" fill="#1DA0FA"/>
<path d="M49.4316 36.486H38.1384V41.8392H49.4316V36.486ZM47.9052 40.3128H39.6648V38.0124H47.9052V40.3128Z" fill="#1DA0FA"/>
<path d="M49.6116 42.0192H37.9584V36.306H49.6116V42.0192ZM38.3184 41.6592H49.2516V36.666H38.3184V41.6592ZM48.0852 40.4928H39.4848V37.8324H48.0852V40.4928ZM39.8448 40.1328H47.7252V38.1924H39.8448V40.1328Z" fill="#1DA0FA"/>
</g>
<defs>
<clipPath id="clip0_158_1463">
<rect width="90" height="90" fill="white"/>
</clipPath>
</defs>
</svg>
