<svg width="90" height="90" viewBox="0 0 90 90" fill="none" xmlns="http://www.w3.org/2000/svg">
<g clip-path="url(#clip0_2_2281)">
<path d="M52.5004 21.001C52.5004 21.8294 51.8288 22.501 51.0005 22.501C50.1721 22.501 49.5005 21.8294 49.5005 21.001C49.5005 20.1727 50.1721 19.5011 51.0005 19.5011C51.8288 19.5011 52.5004 20.1727 52.5004 21.001Z" fill="#1DA2FC" fill-opacity="0.6"/>
<path d="M40.5009 21.001C40.5009 21.8294 39.8293 22.501 39.0009 22.501C38.1726 22.501 37.501 21.8294 37.501 21.001C37.501 20.1727 38.1726 19.5011 39.0009 19.5011C39.8293 19.5011 40.5009 20.1727 40.5009 21.001Z" fill="#1DA2FC" fill-opacity="0.6"/>
<path d="M49.5008 60.0007C48.6724 60.0007 48.0007 60.6723 48.0007 61.5007C48.0007 63.1575 46.6574 64.5007 45.0008 64.5007C43.3432 64.5007 42.0007 63.1575 42.0007 61.5007C42.0007 59.8439 43.3432 58.5008 45.0008 58.5008C45.829 58.5008 46.5007 57.8291 46.5007 57.0007C46.5007 56.1723 45.829 55.5007 45.0008 55.5007C41.6865 55.5007 39.0007 58.1865 39.0007 61.5007C39.0007 64.8143 41.6865 67.5008 45.0008 67.5008C48.3142 67.5008 51.0007 64.8143 51.0007 61.5007C51.0007 60.6723 50.329 60.0007 49.5008 60.0007Z" fill="#FC951D"/>
<path d="M88.5 63.0004H76.5002C75.6718 63.0004 75.0002 63.672 75.0002 64.5004V73.5003C75.0002 75.1226 75.526 76.7016 76.5002 78.0002H66.0003V54.0005C66.0003 50.6863 63.3138 48.0006 60.0004 48.0006H48.615L53.115 43.5007H58.5005C64.2989 43.5007 69.0003 48.2013 69.0003 54.0005V73.5003C69.0003 74.3287 69.6719 75.0002 70.5003 75.0002C71.3286 75.0002 72.0002 74.3287 72.0002 73.5003V54.0005C72.0002 46.5445 65.9557 40.5008 58.5005 40.5008H54.0005V37.5008C57.7775 34.6677 60.0004 30.222 60.0004 25.5009V23.1155C65.3118 20.9541 68.3521 15.3365 67.2557 9.70791C66.16 4.07859 61.2345 0.0122374 55.5005 0.00125122H25.5008C23.8434 0.00125122 22.5009 1.34449 22.5009 3.00121V12.0011C22.5046 16.887 25.4709 21.2837 30.0008 23.1155V25.5009C30.0008 30.222 32.2237 34.6677 36.0007 37.5008V40.5008H31.5007C24.0449 40.5008 18.001 46.5445 18.001 54.0005V73.5003C18.001 74.3287 18.6727 75.0002 19.5009 75.0002C20.3293 75.0002 21.001 74.3287 21.001 73.5003V54.0005C21.001 48.2013 25.7015 43.5007 31.5007 43.5007H36.8854L41.3854 48.0006H30.0008C26.6866 48.0006 24.0009 50.6863 24.0009 54.0005V78.0002H15.001V75.0002C15.001 72.5152 12.9862 70.5003 10.5011 70.5003H7.50112C5.01532 70.5003 3.00118 72.5152 3.00118 75.0002V78.0002H1.5012C0.672842 78.0002 0.0012207 78.6718 0.0012207 79.5002V88.5001C0.0012207 89.3285 0.672842 90 1.5012 90H88.5C89.3284 90 90 89.3285 90 88.5001V79.5002C90 78.6718 89.3284 78.0002 88.5 78.0002C89.4733 76.7016 90 75.1226 90 73.5003V64.5004C90 63.672 89.3284 63.0004 88.5 63.0004ZM33.0008 25.5009V13.501H45.0006C45.829 13.501 46.5006 12.8294 46.5006 12.0011C46.5006 11.1727 45.829 10.5011 45.0006 10.5011H31.5007C30.6725 10.5011 30.0008 11.1727 30.0008 12.0011V19.7859C27.219 18.1797 25.5038 15.2127 25.5008 12.0011V3.00121H55.5005C59.5675 3.00854 63.1242 5.74189 64.1773 9.67056C65.2305 13.5985 63.5182 17.7454 60.0004 19.7859V12.0011C60.0004 11.1727 59.3287 10.5011 58.5005 10.5011H52.5006C51.6722 10.5011 51.0005 11.1727 51.0005 12.0011C51.0005 12.8294 51.6722 13.501 52.5006 13.501H57.0004V25.5009C57.0004 32.1278 51.6274 37.5008 45.0006 37.5008C38.373 37.5008 33.0008 32.1278 33.0008 25.5009ZM45.0006 40.5008C47.066 40.5014 49.1095 40.0722 51.0005 39.2403V41.3855L45.0006 47.3854L39.0007 41.3855V39.2403C40.8911 40.0722 42.9345 40.5014 45.0006 40.5008ZM27.0009 54.0005C27.0009 52.3439 28.3434 51.0005 30.0008 51.0005H60.0004C61.6572 51.0005 63.0004 52.3439 63.0004 54.0005V72.0003H27.0009V54.0005ZM27.0009 75.0002H63.0004V78.0002H27.0009V75.0002ZM6.00114 75.0002C6.00114 74.172 6.67276 73.5003 7.50112 73.5003H10.5011C11.3294 73.5003 12.0011 74.172 12.0011 75.0002V78.0002H6.00114V75.0002ZM87 87H3.00118V81.0001H87V87ZM78.0001 73.5003V66.0003H87V73.5003C87 75.9853 84.9852 78.0002 82.5001 78.0002C80.0143 78.0002 78.0001 75.9853 78.0001 73.5003Z" fill="#1DA2FC"/>
<path d="M81.8695 50.2507C81.6146 49.7623 81.1122 49.4532 80.5606 49.4459C80.0099 49.4385 79.4994 49.7336 79.2305 50.2149C78.9626 50.6961 78.9794 51.2857 79.2745 51.7508C79.6297 52.3975 79.5653 53.1944 79.1098 53.7759C77.8214 55.3213 77.6302 57.5047 78.63 59.2507C78.8988 59.7165 79.3969 60.003 79.9352 60.0008C80.1922 60 80.4457 59.9327 80.6698 59.8059C81.0169 59.6075 81.2711 59.2794 81.3751 58.8933C81.4791 58.5081 81.4249 58.0965 81.2249 57.7508C80.8697 57.1033 80.9349 56.3072 81.3898 55.7257C82.678 54.1803 82.8692 51.9969 81.8695 50.2507Z" fill="#1DA2FC" fill-opacity="0.6"/>
<path d="M87.8692 50.2507C87.6144 49.7623 87.1119 49.4532 86.5605 49.4459C86.0097 49.4385 85.4991 49.7336 85.2304 50.2149C84.9623 50.6961 84.9792 51.2857 85.2743 51.7508C85.6295 52.3975 85.5651 53.1944 85.1096 53.7759C83.8212 55.3213 83.63 57.5047 84.6297 59.2507C84.8986 59.7165 85.3967 60.003 85.935 60.0008C86.192 60 86.4454 59.9327 86.6695 59.8059C87.0167 59.6075 87.2708 59.2794 87.3749 58.8933C87.4789 58.5081 87.4246 58.0965 87.2247 57.7508C86.8694 57.1033 86.9346 56.3072 87.3895 55.7257C88.6778 54.1803 88.869 51.9969 87.8692 50.2507Z" fill="#1DA2FC" fill-opacity="0.6"/>
</g>
<defs>
<clipPath id="clip0_2_2281">
<rect width="90" height="90" fill="white"/>
</clipPath>
</defs>
</svg>
