<svg width="90" height="90" viewBox="0 0 90 90" fill="none" xmlns="http://www.w3.org/2000/svg">
<path d="M45 28.125C49.6532 28.125 53.4375 24.3407 53.4375 19.6875C53.4375 15.0342 49.6532 11.25 45 11.25C40.3468 11.25 36.5625 15.0342 36.5625 19.6875C36.5625 24.3407 40.3468 28.125 45 28.125ZM45 14.0625C48.1021 14.0625 50.625 16.5853 50.625 19.6875C50.625 22.7896 48.1021 25.3125 45 25.3125C41.8977 25.3125 39.375 22.7896 39.375 19.6875C39.375 16.5853 41.8977 14.0625 45 14.0625Z" fill="#1DA0FA"/>
<path d="M81.2536 33.7498C77.7085 22.3424 68.7535 13.0864 57.4796 9.15033L58.5146 6.55016L54.2747 7.39814C51.5648 7.93814 48.7397 6.86095 47.0804 4.64891L45.0005 1.87439L42.9206 4.64891C41.2612 6.86095 38.4374 7.93814 35.7262 7.39814L31.4865 6.55016L32.5215 9.14891C21.2152 13.0766 12.4556 22.0555 8.82328 33.4897C4.94345 35.2757 2.06767 38.9853 1.5122 43.3433C0.883604 48.2764 3.08439 52.9972 7.25533 55.6634C7.98516 56.1303 8.43797 57.0276 8.43797 58.0077V60.4685C8.43797 63.3415 10.612 65.6914 13.3964 66.026C16.1611 70.1689 19.7695 73.7858 23.9067 76.5589V85.781H7.03172V88.5935H82.9692V85.781H63.2817V78.266C69.1178 75.0528 73.989 70.3813 77.4484 64.6873H85.7817V61.8748H82.9692V59.0623H88.5942V33.7498H81.2536ZM85.7817 44.9998H80.1567V36.5623H85.7817V44.9998ZM71.7192 56.2498V47.8123H77.3442V56.2498H71.7192ZM63.2817 47.8123H68.9067V56.2498H63.2817V47.8123ZM63.2817 44.9998V36.5623H68.9067V44.9998H63.2817ZM71.7192 44.9998V36.5623H77.3442V44.9998H71.7192ZM35.7347 10.2514C39.2292 10.7436 42.7941 9.33314 45.0005 6.55579C47.2068 9.33314 50.773 10.745 54.2677 10.2514C53.6841 13.798 55.0481 17.4008 57.8916 19.6733C55.051 21.8656 53.6166 25.4038 54.0749 28.9109C50.5705 28.5228 47.1422 29.9938 44.9991 32.816C43.0837 30.4072 40.149 29.0263 37.1185 29.0263C36.6572 29.0263 36.1946 29.0572 35.7334 29.1233C36.3184 25.5697 34.9486 21.9599 32.0924 19.6873C34.9486 17.4148 36.3184 13.805 35.7347 10.2514ZM8.77127 53.2939C5.52422 51.2197 3.81283 47.5438 4.3036 43.699C4.8647 39.2877 8.48579 35.7214 12.9098 35.2208C13.3008 35.1772 13.6889 35.156 14.0742 35.156C16.5 35.156 18.7908 36.0238 20.6175 37.6564C22.7086 39.5226 23.9067 42.2001 23.9067 44.9998C23.9067 48.3608 22.2136 51.4559 19.3786 53.2784C17.8922 54.2333 16.9838 55.856 16.8923 57.656H15.4692V48.9598C17.1019 48.3777 18.2817 46.8308 18.2817 44.9998C18.2817 42.6739 16.3889 40.781 14.063 40.781C11.737 40.781 9.84422 42.6739 9.84422 44.9998C9.84422 46.8308 11.0241 48.3777 12.6567 48.9598V57.656H11.2294C11.1253 55.8407 10.2295 54.2263 8.77127 53.2939ZM12.6567 44.9998C12.6567 44.2251 13.2881 43.5935 14.063 43.5935C14.8378 43.5935 15.4692 44.2251 15.4692 44.9998C15.4692 45.7747 14.8378 46.406 14.063 46.406C13.2881 46.406 12.6567 45.7747 12.6567 44.9998ZM11.2505 60.4685H16.8755C16.8755 62.0197 15.6141 63.281 14.063 63.281C12.5119 63.281 11.2505 62.0197 11.2505 60.4685ZM52.0317 63.281V69.7216L46.4067 68.5966V85.781H40.7817V65.7841L37.9692 66.3466V63.281H52.0317ZM37.9692 69.2154V85.781H26.7192V71.4654L37.9692 69.2154ZM49.2192 85.781V72.0279L60.4692 74.2779V85.781H49.2192ZM63.2817 75.0247V71.9716L54.8442 70.2841V60.4685H52.0317V57.656H49.2192V60.4685H46.4067V54.8435H43.5942V60.4685H40.7817V57.656H37.9692V60.4685H35.1567V66.9091L23.9067 69.1591V73.1095C21.0717 70.9747 18.5405 68.4097 16.4648 65.5339C18.3633 64.6297 19.688 62.7073 19.688 60.4685V57.9485C19.688 57.0078 20.152 56.1247 20.9002 55.6438C24.5437 53.3023 26.7192 49.3227 26.7192 44.9998C26.7192 41.3998 25.1779 37.9588 22.492 35.5597C19.8075 33.1607 16.1935 32.0159 12.5935 32.4265C12.4402 32.4434 12.2911 32.4758 12.1392 32.4983C15.7716 22.9246 23.3737 15.4335 33.0334 11.9445C33.0066 14.3858 31.7536 16.7145 29.5373 18.0435L26.7993 19.6873L29.5387 21.3313C32.5946 23.1651 33.8531 26.8972 32.5271 30.2089L31.4865 32.8246L35.7262 31.9765C38.4374 31.4379 41.2612 32.5138 42.9206 34.7258L45.0005 37.5003L47.2111 34.5541C48.8284 32.3971 51.4847 31.3254 54.1496 31.7585L58.1011 32.4027L57.2573 30.1358C56.0452 26.876 57.3291 23.2128 60.309 21.4241L63.2029 19.6873L60.4636 18.0435C58.2487 16.7145 56.9972 14.3872 56.9691 11.9473C66.9409 15.5713 74.9029 23.7064 78.3074 33.7498H60.4692V59.0623H66.0942V61.8748H63.2817V64.6873H74.1323C71.2987 68.8765 67.6003 72.3922 63.2817 75.0247ZM80.1567 61.8748H68.9067V59.0623H80.1567V61.8748ZM80.1567 56.2498V47.8123H85.7817V56.2498H80.1567Z" fill="#1DA0FA"/>
<path d="M85.7812 85.7812H88.5938V88.5938H85.7812V85.7812Z" fill="#1DA0FA"/>
<path d="M1.40625 85.7812H4.21875V88.5938H1.40625V85.7812Z" fill="#1DA0FA"/>
<path d="M52.0312 80.1562H57.6562V82.9688H52.0312V80.1562Z" fill="#1DA0FA"/>
<path d="M29.5312 74.5312H35.1562V77.3438H29.5312V74.5312Z" fill="#1DA0FA"/>
<path d="M29.5312 80.1562H35.1562V82.9688H29.5312V80.1562Z" fill="#1DA0FA"/>
<path d="M35.1562 40.7812H54.8438V43.5938H35.1562V40.7812Z" fill="#FC951D"/>
<path d="M52.0312 46.4062H54.8438V49.2188H52.0312V46.4062Z" fill="#FC951D"/>
<path d="M40.7812 46.4062H43.5938V49.2188H40.7812V46.4062Z" fill="#FC951D"/>
<path d="M35.1562 46.4062H37.9688V49.2188H35.1562V46.4062Z" fill="#FC951D"/>
<path d="M46.4062 46.4062H49.2188V49.2188H46.4062V46.4062Z" fill="#FC951D"/>
</svg>
