<svg width="90" height="90" viewBox="0 0 90 90" fill="none" xmlns="http://www.w3.org/2000/svg">
<g clip-path="url(#clip0_2_1657)">
<path d="M16.8513 24.4641C21.1161 24.4641 24.5734 21.0069 24.5734 16.7421C24.5734 12.4779 21.1161 9.02072 16.8513 9.02072C12.5872 9.02072 9.13 12.4779 9.13 16.7421C9.13513 21.0047 12.5887 24.4589 16.8513 24.4641ZM16.8513 12.0171C19.4614 12.0171 21.577 14.1327 21.577 16.7421C21.577 19.3522 19.4614 21.4677 16.8513 21.4677C14.2419 21.4677 12.1264 19.3522 12.1264 16.7421C12.1293 14.1341 14.2435 12.0207 16.8513 12.0171Z" fill="#1DA2FC" fill-opacity="0.6"/>
<path d="M84.0328 66.5532L83.4542 51.4368L86.2735 47.5596L82.855 41.2758L83.5412 39.1639L89.9999 36.0892V29.8302L83.5412 26.7556L82.855 24.6437L86.2735 18.3599L82.5939 13.299L75.5617 14.6071L73.7643 13.3006L72.8352 6.20983L66.8871 4.27565L61.9662 9.4666H59.7452L54.8242 4.27565L48.8746 6.20983L48.5842 8.42124L27.7758 7.18203L26.3735 5.77968L25.9857 2.63337L20.3705 0.299774L17.8686 2.25443H15.8401L13.3317 0.299774L7.71353 2.63043L7.32729 5.77676L5.88909 7.21494L2.74278 7.60193L0.408459 13.2231L2.36677 15.7307V17.7637L0.408459 20.2611L2.26509 24.7395L0.197777 51.2451C0.150959 51.5831 0.124625 51.9232 0.118041 52.2634V52.3191H0.109262V52.4361C0.104873 55.4756 1.63962 58.311 4.18682 59.9701C6.73401 61.6292 9.94836 61.8859 12.7267 60.6533L21.5929 56.9591C20.1562 61.0155 21.816 65.5203 25.5424 67.6738L11.8474 72.0864C7.31704 72.9899 4.2095 77.1808 4.66013 81.7785C5.11074 86.3762 8.97324 89.8831 13.5928 89.8905H13.6719L68.8382 86.9972L69.683 89.0229L74.4469 90.0003L78.3136 86.2438L79.2984 85.9175L84.6451 86.6066L87.8741 82.9687L86.5537 77.7419L86.7636 76.7244L90.0328 72.4383L88.5018 67.8239L84.0328 66.5532ZM51.5982 8.47318L53.9508 7.70946L58.4569 12.463H63.2514L67.7577 7.70946L70.1117 8.47318L70.961 14.9684L74.8411 17.7877L81.283 16.5896L82.7351 18.5895L79.6071 24.3453L81.0899 28.9071L87.0035 31.7235V34.196L81.0899 37.0124L79.6071 41.5742L82.7351 47.3284L81.283 49.3285L74.8411 48.1302L70.961 50.9495L70.1117 57.4442L67.7577 58.2085L63.2514 53.4551H58.4569L53.9508 58.2085L51.5982 57.4442L50.7474 50.9525L46.8673 48.1317L40.4247 49.3299L38.9719 47.33L42.1 41.5772L40.6186 37.0139L34.7049 34.1976V31.7249L40.6186 28.9085L42.1 24.3453L38.9719 18.5925L40.4247 16.5924L46.8673 17.7907L50.7474 14.967L51.5982 8.47318ZM3.8547 12.757L4.84301 10.3598L7.28413 10.0599L10.1781 7.17032L10.478 4.72993L12.8753 3.74091L14.8123 5.2537H18.9097L20.838 3.74529L23.2352 4.73433L23.5344 7.17325L26.4217 10.0679L28.8621 10.3671L29.8526 12.7643L28.3391 14.7015V18.7987L29.8526 20.7359L28.8621 23.1331L26.4217 23.433L23.527 26.3277L23.2271 28.7681L20.8306 29.7579L18.8936 28.245H14.8036L12.8658 29.7579L10.4692 28.7681L10.1693 26.3277L7.27755 23.4176L4.83861 23.1184L3.85032 20.7212L5.36313 18.7842V14.6942L3.8547 12.757ZM3.10562 52.4631L3.12317 52.2291C3.4253 49.1419 6.15684 46.8728 9.24756 47.1426C12.3383 47.4126 14.6353 50.1207 14.3968 53.2144C14.1591 56.3073 11.4751 58.6322 8.37996 58.4266C5.28412 58.2202 2.93151 55.5605 3.10562 52.4631ZM30.0727 53.9342C33.3823 53.9342 36.0655 56.6175 36.0655 59.9269C36.0655 63.2364 33.3823 65.9196 30.0727 65.9196C26.7627 65.9196 24.0802 63.2364 24.0802 59.9269C24.0802 56.6175 26.7627 53.9342 30.0727 53.9342ZM7.60014 80.9014C7.60673 78.5737 8.9608 76.461 11.0727 75.4822L12.5212 75.0163C14.7414 74.622 16.9945 75.5086 18.3508 77.3096C19.7071 79.1114 19.9353 81.5218 18.9426 83.5459C17.9491 85.5701 15.9022 86.8641 13.6485 86.8941H13.5746C10.2717 86.8839 7.60014 84.2043 7.60014 80.9014ZM20.5951 86.5239C22.2286 84.5013 22.9031 81.8685 22.4437 79.3095C21.9835 76.7507 20.4341 74.5173 18.1979 73.1903L32.8307 68.4829C35.9917 67.4968 38.3544 64.8516 38.9799 61.6C39.6054 58.3483 38.3925 55.0161 35.8234 52.9269C33.2535 50.8384 29.7436 50.3315 26.688 51.6073L17.5855 55.4009C18.9001 51.6599 17.6031 47.4997 14.3954 45.1683C11.1868 42.8376 6.82985 42.8895 3.67767 45.2956L5.17585 26.1822L5.90227 26.272L7.34046 27.7102L7.72743 30.8566L13.347 33.1815L15.8489 31.2341H17.8819L20.3822 33.1815L25.9857 30.8624L26.3735 27.7161L27.8117 26.2779L30.958 25.8895L33.2836 20.2735L31.3354 17.7724V15.7307L33.2836 13.2288L32.1328 10.4483L48.2009 11.3993L47.9521 13.302L46.1541 14.6071L39.1233 13.299L35.4437 18.3599L38.8607 24.6437L38.176 26.7512L31.7173 29.8302V36.0892L38.1745 39.1639L38.8607 41.2758L35.4437 47.5596L39.1233 52.6204L46.1541 51.3125L47.9521 52.6175L48.8806 59.7097L54.8301 61.6438L59.7518 56.4529H61.972L66.893 61.6438L72.8425 59.7097L73.7716 52.6189L75.569 51.3125L80.4951 52.2291L80.8536 61.6036L80.4709 60.6878L75.7058 59.7082L71.8302 63.4625L70.8454 63.7908L65.4987 63.1018L62.2697 66.739L63.5872 71.9664L63.3772 72.9833L60.1081 77.2686L61.6436 81.8838L66.8286 83.3587L67.6062 84.0478V84.058L20.5951 86.5239ZM83.9685 75.4507L83.4827 77.8092L84.5807 82.1641L83.4556 83.4304L79.0014 82.8597L76.7182 83.6176L73.4958 86.7442L71.8374 86.4054L70.1081 82.2621L68.3107 80.6629L63.991 79.4346L63.4548 77.8253L66.1791 74.2554L66.6626 71.8992L65.5645 67.5436L66.6896 66.2759L71.144 66.8487L73.4284 66.0901L76.6524 62.9621L78.3107 63.3037L80.0415 67.4492L81.8389 69.0448L86.1587 70.2715L86.6934 71.8809L83.9685 75.4507Z" fill="#1DA2FC"/>
<path d="M12.0949 52.4361C12.0949 54.0908 10.7533 55.4324 9.09853 55.4324C7.4438 55.4324 6.10217 54.0908 6.10217 52.4361C6.10217 50.7813 7.4438 49.4397 9.09853 49.4397C10.7533 49.4397 12.0949 50.7813 12.0949 52.4361Z" fill="#1DA2FC" fill-opacity="0.6"/>
<path d="M33.0694 59.9271C33.0694 61.5819 31.7277 62.9235 30.073 62.9235C28.4183 62.9235 27.0767 61.5819 27.0767 59.9271C27.0767 58.2724 28.4183 56.9308 30.073 56.9308C31.7277 56.9308 33.0694 58.2724 33.0694 59.9271Z" fill="#1DA2FC" fill-opacity="0.6"/>
<path d="M16.5899 80.9016C16.5899 82.5563 15.2483 83.898 13.5935 83.898C11.9388 83.898 10.5972 82.5563 10.5972 80.9016C10.5972 79.2469 11.9388 77.9053 13.5935 77.9053C15.2483 77.9053 16.5899 79.2469 16.5899 80.9016Z" fill="#1DA2FC" fill-opacity="0.6"/>
<path d="M75.0184 67.4181C70.8809 67.4181 67.5276 70.7721 67.5276 74.9089C67.5276 79.0458 70.8809 82.3999 75.0184 82.3999C79.1553 82.3999 82.5094 79.0458 82.5094 74.9089C82.5042 70.7736 79.1531 67.4232 75.0184 67.4181ZM75.0184 79.4035C72.5363 79.4035 70.5239 77.391 70.5239 74.9089C70.5239 72.4269 72.5363 70.4144 75.0184 70.4144C77.5006 70.4144 79.513 72.4269 79.513 74.9089C79.513 77.391 77.5006 79.4035 75.0184 79.4035Z" fill="#1DA2FC" fill-opacity="0.6"/>
<path d="M60.0365 47.9416C68.3108 47.9416 75.0183 41.2342 75.0183 32.9598C75.0183 24.6855 68.3108 17.978 60.0365 17.978C51.7621 17.978 45.0547 24.6855 45.0547 32.9598C45.0634 41.2306 51.7657 47.9329 60.0365 47.9416ZM60.0365 20.9744C66.6553 20.9744 72.0219 26.3402 72.0219 32.9598C72.0219 39.5794 66.6553 44.9452 60.0365 44.9452C53.4168 44.9452 48.051 39.5794 48.051 32.9598C48.0584 26.3438 53.4197 20.9817 60.0365 20.9744Z" fill="#FC951D"/>
<path d="M60.0367 41.949C65.0008 41.949 69.0257 37.9242 69.0257 32.9599C69.0257 27.9958 65.0008 23.9709 60.0367 23.9709C55.0718 23.9709 51.0476 27.9958 51.0476 32.9599C51.0528 37.9227 55.0739 41.9439 60.0367 41.949ZM60.0367 26.9672C63.3461 26.9672 66.0294 29.6505 66.0294 32.9599C66.0294 36.2695 63.3461 38.9526 60.0367 38.9526C56.7265 38.9526 54.044 36.2695 54.044 32.9599C54.044 29.6505 56.7265 26.9672 60.0367 26.9672Z" fill="#FC951D"/>
<path d="M81.0112 4.49454C81.0112 6.97662 83.0236 8.98906 85.5057 8.98906C87.9879 8.98906 90.0003 6.97662 90.0003 4.49454C90.0003 2.01244 87.9879 0 85.5057 0C83.0236 0 81.0112 2.01244 81.0112 4.49454ZM87.0039 4.49454C87.0039 5.32189 86.3332 5.99271 85.5057 5.99271C84.6783 5.99271 84.0076 5.32189 84.0076 4.49454C84.0076 3.66717 84.6783 2.99636 85.5057 2.99636C86.3332 2.99636 87.0039 3.66717 87.0039 4.49454Z" fill="#1DA2FC" fill-opacity="0.6"/>
<path d="M42.0586 2.99636C42.0586 4.65108 40.717 5.99271 39.0623 5.99271C37.4076 5.99271 36.0659 4.65108 36.0659 2.99636C36.0659 1.34163 37.4076 0 39.0623 0C40.717 0 42.0586 1.34163 42.0586 2.99636Z" fill="#1DA2FC" fill-opacity="0.6"/>
</g>
<defs>
<clipPath id="clip0_2_1657">
<rect width="90" height="90" fill="white"/>
</clipPath>
</defs>
</svg>
