<svg class="img-block" xmlns="http://www.w3.org/2000/svg" width="460" height="442" viewBox="0 0 460 442" fill="none"><path d="M442.997 342.997a9 9 0 0 0 8.999-9 9 9 0 0 0-8.999-8.999 9 9 0 0 0-9 8.999 9 9 0 0 0 9 9z" fill="#fc951d"/><path d="M429.644 352.562c-5.992-5.399-13.053-7.929-20.978-7.522s-14.689 3.647-20.094 9.632c-5.412 5.991-7.945 13.045-7.531 20.953.407 7.916 3.652 14.673 9.643 20.071 2.375 2.138 4.922 3.827 7.621 5.061 4.107 1.875 8.573 2.696 13.357 2.455 7.932-.407 14.69-3.648 20.094-9.639 5.399-5.978 7.932-13.032 7.532-20.954-.415-7.908-3.659-14.665-9.644-20.057z" fill="#f5f5f5"/><path d="M439.288 372.633c-.415-7.922-3.659-14.673-9.644-20.064-1.933-1.745-3.983-3.179-6.13-4.323 3.279 4.461 5.095 9.611 5.392 15.382.4 7.929-2.133 14.976-7.531 20.954-5.405 5.984-12.163 9.225-20.095 9.639-4.783.241-9.25-.58-13.357-2.455-.504-.228-1.001-.483-1.498-.745 1.222 1.655 2.63 3.227 4.259 4.689 2.375 2.137 4.922 3.827 7.621 5.061 4.107 1.875 8.573 2.696 13.357 2.454 7.932-.407 14.69-3.647 20.095-9.639 5.405-5.978 7.938-13.031 7.531-20.953z" fill="#e8e8e8"/><path d="M96.647 13.565c-5.992-5.399-13.053-7.929-20.978-7.522S60.98 9.69 55.575 15.674c-5.412 5.992-7.945 13.045-7.531 20.954.407 7.915 3.652 14.672 9.643 20.071 2.375 2.137 4.922 3.827 7.621 5.061 4.107 1.875 8.573 2.696 13.357 2.455 7.931-.407 14.689-3.647 20.094-9.639 5.398-5.978 7.932-13.031 7.531-20.954-.414-7.908-3.658-14.665-9.643-20.057z" fill="#f5f5f5"/><path d="M106.29 33.635c-.414-7.922-3.658-14.672-9.643-20.064-1.933-1.744-3.983-3.179-6.13-4.323 3.279 4.461 5.094 9.611 5.391 15.382.4 7.929-2.133 14.976-7.531 20.954-5.405 5.985-12.163 9.225-20.094 9.639-4.784.241-9.25-.579-13.357-2.455a27.47 27.47 0 0 1-1.498-.745 31.09 31.09 0 0 0 4.259 4.689c2.375 2.137 4.922 3.827 7.621 5.061 4.107 1.875 8.573 2.696 13.357 2.455 7.932-.407 14.689-3.647 20.094-9.639 5.405-5.978 7.938-13.031 7.531-20.954z" fill="#e8e8e8"/><path opacity=".2" d="M41.447 109.313c-56.272 90.374-10.235 205.047 50.978 264.119 54.605 52.679 150.424 89.275 203.264 55.562 38.606-24.614 28.979-70.644 87.584-117.027 38.076-30.144 56.879-22.358 69.271-43.794 29.626-51.208-32.018-174.256-132.013-220.305-83.584-38.499-219.146-34.831-279.084 61.445z" fill="#1da2fc"/><path opacity=".8" d="M188.048.703c114.904-7.816 168.203 50.491 197.72 128.673s73.231 105.087 43.047 195.072-139.236 101.886-181.832 91.359c-42.616-10.526-86.822-37.785-139.865-58.248-78.927-30.44-98.428-70.523-99.999-109.997C4.9 191.729 34.318 185.484 43.784 124.27 55.115 50.919 98.163 6.81 188.048.703z" fill="url(#A)" fill-opacity=".99"/><g fill="#fc951d"><path d="M6.5 139.999a6.5 6.5 0 1 0 0-13 6.5 6.5 0 1 0 0 13z" style="mix-blend-mode:multiply"/><path d="M389 216.902C389 129.153 346.684 58 294.456 58c-3.05 0-6.099.191-9.149.763l-43.651 3.434c6.1 2.289 12.009 4.578 17.346 7.249-34.691 23.463-59.09 80.691-59.09 147.266 0 66.384 24.208 123.23 58.709 146.884-5.718 8.965-16.774 16.214-16.774 16.214l52.8-4.196c6.481 0 12.961-1.145 19.061-3.243C356.596 357.681 389 293.586 389 216.902z"/></g><path d="M241.656 380c52.216 0 94.544-71.143 94.544-158.902S293.872 62.197 241.656 62.197s-94.543 71.143-94.543 158.902S189.441 380 241.656 380z" fill="#ffc989"/><path fill-rule="evenodd" d="M108.8 118.47l109.01 1.656c1.433-.647 2.959-.395 4.213.061 2.097.763 3.431 3.625 3.431 7.058l.191 20.411c0 2.099.381 4.197.953 6.105 6.752 23.742 14.728 37.518 20.079 44.842l35.008.558-.012.2 5.54-.2c4.003-.191 7.434 5.151 7.243 11.636l-2.097 61.615c-.19 5.914-3.24 10.683-7.052 10.683l-8.572.09-.006.101-4.025-.058-5.505.058a4.91 4.91 0 0 1-1.232-.156l-108.371-1.561.549-2.815-49.345-1.764V118.47z" fill="#fc951d"/><path d="M181.423 209.271l-2.097 61.615c-.19 5.914-3.24 10.683-7.052 10.683l-18.109.191c-4.003 0-7.052-4.769-7.243-11.064l-.953-60.852c0-6.295 3.05-11.446 7.053-11.446l21.158-.763c4.002-.381 7.434 4.96 7.243 11.636zM61.147 188.097l35.454-1.335c1.716 0 2.859-2.671 2.478-5.341-6.481-32.238-.572-53.794 3.05-60.28 1.906-3.624 4.766-3.434 6.862-2.671s3.431 3.625 3.431 7.058l.382 20.602c0 2.099.381 4.197.953 6.105 7.052 24.798 15.439 38.724 20.776 45.782 1.335 1.716 2.478 3.052 3.241 4.006 1.334 1.526 2.096 3.815 2.096 6.295l.763 53.412c0 4.387-2.097 8.012-4.956 8.203l-.191.19-4.574 3.815c-1.906 1.527-4.194 2.48-6.291 2.48l-48.415 1.717s-7.243-2.67-7.434-10.873 3.05-10.683 3.05-10.683-5.528-3.242-6.862-11.445 2.097-12.59 2.097-12.59-3.24-1.526-5.528-8.393 1.525-14.498 1.525-14.498c-4.193-2.861-5.528-6.295-5.528-6.295-4.193-12.781 3.622-15.261 3.622-15.261z" fill="#fff"/><defs><linearGradient id="A" x1="7" y1="0" x2="438.997" y2="418.997" gradientUnits="userSpaceOnUse"><stop stop-color="#1da2fc"/><stop offset="1" stop-color="#73c6ff"/></linearGradient></defs></svg>