<svg width="40" height="40" viewBox="0 0 16 16" xmlns="http://www.w3.org/2000/svg" class="careers-card__icon"><path fill-rule="evenodd" clip-rule="evenodd" d="M6.65 10.673H3.325A3.334 3.334 0 010 7.324a3.34 3.34 0 012.821-3.289A5.342 5.342 0 018 0a5.354 5.354 0 014.655 2.724A4.012 4.012 0 0116 6.678c0 2.2-1.773 3.995-3.99 3.995H9.35V9.342h2.66a2.66 2.66 0 002.66-2.664 2.653 2.653 0 00-2.237-2.643l-.624-.1-.323-.566A4.005 4.005 0 008 1.332a3.99 3.99 0 00-3.869 3.026l-.222.868-.886.141A1.997 1.997 0 001.33 7.344a2 2 0 001.995 1.998H6.65v1.331zm.02-3.611c0 .141.12.262.262.262h2.136a.267.267 0 00.262-.262V4.923a.267.267 0 00-.262-.262H6.932a.267.267 0 00-.262.262v2.139zm3.99-.383c0 1.11-.887 1.997-1.995 1.997v5.992H16V16H0v-1.332h7.335V8.656A1.988 1.988 0 015.34 6.658V5.327c0-1.11.887-1.998 1.995-1.998h1.33c1.108 0 1.995.888 1.995 1.998v1.352z" fill="#ff7b32"></path></svg>