<svg width="45" height="45" viewBox="0 0 16 16" fill="#092433" xmlns="http://www.w3.org/2000/svg" class="careers-card__icon"><path d="M13.02 9.821l2.621.605.284-1.308-2.62-.605a5.322 5.322 0 00-.75-3.314l2.096-1.673-.832-1.042-2.08 1.679a5.336 5.336 0 00-3.06-1.482V0H7.345v2.68A5.332 5.332 0 004.28 4.148l-2.097-1.67-.83 1.042 2.094 1.669a5.32 5.32 0 00-.762 3.314l-2.62.605.298 1.3 2.62-.605a5.365 5.365 0 002.115 2.661l-1.163 2.42 1.21.578 1.163-2.42a5.317 5.317 0 003.385.01l1.162 2.42 1.21-.579-1.161-2.419a5.364 5.364 0 002.117-2.653zm-.991-1.838v.242l-1.815-.403a.35.35 0 01-.262-.266.343.343 0 01.121-.35l1.452-1.158a3.98 3.98 0 01.504 1.935zm-4.032-.684a.683.683 0 11-.257.05.683.683 0 01.263-.05h-.006zm2.7-2.306L9.252 6.144a.349.349 0 01-.373.04.349.349 0 01-.202-.314V4.016a4.032 4.032 0 012.018.977zm-3.351-.981V5.86a.347.347 0 01-.202.315.35.35 0 01-.369-.04L5.328 4.978a4.006 4.006 0 012.018-.967zm-3.37 3.97a3.983 3.983 0 01.513-1.96l1.444 1.15a.349.349 0 01.115.353.35.35 0 01-.262.262l-1.815.414c.008-.069.004-.138.004-.218zm.302 1.525l1.802-.403a.35.35 0 01.353.125.35.35 0 01.042.367l-.806 1.67a4.031 4.031 0 01-1.391-1.76zm3.725 2.502a4.064 4.064 0 01-1.133-.164l.806-1.675a.34.34 0 01.313-.201.343.343 0 01.31.201l.807 1.681c-.359.103-.73.156-1.103.158zm1.556-2.77a.349.349 0 01.351-.123l1.814.403a4.048 4.048 0 01-1.41 1.748l-.807-1.663a.349.349 0 01.052-.365z" fill="#ff7b32"></path></svg>