  <svg width="45" height="45" viewBox="0 0 16 16" xmlns="http://www.w3.org/2000/svg" class="careers-card__icon"><path fill-rule="evenodd" clip-rule="evenodd" d="M16 2.667A2.669 2.669 0 0013.333 0H2.667A2.669 2.669 0 000 2.667v2.666h1.333V2c0-.363.304-.67.667-.67l12 .003c.363 0 .667.304.667.667v3.333H16V2.667zM16 8a2.669 2.669 0 00-2.667-2.667H2.667A2.669 2.669 0 000 8v2.667h1.333V7.333c0-.362.304-.67.667-.67l12 .004c.363 0 .667.304.667.666v3.334H16V8zm-2.667 2.667A2.669 2.669 0 0116 13.333V16h-1.333v-3.333A.674.674 0 0014 12l-12-.003a.677.677 0 00-.667.67V16H0v-2.667a2.669 2.669 0 012.667-2.666h10.666z" fill="#ff7b32"></path></svg>