<svg width="16" height="16" viewBox="0 0 16 16" xmlns="http://www.w3.org/2000/svg" class="careers-card__icon"><path d="M8 5.348a2.66 2.66 0 012.662 2.662A2.66 2.66 0 018 10.672 2.66 2.66 0 015.338 8.01C5.318 6.538 6.528 5.348 8 5.348zm0-1.331A3.989 3.989 0 004.008 8.01 3.99 3.99 0 008 12.003a3.99 3.99 0 003.992-3.993A3.989 3.989 0 008 4.017zm0-.686c2.44 0 4.638 1.392 6.755 4.276a.636.636 0 010 .786C12.638 11.277 10.44 12.67 8 12.67c-2.44 0-4.638-1.392-6.755-4.276a.636.636 0 010-.786C3.362 4.743 5.56 3.33 8 3.33zM8 2C4.41 2 1.95 4.561.62 6.235a2.821 2.821 0 000 3.53C1.95 11.439 4.41 14 8 14s6.05-2.561 7.38-4.235a2.821 2.821 0 000-3.53C14.05 4.561 11.59 2 8 2z" fill="#247ACF"></path></svg>