 <svg width="16" height="16" viewBox="0 0 16 16" xmlns="http://www.w3.org/2000/svg" class="careers-card__icon"><path fill="#247ACF" d="M11.785 5.205a1.994 1.994 0 002.8-.022l1.411-1.411-.935-.95-1.7 1.7a.262.262 0 01-.375 0l-1.495-1.498a.268.268 0 010-.377l1.699-1.7L12.238 0l-1.41 1.411a1.998 1.998 0 00-.041 2.782l-6.582 6.594a1.992 1.992 0 00-2.794.03L0 12.228l.94.942 1.699-1.7a.263.263 0 01.375 0l1.506 1.506a.268.268 0 010 .377L2.822 15.06l.942.941 1.41-1.411a1.998 1.998 0 00.031-2.792l6.58-6.592z" fill-rule="#247ACF"></path><path fill="#247ACF" d="M12.555 9.273a1.996 1.996 0 00-2.823 0l-.475.478a2 2 0 000 2.822l2.822 2.822a1.996 1.996 0 002.822 0l.472-.478a2 2 0 000-2.822l-2.818-2.822zm1.876 4.705l-.475.476a.664.664 0 01-.94 0l-2.822-2.822a.665.665 0 010-.942l.49-.476a.664.664 0 01.94 0l2.821 2.823a.665.665 0 01-.014.937v.004zM.34.202L.202.34a.665.665 0 00-.076.856l1.903 2.665c.081.115.197.2.33.244l1.069.355a.683.683 0 01.26.16L6.02 6.962l.942-.942L4.62 3.68a.684.684 0 01-.159-.252L4.106 2.36a.657.657 0 00-.244-.331L1.197.125a.665.665 0 00-.856.077z" fill-rule="#247ACF"></path></svg>