<svg width="40" height="40" viewBox="0 0 48 48" fill="none" xmlns="http://www.w3.org/2000/svg" class="onboarding-benefits__grid-item-icon"><g clip-path="url(#heart_svg__a)"><path d="M47.764 10.51a12.98 12.98 0 00-19.05-8.876A12.985 12.985 0 0023.99 6.13 12.987 12.987 0 0012.971 0 12.968 12.968 0 002.399 20.486c2.117 2.985 15.604 20.815 20.109 26.784a1.85 1.85 0 002.949 0c4.52-5.976 18.013-23.824 20.109-26.784a12.87 12.87 0 002.198-9.977zm-5.398 7.683c-2.501 3.503-14.372 19.202-17.572 23.436a.995.995 0 01-1.591 0c-3.2-4.234-15.089-19.933-17.558-23.436a9.014 9.014 0 017.338-14.238 9.014 9.014 0 019.01 9.013V13H26v-.032a9.015 9.015 0 1116.359 5.229l.007-.004z" fill="#247ACF"></path></g><defs><clipPath id="heart_svg__a"><path fill="#fff" d="M0 0h48v48H0z"></path></clipPath></defs></svg>