<svg width="40" height="40" viewBox="0 0 48 48" fill="none" xmlns="http://www.w3.org/2000/svg" class="onboarding-benefits__grid-item-icon"><g clip-path="url(#chat_svg__a)" fill="#247ACF"><path d="M39.999 8.001H8.001v4.004h31.998V8zm0 8.007H8.001v4.004h31.998v-4.004zM28 24.01H8.002v4.003h20v-4.004z"></path><path d="M39.999 0H8.001A8.001 8.001 0 000 8.001v24.01a8 8 0 008.001 8v3.98a4.01 4.01 0 006.846 2.836l6.81-6.816h18.342a8.001 8.001 0 008.001-8V8a8.001 8.001 0 00-8.001-8zm4.003 34.012a2.002 2.002 0 01-2.001 2.002H20l-7.3 7.317a.399.399 0 01-.683-.284v-7.033H5.999a2.002 2.002 0 01-2.002-2.002V5.999A2.002 2.002 0 016 4.004h36.002a2.002 2.002 0 012.002 1.995v28.013z"></path></g><defs><clipPath id="chat_svg__a"><path fill="#fff" d="M0 0h48v48H0z"></path></clipPath></defs></svg>