<svg width="40" height="40" viewBox="0 0 48 48" fill="none" xmlns="http://www.w3.org/2000/svg" class="onboarding-benefits__grid-item-icon"><path d="M24.006 4.003A19.955 19.955 0 119.862 9.856a19.87 19.87 0 0114.144-5.853zm0-4.003a24 24 0 10-.012 48 24 24 0 00.012-48z" fill="#247ACF"></path><path d="M8.006 24A16 16 0 0040 24h-3.997a11.997 11.997 0 11-23.994 0H8.006zm10.002-4.003a2.001 2.001 0 01-2.002-1.995v-4.003a2 2 0 113.997 0V18a1.996 1.996 0 01-1.995 1.996zm11.996 0a2.002 2.002 0 01-2.001-1.995v-4.003a2.001 2.001 0 014.003 0v4.003a2.001 2.001 0 01-2.002 1.995z" fill="#247ACF"></path></svg>