<svg width="40" height="40" viewBox="0 0 48 48" fill="none" xmlns="http://www.w3.org/2000/svg" class="onboarding-benefits__grid-item-icon"><path d="M40.023 15.96l-7.13-7.1A9.81 9.81 0 0025.968 6H7.995A7.995 7.995 0 000 13.993v15.99a7.995 7.995 0 007.995 7.995h.345A6.005 6.005 0 0014.012 42a6.011 6.011 0 005.673-4.022h8.624a6.01 6.01 0 0011.345 0h.351A7.995 7.995 0 0048 29.984v-6.048a7.995 7.995 0 00-7.977-7.976zM14.018 37.997a2.014 2.014 0 110-4.021 2.014 2.014 0 110 4.021zm7.99-4.021h-2.329a6.047 6.047 0 00-5.667-3.998 6.048 6.048 0 00-5.666 3.998H5.999a2.002 2.002 0 01-2.002-1.996v-4.022h4.004v-3.997H3.997V11.974A2.002 2.002 0 016 9.98h16.002l.006 23.997zm3.997-23.997h.635a3.99 3.99 0 012.824 1.167l4.838 4.838h-8.297V9.979zm7.977 28.018a2.014 2.014 0 112.014-2.008 2.002 2.002 0 01-2.014 2.008zM42 33.976h-2.353a6.011 6.011 0 00-5.666-3.998 6.048 6.048 0 00-5.667 3.998h-2.31V19.994H41.97a2.008 2.008 0 012.007 2.001v1.966h-3.991v3.997h3.991v4.022A2.002 2.002 0 0142 33.976z" fill="#247ACF"></path></svg>