<svg width="40" height="40" viewBox="0 0 48 48" fill="none" xmlns="http://www.w3.org/2000/svg" class="onboarding-benefits__grid-item-icon"><path d="M48 20a12.004 12.004 0 00-8.007-11.316 8.999 8.999 0 00-15.99-5.34A8.992 8.992 0 0017 0a8.999 8.999 0 00-8.993 8.684 11.998 11.998 0 00-5.2 19.026 10.003 10.003 0 007.172 11.968V40a8.013 8.013 0 0011.307 7.29 7.983 7.983 0 002.711-2.01A7.965 7.965 0 0030.003 48a8.014 8.014 0 008.019-8.013v-.32a10.003 10.003 0 007.172-11.969A11.944 11.944 0 0048 20zM21.996 40.035a4.022 4.022 0 01-4.01 4.016 4.01 4.01 0 01-1.917-.508l-.097-.054-.066-.037a4.022 4.022 0 01-1.93-3.435v-4.016c-.193 0-.387 0-.604-.03h-.605a5.988 5.988 0 01-5.044-9.21 8.08 8.08 0 01-2.207-2.069 7.904 7.904 0 01-1.403-3.338 8.303 8.303 0 01-.103-1.294 8.037 8.037 0 013.985-6.955 8.155 8.155 0 011.978-.816c.224-.06.46-.115.695-.157l1.325-.11V9a5.008 5.008 0 015.001-5.001 5.001 5.001 0 015.002 5v31.037zm21.886-18.68a7.904 7.904 0 01-1.403 3.337 8.08 8.08 0 01-2.207 2.069 5.988 5.988 0 01-5.044 9.21h-.605c-.194 0-.387.03-.605.03v4.034a4.021 4.021 0 01-1.929 3.435l-.066.037-.091.036a4.01 4.01 0 01-1.917.49 4.022 4.022 0 01-4.01-3.998V9a5.002 5.002 0 0110.003 0v3.024l1.324.109c.236.042.472.096.696.157a8.155 8.155 0 011.977.816 8.038 8.038 0 013.877 8.25z" fill="#247ACF"></path></svg>
