<svg width="40" height="40" viewBox="0 0 48 48" fill="none" xmlns="http://www.w3.org/2000/svg" class="onboarding-benefits__grid-item-icon"><g clip-path="url(#doc_svg__a)"><path d="M24.06 5.622L42.378 23.94H26.055a2.013 2.013 0 01-1.995-1.995V5.622zm-20.07.363c0-1.088.907-1.995 1.995-1.995H20.01v16.02a7.972 7.972 0 007.98 7.98h16.02V48H48V27.325a8.057 8.057 0 00-2.358-5.683L26.358 2.358A7.952 7.952 0 0020.675 0H7.98A7.972 7.972 0 000 7.98v39.96h3.99V5.985z" fill="#247ACF"></path></g><defs><clipPath id="doc_svg__a"><path fill="#fff" d="M0 0h48v48H0z"></path></clipPath></defs></svg>