<svg viewBox="0 0 1440 470" fill="none" xmlns="http://www.w3.org/2000/svg">
  <path
    d="M1460 87.6998V57.346H207.736L228.65 10.8364L195.291 0L169.515 57.346H-73V84.3975L150.766 98.9911L-6.70081 449.217L53.2011 470L216.948 369.743C215.041 391.139 215.576 405.476 215.646 407.354L216.064 417.123L265.219 434.287L502.198 289.162C489.589 311.053 479.47 334.11 472.352 357.681L468.443 370.574L527.508 390.724L776.444 218.35L727.964 325.804L789.704 346.884L936.678 227.229L906.018 295.569L972.108 318.982L1138.83 146.074L1148.58 149.396L1097.49 264.246L1159.7 285.484L1316.31 145.837L1327.03 149.495L1279.43 257.404L1313.89 270.653L1362.65 208.364L1342.52 200.81L1372.72 132.37L1307.19 109.966L1150.58 249.613L1143.3 247.122L1194.36 132.291L1127.85 109.59L961.36 282.281L951.753 278.88L1019.33 128.277L985.973 117.46L966.339 161.221L966.246 161.142L781.678 311.409L773.931 308.759L831.251 181.668L792.169 168.32L521.32 355.862L511.177 352.401C531.695 294.581 571.498 241.13 621.862 204.191C690.162 154.122 772.768 135.791 867.355 149.713L873.45 119.814C769.302 104.488 674.227 125.726 598.529 181.233C582.897 192.702 568.195 205.615 554.632 219.655L260.473 399.801L251.331 396.617C251.517 386.117 252.471 367.865 256.077 345.816L533.696 175.795L541.582 120.743L524.088 118.766C438.458 109.056 368.436 124.658 316.025 165.176C257.798 210.163 233.163 276.744 222.834 328.731L48.3857 435.533L39.127 432.33L194.081 87.6998H1460ZM340.032 187.64C375.578 160.173 421.476 146.351 476.841 146.351C484.96 146.351 493.288 146.648 501.826 147.241L500.151 158.947L266.08 302.253C278.223 262.032 300.23 218.389 340.032 187.64Z"
    fill="#F5F7F8"/>
</svg>
