<svg width="20" height="20" viewBox="0 0 20 20" fill="none" xmlns="http://www.w3.org/2000/svg"><path d="M10 20C15.5228 20 20 15.5228 20 10C20 4.47715 15.5228 0 10 0C4.47715 0 0 4.47715 0 10C0 15.5228 4.47715 20 10 20Z" fill="#DEDEDE"/><path d="M13.1075 6.13708C13.0406 6.07019 12.9312 6.07019 12.8643 6.13708L10.3824 8.61892C10.3156 8.6858 10.2061 8.6858 10.1392 8.61892L7.65741 6.13708C7.59053 6.07019 7.48105 6.07019 7.41417 6.13708L6.13708 7.41412C6.07019 7.48101 6.07019 7.59048 6.13708 7.65736L8.61892 10.1392C8.6858 10.2061 8.6858 10.3156 8.61892 10.3824L6.13708 12.8643C6.07019 12.9312 6.07019 13.0406 6.13708 13.1075L7.41412 14.3846C7.48101 14.4515 7.59048 14.4515 7.65736 14.3846L10.1392 11.9027C10.2061 11.8359 10.3156 11.8359 10.3824 11.9027L12.8642 14.3845C12.9311 14.4514 13.0406 14.4514 13.1075 14.3845L14.3845 13.1075C14.4514 13.0406 14.4514 12.9311 14.3845 12.8642L11.9027 10.3824C11.8359 10.3156 11.8359 10.2061 11.9027 10.1392L14.3845 7.65741C14.4514 7.59053 14.4514 7.48105 14.3845 7.41417L13.1075 6.13708Z" fill="white"/></svg>