<svg width="20" height="20" viewBox="0 0 20 20" fill="none" xmlns="http://www.w3.org/2000/svg"><path d="M10 20C15.5228 20 20 15.5228 20 10C20 4.47715 15.5228 0 10 0C4.47715 0 0 4.47715 0 10C0 15.5228 4.47715 20 10 20Z" fill="#95E58E"/><path d="M14.2839 7.94499L13.5515 7.21255C13.4511 7.11204 13.3289 7.06177 13.1854 7.06177C13.0417 7.06177 12.9195 7.11204 12.8191 7.21255L9.28602 10.7509L7.70261 9.16215C7.60207 9.06161 7.48 9.01139 7.33643 9.01139C7.19276 9.01139 7.0707 9.06161 6.97015 9.16215L6.23771 9.89461C6.13717 9.99514 6.08691 10.1172 6.08691 10.2609C6.08691 10.4044 6.13717 10.5266 6.23771 10.6271L8.1873 12.5767L8.91979 13.3091C9.02028 13.4097 9.14239 13.4599 9.28602 13.4599C9.42959 13.4599 9.55169 13.4096 9.65224 13.3091L10.3847 12.5767L14.2839 8.67748C14.3844 8.57694 14.4347 8.45485 14.4347 8.31121C14.4348 8.16764 14.3844 8.04553 14.2839 7.94499Z" fill="white"/></svg>