<?xml version="1.0" encoding="utf-8"?>
<!-- Generator: Adobe Illustrator 26.2.1, SVG Export Plug-In . SVG Version: 6.00 Build 0)  -->
<svg version="1.1" xmlns="http://www.w3.org/2000/svg" xmlns:xlink="http://www.w3.org/1999/xlink" x="0px" y="0px"
	 viewBox="0 0 485.23 476.18" style="enable-background:new 0 0 485.23 476.18;" xml:space="preserve">
<style type="text/css">
	.st0{opacity:0.8;fill:url(#SVGID_1_);fill-opacity:0.99;enable-background:new    ;}
	.st1{fill:#031D38;}
	.st2{opacity:0.2;fill:#1EA0FA;enable-background:new    ;}
	.st3{fill:#F39200;}
	.st4{fill:#FFFFFF;}
	.st5{fill:#F46A3F;}
	.st6{fill:#D6CCC9;}
	
		.st7{opacity:0.8;fill:url(#SVGID_00000035522206496481791320000007401694261650793905_);fill-opacity:0.99;enable-background:new    ;}
	
		.st8{opacity:0.8;fill:url(#SVGID_00000049933923154320199480000015422407283779600276_);fill-opacity:0.99;enable-background:new    ;}
	
		.st9{opacity:0.8;fill:url(#SVGID_00000013151485825533044480000003412420836195262099_);fill-opacity:0.99;enable-background:new    ;}
	.st10{fill:#DADADA;}
	.st11{fill:#F6F6F6;}
	.st12{fill:#1D71B8;}
	.st13{fill:#EA5B0C;}
	.st14{fill:#009FE3;}
	
		.st15{opacity:0.8;fill:url(#SVGID_00000170980041183599489570000015163861779696792216_);fill-opacity:0.99;enable-background:new    ;}
	.st16{opacity:0.64;fill:#FFFFFF;}
	.st17{fill:url(#SVGID_00000154427798370969429990000003290162190943743659_);}
	.st18{fill:url(#SVGID_00000115478218620867211940000013757418935928740254_);}
	.st19{fill:#6CC7EF;}
	.st20{fill:#2FC1F4;}
	.st21{fill:#7DDDFF;}
	.st22{opacity:0.64;fill:#7DDDFF;}
	.st23{opacity:0.3;fill:#52B7EF;enable-background:new    ;}
	.st24{fill:#32FF51;}
	.st25{fill:#5FDDFF;}
	.st26{opacity:0.35;fill:#FFFFFF;stroke:#FFFFFF;stroke-width:2;stroke-miterlimit:10;}
	.st27{fill:none;stroke:#FFFFFF;stroke-miterlimit:10;}
	.st28{fill:none;stroke:#FFFFFF;stroke-width:2;stroke-miterlimit:10;}
	
		.st29{opacity:0.8;fill:url(#SVGID_00000060021957739400739840000013590007926163937709_);fill-opacity:0.99;enable-background:new    ;}
	.st30{fill:#FDE4CC;}
	.st31{fill:#E4C8AB;}
	
		.st32{opacity:0.8;fill:url(#SVGID_00000020363591458704675250000009829144091508744383_);fill-opacity:0.99;enable-background:new    ;}
	.st33{fill:none;stroke:#1E0E00;stroke-width:10;stroke-miterlimit:10;}
	.st34{fill:#B0B0B0;}
	.st35{fill:#575756;}
	.st36{fill:#D8D8D8;}
	.st37{fill:#707070;}
	.st38{fill:#3C3C3A;}
	.st39{fill:#C7C8CA;}
	.st40{fill:#818588;}
	.st41{fill:#B5B9BA;}
	.st42{fill:#B2B4B1;}
	.st43{fill:#2B2B2D;}
	.st44{fill:#858585;}
	.st45{fill:#1C1C1B;}
	.st46{fill:#E8E8E8;}
	.st47{fill:#F7F7F7;}
	.st48{fill:#C8CCCF;}
	.st49{fill:#D2AA87;}
	.st50{fill:#FFDB37;}
	.st51{fill:#F14941;}
	.st52{fill:#1E0E00;}
	.st53{fill:#5A5550;}
	.st54{fill:none;stroke:#5A5550;stroke-miterlimit:10;}
	.st55{fill:#EEEEEE;}
	.st56{fill:#E2E2E2;}
	.st57{fill:#F8B65A;}
	
		.st58{opacity:0.8;fill:url(#SVGID_00000139981029157521862650000005876727753595491758_);fill-opacity:0.99;enable-background:new    ;}
	.st59{fill:#E30613;}
	.st60{fill:#706F6F;}
	.st61{fill:#F9B233;}
	.st62{fill:#EDEDED;}
	.st63{fill:#E8502D;}
	.st64{fill:#878787;}
	.st65{fill:#6D6D6D;}
	.st66{fill:#1D1D1B;}
	
		.st67{opacity:0.8;fill:url(#SVGID_00000039099623044546851000000012307709684587757457_);fill-opacity:0.99;enable-background:new    ;}
	.st68{fill:#F2FF00;}
	.st69{fill:none;stroke:#B2B2B2;stroke-miterlimit:10;}
	.st70{fill:#DFB083;}
	.st71{fill:#5C4F4F;}
	.st72{fill:#170021;}
	.st73{fill:#CAC8C8;}
	.st74{fill:none;stroke:#F9ED42;stroke-width:14;stroke-miterlimit:10;}
	
		.st75{opacity:0.8;fill:url(#SVGID_00000147906812696689581930000003435982403440563118_);fill-opacity:0.99;enable-background:new    ;}
	
		.st76{opacity:0.8;fill:url(#SVGID_00000178168487982412184220000007923725991257299132_);fill-opacity:0.99;enable-background:new    ;}
	.st77{fill:#6C6966;}
	.st78{fill:none;stroke:#5A5550;stroke-width:3;stroke-miterlimit:10;}
	.st79{fill:#249250;}
	.st80{fill:#44B658;}
	.st81{fill:#48423B;}
	
		.st82{opacity:0.8;fill:url(#SVGID_00000136408238654255848790000014116254578740427705_);fill-opacity:0.99;enable-background:new    ;}
	.st83{opacity:0.2;fill:#1DA2FC;enable-background:new    ;}
	.st84{opacity:0.29;}
	.st85{opacity:0.2;}
	.st86{clip-path:url(#SVGID_00000026165721471429576030000005650945664297614238_);}
	.st87{fill:#3C3C3B;}
	.st88{fill:#E7CAAD;}
	.st89{fill:#FC951D;}
	.st90{fill:none;stroke:#FCEA0D;stroke-width:2;stroke-miterlimit:10;}
	.st91{fill:#73F20F;}
	.st92{fill:#FFF7AB;}
	.st93{fill:#FCEA0D;}
	.st94{fill:#F8B133;stroke:#FC951D;stroke-miterlimit:10;}
	.st95{fill:#FFEC00;}
	
		.st96{opacity:0.8;fill:url(#SVGID_00000057107205658179701500000010022320828174148488_);fill-opacity:0.99;enable-background:new    ;}
	.st97{fill:none;}
	
		.st98{opacity:0.8;fill:url(#SVGID_00000008142012077082114060000002661675074080607641_);fill-opacity:0.99;enable-background:new    ;}
	.st99{fill:#BF4A10;}
	.st100{fill:#455159;}
	.st101{fill:#AFE213;}
	.st102{fill:#C6C6C6;}
	.st103{fill:#9D9D9C;}
	.st104{fill:#B2B2B2;}
	.st105{fill:none;stroke:#FFFFFF;stroke-width:4;stroke-miterlimit:10;}
	.st106{fill:#FFED00;}
	
		.st107{opacity:0.8;fill:url(#SVGID_00000044172183789584898080000009797781710523070121_);fill-opacity:0.99;enable-background:new    ;}
	
		.st108{opacity:0.8;fill:url(#SVGID_00000102506193740724809570000018362234317746521760_);fill-opacity:0.99;enable-background:new    ;}
	.st109{fill:#E6332A;}
	.st110{fill:#E0A477;}
	.st111{fill:#B17F4A;}
	.st112{fill:#F2C3AF;}
	.st113{fill:#E5AF7F;}
	.st114{fill:#E94E1B;}
	.st115{fill:#E5B8A8;}
	.st116{fill:#A3DAF7;}
	.st117{clip-path:url(#SVGID_00000110442256100998488470000005350627806668142982_);fill:#A3DAF7;}
	.st118{opacity:0.8;clip-path:url(#SVGID_00000110442256100998488470000005350627806668142982_);fill:#4D95D1;}
	.st119{clip-path:url(#SVGID_00000110442256100998488470000005350627806668142982_);}
	.st120{opacity:0.3;fill:#CABA9F;}
	.st121{opacity:0.5;fill:#CABA9F;}
	.st122{clip-path:url(#SVGID_00000110442256100998488470000005350627806668142982_);fill:#9C9B9B;}
	.st123{clip-path:url(#SVGID_00000110442256100998488470000005350627806668142982_);fill:#FFFFFF;}
	.st124{clip-path:url(#SVGID_00000110442256100998488470000005350627806668142982_);fill:#3C3C3B;}
	.st125{clip-path:url(#SVGID_00000110442256100998488470000005350627806668142982_);fill:#FDE4CC;}
	.st126{clip-path:url(#SVGID_00000110442256100998488470000005350627806668142982_);fill:#C6C6C5;}
	.st127{clip-path:url(#SVGID_00000110442256100998488470000005350627806668142982_);fill:#F9B75A;}
	.st128{clip-path:url(#SVGID_00000110442256100998488470000005350627806668142982_);fill:#575756;}
	.st129{clip-path:url(#SVGID_00000110442256100998488470000005350627806668142982_);fill:#E20613;}
	.st130{opacity:0.29;clip-path:url(#SVGID_00000110442256100998488470000005350627806668142982_);}
	.st131{fill:#D1A98B;}
	
		.st132{opacity:0.8;fill:url(#SVGID_00000103223149886324495270000010940222594841089461_);fill-opacity:0.99;enable-background:new    ;}
	.st133{fill:#E2BD9F;}
	.st134{fill:#DDB79B;}
	.st135{fill:#D6AE8A;}
	.st136{fill:none;stroke:#1D1D1B;stroke-miterlimit:10;}
	.st137{fill:#A48A7B;}
	.st138{fill:#FFF385;}
	.st139{fill:none;stroke:#575756;stroke-miterlimit:10;}
	.st140{fill:#575756;stroke:#FFFFFF;stroke-miterlimit:10;}
	.st141{fill:#2CF721;stroke:#FFED00;stroke-miterlimit:10;}
	
		.st142{opacity:0.8;fill:url(#SVGID_00000084510174830727083720000006748481508591761804_);fill-opacity:0.99;enable-background:new    ;}
	.st143{fill:#C9CACC;}
	.st144{fill:#83878A;}
	.st145{fill:#B8BBBC;}
	.st146{fill:#B4B6B3;}
	.st147{fill:#EAEAEA;}
	.st148{fill:#F9F9F9;}
	.st149{fill:#CACED1;}
	.st150{fill:#58B8E8;}
	.st151{fill:#D1B397;}
	.st152{fill:#ACAEAD;}
	.st153{fill:#969997;}
	.st154{fill:#BFC7D2;}
	.st155{fill:#BCC7C9;}
	.st156{fill:#E2E6F1;}
	.st157{fill:#C4C9CD;}
	.st158{fill:#C1C3C6;}
	.st159{fill:#D9E2E8;}
	.st160{fill:#B8B9BE;}
	.st161{fill:#CFD7DA;}
	.st162{fill:#C6C6C8;}
	.st163{fill:#E5EEF7;}
	.st164{fill:#D4D8DB;}
	.st165{fill:#A4A2A5;}
	.st166{fill:#707172;}
	.st167{fill:#D7DDE9;}
	.st168{fill:#CCD1D5;}
	.st169{fill:#4F5054;}
	.st170{fill:none;stroke:#E30613;stroke-miterlimit:10;}
	
		.st171{opacity:0.8;fill:url(#SVGID_00000042008884473717495370000016505235755608385677_);fill-opacity:0.99;enable-background:new    ;}
	.st172{fill:#FFF3DE;}
	.st173{opacity:0.42;fill:#FFFFFF;}
	.st174{fill:#AAABAB;}
	.st175{fill:#1C3AA9;}
	.st176{fill:#4285F3;}
	.st177{fill:#E2DABA;}
	
		.st178{opacity:0.8;fill:url(#SVGID_00000183959912752464585400000002010154261024808354_);fill-opacity:0.99;enable-background:new    ;}
	.st179{fill:#C49D82;}
	.st180{fill:#EFD5BD;}
	
		.st181{opacity:0.8;fill:url(#SVGID_00000127032746646753013020000014293780564068202924_);fill-opacity:0.99;enable-background:new    ;}
	.st182{opacity:0.56;fill:#575756;}
	.st183{fill:none;stroke:#3C3C3B;stroke-width:3;stroke-miterlimit:10;}
	.st184{fill:#FF6F27;}
	.st185{fill:#1D1D1B;stroke:#1D1D1B;stroke-miterlimit:10;}
	
		.st186{opacity:0.8;fill:url(#SVGID_00000145041688882582236510000005624205151119922851_);fill-opacity:0.99;enable-background:new    ;}
	
		.st187{opacity:0.8;fill:url(#SVGID_00000178923269821041657590000006899446724406773654_);fill-opacity:0.99;enable-background:new    ;}
	.st188{fill:none;stroke:#575756;stroke-width:4;stroke-miterlimit:10;}
	.st189{fill:#FF3333;}
	.st190{fill:#BE1622;}
	.st191{fill:#FCEA10;}
	
		.st192{opacity:0.8;fill:url(#SVGID_00000037685887871773812610000007500579057797101458_);fill-opacity:0.99;enable-background:new    ;}
	.st193{fill:url(#SVGID_00000000902573363993071360000017317175054037751939_);}
	.st194{fill:url(#SVGID_00000101796648898083233280000005080768767259460797_);}
	.st195{enable-background:new    ;}
	.st196{opacity:0.99;fill:#878787;}
	.st197{opacity:0.49;fill:#BE1622;}
	
		.st198{opacity:0.8;fill:url(#SVGID_00000076573823303935468580000018276056830641003686_);fill-opacity:0.99;enable-background:new    ;}
	.st199{fill:url(#SVGID_00000119103247140005251680000000229759137425076632_);}
	.st200{fill:url(#SVGID_00000151504166714647609790000018085476446050459799_);}
	.st201{fill:#F26522;}
	.st202{fill:#F1F2F2;}
	.st203{fill:url(#SVGID_00000098927399989676329230000001979121080820472726_);}
	.st204{fill:#B7B7B7;}
	.st205{fill:#171715;}
	.st206{fill:#19D10F;}
	.st207{fill:url(#SVGID_00000095312424828733616750000016874443287693949614_);}
	.st208{fill:url(#SVGID_00000155146560449833156050000015810566483681202319_);}
	
		.st209{opacity:0.8;fill:url(#SVGID_00000114767780793157375030000013398526965326813348_);fill-opacity:0.99;enable-background:new    ;}
	.st210{fill:url(#SVGID_00000070839470475837595570000006685594271179601560_);}
	.st211{fill:#F47400;}
	.st212{fill:none;stroke:#1D1D1B;stroke-width:4;stroke-linecap:round;stroke-miterlimit:10;}
	
		.st213{opacity:0.8;fill:url(#SVGID_00000067198165340499513610000017239639223668382114_);fill-opacity:0.99;enable-background:new    ;}
	.st214{fill:url(#SVGID_00000127747849752667141800000017236528593894610325_);}
	.st215{fill:none;stroke:#1D1D1B;stroke-width:4;stroke-miterlimit:10;}
	
		.st216{opacity:0.8;fill:url(#SVGID_00000134220812014667184460000017805658873048308356_);fill-opacity:0.99;enable-background:new    ;}
	.st217{fill:#1DA2FC;}
	.st218{fill:url(#SVGID_00000111893723710273961790000000194305657546975152_);}
	.st219{fill:url(#SVGID_00000152261003013809362270000011907033068974787256_);}
	.st220{fill:#118FE4;}
	.st221{fill:#0C82D1;}
	.st222{opacity:0.3;fill:#0C82D1;enable-background:new    ;}
	.st223{opacity:0.5;fill:#0C82D1;enable-background:new    ;}
	.st224{opacity:0.21;fill:#1D71B8;}
	.st225{fill:url(#SVGID_00000119097396705740952040000005617372490840656287_);}
	.st226{fill:url(#SVGID_00000125561985110946117210000015360361631138622140_);}
	
		.st227{opacity:0.8;fill:url(#SVGID_00000088104339111072563720000012773480241571686333_);fill-opacity:0.99;enable-background:new    ;}
	.st228{fill:#35AEFF;}
	.st229{fill:url(#SVGID_00000165199782290549563460000000683994433908790171_);}
	.st230{fill:url(#SVGID_00000183930937294315542710000005709306087857838491_);}
	.st231{fill:url(#SVGID_00000042704389429527668110000002213344847288588952_);}
	.st232{fill:url(#SVGID_00000168808167180673569120000015241881242631123897_);}
	.st233{fill:url(#SVGID_00000041255264492928815520000007610724965572849812_);}
	.st234{fill:url(#SVGID_00000068650289419723248770000010562596536665006232_);}
	.st235{fill:#432918;}
	.st236{fill:url(#SVGID_00000100379548124231340260000017618593753798122115_);}
	.st237{fill:url(#SVGID_00000027591171199321537430000001326810438826413973_);}
	.st238{fill:url(#SVGID_00000049920899260853318700000003044807786900455302_);}
	.st239{fill:url(#SVGID_00000101784589006122470890000010754528901199092871_);}
	.st240{fill:url(#SVGID_00000146483816927545314140000004820956534455338156_);}
	.st241{fill:url(#SVGID_00000008863728596045790270000012551730941501976724_);}
	.st242{fill:none;stroke:#F39200;stroke-miterlimit:10;}
	.st243{fill:#FFDABB;}
	.st244{fill:url(#SVGID_00000158029758004079924840000001099321523420350850_);}
	.st245{fill:url(#SVGID_00000098916384143705036230000010652694464377999764_);}
	.st246{fill:url(#SVGID_00000183238003613347765180000001679241263421196441_);}
	.st247{fill:url(#SVGID_00000011732427326246770700000016350018771408423870_);}
	.st248{fill:url(#SVGID_00000046331781030991402870000014498148591558833299_);}
	.st249{fill:url(#SVGID_00000036948405528836481500000011581000965478412165_);}
	.st250{fill:url(#SVGID_00000168094343091467057240000001978629704227191954_);}
	.st251{fill:url(#SVGID_00000123404207483125757550000018374480818888421266_);}
	
		.st252{opacity:0.8;fill:url(#SVGID_00000119810235810780128520000013001566730631813821_);fill-opacity:0.99;enable-background:new    ;}
	.st253{opacity:0.3;fill:#F1F2F2;}
	.st254{fill:#465051;}
	.st255{fill:#FBDC4C;}
	.st256{fill:#55C3FE;}
	.st257{fill:#97DFFF;}
	.st258{fill:#7BD7FF;}
	.st259{fill:#F0FBFF;}
	.st260{fill:#CBE9F4;}
	.st261{opacity:0.37;}
	.st262{fill:#16EF0F;}
	.st263{opacity:0.15;fill:#BBEDFF;}
	.st264{fill:url(#SVGID_00000139286800265527125280000007980243662985339282_);}
	.st265{fill:#36A9E1;}
	.st266{fill:#FFFFFF;stroke:#CBE9F4;stroke-width:4;stroke-miterlimit:10;}
	.st267{fill:none;stroke:#CBE9F4;stroke-width:4;stroke-miterlimit:10;}
	
		.st268{opacity:0.8;fill:url(#SVGID_00000097462705484817826700000015004769910305473413_);fill-opacity:0.99;enable-background:new    ;}
	
		.st269{opacity:0.8;fill:url(#SVGID_00000041981253399176231400000003192377029218007702_);fill-opacity:0.99;enable-background:new    ;}
	.st270{fill:url(#SVGID_00000163068444959699852860000013713275875799419028_);}
	.st271{fill:#C97200;}
	.st272{fill:#A3CBD8;}
	.st273{fill:#BEDEE5;}
	.st274{fill:#EFEFEF;}
	.st275{fill:url(#SVGID_00000126315715125678065740000010807753299805825208_);}
	
		.st276{opacity:0.8;fill:url(#SVGID_00000065759447350950617550000008215146623759300261_);fill-opacity:0.99;enable-background:new    ;}
	
		.st277{opacity:0.8;fill:url(#SVGID_00000074440646346902797690000007678480762234403775_);fill-opacity:0.99;enable-background:new    ;}
	.st278{opacity:0.5;}
	.st279{fill:url(#SVGID_00000122696638250783491620000017216082967624682890_);}
	.st280{fill:url(#SVGID_00000177479304820493703500000011752708137981303948_);}
	.st281{fill:#F4CC06;}
	.st282{opacity:0.37;fill:#CBE9F4;}
	.st283{fill:#FC0000;}
	
		.st284{opacity:0.8;fill:url(#SVGID_00000027581357687310231450000001019930475380219583_);fill-opacity:0.99;enable-background:new    ;}
	
		.st285{opacity:0.8;fill:url(#SVGID_00000084502703344976896170000003710825058914528906_);fill-opacity:0.99;enable-background:new    ;}
	
		.st286{opacity:0.8;fill:url(#SVGID_00000008845651625862685240000017735016992903987367_);fill-opacity:0.99;enable-background:new    ;}
	
		.st287{opacity:0.8;fill:url(#SVGID_00000183934217851220275950000008585667410086457477_);fill-opacity:0.99;enable-background:new    ;}
	.st288{fill:#60BFF4;enable-background:new    ;}
	.st289{fill:#F39200;stroke:#E94E1B;stroke-width:20;stroke-miterlimit:10;}
	.st290{opacity:0.51;}
	.st291{fill:url(#SVGID_00000093895652030113177790000003805973197595705261_);}
	.st292{fill:url(#SVGID_00000053525994750998879820000015250034263092419204_);}
	.st293{fill:url(#SVGID_00000035490344759281495830000013811491666568794517_);}
	.st294{fill:url(#SVGID_00000000924568016546771520000017646138585127755417_);}
	.st295{fill:url(#SVGID_00000162315735992671180590000015748439534442440587_);}
	.st296{fill:url(#SVGID_00000036243713210486776310000004120876690842187939_);}
	.st297{fill:url(#SVGID_00000109733204807303194400000011741820610613557389_);}
	.st298{fill:url(#SVGID_00000041975500526670713360000008346303459920557995_);}
	.st299{fill:url(#SVGID_00000060745444206892301490000006225129898839976360_);}
	.st300{fill:url(#SVGID_00000011720454039530656800000002571371479494056878_);}
	.st301{opacity:0.88;}
	.st302{fill:#27262A;}
	.st303{fill:#3FA5EF;}
	.st304{fill:url(#SVGID_00000091699004719111521680000017493402585233389210_);}
	.st305{fill:url(#SVGID_00000112594785073089460530000016186926589044504216_);}
	.st306{fill:url(#SVGID_00000004519712962342066320000010033207822642495125_);}
	.st307{fill:#37373D;}
	.st308{fill:url(#SVGID_00000183249956589030307770000007157899460057206947_);}
	.st309{fill:url(#SVGID_00000137834088737460274720000015206687821119610009_);}
	.st310{opacity:0.6;fill:#27262A;}
	.st311{fill:url(#SVGID_00000058580105317680649860000007948148403494788749_);}
	
		.st312{fill:url(#SVGID_00000170994212745552611780000003897333794376856470_);stroke:url(#SVGID_00000079471587689995408470000006513846783432007558_);stroke-miterlimit:10;}
	.st313{fill:url(#SVGID_00000136383210327229294510000010923392688953440939_);}
	.st314{fill:url(#SVGID_00000183208199900273719700000001049574935316990601_);}
	.st315{fill:url(#SVGID_00000121237549047025972290000012712750018377004725_);}
	.st316{fill:url(#SVGID_00000021105924322947512470000005908495873440613006_);}
	
		.st317{opacity:0.8;fill:url(#SVGID_00000104668239453666553010000006713604899528211382_);fill-opacity:0.99;enable-background:new    ;}
	
		.st318{opacity:0.8;fill:url(#SVGID_00000126282865147120525470000015266987906870725311_);fill-opacity:0.99;enable-background:new    ;}
	.st319{fill:#1EA0FA;}
	.st320{fill:url(#SVGID_00000020399150586993330260000001587451505171627164_);}
	.st321{fill:url(#SVGID_00000010310901011124715580000010183692858572136124_);}
	.st322{fill:url(#SVGID_00000010992874304507174170000007957705124996924819_);}
	.st323{fill:url(#SVGID_00000088846591875631171210000010893637378696921228_);}
	.st324{fill:url(#SVGID_00000134968506247910093990000006341986536946806970_);}
	.st325{fill:url(#SVGID_00000100352290887385990590000000192031572028422564_);}
	.st326{fill:none;stroke:#FFFFFF;stroke-width:6;stroke-linecap:round;stroke-linejoin:round;stroke-miterlimit:10;}
	.st327{fill:url(#SVGID_00000016073120136629596380000001345062577315548076_);}
	.st328{fill:url(#SVGID_00000122714427042671063590000013399022609004324764_);}
	.st329{fill:url(#SVGID_00000073714472142619695170000010637060893954993815_);}
	.st330{fill:url(#SVGID_00000090294812770186524530000017798493841093744031_);}
	.st331{fill:url(#SVGID_00000054246076798412381510000000028641981356702608_);}
	.st332{fill:url(#SVGID_00000129923043923625266970000008563214443355730338_);}
	.st333{fill:url(#SVGID_00000047779536208275794030000014428882134996607121_);}
	.st334{fill:url(#SVGID_00000085933266362578504560000009883260871522349241_);}
	.st335{fill:#256653;}
	.st336{fill:#3C8F7C;}
	.st337{fill:#327F6B;}
	.st338{fill:#96D9C9;}
	.st339{fill:#EDD7BE;}
	.st340{fill:#9BC1F9;}
	.st341{fill:#F47458;}
	.st342{fill:#E0C8A9;}
	.st343{fill:#FEF8F8;}
	.st344{fill:#B75742;}
	.st345{fill:#A54737;}
	.st346{fill:#184655;}
	.st347{fill:#F7CC7F;}
	.st348{fill:#FAE0B2;}
	.st349{fill-rule:evenodd;clip-rule:evenodd;fill:url(#SVGID_00000126282356743788932910000015244810339818362260_);}
	.st350{fill-rule:evenodd;clip-rule:evenodd;fill:url(#SVGID_00000137090834714368391690000000309512878908091275_);}
	.st351{fill-rule:evenodd;clip-rule:evenodd;fill:url(#SVGID_00000016765618537655953920000003874433695038409864_);}
	.st352{fill-rule:evenodd;clip-rule:evenodd;fill:url(#SVGID_00000121257066897762833140000012428701663357296298_);}
	.st353{fill-rule:evenodd;clip-rule:evenodd;fill:url(#SVGID_00000026122986709610996910000005015900932316759228_);}
	.st354{fill-rule:evenodd;clip-rule:evenodd;fill:url(#SVGID_00000029762028900434769480000010719396801280748443_);}
	.st355{fill-rule:evenodd;clip-rule:evenodd;fill:url(#SVGID_00000099662304993513837210000010449583391202791303_);}
	.st356{fill-rule:evenodd;clip-rule:evenodd;fill:url(#SVGID_00000031910494983700238840000001802061116486672267_);}
	.st357{fill-rule:evenodd;clip-rule:evenodd;fill:url(#SVGID_00000144303668679711298540000012857641553632270721_);}
	.st358{fill-rule:evenodd;clip-rule:evenodd;fill:url(#SVGID_00000121964089268120877150000005553188389450024328_);}
	.st359{opacity:0.5;fill-rule:evenodd;clip-rule:evenodd;fill:#FBF9FA;}
	.st360{fill-rule:evenodd;clip-rule:evenodd;fill:url(#SVGID_00000084526620666443075270000015573112524840361361_);}
	.st361{fill-rule:evenodd;clip-rule:evenodd;fill:url(#SVGID_00000061443614381245430050000002304961887033741228_);}
	.st362{fill-rule:evenodd;clip-rule:evenodd;fill:url(#SVGID_00000150088171111752009560000010289095027491472818_);}
	.st363{fill-rule:evenodd;clip-rule:evenodd;fill:url(#SVGID_00000093178874290874927790000003615041135660662197_);}
	.st364{opacity:0.5;fill-rule:evenodd;clip-rule:evenodd;fill:#282828;}
	.st365{fill-rule:evenodd;clip-rule:evenodd;fill:url(#SVGID_00000083085380941320301610000000287284212744210825_);}
	
		.st366{opacity:0.8;fill:url(#SVGID_00000091718070644313837130000000489280923215883146_);fill-opacity:0.99;enable-background:new    ;}
	.st367{fill:url(#SVGID_00000117655420305000043940000015373117811601098648_);}
	.st368{fill:url(#SVGID_00000163763715408547704520000010049447018690732699_);}
	.st369{fill:url(#SVGID_00000000202413685603929730000008541480736200013996_);}
	
		.st370{opacity:0.8;fill:url(#SVGID_00000008138986253113485530000004004461669152893887_);fill-opacity:0.99;enable-background:new    ;}
	.st371{fill:url(#SVGID_00000082360648498375069430000012738414535669798569_);}
	.st372{fill:url(#SVGID_00000164510405833403001130000001617331141033086878_);}
	.st373{fill:url(#SVGID_00000043423473629035182450000007464917893621018296_);}
	.st374{fill:#E94A42;}
	.st375{fill-rule:evenodd;clip-rule:evenodd;fill:#F39200;}
	.st376{fill-rule:evenodd;clip-rule:evenodd;fill:#2D2E83;}
	.st377{fill-rule:evenodd;clip-rule:evenodd;fill:#EDEDED;}
	.st378{fill-rule:evenodd;clip-rule:evenodd;fill:#A695CF;}
	.st379{fill:#2C0045;}
	.st380{opacity:0.5;fill-rule:evenodd;clip-rule:evenodd;fill:#8E4072;}
	.st381{fill-rule:evenodd;clip-rule:evenodd;fill:#27348B;}
	.st382{fill:#FF4F4A;}
	.st383{fill-rule:evenodd;clip-rule:evenodd;fill:url(#SVGID_00000048470559025628127300000017408109624536780709_);}
	.st384{opacity:0.25;fill:#1D71B8;}
	.st385{fill:#373735;}
	
		.st386{opacity:0.8;fill:url(#SVGID_00000018921060592052955530000009170395830753433526_);fill-opacity:0.99;enable-background:new    ;}
	.st387{fill:url(#SVGID_00000147208209774706371430000004190078540587830948_);}
	.st388{fill:url(#SVGID_00000005244310123446934410000001939590280273800072_);}
	.st389{fill:url(#SVGID_00000086664537555488465140000016283891103864730761_);}
	.st390{fill:url(#SVGID_00000145765431259176924480000011433037961897652663_);}
	.st391{fill:#B86B03;}
	.st392{fill:#FFA443;}
	
		.st393{opacity:0.8;fill:url(#SVGID_00000006673275542526366500000015475119407758951845_);fill-opacity:0.99;enable-background:new    ;}
	.st394{fill:#FFF9C5;}
	.st395{fill:#F4CF92;}
	.st396{opacity:0.2;fill:#EEEEEE;}
	.st397{fill:url(#SVGID_00000163034500946868869420000003297562731685895057_);}
	.st398{fill:url(#SVGID_00000148644283316404811870000000335610882221642157_);}
	.st399{fill:#3D4A99;}
	.st400{fill:#2D2E83;}
	.st401{fill:#175E8E;}
	.st402{fill:none;stroke:#7FC8EF;stroke-miterlimit:10;}
	
		.st403{opacity:0.8;fill:url(#SVGID_00000047751844867069401600000007013216757606518684_);fill-opacity:0.99;enable-background:new    ;}
	
		.st404{opacity:0.8;fill:url(#SVGID_00000031189166456900745690000015886593420990953131_);fill-opacity:0.99;enable-background:new    ;}
	.st405{fill:#F5BC8F;}
	.st406{fill:#E8A878;}
	
		.st407{opacity:0.8;fill:url(#SVGID_00000112601976543296887750000011152082777803767716_);fill-opacity:0.99;enable-background:new    ;}
	
		.st408{opacity:0.8;fill:url(#SVGID_00000182501325352278899520000007910947086658293680_);fill-opacity:0.99;enable-background:new    ;}
	.st409{fill:#FEF100;}
	.st410{fill:#EC1D24;}
	
		.st411{opacity:0.8;fill:url(#SVGID_00000181083388732021518330000011507448944478225558_);fill-opacity:0.99;enable-background:new    ;}
	
		.st412{opacity:0.8;fill:url(#SVGID_00000183225268770034888750000005874210479418266014_);fill-opacity:0.99;enable-background:new    ;}
	.st413{fill:url(#SVGID_00000152224597299173794050000013946725825286291088_);}
	.st414{fill:#73D0F9;}
	.st415{fill:none;stroke:#1D71B8;stroke-width:2;stroke-miterlimit:10;}
	.st416{opacity:0.8;fill:#4D95D1;}
	.st417{fill:#9C9B9B;}
	.st418{fill:#C6C6C5;}
	.st419{fill:#F9B75A;}
	.st420{fill:#E20613;}
	
		.st421{opacity:0.8;fill:url(#SVGID_00000003814965449408346520000010772136636840629645_);fill-opacity:0.99;enable-background:new    ;}
	.st422{fill:url(#SVGID_00000102530201007257287390000018314068668528563878_);}
	.st423{fill:url(#SVGID_00000010268603712489950290000007594793188362137531_);}
	.st424{fill:url(#SVGID_00000090992736441448329120000006637806322669097351_);}
	.st425{fill:url(#SVGID_00000044859049289832125060000004626337527780636828_);}
	.st426{fill:url(#SVGID_00000174591450625474520650000017585744289221365688_);}
	.st427{fill:url(#SVGID_00000005233240818991593310000014176652541735253949_);}
	.st428{fill:#238DDB;}
	.st429{fill:#6F6F6E;}
	.st430{fill:#F4CB9F;}
	.st431{fill:#E2B982;}
	.st432{fill:#F4CDA2;}
	.st433{fill:#868686;}
	.st434{fill:none;stroke:#E94E1B;stroke-linecap:round;stroke-miterlimit:10;}
	.st435{fill:#331338;}
	.st436{fill:#7381C6;}
	.st437{fill:#1F3DC4;}
	.st438{fill:#C3CBF1;}
	.st439{fill:url(#SVGID_00000164487089541784036680000006371953344641363893_);}
	.st440{fill:url(#SVGID_00000018956972901620854910000000194151632875331002_);}
	
		.st441{opacity:0.8;fill:url(#SVGID_00000088855517668992469580000000788900336393940126_);fill-opacity:0.99;enable-background:new    ;}
	.st442{fill:none;stroke:#E6332A;stroke-miterlimit:10;}
	
		.st443{opacity:0.8;fill:url(#SVGID_00000147184185930860132060000008924778592125539221_);fill-opacity:0.99;enable-background:new    ;}
	
		.st444{opacity:0.8;fill:url(#SVGID_00000111883576747812928860000011462482107373578646_);fill-opacity:0.99;enable-background:new    ;}
	.st445{fill:url(#SVGID_00000031180703511444674560000013387023652383185065_);}
	.st446{fill:url(#SVGID_00000006700939483334277620000014236184137550977955_);}
	.st447{fill:url(#SVGID_00000010270923729526171310000017693843946090231948_);}
	.st448{fill:url(#SVGID_00000025413200353936431750000006332177185365325501_);}
	.st449{fill:#2FD34E;}
	.st450{fill:none;stroke:#B2CC19;stroke-miterlimit:10;}
	.st451{fill-rule:evenodd;clip-rule:evenodd;fill:url(#SVGID_00000034084756230177492710000016667752174718743723_);}
	
		.st452{opacity:0.8;fill:url(#SVGID_00000162316675669857493640000013763926854594440853_);fill-opacity:0.99;enable-background:new    ;}
	.st453{fill:url(#SVGID_00000022526355365144774830000007667978158072752314_);}
	.st454{fill:url(#SVGID_00000026147203719379368650000000376878474942121635_);}
	.st455{fill:url(#SVGID_00000023990706472655701400000011621322946434632591_);}
	.st456{fill:url(#SVGID_00000104689759358555640390000002277312467194973830_);}
	.st457{fill:url(#SVGID_00000170984761549679062340000012909538662472750759_);}
	.st458{fill:url(#SVGID_00000133492437871953935750000011664813116298379171_);}
	.st459{fill:url(#SVGID_00000060746016688631553630000002374067121759460278_);}
	.st460{fill:url(#SVGID_00000107583584309719270340000016064001739906696359_);}
	.st461{fill:url(#SVGID_00000001621438117774099990000012637695739612740795_);}
	.st462{fill:url(#SVGID_00000140726438097039692640000014889292731553935512_);}
	.st463{fill:url(#SVGID_00000074417857488832705770000004371849380176290238_);}
	.st464{fill:#FF9900;}
	.st465{fill:#3EF7F7;}
	.st466{fill:url(#SVGID_00000038389182887681875590000002757381957629501061_);}
	.st467{fill:url(#SVGID_00000152985056705552060800000002892265402178352036_);}
	.st468{fill:#396CAA;}
	.st469{fill:#5793CE;}
	.st470{fill:#D4ECFF;}
	.st471{fill:#FFA71C;}
	.st472{fill:#7B8098;}
	.st473{fill:#BB5428;}
	.st474{fill:#B8D7E0;}
	.st475{fill:#1B6375;}
	.st476{fill:#08475A;}
	
		.st477{opacity:0.8;fill:url(#SVGID_00000080167564149133020890000017720507626074453930_);fill-opacity:0.99;enable-background:new    ;}
	.st478{fill:#EFBC6C;}
	.st479{fill:#3D4F69;}
	.st480{fill:#417E86;}
	.st481{fill:#E8DED9;}
	.st482{fill:#0A384B;}
	.st483{fill:#9396A7;}
	.st484{fill:#0E7AA5;}
	
		.st485{fill:#208AD1;stroke:url(#SVGID_00000173849103074523120830000003561714159510560935_);stroke-width:2;stroke-miterlimit:10;}
	
		.st486{fill:#208AD1;stroke:url(#SVGID_00000034052571655691419110000005891819649006303623_);stroke-width:2;stroke-miterlimit:10;}
	
		.st487{opacity:0.8;fill:url(#SVGID_00000095319597649523524180000009634070397219121308_);fill-opacity:0.99;enable-background:new    ;}
	.st488{fill:#208AD1;}
	.st489{fill:url(#SVGID_00000124152683883470729450000008101065389389264517_);}
	.st490{opacity:0.2;fill:url(#SVGID_00000154424457996646764270000000988646238368985249_);}
	.st491{fill:#1374AA;}
	.st492{fill:#FDCA50;}
	.st493{fill:#BF6718;}
	.st494{fill:#F5A23D;}
	.st495{fill:#D38319;}
	.st496{fill:#FFF051;}
	.st497{fill:#F59E1C;}
	.st498{fill:#F5A54A;}
	.st499{fill:#C05836;}
	.st500{fill:none;stroke:#565656;stroke-width:2;stroke-miterlimit:10;}
	.st501{fill:#FFF800;}
	.st502{fill:#19FC00;}
	.st503{fill:#07D3FF;}
	.st504{fill:none;stroke:#3C3C3B;stroke-miterlimit:10;}
	.st505{fill:#58CBF9;}
</style>
<g id="Layer_1">
	
		<linearGradient id="SVGID_1_" gradientUnits="userSpaceOnUse" x1="13.9742" y1="-357.2488" x2="473.2526" y2="88.208" gradientTransform="matrix(1 0 0 1 -8.362 366.835)">
		<stop  offset="0" style="stop-color:#1EA0FA"/>
		<stop  offset="1" style="stop-color:#72C4FD"/>
	</linearGradient>
	<path class="st0" d="M202.12,6.18c122.16-8.31,178.83,53.68,210.2,136.8s77.86,111.72,45.77,207.39S310.07,458.7,264.79,447.51
		c-45.31-11.19-92.31-40.17-148.7-61.92C32.17,353.22,11.43,310.6,9.76,268.63c-2.36-59.36,28.92-65.99,38.98-131.08
		C60.79,59.57,106.56,12.67,202.12,6.18z"/>
	<rect x="84.59" y="336.27" class="st1" width="313.49" height="5.47"/>
	<path class="st2" d="M40.71,111.13c-59.82,96.08-10.88,218,54.2,280.8c58.05,56,159.92,94.91,216.1,59.07
		c41.05-26.17,30.81-75.11,93.11-124.42c40.48-32.05,60.47-23.77,73.65-46.56c31.5-54.44-34.04-185.26-140.35-234.22
		C248.55,4.88,104.43,8.78,40.71,111.13z"/>
	<path class="st3" d="M99.44,319.33c2.77-0.01,5.55-0.03,8.32-0.04c11.78,0.02,23.57,0.04,35.35,0.06c0.49-0.13,0.98-0.13,1.48,0
		c2.72-0.01,5.44-0.01,8.17-0.02c16.32-0.04,32.65-0.08,48.97-0.11c8.38-10.15,1.43-18.46-18.48-22.07
		c-21.85,1.3-43.76,1.06-65.66,1.12c-1.82,0-3.65-0.36-5.47-0.55c-11.7,0.94-23.45,0.22-35.18,0.35
		c-10.91,0.12-16.87,3.55-16.96,9.82c-0.11,7.23,5.41,10.97,16.57,11.17c7.2,0.13,14.4,0.21,21.6,0.31
		C98.56,319.25,99,319.24,99.44,319.33z"/>
	<polygon class="st4" points="172.7,365.14 173.21,375.47 183.21,373.88 182.03,363.33 	"/>
	<polygon class="st4" points="197.77,365.14 200.97,375.04 213.06,375.04 207.1,363.33 	"/>
	<polygon class="st4" points="126.57,159.53 121.54,164.98 130.85,175 142.56,181.74 148.23,166.41 144.02,161.01 	"/>
	<path class="st5" d="M264.11,223.75c2.05,3.01-0.98,7.94-1.21,11.35c-11.4,0.01-69.47,0.02-80.87,0.03
		c1.73-1.21-7.27-10.53-5.83-12.02C177.72,221.53,256.38,224.33,264.11,223.75z"/>
	<g>
		<path class="st4" d="M315.19,186.85c0,0,6.29-26.02,22.65-28.58c16.36-2.56,19.02-4.51,19.02-4.51s29.52-0.76,40.15,55.41
			l-15.54,15.38l-12.28,14.66l-13.1,5.97L335.66,243l-7.44-6.86L315.19,186.85z"/>
		<path class="st6" d="M370.75,200.09c-7.92,3.91-16.26,1.6-24.43,1.54c-2.02-0.02-4.04-0.72-6-1.57
			c10.15,0.54,20.25,1.9,30.34-0.07L370.75,200.09z"/>
	</g>
	<g>
		<circle class="st55" cx="94.81" cy="48.56" r="24.92"/>
		<path class="st56" d="M111.51,30.06c1.14,3.08,1.77,6.4,1.77,9.88c0,15.69-12.72,28.41-28.41,28.41c-2.05,0-4.05-0.22-5.97-0.63
			c4.32,3.59,9.87,5.75,15.92,5.75c13.76,0,24.92-11.16,24.92-24.92C119.73,41.22,116.56,34.62,111.51,30.06z"/>
	</g>
	<circle class="st57" cx="24.67" cy="346.41" r="7.69"/>
	<circle class="st57" cx="399.09" cy="42.29" r="7.69"/>
	<path class="st472" d="M254.45,187.93c-0.68-3.57-1.34-7.15-2.05-10.72c-0.66-3.34,0.45-5.02,4.08-5.01
		c20.25,0.07,40.5,0.12,60.75,0.03c3.64-0.01,5.14,2.03,5.7,5c0.86,4.54,1.39,9.14,2.06,13.71c-0.88,0.53-0.12,0.67,0.22,0.92
		c0,0,0.21,0.29,0.21,0.29c-0.4,6.85,1.55,13.39,2.75,20.03c0.31,6.46,1.33,12.82,2.83,19.1c0.61,3.53-1.28,4.04-4.29,4.02
		c-20.86-0.11-41.73-0.07-62.59-0.08C263.7,234.86,256.68,200.05,254.45,187.93z M298.1,205.06c-0.19-3.76-2.27-6.25-5.66-6.51
		c-2.99-0.23-4.6,2.02-4.46,5.26c0.15,3.64,1.75,6.07,5.48,6.36C297.01,210.44,297.62,207.67,298.1,205.06z"/>
	<path class="st1" d="M342.43,157.51c-2.16,0.14-9.21-0.6-11.34-0.28c-3.44,0.52-7.17,2-7.65-3.69c-0.04-0.52-1.24-0.96-1.91-1.41
		c-3.73-2.48-4.56-5.59-1.77-9.24c1.74-2.28,2.97-4.27,0.53-6.97c-1.27-1.41-1.26-3.95-0.27-5.21c2.78-3.54,2.54-7.77,3.5-11.73
		c1.48-6.09,3.94-8.08,10.41-8c1.58,0.02,2.4-0.93,3.5-1.56c8.13-4.67,21.84-2.82,28.84,3.46c3.52,3.16,1.63,8.48,4.44,11
		c3.37,3.02,5.39,5.63,4.09,10.15c-0.35,1.2,0.04,2.22,1.1,3.06c3.38,2.65,3.54,7.52,7.85,10.05c2.73,1.61,0.93,6.21-0.84,9.06
		c-1.61,2.61-3.71,4.17-7.4,2.89c-6.09-2.12-12.42-3.58-18.65-5.31c-3.69-4.01-4.09-13.43-0.76-17.91c3.05-4.12,2.43-6.24-2.32-7.95
		c-0.46-0.17-1.1-0.31-1.29-0.67c-3.13-5.92-9.1-5.61-14.45-7.2c-4.94-1.47-6.6,0.82-8.26,4.37c-1.08,2.32-2.2,5.1-1.14,7.21
		c3.33,6.6,5.96,15.1,14.44,18.94C342.6,152.4,342.92,155.66,342.43,157.51z"/>
	<path class="st3" d="M401.58,236.22c-0.05,17.08-0.06,34.16-0.18,51.24c-0.02,3.43,0.64,6.98-1.04,10.25
		c-1.13,0.19-2.27,0.55-3.4,0.55c-13.63-0.06-27.26,0.18-40.86-1.12c0.95-1.92,2.83-2.68,4.53-3.73
		c10.52-6.53,20.43-13.38,23.35-26.83c1.96-9.04-3.33-15.28-7.1-23.42c-0.85-1.49,3.04-5.12,3.17-6.79c0.77-3.9-1.86-7.2-1.93-10.95
		c2.57-3.29,6.28-4.97,9.79-6.92c10.08-0.73,12.68,1.54,13.43,11.74c0.01,0.33,0.02,0.66,0.03,0.99
		C401.44,232.89,401.51,234.55,401.58,236.22z"/>
	<path class="st473" d="M117.39,297.58c1.83-0.12,3.66-0.27,5.48-0.44c-0.84-1.7-2.41-2.49-3.93-3.38
		C118.91,295.19,118.36,296.61,117.39,297.58z"/>
	<path class="st474" d="M148.23,166.41c2.8,10.87,2.5,21.96,2.36,33.03c-0.13,10.25-0.24,20.5-0.37,30.75
		c-0.46,0.85,0.12,2.41-1.88,2.13c-6.64-0.91-13.25-1.9-19.7-3.77c-0.31-0.09-0.42-0.85-0.62-1.3c0.42-18.69,0.83-37.38,1.25-56.08
		c4.17,2.71,8.34,5.42,13.03,8.46c0.88-4.05,1.88-8.08,2.61-12.15C145.41,164.71,146.36,164.4,148.23,166.41z"/>
	<path class="st31" d="M339.02,151.23c-8.48-3.84-7.04-13.02-10.37-19.62c-1.07-2.12,0.05-4.89,1.14-7.21
		c1.65-3.55,3.31-5.84,8.26-4.37c5.36,1.59,11.33,1.29,14.45,7.2c0.19,0.35,0.83,0.5,1.29,0.67c4.75,1.71,5.37,3.83,2.32,7.95
		c-3.32,4.49-2.92,13.9,0.76,17.91c1.7,4.53,0.18,7.93-3.62,10.59c-3.46,2.42-7.14,3.6-11.1,1.51c-2.94-1.55-4.89-3.92-4.3-7.59
		C340.23,156.26,342.96,154.3,339.02,151.23z"/>
	<path class="st475" d="M129.27,171.18c-0.42,18.69-0.83,37.38-1.25,56.08c-3.18,3.67-6.8,0.94-9.96,0.26
		c-3.44-0.74-1.09-3.73-1.13-5.84c-0.26-12.77,1.58-25.65-0.99-38.29c-0.95-4.66-2.4-9.9-8.42-11.19c4.17-3.38,9.25-5.02,14.02-7.21
		c4.05-1.86,4.58,2.67,6.76,4.22c-0.03,0.8-0.03,1.58,0.94,1.89L129.27,171.18z"/>
	<path class="st5" d="M347.18,227.52c-0.67,1.6-0.79,3.46-2.14,4.76c-4.61-1.41-9.69,3.99-14.05-0.97
		c-1.51-6.28-2.53-9.32-2.84-15.78c1.42,0.16,3.69,0.53,4.8-0.06c0.5,2.94-0.3,1.18,0.18,4.12c1.06,6.57,1.8,7.24,8.58,7.65
		C343.53,227.34,345.36,227.42,347.18,227.52z"/>
	<path class="st476" d="M168.35,181.12c-2.19,5.2-1.7,10.91-3.17,16.27c-1.42,5.2-2.22,10.58-3.79,15.81
		c1.35-12.79,3.27-25.5,3.07-38.39c1.86,0.97,2.28,3.12,3.68,4.46C168.21,179.89,168.28,180.51,168.35,181.12z"/>
	
		<linearGradient id="SVGID_00000093865192681262314350000003517286918032825264_" gradientUnits="userSpaceOnUse" x1="325.354" y1="203.9785" x2="332.9475" y2="203.9785">
		<stop  offset="0" style="stop-color:#1EA0FA"/>
		<stop  offset="1" style="stop-color:#72C4FD"/>
	</linearGradient>
	
		<path style="opacity:0.8;fill:url(#SVGID_00000093865192681262314350000003517286918032825264_);fill-opacity:0.99;enable-background:new    ;" d="
		M332.95,215.46c-1.11,0.59-3.37,0.23-4.8,0.06c-1.19-6.64-3.14-16.5-2.75-23.35c2.21,0.49,3.26,1.94,3.62,4.11
		C329.84,201.12,332.08,210.63,332.95,215.46z"/>
	<g>
		<g>
			<path class="st478" d="M150.95,131.38c3.12,10.05-1.41,19.58-2.03,29.37c-0.03,0.44-0.36,1.15-0.68,1.24
				c-5.34,1.48-5.32,6.45-6.7,10.4c-0.84,2.39-1.51,3.08-3.56,1.02c-3.62-3.64-7.2-7.29-10.41-11.31c-1.73-2.16-1.42-4.25-0.66-6.51
				c2.68-2.94,2.5-4.51-0.86-7.53c0,0,0.1,0.09,0.1,0.09c-0.96-2.22-1.77-4.77,0.37-6.41c2.34-1.79,3.26,1.94,5.34,2.24
				c0.46-1.51,1.1-2.91,1.28-4.36c0.53-4.43,2.82-6.07,7.3-5.78C144.05,134.06,147.71,133.35,150.95,131.38z"/>
			<path class="st1" d="M150.95,131.38c-3.23,1.97-6.9,2.68-10.51,2.45c-4.48-0.28-6.77,1.35-7.3,5.78
				c-0.17,1.46-0.82,2.85-1.28,4.36c-2.08-0.3-3.01-4.03-5.34-2.24c-2.13,1.64-1.32,4.19-0.37,6.41c-2.8-5.45-3-11.33-2.42-17.19
				c0.75-7.49,5.62-11.66,13.45-11.67c5.13-0.01,10.16,0.89,15.07,2.53c2.17,0.72,4.07,1.46,4.18,4.14
				c0.11,2.73-1.66,3.68-3.92,4.29C151.93,130.39,151.47,130.98,150.95,131.38z"/>
		</g>
		<path class="st1" d="M126.04,148.06c3.35,3.02,3.53,4.6,0.86,7.53C126.6,153.08,125.32,150.68,126.04,148.06z"/>
	</g>
	<path class="st474" d="M129.24,171.08c-0.97-0.3-0.97-1.09-0.94-1.89C129.08,169.59,129.36,170.23,129.24,171.08z"/>
	<path class="st473" d="M325.2,191.88c-0.34-0.25-1.1-0.4-0.22-0.92C325.05,191.27,325.12,191.58,325.2,191.88z"/>
	<path class="st1" d="M164.54,175c-0.44-0.37-0.88-0.74-1.32-1.11C163.66,174.26,164.1,174.63,164.54,175z"/>
	<path class="st1" d="M163.44,174.13c-0.43-0.36-0.85-0.72-1.28-1.07C162.59,173.42,163.02,173.78,163.44,174.13z"/>
	<path class="st479" d="M34.18,98.32c0.3,0.5,0.59,0.99,0.89,1.49C34.77,99.31,34.48,98.81,34.18,98.32z"/>
	<path class="st480" d="M91.32,107.48l-0.07-0.37c0,0,0.02,0.28,0.03,0.29S91.32,107.48,91.32,107.48z"/>
	<path class="st1" d="M208.06,371.02c2.52,1.52,5.04,3.04,7.56,4.55c0,0,0.02-0.01,0.02-0.01c0.43,0.29,0.87,0.57,1.3,0.86
		c5.64,3.51,10.82,7.82,17.33,9.83c1.51,0.47,3.86,1.28,3.39,2.99c-0.55,2-2.63,0.58-4.16,0.47c-7.1-0.51-14.93-3.43-20.98-1.75
		c-6.38,1.77-12.22,1.11-18.23,1.33c-6.27,0.23-12.59-0.63-18.88-1.07c-0.77-0.05-1.67-0.27-2.24-0.74
		c-0.76-0.62-0.54-14.14,0.26-14.68c0.78-0.53,1.86-0.62,2.81-0.9c4.95-0.6,8.91,1.67,12.75,4.33c1.65,1.63,3.72,2.47,5.88,3.15
		c2.63,1.92,4.33,2.18,4.3-2c-0.02-2.3,0.58-4.6,0.9-6.91C202.77,369.98,205.44,370.05,208.06,371.02z"/>
	<path class="st31" d="M260.13,369.06c8.17-8.11,15.96-16.51,20.2-27.5c1.69-1.34,2.41-3.2,2.83-5.23l0.33-0.12l0.35,0.02
		c3.53,2.31,6.97,4.82,11.39,5.14c-1.61,2.46-3.04,5.07-4.86,7.36c-3.45,4.33-5.07,9.07-4.24,14.59c-3.69,2.47-7.35,4.98-11.07,7.41
		C268.16,375.28,266.19,375.04,260.13,369.06z"/>
	<path class="st472" d="M375.48,361.17c-0.19,1.64-0.47,3.28-0.55,4.93c-0.07,1.63-0.21,2.91-2.36,2.95
		c-2.23,0.04-2.86-1.02-2.84-3.04c0.07-4.97,0.05-9.94,0.04-14.9c-0.02-6.46-0.07-12.91-0.1-19.37c0.02-1.87,0.03-3.73,0.05-5.6
		c0-5.63,0-11.25,0-16.88c1.69,0.01,3.39,0.01,5.08,0.02C374.91,309.87,374.51,344.46,375.48,361.17z"/>
	<path class="st472" d="M397.52,361.14c0.06-17.31,0.13-34.61,0.19-51.92c1.72,0.01,3.45,0.03,5.18,0.04
		c-0.01,0.3,0.09,0.57,0.3,0.8c-0.32,17.04-0.75,34.08,0.18,51.11c-0.17,1.81-0.45,3.62-0.47,5.43c-0.02,2.01-1.05,2.52-2.84,2.48
		c-1.71-0.04-2.34-0.86-2.34-2.47C397.7,364.78,397.59,362.96,397.52,361.14z"/>
	<path class="st472" d="M84.81,321.1c-0.26,16.71-0.62,33.43,0.34,50.13c-0.19,1.64-0.47,3.28-0.55,4.93
		c-0.07,1.63-0.21,2.91-2.36,2.95c-2.23,0.04-2.86-1.02-2.84-3.04c0.07-4.97,0.05-9.94,0.04-14.9c-0.02-6.46-0.07-12.91-0.1-19.37
		c0.02-1.87,0.03-3.73,0.05-5.6c0-5.63,0-11.25,0-16.88c1.69,0.01,3.39,0.01,5.08,0.02C84.59,319.93,84.7,320.52,84.81,321.1z"/>
	<path class="st472" d="M107.2,371.2c0.06-17.31,0.13-34.61,0.19-51.92c1.72,0.01,3.45,0.03,5.18,0.04c-0.01,0.3,0.09,0.57,0.3,0.8
		c-0.32,17.04-0.75,34.08,0.18,51.11c-0.17,1.81-0.45,3.62-0.47,5.43c-0.02,2.01-1.05,2.52-2.84,2.48
		c-1.71-0.04-2.34-0.86-2.34-2.47C107.38,374.85,107.27,373.03,107.2,371.2z"/>
	<path class="st31" d="M339.99,362.45c3.06-0.02,6.11-0.04,9.17-0.06c0.04,4.56,0.07,9.13,0.1,13.69c-1.77,2.04-3.39,4.23-5.33,6.08
		c-4.06,3.88-6.51,3.84-10.98,0.2C336.74,376.23,341.3,370.38,339.99,362.45z"/>
	<path class="st1" d="M260.13,369.06c6.06,5.98,8.02,6.22,14.95,1.68c3.71-2.43,7.38-4.94,11.07-7.41
		c-0.12,4.92-2.35,8.99-5.34,14.14c-0.5-3.76,1.91-5.83,1.23-8.71c-4.31,3.01-8.39,5.78-12.38,8.67c-3.28,2.38-6.93,3.04-10.86,2.75
		c-2.35-0.17-5.07-0.3-6.27-2.39c-1.41-2.45,1.96-3.38,2.67-5.28C256.84,371.36,258.49,370.21,260.13,369.06z"/>
	<path class="st1" d="M332.95,382.35c4.47,3.65,6.92,3.68,10.98-0.2c1.94-1.86,3.57-4.05,5.33-6.08c-0.56,7.09-8.13,15.7-14.37,16.2
		c-2.28,0.18-4.94,0.51-6.29-1.83c-1.31-2.26,0.76-3.99,1.88-5.71C331.09,383.8,332.11,383.14,332.95,382.35z"/>
	<path class="st3" d="M408.24,319.33c-1.73-0.01-3.45-0.03-5.18-0.04c-7.33,0.02-14.66,0.04-22,0.06c-0.31-0.13-0.61-0.13-0.92,0
		c-1.69-0.01-3.39-0.01-5.08-0.02c-10.16-0.04-20.31-0.08-30.47-0.11c-5.22-10.15-0.89-18.46,11.5-22.07
		c13.59,1.3,27.23,1.06,40.86,1.12c1.13,0,2.27-0.36,3.4-0.55c7.28,0.94,14.59,0.22,21.89,0.35c6.79,0.12,10.5,3.55,10.56,9.82
		c0.07,7.23-3.37,10.97-10.31,11.17c-4.48,0.13-8.96,0.21-13.44,0.31C408.79,319.25,408.52,319.24,408.24,319.33z"/>
	<path class="st481" d="M402.89,309.26c0.27-0.09,0.55,0.6,0.3,0.8C402.98,309.83,402.88,309.57,402.89,309.26z"/>
	<path class="st479" d="M330.99,231.3c4.36,4.97,9.44-0.44,14.05,0.97c2.5,2.36,5.42,1.83,8.42,1.38c2.11-0.32,4.3-0.15,6.45-0.2
		c-0.65,0.42-1.3,0.85-1.95,1.27c0.68,0.26,1.4,0.46,2.04,0.81c0.4,0.22,0.67,0.66,1,1c-1.43,1.22-3.15,0.69-4.75,0.7
		c-7.74,0.08-15.49,0.09-23.23,0.12c-22.95-0.11-45.9-0.22-68.85-0.33c-0.02-0.59-0.05-1.18-0.07-1.77
		c20.86,0.01,41.73-0.02,62.59,0.08C329.7,235.34,331.6,234.83,330.99,231.3z"/>
	<path class="st5" d="M264.11,235.24c0.02,0.59,0.05,1.18,0.07,1.77c-22.96,0.34-45.92,0.35-68.88-0.16
		c0.73-0.91,1.47-1.82,2.2-2.73c0.2-0.28,0.39-0.55,0.59-0.83c0,0,0.08-0.04,0.08-0.04c0.36,0.13,0.71,0.25,1.07,0.38
		c5.55-0.04,11.1-0.09,16.65-0.13c4.22,1.49,8.55,0.54,12.83,0.63c11.4-0.01,22.79-0.02,34.19-0.03
		C263.3,234.48,263.7,234.86,264.11,235.24z"/>
	<path class="st6" d="M298.1,205.06c-0.48,2.62-1.09,5.39-4.65,5.11c-3.73-0.29-5.32-2.73-5.48-6.36c-0.14-3.24,1.47-5.48,4.46-5.26
		C295.83,198.8,297.91,201.3,298.1,205.06z"/>
	<path class="st474" d="M127.36,263.08c-0.69-4.92-0.4-9.85-0.15-14.78c5.95,0.16,11.9,0.36,17.83-0.5
		c1.74-0.25,3.62-0.78,5.24,0.55c-0.79,4.57,0.43,9.34-1.33,13.82C141.96,267.37,134.63,264.33,127.36,263.08z"/>
	<path class="st474" d="M151.22,233.34c2.5,0,5.01-0.01,7.51-0.01c1.03,4.26-1.11,8.39-0.53,12.64c-1.02,0.68-2.04,1.36-3.06,2.04
		c-1.31,0.04-2.62,0.07-3.92,0.11C151.22,243.19,151.22,238.26,151.22,233.34z"/>
	<path class="st482" d="M151.22,248.12c1.31-0.04,2.62-0.07,3.92-0.11c-0.12,5.74-0.24,11.48-0.36,17.22
		c-2.45-0.07-2.93-3.87-5.84-3.07c1.76-4.48,0.54-9.24,1.33-13.82C150.62,248.37,150.93,248.3,151.22,248.12z"/>
	<path class="st1" d="M361,236.53c-0.33-0.34-0.6-0.78-1-1c-0.64-0.35-1.35-0.55-2.04-0.81c0.65-0.42,1.3-0.85,1.95-1.27
		c7.06-0.42,12.32-4.91,18.2-8.02c0.07,3.75,2.7,7.05,1.93,10.94c-2.03,0.14-4.25-0.86-5.98,1
		C369.71,237.09,365.36,236.81,361,236.53z"/>
	<path class="st479" d="M368.7,227.31c1.74-1.87,3.96-0.86,5.98-1c-0.14,1.67,0.02,3.29,0.87,4.78c0.01,0.49,0.03,0.98,0.03,1.47
		c0.01,7.72-0.42,8.1-8.14,7.17C368.95,235.7,368.35,231.45,368.7,227.31z"/>
	<path class="st3" d="M154.79,262.34c0.12-5.21,0.24-10.41,0.37-15.62c1.04-0.62,2.08-1.24,3.11-1.85
		c7.96-1.07,15.65-3.59,24.25-2.64c-1.01-2.75-3.42-3.76-3.3-5.92c5.58-0.57,11.24-0.69,16.66-2.2c0.79,0,1.58,0.01,2.37,0.01
		c-0.75,0.83-1.49,1.65-2.24,2.48c-2.54,3.6-2.02,7.76-0.69,11.17c0.88,2.26,5.22,0.94,7.98,0.94c39.25,0.07,78.51,0.04,117.76,0.04
		c-7.87,8.23-13.29,17.35-13.72,28.47c-0.19,4.93-2.69,9.26-5.39,13.46c-1.57-1.29-3.51-0.86-5.32-0.87
		c-28.23-0.05-56.47-0.09-84.7-0.08c-2.69,0-5.37,0.3-8.06,0.47c-1.57-3.9-0.46-8.08-1.78-12.05c-2.38-7.19-8.57-10.34-16.33-7.65
		c-2.72,0.94-5,1.01-7.74,0.09c-6.33-2.12-12.95-3.49-19.62-4.39C155.44,265.79,154.83,264.5,154.79,262.34z"/>
	<path class="st3" d="M172.7,233.98c-4.57-0.31-9.13-0.62-13.7-0.92c0.21-2.75,0.43-5.5,0.64-8.26c1.18-0.2,2.36-0.41,3.54-0.61
		c0,0-0.08-0.03-0.08-0.03c0.4,0.22,0.8,0.44,1.2,0.66C167.7,227.32,170.34,230.53,172.7,233.98z"/>
	<path class="st482" d="M199.22,233.64c-0.36-0.13-0.71-0.25-1.07-0.38c0.27-2.06-1-3.46-2.14-4.91c0,0,0.07-0.1,0.07-0.1
		c1.83,0.47,3.86-0.4,5.57,0.85C200.85,230.61,200.03,232.12,199.22,233.64z"/>
	<path class="st482" d="M197.49,234.12c-0.78,0-1.55-0.01-2.33-0.01c0.76-1.05,1.86-0.84,2.92-0.81
		C197.88,233.57,197.69,233.85,197.49,234.12z"/>
	<path class="st6" d="M164.29,224.83c-0.4-0.22-0.8-0.44-1.2-0.66C163.78,223.87,163.98,224.44,164.29,224.83z"/>
	<path class="st483" d="M92.35,256.2c-0.58-0.02-1.16-0.03-1.74-0.05C91.2,255.41,91.78,255.51,92.35,256.2z"/>
	<path class="st3" d="M200.97,319.28c1.85-7.31,1.97-14.02,2.05-21.14c31.86,0.01,63.71,0.02,95.57,0.02
		c-2.9,7.07-5.8,14.13-8.69,21.2C261.65,319.33,229.22,319.3,200.97,319.28z"/>
	<path class="st483" d="M314.89,250.25c-46.97,0-93.94,0.03-140.92-0.05c-3.3-0.01-8.49,1.45-9.55-1.04
		c-1.59-3.76-2.22-8.35,0.82-12.32c27.97,0.51,55.94,0.5,83.91,0.16c27.96,0.11,55.91,0.22,83.87,0.33
		c-0.02,4.14-0.03,8.28-0.05,12.41C326.95,249.92,320.92,250.09,314.89,250.25z"/>
	<path class="st472" d="M332.99,249.76c0.01-4.14,0.03-8.28,0.04-12.41c7.74-0.03,15.49-0.04,23.23-0.12
		c1.6-0.02,3.32,0.52,4.75-0.7c4.35,0.28,8.7,0.56,13.06,0.85c-0.35,4.15,0.25,8.39-1.26,12.42
		C359.53,249.78,346.26,249.77,332.99,249.76z"/>
	<path class="st473" d="M321.07,319.3c-2.34-0.03-4.68-0.07-7.02-0.1c0.96-2.29,2.39-4.2,4.4-5.81
		C320.12,315.18,320.33,317.36,321.07,319.3z"/>
	<path class="st481" d="M375.71,309.28c-0.19,0.58-0.39,1.17-0.58,1.75C375.02,310.45,375.41,309.15,375.71,309.28z"/>
	<path class="st478" d="M218.83,234.83c-4.99-4.59-11.11-6.17-17.63-7.24c-4.24-0.7-5.09,0.67-4.33,4.32
		c1.83,0.47,3.94,3.88,3.13,5.39c5.55-0.04,11.1-0.09,16.66-0.13c1.19-0.45,2.85,0.49,3.61-0.76
		C220.74,235.65,219.55,235.17,218.83,234.83z"/>
	<g>
		<g>
			<path class="st479" d="M225.45,178.98c-1.09,4.32-4.52,6.29-8.24,7.68c-2.25,0.84-4.47,0.66-3.59-2.88
				c1.86,1.23,3.62,1.74,5.33-0.33c0.64-0.78,1.53-1.5,0.77-2.51c-1.59-2.1-3.53-0.92-5.37-0.37c-0.16,0.05-0.32,0.07-0.48,0.1
				c-0.33-2.08-0.91-3.38-3.56-2.32c-4.74,1.9-9.59,3.58-14.45,5.17c-1.64,0.54-3.19,1.95-5.42,0.91c2.52-3.13,6.56-3.77,10.52-6.77
				c-6.94,0.58-12.7,2.34-18.51,0.92c4.32,0.29,7.65-4.5,12.64-2.89c0.45-2.25-1.13-2.8-3.37-3c-2.75-0.25-5.61,0.75-8.25-0.71
				c4.59-1.07,9.53,0.03,14.24-2.17c-2.36-1.46-4.41-2.73-6.46-3.99c2.81-0.58,4.91,2.38,7.47,1.79c2.1-0.48,4.14,3.48,5.13,0.67
				c0.61-1.74-3.25-2.66-5.1-3.23c-2.29-0.71-5.49-3.55-7.47,0.79c-0.86-0.48-1.84-0.84-2.54-1.49c-0.77-0.71-2.26-1.17-1.7-2.65
				c0.42-1.09,1.64-0.96,2.59-1.17c7.12-1.59,13.74,0.3,20.3,2.9c1.16-1.7-1.28-3.06-0.24-4.97c4.37,1.91,6.47,6.87,11.27,8.61
				c0.73-1.84-1.6-3.18-0.65-5.16c5.57-0.87,9.99,2.81,15.06,4.89c-0.75-3.55-0.75-3.55-7.03-7.09c-1.77-2.95,3.31-3.28,2.28-5.95
				c-3.36-1.98-5.52-5.16-8.03-7.99c3.63,0.17,6.8-4.7,10.76-1c6.68,11.88,9.75,24.89,11.88,38.19c0.32,1.96,0.47,3.95,2.03,6.26
				c1.4-3.34,2.69-6.41,3.97-9.47c1.06,0.37,1.12,1.3,1.22,2.21c-3.18,6.57-4.11,13.59-4.17,20.78c-0.91,0.35-1.83,0.69-2.74,1.04
				c-0.77-5.88-1.27-11.83-4.12-17.21c-0.03-1.09-0.21-2.23,0.98-2.91c0.21-0.22,0.55-0.42,0.59-0.66c0.07-0.49-0.21-0.61-0.63-0.32
				l0.06,0.07c0.09-2.47,1.23-5.51-1.89-6.76c-5.53-2.21-11.22-4.01-17.41-6.17c1.11,2.31,0.75,4.7,2.66,6.3
				C225.66,177.07,225.56,178.02,225.45,178.98z"/>
			<path class="st480" d="M252.44,181.97c-0.1-0.91-0.16-1.84-1.22-2.21c-3.68-1.93-4.49-5.12-2.5-8.34
				c4.94-7.99,10.49-15.61,13.48-24.67c0.24-0.72,0.96-1.27,1.92-2.48c0.02,3.94-2.64,6.73-1.4,10.69
				c2.28-5.13,4.29-9.79,6.45-14.39c0.9-1.91,1.95-4.53,4.6-3.42c2.52,1.05,1.59,3.65,1.09,5.74c-1.01,4.23-3.18,7.91-6.09,11.46
				c3.81,1.04,6.37-3.09,9.78-1.37l-0.04-0.08c-3.82,3.87-6.55,8.69-11.59,12.78c3.48,0,6.13-0.03,8.78,0.02
				c0.95,0.02,2.17-0.14,2.49,1.08c0.31,1.18-0.69,1.8-1.56,2.24c-2.61,1.33-5.08,3.1-8.36,2.07c-1.36-0.43-2.92-0.23-4.4-0.31
				c-0.32,2.23,2.43,1.74,2.49,3.84C261.56,176.45,256.3,177.96,252.44,181.97z"/>
			<path class="st480" d="M233.33,144.79c-3.96-3.7-7.12,1.17-10.76,1c0,0-0.3-0.16-0.3-0.16s0.01-0.33,0.01-0.34
				c-0.3-0.5-0.59-0.99-0.89-1.49c-0.33-4.94-0.66-9.88-1.11-16.53C226.46,132.92,230.57,138.31,233.33,144.79z"/>
			<path class="st480" d="M183.48,171.99c2.64,1.46,5.5,0.46,8.25,0.71c2.24,0.2,3.82,0.75,3.37,3c-4.99-1.61-8.32,3.18-12.64,2.89
				c-2.25,0.01-5.96-0.06-5.88-1.85C176.73,173.32,180.53,172.74,183.48,171.99z"/>
			<path class="st480" d="M242.4,183.66c-1.19,0.68-1.01,1.82-0.98,2.91c-4.53-4.19-9.81-6.81-15.97-7.59
				c0.11-0.95,0.21-1.91,0.32-2.86c6.03,1,11.15,4.3,16.65,6.63c0,0-0.06-0.07-0.06-0.07C242.37,183,242.39,183.33,242.4,183.66z"/>
			<path class="st480" d="M230.61,153.78c1.03,2.67-4.05,2.99-2.28,5.95c-4.13-1.51-8.38-2.84-10.73-7.64
				c3.14-0.14,5.34,1.9,7.92,2.14C227.18,154.39,229.16,156.47,230.61,153.78z"/>
			<path class="st480" d="M213.86,180.67c0.16-0.03,0.33-0.05,0.48-0.1c1.84-0.56,3.78-1.73,5.37,0.37
				c0.76,1.01-0.12,1.72-0.77,2.51c-1.7,2.07-3.47,1.56-5.33,0.33C213.7,182.74,213.78,181.7,213.86,180.67z"/>
			<path class="st480" d="M191.28,165.84c1.98-4.35,5.18-1.51,7.47-0.79c1.85,0.57,5.71,1.49,5.1,3.23
				c-0.99,2.8-3.03-1.16-5.13-0.67c-2.56,0.59-4.66-2.37-7.47-1.79C191.25,165.82,191.28,165.84,191.28,165.84z"/>
		</g>
		<path class="st482" d="M251.04,203.05c-0.91-0.35-1.83-0.69-2.74-1.04c-1.76,2.48-4.29,1.01-6.43,1.1c-3.11,0.13-5,0.74-4.91,4.47
			c0.08,3.13-0.56,6.28-0.89,9.42c-0.31,5.3-0.52,10.62-0.98,15.91c-0.22,2.59,0.07,3.98,3.26,3.9c7.81-0.2,15.63-0.19,23.45,0.01
			c3.08,0.08,3.54-1.18,3.35-3.85c-0.59-8.28-0.98-16.58-1.44-24.87c-0.04-3.54-2.18-4.72-5.35-4.79
			C255.92,203.26,253.48,203.14,251.04,203.05z"/>
	</g>
	<path class="st3" d="M123.68,294.07c-3.43-4.14-6.66-8.45-9.85-12.78c-1.32-3.55-1.82-7.15-2.04-10.93
		c-0.43-7.15-0.71-14.2-1.83-21.3c-1.11-7.02-2.22-14.51-4.48-21.26c-1.81-5.43-5.08-9.23-10.93-9.91
		c-1.19-0.14-2.19,0.24-2.97,0.89c-0.17-0.09-0.34-0.18-0.51-0.28c-10.08-0.73-12.68,1.54-13.43,11.74
		c-0.01,0.33-0.02,0.66-0.03,0.99c-0.07,1.66-0.15,3.32-0.22,4.99c0.05,17.08,0.06,34.16,0.19,51.24c0.02,3.43-0.64,6.98,1.04,10.25
		c0.48,0.08,0.97,0.19,1.45,0.29c-0.29,3.17,2.19,6.64,6.12,5.41c2.98-0.93,4.91-1.29,7.78-0.07c2.5,1.06,4.73,1.63,7.47,1.21
		c6.26-0.97,10.83-3.58,17.39-2.12C123.91,303.56,126.84,297.88,123.68,294.07z"/>
	<path class="st1" d="M206.88,351.29c0.13-2.28,0.03-4.62-0.4-6.86c-0.48-2.5-2.29-46.55-2.42-47.99
		c-0.94-10.56,3.26-23.71-12.26-26.92c-13.05-2.7-26.64-7.3-39.92-8.09c-1.19-0.07-2.15,0.21-2.9,0.73c-0.01,0-0.02,0-0.03,0.01
		c-6.99,5.21-14.33,2.16-21.59,0.92c-11.09,0.7-20.28,5.43-27.98,13.28c-0.99,6.02-0.44,11.56,4.9,15.6
		c6.47,6.64,14.7,6.64,23.12,6.34c10.14-0.37,20.29,0.5,30.43-0.42c3.17-0.29,5.27,1.16,5.15,4.48c-0.2,5.84,1.12,11.5,1.72,17.24
		c0.64,4.56,1.08,9.17,2.01,13.68c0.53,2.54,3.58,22.97,3.99,29.98c0.24,4.17,1.8,5.3,5.47,4.79c0.62,0,1.24,0,1.87,0
		c1.64-0.79,3.62,0.56,5.17-0.81c0.05-7.26,0.05-14.52,0.19-21.77c0.01-0.65-0.26-12.02-0.13-13.6c0.34-4.06,0.08-8.17,0.08-12.25
		c0.5-0.04,2.37-0.13,1.51-0.13c1.19,5.09,5.25,23.61,5.26,23.63c3.35,7.3,4.12,15.28,6.09,22.95c3.32,0.18,6.64,0.37,9.96,0.55
		C208.47,361.61,206.59,356.4,206.88,351.29z"/>
	<path class="st480" d="M93.75,220.19c0.45-8.14,1.24-16.27,1.25-24.41c0.02-8.8,2.43-16.34,9.15-22.25
		c1.12-0.45,2.24-0.9,3.36-1.35c6.02,1.29,7.47,6.53,8.42,11.19c2.57,12.64,0.73,25.52,0.99,38.29c0.04,2.11-2.3,5.1,1.13,5.84
		c3.16,0.68,6.78,3.41,9.96-0.25c0.2,0.45,0.31,1.21,0.62,1.3c6.45,1.87,13.06,2.86,19.7,3.77c2.01,0.27,1.43-1.28,1.88-2.13
		c0.92,0.86,0.87,2.03,0.99,3.15c0,4.93,0,9.85,0.01,14.78c-0.29,0.18-0.61,0.26-0.95,0.23c-1.62-1.33-3.5-0.8-5.24-0.55
		c-5.93,0.85-11.88,0.66-17.83,0.5c-8.84-0.07-17.8,0.82-26.19-3.06c-6.14-5.97-8.24-13.23-7.03-21.61
		C94.14,222.52,93.84,221.34,93.75,220.19z"/>
	<path class="st475" d="M127.36,263.08c-11.09,0.7-20.28,5.43-27.98,13.28c-0.43-10.42-0.58-20.83,1.63-31.12
		c8.4,3.88,17.35,2.99,26.19,3.06C126.96,253.23,126.68,258.16,127.36,263.08z"/>
	<path class="st1" d="M383.04,248.45C383.04,248.44,383.04,248.44,383.04,248.45c-0.39-11.75-8.98-30.07-8.98-30.07l-14.63,18.88
		l2.21,12.53c-9.55-0.01-19.1-0.02-28.65-0.02c-4.95,0.16-9.9,0.33-14.85,0.49c-7.73,9.07-16.12,41.6-18.78,46.23
		c-0.26,0.56-0.51,1.12-0.77,1.68c-2.9,7.07-5.8,14.13-8.69,21.2c-2.02,5.63-4.03,11.26-6.05,16.89c3.53,2.31,6.97,4.82,11.39,5.14
		c0.33,0,0.65,0.01,0.98,0.01c0.21-0.76,3.64-4.19,4.81-5.22c0,0,8.56-11.5,13.01-16.97c0.96-2.29,2.39-4.2,4.4-5.81
		c1.67,1.79,1.88,3.97,2.62,5.92c2.07,5.55,9.88,24.67,9.87,25.38c0.19,0.35,4.82,12.94,9.05,17.76c3.06-0.02,6.11-0.04,9.17-0.06
		c1.31-5.77-0.14-11.53-0.14-17.3c0-2.04-0.96-9.22-1.4-12.29c-0.64-4.58-1.98-9.06-3.02-13.58c-5.22-10.15-0.89-18.46,11.5-22.07
		c0.96-1.92,25.88,2.24,28.79-11.22C386.45,278.77,385.41,260,383.04,248.45z"/>
	<path class="st31" d="M384.9,224.13c-3.85,1.16-26.29,12.3-33.27,11.19c-2.11-0.41-3.56-1.07-5.7-1.22
		c-3.04-0.2-10.06,4.13-12,1.29c1.6-0.98,8.26-9.78,9.26-11.2c7.91,3.19,12.63,6.55,19.92,1.96c3.14-1.97,24.79-21.05,30.14-22.89
		c2.78-0.95,3.73-0.08,4.28,2.73c1.32,6.79,0.53,9.13-5.24,13.08C389.82,220.76,387.36,222.45,384.9,224.13z"/>
	<g>
		<path class="st476" d="M164.46,174.82c0,0.04,0,0.08,0,0.12c0.03,0.02,0.05,0.04,0.08,0.06
			C164.54,175,164.47,174.82,164.46,174.82z"/>
		<path class="st476" d="M163.18,224.19c0-0.02,0-0.04,0-0.05c-0.03,0.01-0.05,0.01-0.08,0.03L163.18,224.19z"/>
		<path class="st476" d="M200,237.3c1.88-2.61,1.1-9.46,1.2-9.71c-3.24-0.93-16.08-6.02-17.09-10.24
			c-5.25-12.08-10.51-24.15-15.77-36.23c-2.19,5.2-1.7,10.91-3.17,16.27c-1.42,5.2-2.22,10.58-3.79,15.81
			c1.34-12.75,3.26-25.43,3.07-38.27c-0.41-0.35-0.83-0.69-1.24-1.04c0,0,0,0.02-0.01,0.05c-0.35-0.29-0.7-0.59-1.05-0.88
			c-3.93-3.7-9.41-4.17-13.93-6.65c2.8,10.87,2.5,21.96,2.36,33.03c-0.13,10.25-0.24,20.5-0.37,30.75c0.92,0.86,0.87,2.03,0.99,3.15
			c2.5,0,5.01-0.01,7.51-0.01l0.26-0.27c0.21-2.75,0.43-5.5,0.64-8.26c0.41-1.79-0.03-3.79,1.56-5.81c0.99,1.8,2.3,3.1,1.98,5.15
			c0.61-0.21,0.82,0.32,1.11,0.69c3.41,2.5,6.04,5.7,8.41,9.16c2.03,0.85,4.3,3.09,6.33,3.94C183.92,237.37,199.84,237.52,200,237.3
			z"/>
	</g>
	<path class="st478" d="M178.79,236.53c-0.12,2.38,2.25,3.49,3.24,6.53c-8.45-1.05-16.01,1.72-23.83,2.91
		c-0.58-4.25,1.55-8.38,0.53-12.64c0,0,0.26-0.27,0.26-0.27c4.57,0.31,9.13,0.62,13.7,0.92
		C174.73,234.83,176.76,235.68,178.79,236.53z"/>
</g>
<g id="Layer_2">
</g>
</svg>
