<svg width="20" height="20" viewBox="0 0 20 20" fill="none" xmlns="http://www.w3.org/2000/svg"><path d="M13.5523 0.647394C14.8526 1.15075 16.0142 1.91091 17.0049 2.90635C23.1963 9.13066 18.9013 20 9.95949 20C1.04521 20 -3.29057 9.14398 2.91455 2.90635C4.82366 0.987749 7.51242 0 9.3272 0C9.84068 0 10.2741 0.399303 10.3103 0.922138C10.3486 1.46855 9.93909 1.94269 9.39552 1.98063C7.47469 2.11595 5.66858 2.94326 4.30966 4.30929C-0.64821 9.29263 2.77585 18.0168 9.95949 18.0168C17.1238 18.0168 20.5769 9.30237 15.6098 4.30929C14.8154 3.51069 13.8848 2.90122 12.8435 2.49833C12.3352 2.3015 12.0817 1.72741 12.2775 1.21636C12.4734 0.705315 13.0445 0.450562 13.5523 0.647394Z" fill="#1DA2FC"/><path d="M14.5835 5.95789C14.177 5.73117 13.6446 5.84514 13.394 6.21289L8.99863 12.6599L7.45221 10.7484C7.17035 10.4 6.62987 10.3244 6.24483 10.579C5.85934 10.834 5.77581 11.3234 6.05766 11.6718L8.36211 14.5212C8.52514 14.7229 8.78467 14.8413 9.05938 14.8413C9.35955 14.8413 9.63783 14.7011 9.79507 14.4699L14.8654 7.03366C15.116 6.66631 14.9895 6.1846 14.5835 5.95789Z" fill="#FC951D"/></svg>