<svg width="90" height="90" viewBox="0 0 90 90" fill="none" xmlns="http://www.w3.org/2000/svg">
<path d="M47.4509 56.9836C49.0124 56.8621 50.4359 56.0656 51.36 54.7951L65.4045 35.3791C65.8349 34.7836 65.7704 33.9616 65.2484 33.4396C64.7264 32.919 63.9044 32.8546 63.3089 33.2835L43.89 47.3325C42.6239 48.2536 41.8274 49.677 41.7059 51.2385C41.5844 52.8 42.1499 54.3286 43.2555 55.4341C44.2619 56.4421 45.6194 57.0001 47.031 57.0001C47.1705 57.0001 47.31 56.994 47.4509 56.9836ZM44.6969 51.4725C44.7495 50.7871 45.1005 50.1616 45.6524 49.7596L57.498 41.19L48.9314 53.0326C48.5264 53.5891 47.9009 53.9385 47.2155 53.9925C46.5329 54.0375 45.8624 53.8006 45.375 53.313C44.8919 52.8286 44.6429 52.1565 44.6969 51.4725Z" fill="#FC951D"/>
<path d="M81.0511 29.346C81.0361 29.3145 81.0361 29.2815 81.0196 29.25C81.0016 29.22 80.9731 29.2035 80.9536 29.175C79.4371 26.574 77.6431 24.1545 75.6061 21.9615L78.8281 18.741L80.9491 20.862L87.3121 14.4975L80.9491 8.1345L74.5846 14.4975L76.7071 16.62L73.4851 19.8405C71.2921 17.8035 68.8741 16.008 66.2716 14.4915C66.2431 14.472 66.2266 14.4435 66.1966 14.4255C66.1651 14.4075 66.1321 14.409 66.1006 14.3925C61.4611 11.7195 56.2486 9.939 50.6911 9.2865V7.5H52.9411C55.0096 7.5 56.6911 5.8185 56.6911 3.75C56.6911 1.6815 55.0081 0 52.9396 0H39.4396C37.3711 0 35.6896 1.6815 35.6896 3.75C35.6896 5.8185 37.3711 7.5 39.4396 7.5H41.6896V9.234C40.0696 9.4065 38.4526 9.6705 36.8536 10.0365C36.0466 10.221 35.5411 11.0265 35.7271 11.8335C35.9116 12.6405 36.7171 13.1475 37.5241 12.96C38.9041 12.6435 40.2976 12.405 41.6941 12.2445L43.3036 12.12C43.7956 12.0825 44.2486 12.0555 44.6896 12.0345V15C44.6896 15.8295 45.3601 16.5 46.1896 16.5C47.0191 16.5 47.6896 15.8295 47.6896 15V12.045C53.3311 12.3045 58.6471 13.8195 63.3736 16.3125L61.8946 18.873C61.4806 19.5915 61.7266 20.508 62.4436 20.922C62.6791 21.0585 62.9371 21.123 63.1921 21.123C63.7111 21.123 64.2151 20.8545 64.4926 20.373L65.9671 17.8185C70.6606 20.796 74.6476 24.783 77.6251 29.4765L75.0706 30.951C74.3551 31.365 74.1091 32.2815 74.5246 33C74.8036 33.4815 75.3061 33.75 75.8251 33.75C76.0801 33.75 76.3381 33.6855 76.5736 33.549L79.1341 32.07C81.6616 36.864 83.1811 42.267 83.4076 47.9985H80.4451C79.6156 47.9985 78.9451 48.669 78.9451 49.4985C78.9451 50.328 79.6156 50.9985 80.4451 50.9985H83.4076C83.1811 56.73 81.6616 62.133 79.1341 66.927L76.5736 65.448C75.8566 65.034 74.9386 65.277 74.5246 65.997C74.1106 66.7155 74.3566 67.632 75.0736 68.046L77.6281 69.5205C74.6506 74.214 70.6636 78.201 65.9701 81.1785L64.4956 78.624C64.0801 77.904 63.1606 77.6595 62.4466 78.075C61.7281 78.489 61.4821 79.407 61.8976 80.124L63.3766 82.6845C58.6501 85.1775 53.3341 86.6925 47.6926 86.952V84C47.6926 83.1705 47.0221 82.5 46.1926 82.5C45.3631 82.5 44.6926 83.1705 44.6926 84V86.964C42.2971 86.8815 39.8941 86.5815 37.5286 86.0385C36.7216 85.845 35.9161 86.358 35.7316 87.165C35.5456 87.972 36.0511 88.7775 36.8581 88.962C39.8521 89.652 42.9106 90 45.9451 90C46.0186 90 46.0891 89.9955 46.1626 89.994C46.1731 89.994 46.1806 90 46.1896 90C46.2016 90 46.2121 89.9925 46.2241 89.9925C53.4346 89.943 60.1996 87.996 66.0526 84.633C66.0991 84.612 66.1486 84.6015 66.1936 84.5745C66.2236 84.5565 66.2401 84.528 66.2686 84.5085C72.3271 80.9775 77.3896 75.921 80.9281 69.867C80.9566 69.8265 80.9926 69.795 81.0181 69.75C81.0361 69.7185 81.0346 69.6855 81.0496 69.654C84.4756 63.714 86.4451 56.835 86.4451 49.5C86.4451 42.165 84.4756 35.286 81.0511 29.346ZM80.9476 12.3765L83.0686 14.4975L80.9476 16.62L78.8251 14.4975L80.9476 12.3765ZM44.6896 9.0315V4.5H39.4396C39.0271 4.5 38.6896 4.1625 38.6896 3.75C38.6896 3.3375 39.0271 3 39.4396 3H52.9396C53.3521 3 53.6896 3.3375 53.6896 3.75C53.6896 4.1625 53.3521 4.5 52.9396 4.5H47.6896V9.0315C47.1676 9.0105 46.6696 9 46.1896 9C46.1476 9 46.0996 9.003 46.0576 9.003C46.0201 9.003 45.9826 9 45.9451 9C45.6991 9 45.4531 9.0165 45.2071 9.021C45.0331 9.0255 44.8696 9.024 44.6896 9.0315Z" fill="#1DA2FC"/>
<path d="M32.6897 21H25.1897C24.3602 21 23.6897 21.6705 23.6897 22.4999C23.6897 23.3294 24.3602 23.9999 25.1897 23.9999H32.6897C33.5192 23.9999 34.1897 23.3294 34.1897 22.4999C34.1897 21.6705 33.5192 21 32.6897 21Z" fill="#1DA2FC" fill-opacity="0.6"/>
<path d="M32.6894 31.5H17.6895C16.86 31.5 16.1895 32.1705 16.1895 33C16.1895 33.8295 16.86 34.5 17.6895 34.5H32.6894C33.519 34.5 34.1895 33.8295 34.1895 33C34.1895 32.1705 33.519 31.5 32.6894 31.5Z" fill="#1DA2FC" fill-opacity="0.6"/>
<path d="M32.6892 42H10.1892C9.35971 42 8.68921 42.6705 8.68921 43.5001C8.68921 44.3296 9.35971 45.0001 10.1892 45.0001H32.6892C33.5187 45.0001 34.1892 44.3296 34.1892 43.5001C34.1892 42.6705 33.5187 42 32.6892 42Z" fill="#1DA2FC"/>
<path d="M32.6894 52.5H4.18944C3.35995 52.5 2.68945 53.1705 2.68945 53.9999C2.68945 54.8294 3.35995 55.4999 4.18944 55.4999H32.6894C33.519 55.4999 34.1895 54.8294 34.1895 53.9999C34.1895 53.1705 33.519 52.5 32.6894 52.5Z" fill="#1DA2FC"/>
<path d="M32.6894 63H13.1895C12.36 63 11.6895 63.6705 11.6895 64.5C11.6895 65.3295 12.36 66 13.1895 66H32.6894C33.519 66 34.1895 65.3295 34.1895 64.5C34.1895 63.6705 33.519 63 32.6894 63Z" fill="#1DA2FC" fill-opacity="0.6"/>
<path d="M32.6894 73.5H22.1895C21.36 73.5 20.6895 74.1705 20.6895 75.0001C20.6895 75.8296 21.36 76.5001 22.1895 76.5001H32.6894C33.519 76.5001 34.1895 75.8296 34.1895 75.0001C34.1895 74.1705 33.519 73.5 32.6894 73.5Z" fill="#1DA2FC" fill-opacity="0.6"/>
</svg>
