<svg width="90" height="90" viewBox="0 0 90 90" fill="none" xmlns="http://www.w3.org/2000/svg">
<g clip-path="url(#clip0_2_2351)">
<path d="M37.1778 86.945C36.8509 86.6178 36.3973 86.43 35.9351 86.43C35.4709 86.43 35.0193 86.6178 34.6923 86.945C34.3653 87.2721 34.1772 87.7255 34.1772 88.1878C34.1772 88.65 34.3653 89.1036 34.6923 89.4303C35.0193 89.7573 35.4727 89.9455 35.9351 89.9455C36.3973 89.9455 36.8509 89.7575 37.1778 89.4303C37.5048 89.1036 37.6929 88.65 37.6929 88.1878C37.6929 87.7255 37.5048 87.2719 37.1778 86.945Z" fill="#FC951D"/>
<path d="M10.1953 55.0485C9.22447 55.0485 8.4375 55.8355 8.4375 56.8063V73.1246C8.4375 74.0952 9.22447 74.8824 10.1953 74.8824C11.1662 74.8824 11.9531 74.0952 11.9531 73.1246V56.8063C11.9531 55.8356 11.1662 55.0485 10.1953 55.0485Z" fill="#FC951D"/>
<path d="M11.4381 48.2396C11.1111 47.9127 10.6576 47.7244 10.1953 47.7244C9.73301 47.7244 9.27949 47.9124 8.95254 48.2396C8.62559 48.5663 8.4375 49.0182 8.4375 49.4821C8.4375 49.9445 8.62559 50.3981 8.95254 50.7249C9.27949 51.0519 9.73301 51.24 10.1953 51.24C10.6576 51.24 11.1111 51.0521 11.4381 50.7249C11.765 50.3978 11.9531 49.9445 11.9531 49.4821C11.9531 49.0199 11.765 48.5666 11.4381 48.2396Z" fill="#FC951D"/>
<path d="M90 47.5822C90 43.3734 86.9648 39.8624 82.9687 39.1171V27.719C82.9687 22.8726 79.0259 18.9298 74.1797 18.9298H64.994L46.633 0.568826C45.9465 -0.117424 44.8335 -0.117424 44.1469 0.568826L40.0609 4.65486L35.9748 0.568826C35.2885 -0.117424 34.1754 -0.117424 33.489 0.568826L15.0188 19.0392C14.8299 18.9699 14.6269 18.9302 14.414 18.9302H8.78907C3.94277 18.9302 0 22.873 0 27.7194C0 27.8474 0.00421875 27.9747 0.00966797 28.1015C0.00333985 28.1615 0 28.223 0 28.2852V81.1566C0 86.003 3.94277 89.9457 8.78907 89.9457H28.5351C29.506 89.9457 30.293 89.1585 30.293 88.1879C30.293 87.2172 29.506 86.4301 28.5351 86.4301H8.78907C5.88129 86.4301 3.51563 84.0644 3.51563 81.1566V34.7454C4.98568 35.8515 6.81205 36.508 8.78907 36.508L45.5846 36.5437H65.5541C65.6114 36.5437 65.6688 36.5408 65.7257 36.5352C65.7291 36.5349 65.7324 36.5343 65.7357 36.5341C68.3999 36.7965 70.4883 39.0494 70.4883 41.7816V52.6801H49.2187C44.3724 52.6801 40.4297 56.6229 40.4297 61.4691C40.4297 66.3155 44.3724 70.2582 49.2187 70.2582H70.4883V81.1566C70.4883 84.0644 68.1227 86.4301 65.2149 86.4301H43.3007C42.3298 86.4301 41.5428 87.2172 41.5428 88.1879C41.5428 89.1585 42.3298 89.9457 43.3007 89.9457H65.2149C70.0611 89.9457 74.0039 86.003 74.0039 81.1566V80.4534H74.1797C79.0259 80.4534 82.9687 76.5107 82.9687 71.6644V70.0813C86.9757 69.2646 90 65.7138 90 61.4691V47.934C90 47.8972 89.999 47.8607 89.9967 47.8245C89.999 47.744 90 47.6631 90 47.5822ZM41.9783 7.70995L45.3901 4.29803L49.1568 8.06484C46.9099 9.41818 44.087 9.45352 41.8092 8.17225C41.8882 8.02529 41.944 7.86937 41.9783 7.70995ZM3.51563 27.719C3.51563 24.8112 5.88129 22.4455 8.78907 22.4455H11.6123L4.04262 30.0151C3.70529 29.3207 3.51563 28.5416 3.51563 27.719ZM8.78907 32.9923C7.98557 32.9923 7.22373 32.811 6.54152 32.4882L34.7319 4.29785L37.575 7.14094L11.7234 32.9923H8.78907ZM25.3791 32.9923C25.6182 32.6979 25.8722 32.4146 26.1427 32.1443C28.2185 30.0682 30.9786 28.9251 33.9142 28.9251C36.8497 28.9251 39.6099 30.0685 41.6857 32.1443C41.9562 32.4146 42.2101 32.6982 42.4493 32.9923H25.3791ZM62.1762 32.9923H46.6592C45.9954 31.7686 45.1633 30.6499 44.1715 29.6582C41.4316 26.9182 37.7888 25.4093 33.9141 25.4093C30.0393 25.4093 26.3964 26.9182 23.6565 29.6582C22.6646 30.6499 21.8323 31.7686 21.1688 32.9923H16.6951L39.0876 10.6003C40.9638 11.9471 43.1762 12.6229 45.3901 12.6229C47.6038 12.6229 49.8164 11.9473 51.6925 10.6003L63.1707 22.0785C60.8635 25.2923 60.5316 29.4945 62.1762 32.9923ZM65.7063 32.1477C64.3159 29.8392 64.3159 26.9225 65.7063 24.6141L69.4732 28.381L65.7063 32.1477ZM68.9831 33.8428L73.202 29.6239C73.8885 28.9374 73.8885 27.8244 73.202 27.1378L68.5097 22.4455H74.1797C77.0874 22.4455 79.4532 24.8112 79.4532 27.719V52.6798H74.0039V41.7815C74.0039 38.283 71.9491 35.2565 68.9831 33.8428ZM79.4532 71.6643C79.4532 74.5721 77.0874 76.9377 74.1797 76.9377H74.0039V70.258H79.4532V71.6643ZM86.4843 61.469C86.4843 64.3767 84.1188 66.7423 81.211 66.7423H49.2187C46.3109 66.7423 43.9453 64.3767 43.9453 61.469C43.9453 58.5612 46.3109 56.1955 49.2187 56.1955H81.3867C83.2927 56.1955 85.0562 55.5732 86.4843 54.5212V61.469ZM82.9687 52.4273V42.7371C85.0073 43.4044 86.4843 45.3236 86.4843 47.5822C86.4843 49.8408 85.0073 51.76 82.9687 52.4273Z" fill="#1DA2FC"/>
<path d="M50.8131 60.2262C50.4861 59.8993 50.0327 59.7112 49.5703 59.7112C49.108 59.7112 48.6545 59.8991 48.3276 60.2262C48.0006 60.5532 47.8125 61.0066 47.8125 61.469C47.8125 61.9313 48.0006 62.3848 48.3276 62.7116C48.6545 63.0386 49.108 63.2268 49.5703 63.2268C50.0327 63.2268 50.4861 63.0387 50.8131 62.7116C51.1401 62.3848 51.3282 61.9313 51.3282 61.469C51.3282 61.0066 51.1401 60.5532 50.8131 60.2262Z" fill="#FC951D"/>
<path d="M51.6052 22.1656C50.9185 21.4795 49.8058 21.4794 49.1193 22.1656L46.0642 25.2207C45.3778 25.9071 45.3776 27.0202 46.0642 27.7068C46.4074 28.0499 46.8572 28.2217 47.3072 28.2217C47.757 28.2217 48.207 28.0499 48.5501 27.7068L51.6052 24.6516C52.2917 23.9652 52.2918 22.8524 51.6052 22.1656Z" fill="#FC951D"/>
</g>
<defs>
<clipPath id="clip0_2_2351">
<rect width="90" height="90" fill="white"/>
</clipPath>
</defs>
</svg>
