<svg width="90" height="90" viewBox="0 0 90 90" fill="none" xmlns="http://www.w3.org/2000/svg">
<g clip-path="url(#clip0_2_2274)">
<path d="M23.615 65.1517C23.501 65.1517 23.385 65.1414 23.2703 65.118C23.1597 65.0953 23.0492 65.0617 22.9421 65.0178C22.8364 64.9738 22.7347 64.9196 22.6393 64.8565C22.5431 64.7911 22.4532 64.7177 22.3721 64.6367C22.2911 64.5556 22.2177 64.4664 22.1524 64.3696C22.0893 64.2748 22.035 64.1725 21.991 64.0668C21.9472 63.9597 21.9135 63.8491 21.8909 63.7385C21.8675 63.6246 21.8572 63.5079 21.8572 63.3938C21.8572 63.2799 21.8675 63.1638 21.8909 63.0512C21.9135 62.9385 21.9472 62.8281 21.991 62.7223C22.035 62.6152 22.0893 62.5136 22.1524 62.4181C22.2177 62.3221 22.2911 62.232 22.3721 62.151C22.4532 62.07 22.5431 61.9965 22.6393 61.9334C22.7347 61.8702 22.8364 61.8152 22.9421 61.7713C23.0492 61.7274 23.1597 61.6944 23.2703 61.6711C23.4976 61.6257 23.731 61.6257 23.9576 61.6711C24.0703 61.6944 24.1807 61.7274 24.2865 61.7713C24.3936 61.8152 24.496 61.8702 24.5907 61.9334C24.6875 61.9965 24.7768 62.07 24.8578 62.151C24.9388 62.232 25.0123 62.3221 25.0754 62.4181C25.1393 62.5136 25.1936 62.6152 25.2376 62.7223C25.2814 62.8281 25.3151 62.9385 25.3377 63.0512C25.3605 63.1638 25.3728 63.2799 25.3728 63.3938C25.3728 63.5079 25.3605 63.6246 25.3377 63.7385C25.3151 63.8491 25.2814 63.9597 25.2376 64.0668C25.1936 64.1725 25.1393 64.2748 25.0754 64.3696C25.0123 64.4664 24.9388 64.5556 24.8578 64.6367C24.7768 64.7177 24.6875 64.7911 24.5907 64.8565C24.496 64.9196 24.3936 64.9738 24.2865 65.0178C24.1807 65.0617 24.0703 65.0953 23.9576 65.118C23.845 65.1407 23.7297 65.1517 23.615 65.1517Z" fill="#1DA2FC" fill-opacity="0.6"/>
<path d="M66.6029 65.1517C66.4889 65.1517 66.3728 65.1414 66.2603 65.118C66.1477 65.0953 66.0371 65.0617 65.932 65.0178C65.8242 64.9738 65.7226 64.9196 65.6278 64.8565C65.531 64.7911 65.441 64.7177 65.3607 64.6367C65.2797 64.5556 65.2055 64.4664 65.1424 64.3696C65.0792 64.2748 65.025 64.1725 64.981 64.0668C64.937 63.9597 64.9035 63.8491 64.8807 63.7385C64.8574 63.6246 64.8451 63.5079 64.8451 63.3938C64.8451 63.2799 64.8574 63.1638 64.8807 63.0512C64.9035 62.9385 64.937 62.8281 64.981 62.7223C65.025 62.6152 65.0792 62.5136 65.1424 62.4181C65.2055 62.3221 65.2797 62.232 65.3607 62.151C65.441 62.07 65.531 61.9965 65.6278 61.9334C65.7226 61.8702 65.8242 61.8152 65.932 61.7713C66.0371 61.7274 66.1477 61.6944 66.2603 61.6711C66.4875 61.6257 66.721 61.6257 66.9475 61.6711C67.0588 61.6944 67.1694 61.7274 67.2765 61.7713C67.3822 61.8152 67.4839 61.8702 67.5786 61.9334C67.6755 61.9965 67.7653 62.07 67.8457 62.151C67.9267 62.232 68.0009 62.3221 68.0654 62.4181C68.1293 62.5136 68.1836 62.6152 68.2274 62.7223C68.2714 62.8281 68.3051 62.9385 68.3277 63.0512C68.3503 63.1638 68.3606 63.2799 68.3606 63.3938C68.3606 63.5079 68.3503 63.6246 68.3277 63.7385C68.3051 63.8491 68.2714 63.9597 68.2274 64.0668C68.1836 64.1725 68.1293 64.2748 68.0654 64.3696C68.0009 64.4664 67.9267 64.5556 67.8457 64.6367C67.7653 64.7177 67.6755 64.7911 67.5786 64.8565C67.4839 64.9196 67.3822 64.9738 67.2765 65.0178C67.1694 65.0617 67.0588 65.0953 66.9475 65.118C66.8336 65.1407 66.7175 65.1517 66.6029 65.1517Z" fill="#1DA2FC" fill-opacity="0.6"/>
<path d="M37.0432 57.3213C36.9822 57.2705 36.917 57.223 36.8496 57.1812L26.495 50.7273L18.0768 42.246C16.3004 40.4421 13.6828 39.9684 11.4609 40.8919V27.0237C11.4609 23.9392 9.09814 21.4118 6.08171 21.2703C4.45779 21.1941 2.80435 21.8011 1.65902 22.8942C0.70252 23.806 0.175863 24.9891 0.175863 26.2251C0.175863 27.5716 0.177237 29.3027 0.179296 31.2396C0.183416 35.9261 0.18891 41.7585 0.175863 46.3383C0.165564 50.0414 1.12344 53.704 2.94511 56.9292L9.04115 67.7205C10.4536 70.2206 12.666 72.2462 15.2793 73.4334L23.0274 77.8575V80.131C22.9766 80.2944 22.9499 80.4681 22.9499 80.648V88.0666C22.9499 89.0374 23.7367 89.8244 24.7077 89.8244H40.1764C41.1474 89.8244 41.9342 89.0374 41.9342 88.0666V66.4798C41.9342 63.0534 40.3344 60.0575 37.0432 57.3213ZM38.4186 86.3087H26.4655V82.4058H38.4186V86.3087ZM38.4186 78.8901H26.5431V76.8371C26.5431 76.2061 26.2045 75.6238 25.6566 75.3107L16.95 70.3394C16.8992 70.3106 16.8476 70.2845 16.7948 70.2604C14.8281 69.3829 13.1617 67.8668 12.1029 65.9922L6.00618 55.2002C4.48388 52.5045 3.68325 49.4434 3.69217 46.3479C3.70454 41.7619 3.69904 35.9261 3.69492 31.2369C3.69355 29.3007 3.69217 27.571 3.69217 26.2251C3.69217 25.9519 3.8247 25.6868 4.08631 25.4376C4.53606 25.0084 5.25293 24.7509 5.91691 24.7818C7.03545 24.8347 7.94595 25.8399 7.94595 27.0237V44.8408C7.88003 45.0742 7.82853 45.3126 7.79008 45.5556C7.49756 47.4322 8.11349 49.359 9.43735 50.7164L17.5761 59.4766C18.2367 60.188 19.3491 60.2285 20.0605 59.5679C20.7711 58.9074 20.8124 57.795 20.1518 57.0837L11.9972 48.3063C11.9855 48.2939 11.9738 48.2815 11.9615 48.2692C11.3929 47.6918 11.1388 46.9 11.2638 46.0967C11.3442 45.5831 11.5762 45.114 11.9422 44.7323C12.004 44.676 12.1372 44.5551 12.2011 44.4982C13.216 43.6962 14.6593 43.7854 15.5767 44.7171L24.1439 53.349C24.2393 53.4451 24.3465 53.5303 24.4619 53.6023L34.8858 60.0994C37.2952 62.1292 38.4186 64.1589 38.4186 66.479V78.8901Z" fill="#1DA2FC"/>
<path d="M90.0395 31.2403C90.0409 29.3026 90.0424 27.5715 90.0424 26.225C90.0424 24.9898 89.5156 23.8067 88.5598 22.8941C87.4145 21.801 85.7618 21.1946 84.1372 21.2702C81.12 21.4123 78.7573 23.9392 78.7573 27.0237V40.8918C76.5361 39.9682 73.9192 40.4414 72.1462 42.241L63.7239 50.7273L53.3693 57.1811C53.3013 57.2237 53.2367 57.2703 53.1749 57.3211C49.8845 60.0574 48.2847 63.0532 48.2847 66.4797V88.0664C48.2847 89.0374 49.0715 89.8242 50.0425 89.8242H65.5112C66.4822 89.8242 67.269 89.0374 67.269 88.0664V80.6479C67.269 80.468 67.2416 80.2943 67.1915 80.1309V77.8581L74.9388 73.434C77.5523 72.2461 79.7653 70.2204 81.1771 67.7211L87.2731 56.9291C89.0954 53.7039 90.0533 50.0413 90.0424 46.3383C90.03 41.7583 90.0354 35.9259 90.0395 31.2403ZM63.7534 86.3086H51.8003V82.4057H63.7534V86.3086ZM86.5267 46.3478C86.5356 49.4433 85.735 52.5043 84.212 55.2001L78.1159 65.9921C77.0572 67.8667 75.3906 69.3828 73.4241 70.2603C73.3706 70.2843 73.3191 70.3104 73.2689 70.3392L64.5623 75.3106C64.0136 75.6237 63.6758 76.206 63.6758 76.837V78.8901H51.7996V66.4797C51.7996 64.1595 52.9229 62.1297 55.3331 60.1001L65.757 53.603C65.8723 53.5308 65.9788 53.4457 66.075 53.3496L74.6463 44.713C75.5596 43.786 77.0023 43.6967 78.0178 44.4987C78.0824 44.5571 78.2162 44.6779 78.2773 44.7342C78.6405 45.1106 78.8748 45.5815 78.955 46.0972C79.08 46.9007 78.8259 47.6923 78.2567 48.2698C78.245 48.2822 78.2333 48.2945 78.2218 48.3069L70.0671 57.0843C69.4065 57.7957 69.4478 58.908 70.1584 59.5686C70.8698 60.2298 71.9822 60.1887 72.6427 59.4773L80.7815 50.7171C82.1054 49.3588 82.7212 47.4321 82.4287 45.5562C82.3911 45.3131 82.3389 45.0748 82.2729 44.8413V27.0243C82.2729 25.8405 83.1835 24.8346 84.3019 24.7824C84.9646 24.7501 85.6828 25.0083 86.1325 25.4381C86.3941 25.6874 86.5267 25.9524 86.5267 26.2257C86.5267 27.5709 86.5253 29.3005 86.524 31.2368C86.5199 35.9259 86.5144 41.7618 86.5267 46.3478Z" fill="#1DA2FC"/>
<path d="M63.763 8.47041C56.0657 7.31822 50.5436 4.74467 46.386 0.370053L46.3854 0.369365C45.7186 -0.328953 44.6132 -0.360539 43.9073 0.298642C43.8606 0.342586 43.8331 0.367992 43.8317 0.370053C39.6734 4.74467 34.1521 7.31822 26.4548 8.47041C25.5937 8.59882 24.9572 9.33834 24.9572 10.209V33.9011C24.9572 36.789 25.9604 39.5452 27.7828 41.6622C29.6504 43.8327 32.1883 46.0917 35.3241 48.3782C38.6221 50.7822 41.9846 52.7631 44.2327 54.006L44.2382 54.0087C44.7896 54.2704 45.4288 54.2704 45.9803 54.0081L45.985 54.006C48.2331 52.7631 51.595 50.7822 54.8936 48.3782C58.0295 46.0917 60.5667 43.8327 62.4351 41.6622C64.2575 39.5452 65.2606 36.789 65.2606 33.9011V10.209C65.2606 9.33834 64.6234 8.59882 63.763 8.47041ZM61.7449 33.9011C61.7449 35.9479 61.0439 37.8897 59.7708 39.3688C58.0783 41.3347 55.7409 43.4097 52.8227 45.5369C50.7627 47.0386 48.6713 48.37 46.8668 49.446V14.4237C46.8668 13.4535 46.0798 12.6658 45.1089 12.6658C44.138 12.6658 43.3511 13.4535 43.3511 14.4237V49.4466C41.5458 48.3708 39.4544 47.0386 37.3952 45.5376C34.4768 43.4097 32.1388 41.3347 30.4469 39.3688C29.1739 37.8897 28.4728 35.9479 28.4728 33.9011V11.7004C35.4135 10.4514 40.8839 7.93414 45.1089 4.04292C49.3338 7.93482 54.8044 10.4514 61.7449 11.7004V33.9011Z" fill="#FC951D"/>
</g>
<defs>
<clipPath id="clip0_2_2274">
<rect width="90" height="90" fill="white"/>
</clipPath>
</defs>
</svg>
