<svg width="90" height="90" viewBox="0 0 90 90" fill="none" xmlns="http://www.w3.org/2000/svg">
<path d="M79.4898 42.7163L79.2477 42.2719L86.7262 34.7936C87.93 33.5898 88.5938 31.988 88.5938 30.285C88.5938 26.768 85.732 23.9062 82.215 23.9062C81.5006 23.9062 80.813 24.0482 80.1562 24.2719V5.625C80.1562 3.29906 78.2633 1.40625 75.9375 1.40625H32.1032C30.9769 1.40625 29.9167 1.845 29.1193 2.64233L16.7048 15.0567C15.9075 15.8526 15.4688 16.913 15.4688 18.0408V21.1655C7.59656 21.8784 1.40625 28.5075 1.40625 36.5625V81.5625C1.40625 85.4395 4.56048 88.5938 8.4375 88.5938H25.3125C29.1895 88.5938 32.3438 85.4395 32.3438 81.5625V80.1562H66.0938H67.5H87.442L84.3707 61.7287C84.3455 55.1038 82.6623 48.5325 79.4898 42.7163ZM81.5287 60.8105L67.8193 64.5498L64.5131 61.9045C62.8369 60.5617 61.875 58.5605 61.875 56.4131V45V43.5938C63.4262 43.5938 64.6875 44.8551 64.6875 46.4062V56.25H67.5V54.0198L77.1665 44.3531C79.8707 49.4156 81.3629 55.0744 81.5287 60.8105ZM61.875 40.7812C60.3238 40.7812 59.0625 42.0426 59.0625 43.5938V45C59.0625 45.7749 58.4311 46.4062 57.6562 46.4062C56.8814 46.4062 56.25 45.7749 56.25 45V43.5938C56.25 40.4917 58.7729 37.9688 61.875 37.9688H65.5115L62.6231 40.8573C62.3756 40.8236 62.1311 40.7812 61.875 40.7812ZM46.4751 64.7887L48.3257 60.1594L52.3406 64.1743L47.7099 66.0262C47.115 66.2681 46.4062 65.7887 46.4062 65.1418C46.4062 65.0194 46.4287 64.9012 46.4751 64.7887ZM54.8438 62.6989L49.8011 57.6562L58.3045 49.1526C58.5675 49.1119 58.8193 49.0457 59.0625 48.9586V56.4118C59.0625 57.0501 59.1356 57.6745 59.2537 58.2876L54.8438 62.6989ZM53.6963 46.4062H37.9688V40.7812H53.9298C53.6175 41.663 53.4375 42.6067 53.4375 43.5938V45C53.4375 45.495 53.5387 45.9646 53.6963 46.4062ZM37.9688 49.2188H54.2614L48.6364 54.8438H37.9688V49.2188ZM37.9688 57.6562H46.298L44.048 63.2812H37.9688V57.6562ZM37.9688 66.0938H43.7314C44.1562 67.7068 45.6145 68.9062 47.3598 68.9062C47.842 68.9062 48.3131 68.8163 48.7575 68.6376L52.0312 67.327V71.7188H37.9688V66.0938ZM54.8438 66.202L55.6339 65.8856L60.3169 61.2029C60.3675 61.2943 60.4138 61.387 60.4688 61.477V71.7188H54.8438V66.202ZM63.2812 64.5187L66.0938 66.7687V71.7188H63.2812V64.5187ZM85.7812 30.285C85.7812 31.237 85.41 32.1327 84.7363 32.8063L67.5 50.0427V46.4062C67.5 44.6456 66.6704 43.0904 65.3989 42.0581L79.6936 27.7637C80.3673 27.09 81.263 26.7188 82.215 26.7188C84.1808 26.7188 85.7812 28.319 85.7812 30.285ZM29.5312 6.20719V14.0625C29.5312 14.8374 28.8999 15.4688 28.125 15.4688H20.2697L29.5312 6.20719ZM16.875 23.9062C23.8527 23.9062 29.5312 29.5848 29.5312 36.5625C29.5312 43.5402 23.8527 49.2188 16.875 49.2188C9.89719 49.2188 4.21875 43.5402 4.21875 36.5625C4.21875 29.5848 9.89719 23.9062 16.875 23.9062ZM9.84375 50.3239C11.9559 51.4069 14.3423 52.0312 16.875 52.0312C19.4076 52.0312 21.7941 51.4069 23.9062 50.3239V57.6562H9.84375V50.3239ZM25.3125 85.7812H8.4375C6.11156 85.7812 4.21875 83.8883 4.21875 81.5625V45.4288C5.01892 46.568 5.96108 47.6001 7.03125 48.4862V57.6562C7.03125 59.2074 8.29267 60.4688 9.84375 60.4688H23.9062C25.4574 60.4688 26.7188 59.2074 26.7188 57.6562V48.4862C27.7889 47.6001 28.7311 46.568 29.5312 45.4288V81.5625C29.5312 83.8883 27.6383 85.7812 25.3125 85.7812ZM32.3438 77.3438V36.5625C32.3438 28.5075 26.1533 21.8784 18.2812 21.1655V18.2812H28.125C30.4508 18.2812 32.3438 16.3884 32.3438 14.0625V4.21875H75.9375C76.7124 4.21875 77.3438 4.85015 77.3438 5.625V26.1367L68.324 35.1562H61.875C59.3845 35.1562 57.15 36.2475 55.6031 37.9688H35.1562V74.5312H66.0938V77.3438H32.3438ZM68.9062 77.3438V67.1681L81.8368 63.6413L84.1205 77.3438H68.9062Z" fill="#1DA0FA"/>
<path d="M11.25 36.2122H13.3843V27.675H18.1672C19.3157 27.675 20.2929 27.8379 21.0986 28.1635C21.9043 28.4722 22.5558 28.8922 23.0528 29.4235C23.5672 29.9378 23.9357 30.5464 24.1585 31.2493C24.3985 31.9349 24.5185 32.6464 24.5185 33.3835C24.5185 34.1379 24.3985 34.8493 24.1585 35.5178C23.9357 36.1865 23.5672 36.7778 23.0528 37.2922C22.5558 37.8065 21.9043 38.2178 21.0986 38.5265C20.2929 38.8179 19.3157 38.9635 18.1672 38.9635H16.7272V40.9178H21.2528V43.5665H16.7272V45.675H13.3843V43.5665H11.25V40.9178H13.3843V38.9635H11.25V36.2122ZM17.8328 36.2122C18.2957 36.2122 18.7243 36.178 19.1186 36.1093C19.53 36.0236 19.89 35.8778 20.1986 35.6722C20.5072 35.4665 20.7471 35.1835 20.9186 34.8235C21.09 34.4464 21.1757 33.9664 21.1757 33.3835C21.1757 32.8007 21.09 32.3122 20.9186 31.9178C20.7471 31.5236 20.5072 31.2149 20.1986 30.9922C19.89 30.7521 19.53 30.5892 19.1186 30.5035C18.7243 30.4006 18.2957 30.3493 17.8328 30.3493H16.7272V36.2122H17.8328Z" fill="#FC951D"/>
<path d="M23.9062 63.2812H9.84375C8.29264 63.2812 7.03125 64.5426 7.03125 66.0938V80.1562C7.03125 81.7074 8.29264 82.9688 9.84375 82.9688H23.9062C25.4574 82.9688 26.7188 81.7074 26.7188 80.1562V66.0938C26.7188 64.5426 25.4574 63.2812 23.9062 63.2812ZM23.9062 68.9062H21.0938V66.0938H23.9062V68.9062ZM18.2812 80.1562H15.4688V77.3438H18.2812V80.1562ZM18.2812 74.5312H15.4688V71.7188H18.2812V74.5312ZM12.6562 74.5312H9.84375V71.7188H12.6562V74.5312ZM15.4688 68.9062V66.0938H18.2812V68.9062H15.4688ZM12.6562 66.0938V68.9062H9.84375V66.0938H12.6562ZM9.84375 77.3438H12.6562V80.1562H9.84375V77.3438ZM21.0938 80.1562V71.7188H23.9076L23.9092 80.1562H21.0938Z" fill="#1DA0FA"/>
<path d="M74.5312 7.03125H35.1562V15.4688H74.5312V7.03125ZM71.7188 12.6562H37.9688V9.84375H71.7188V12.6562Z" fill="#1DA0FA"/>
<path d="M35.1562 18.2812H74.5312V21.0938H35.1562V18.2812Z" fill="#1DA0FA"/>
<path d="M35.1562 23.9062H74.5312V26.7188H35.1562V23.9062Z" fill="#1DA0FA"/>
<path d="M35.1562 29.5312H57.6562V32.3438H35.1562V29.5312Z" fill="#1DA0FA"/>
</svg>
