<svg width="90" height="90" viewBox="0 0 90 90" fill="none" xmlns="http://www.w3.org/2000/svg">
<g clip-path="url(#clip0_2_1542)">
<path d="M31.5 0H4.5C2.01489 0 0 2.01489 0 4.5V22.5C0 24.9851 2.01489 27 4.5 27H12V33H9V36H27V33H24V27H31.5C33.9851 27 36 24.9851 36 22.5V4.5C36 2.01489 33.9851 0 31.5 0ZM4.5 3H31.5C32.3283 3 33 3.67162 33 4.5V18H3V4.5C3 3.67162 3.67162 3 4.5 3ZM21 33H15V27H21V33ZM31.5 24H4.5C3.67162 24 3 23.3283 3 22.5V21H33V22.5C33 23.3283 32.3283 24 31.5 24Z" fill="#1DA2FC"/>
<path d="M85.5 0H58.5C56.015 0 54 2.01489 54 4.5V22.5C54 24.9851 56.015 27 58.5 27H66V33H63V36H81V33H78V27H85.5C87.9851 27 90 24.9851 90 22.5V4.5C90 2.01489 87.9851 0 85.5 0ZM58.5 3H85.5C86.3283 3 87 3.67162 87 4.5V18H57V4.5C57 3.67162 57.6717 3 58.5 3ZM75 33H69V27H75V33ZM85.5 24H58.5C57.6717 24 57 23.3283 57 22.5V21H87V22.5C87 23.3283 86.3283 24 85.5 24Z" fill="#1DA2FC"/>
<path d="M31.5 54H4.5C2.01489 54 0 56.015 0 58.5V76.5C0 78.9851 2.01489 81 4.5 81H12V87H9V90H27V87H24V81H31.5C33.9851 81 36 78.9851 36 76.5V58.5C36 56.015 33.9851 54 31.5 54ZM4.5 57H31.5C32.3283 57 33 57.6717 33 58.5V72H3V58.5C3 57.6717 3.67162 57 4.5 57ZM21 87H15V81H21V87ZM31.5 78H4.5C3.67162 78 3 77.3283 3 76.5V75H33V76.5C33 77.3283 32.3283 78 31.5 78Z" fill="#1DA2FC"/>
<path d="M85.5 54H58.5C56.015 54 54 56.015 54 58.5V76.5C54 78.9851 56.015 81 58.5 81H66V87H63V90H81V87H78V81H85.5C87.9851 81 90 78.9851 90 76.5V58.5C90 56.015 87.9851 54 85.5 54ZM58.5 57H85.5C86.3283 57 87 57.6717 87 58.5V72H57V58.5C57 57.6717 57.6717 57 58.5 57ZM75 87H69V81H75V87ZM85.5 78H58.5C57.6717 78 57 77.3283 57 76.5V75H87V76.5C87 77.3283 86.3283 78 85.5 78Z" fill="#1DA2FC"/>
<path d="M40.5 12H43.5V15H40.5V12Z" fill="#FC951D"/>
<path d="M46.5 12H49.5V15H46.5V12Z" fill="#FC951D"/>
<path d="M40.5 75H43.5V78H40.5V75Z" fill="#FC951D"/>
<path d="M46.5 75H49.5V78H46.5V75Z" fill="#FC951D"/>
<path d="M16.5 40.5H19.5V43.5H16.5V40.5Z" fill="#FC951D"/>
<path d="M16.5 46.5H19.5V49.5H16.5V46.5Z" fill="#FC951D"/>
<path d="M70.5 40.5H73.5V43.5H70.5V40.5Z" fill="#FC951D"/>
<path d="M70.5 46.5H73.5V49.5H70.5V46.5Z" fill="#FC951D"/>
</g>
<defs>
<clipPath id="clip0_2_1542">
<rect width="90" height="90" fill="white"/>
</clipPath>
</defs>
</svg>
