<svg width="90" height="90" viewBox="0 0 90 90" fill="none" xmlns="http://www.w3.org/2000/svg">
<path d="M45 40.7812C47.5031 40.7812 49.9502 40.039 52.0315 38.6483C54.1127 37.2575 55.735 35.2809 56.6928 32.9683C57.6509 30.6558 57.9015 28.111 57.413 25.6558C56.9248 23.2009 55.7192 20.9457 53.9494 19.1757C52.1793 17.4057 49.9241 16.2003 47.4692 15.712C45.014 15.2236 42.4692 15.4742 40.1567 16.4322C37.8441 17.3901 35.8675 19.0123 34.4767 21.0936C33.086 23.1748 32.3438 25.6219 32.3438 28.125C32.3476 31.4804 33.6821 34.6975 36.0549 37.0703C38.4275 39.443 41.6446 40.7774 45 40.7812ZM45 18.2812C46.9469 18.2812 48.8502 18.8586 50.4688 19.9402C52.0877 21.0219 53.3493 22.5592 54.0945 24.358C54.8395 26.1567 55.0343 28.136 54.6545 30.0454C54.2747 31.955 53.3371 33.7088 51.9606 35.0856C50.5838 36.4622 48.83 37.3997 46.9204 37.7795C45.011 38.1593 43.0317 37.9645 41.233 37.2195C39.4342 36.4743 37.897 35.2127 36.8152 33.5939C35.7336 31.9752 35.1562 30.0719 35.1562 28.125C35.1592 25.5152 36.1973 23.0132 38.0428 21.1677C39.8882 19.3223 42.3902 18.2842 45 18.2812Z" fill="#FC951D"/>
<path d="M86.8894 79.2914C86.758 79.1228 86.5899 78.9865 86.3977 78.8927C86.2058 78.7988 85.995 78.7502 85.7812 78.75H50.625C50.252 78.75 49.8944 78.8981 49.6305 79.162C49.3668 79.4257 49.2188 79.7832 49.2188 80.1562V81.5625H40.7813V80.1562C40.7813 79.7832 40.633 79.4257 40.3693 79.162C40.1056 78.8981 39.7478 78.75 39.375 78.75H4.21871C4.00496 78.75 3.79402 78.7988 3.60192 78.8924C3.40981 78.9863 3.24162 79.1226 3.11011 79.2911C2.97862 79.4597 2.88725 79.6559 2.84299 79.8651C2.79871 80.0741 2.80272 80.2906 2.85465 80.498L3.72794 83.9925C3.95627 84.9053 4.48317 85.7155 5.22491 86.2945C5.96664 86.8734 6.88062 87.1877 7.82152 87.1875H82.1783C83.1193 87.1877 84.0332 86.8734 84.775 86.2945C85.5169 85.7155 86.0436 84.9053 86.272 83.9925L87.1452 80.498C87.1972 80.2906 87.201 80.0741 87.1567 79.8651C87.1124 79.6561 87.0208 79.4599 86.8894 79.2914ZM7.82152 84.375C7.5076 84.3752 7.20264 84.2704 6.95518 84.0773C6.70773 83.884 6.53202 83.6136 6.45606 83.3092L6.01871 81.5625H37.9688V82.9688C37.9688 83.3418 38.1168 83.6993 38.3805 83.963C38.6444 84.2269 39.002 84.375 39.375 84.375H7.82152ZM83.5439 83.3092C83.4678 83.6136 83.2923 83.884 83.0448 84.0773C82.7973 84.2704 82.4924 84.3752 82.1783 84.375H50.625C50.9978 84.375 51.3556 84.2269 51.6193 83.963C51.883 83.6993 52.0313 83.3418 52.0313 82.9688V81.5625H83.9813L83.5439 83.3092Z" fill="#1DA0FA"/>
<path d="M37.9688 26.7188H40.7812V29.5312H37.9688V26.7188Z" fill="#FC951D"/>
<path d="M43.5938 26.7188H46.4062V29.5312H43.5938V26.7188Z" fill="#FC951D"/>
<path d="M49.2188 26.7188H52.0312V29.5312H49.2188V26.7188Z" fill="#FC951D"/>
<path d="M11.25 67.5H16.875V70.3125H11.25V67.5Z" fill="#1DA0FA"/>
<path d="M19.6875 67.5H30.9375V70.3125H19.6875V67.5Z" fill="#1DA0FA"/>
<path d="M11.25 61.875H25.3125V64.6875H11.25V61.875Z" fill="#1DA0FA"/>
<path d="M28.125 61.875H30.9375V64.6875H28.125V61.875Z" fill="#1DA0FA"/>
<path d="M11.25 56.25H14.0625V59.0625H11.25V56.25Z" fill="#1DA0FA"/>
<path d="M16.875 56.25H30.9375V59.0625H16.875V56.25Z" fill="#1DA0FA"/>
<path d="M73.125 67.5H78.75V70.3125H73.125V67.5Z" fill="#1DA0FA"/>
<path d="M59.0625 67.5H70.3125V70.3125H59.0625V67.5Z" fill="#1DA0FA"/>
<path d="M64.6875 61.875H78.75V64.6875H64.6875V61.875Z" fill="#1DA0FA"/>
<path d="M59.0625 61.875H61.875V64.6875H59.0625V61.875Z" fill="#1DA0FA"/>
<path d="M11.25 50.625H25.3125V53.4375H11.25V50.625Z" fill="#1DA0FA"/>
<path d="M28.125 50.625H30.9375V53.4375H28.125V50.625Z" fill="#1DA0FA"/>
<path d="M64.6875 50.625H78.75V53.4375H64.6875V50.625Z" fill="#1DA0FA"/>
<path d="M59.0625 50.625H61.875V53.4375H59.0625V50.625Z" fill="#1DA0FA"/>
<path d="M75.9375 56.25H78.75V59.0625H75.9375V56.25Z" fill="#1DA0FA"/>
<path d="M59.0625 56.25H73.125V59.0625H59.0625V56.25Z" fill="#1DA0FA"/>
<path d="M9.84375 75.9373H80.1562C81.2752 75.9373 82.3482 75.4929 83.1393 74.7018C83.9306 73.9105 84.375 72.8375 84.375 71.7186V29.5311C84.375 28.4123 83.9306 27.3393 83.1393 26.548C82.3482 25.7569 81.2752 25.3123 80.1562 25.3123H70.1861C69.9975 24.505 69.5741 23.7715 68.9692 23.2047C68.3642 22.6377 67.6049 22.2629 66.787 22.1272L64.3626 21.7237C64.1306 21.6873 63.9119 21.5917 63.7276 21.4461C63.5434 21.3005 63.3998 21.1098 63.3107 20.8926C63.2306 20.6901 63.1476 20.4904 63.0619 20.2907C62.9716 20.0739 62.9386 19.8376 62.9658 19.6044C62.9933 19.3712 63.0799 19.1489 63.218 18.959L64.6468 16.9607C65.2297 16.1487 65.5047 15.1558 65.4221 14.1596C65.3398 13.1634 64.9053 12.2292 64.1968 11.5241L61.6007 8.92677C60.8953 8.21869 59.9611 7.78471 58.9651 7.70252C57.969 7.62033 56.9761 7.89528 56.1643 8.47818L54.166 9.90693C53.9759 10.045 53.7539 10.132 53.5208 10.1596C53.2874 10.1872 53.0512 10.1544 52.8343 10.0644C52.6354 9.97911 52.4349 9.89568 52.2324 9.81412C52.0148 9.72509 51.8242 9.58129 51.6789 9.39672C51.5333 9.21213 51.4384 8.99307 51.4026 8.76083L50.9976 6.33787C50.836 5.3517 50.3285 4.45534 49.5659 3.80934C48.8034 3.16335 47.8359 2.80992 46.8364 2.81239H43.1636C42.1643 2.80987 41.1968 3.16308 40.4345 3.8088C39.672 4.45451 39.1644 5.35055 39.0024 6.33648L38.5974 8.76225C38.5612 8.99449 38.4658 9.21348 38.32 9.39801C38.1744 9.58253 37.9838 9.72635 37.7663 9.81552C37.5651 9.89568 37.3642 9.97864 37.1657 10.0644C36.9488 10.1539 36.7123 10.1863 36.4792 10.1585C36.2461 10.1307 36.0241 10.0436 35.8342 9.90554L33.8357 8.47818C33.0239 7.89519 32.0308 7.6203 31.0347 7.70277C30.0386 7.78521 29.1042 8.21961 28.3993 8.92818L25.8032 11.5311C25.0949 12.236 24.6604 13.17 24.5781 14.1659C24.4955 15.1618 24.7705 16.1546 25.3532 16.9663L26.782 18.9674C26.9201 19.1573 27.007 19.3796 27.0344 19.6128C27.0616 19.8461 27.0286 20.0824 26.9381 20.2991C26.8528 20.4979 26.7698 20.698 26.6893 20.8996C26.6002 21.1169 26.4566 21.3075 26.2724 21.4531C26.0881 21.5987 25.8694 21.6943 25.6374 21.7307L23.213 22.1343C22.396 22.2694 21.6373 22.6434 21.0324 23.2088C20.4276 23.7744 20.0037 24.5064 19.8141 25.3123H9.84375C8.72487 25.3123 7.65182 25.7569 6.86063 26.548C6.06947 27.3393 5.625 28.4123 5.625 29.5311V71.7186C5.625 72.8375 6.06947 73.9105 6.86063 74.7018C7.65182 75.4929 8.72487 75.9373 9.84375 75.9373ZM22.5 26.2883C22.5 25.9556 22.6181 25.6338 22.833 25.38C23.0481 25.126 23.3462 24.9566 23.6743 24.9017L26.1 24.4967C26.8106 24.3792 27.479 24.0809 28.0408 23.6302C28.6027 23.1793 29.039 22.5916 29.3076 21.9234C29.3765 21.749 29.4482 21.5774 29.52 21.4087C29.8004 20.7472 29.9061 20.0249 29.8274 19.3108C29.7486 18.5968 29.4878 17.9149 29.07 17.3305L27.6413 15.328C27.448 15.0571 27.3571 14.7265 27.3845 14.3948C27.4122 14.0632 27.5564 13.7521 27.7918 13.5168L30.3876 10.9208C30.6229 10.684 30.9346 10.5385 31.2671 10.5104C31.5999 10.4823 31.9315 10.5735 32.2031 10.7676L34.2 12.1949C34.7841 12.6133 35.4661 12.8745 36.1802 12.9533C36.8944 13.0321 37.6169 12.9259 38.2781 12.6449C38.4469 12.5704 38.6199 12.5043 38.7929 12.4326C39.4612 12.1643 40.0489 11.7283 40.4998 11.1667C40.9505 10.6051 41.249 9.93681 41.3662 9.22631L41.7713 6.79912C41.8264 6.47006 41.9965 6.1713 42.2516 5.95618C42.5065 5.74108 42.8299 5.62368 43.1636 5.62489H46.8364C47.1694 5.62505 47.4914 5.74329 47.7454 5.95854C47.9992 6.17382 48.1685 6.47217 48.2231 6.80052L48.6281 9.22489C48.7449 9.9354 49.043 10.6038 49.4935 11.1654C49.9442 11.7271 50.5318 12.163 51.2001 12.4312C51.3745 12.5001 51.5475 12.5718 51.7163 12.6449C52.3778 12.9251 53.1 13.0309 53.8142 12.9521C54.5281 12.8733 55.2098 12.6126 55.7944 12.1949L57.7969 10.7676C58.0678 10.5737 58.3985 10.4823 58.7306 10.5096C59.0625 10.5369 59.3739 10.6811 59.6095 10.9166L62.2055 13.5126C62.4411 13.7479 62.5858 14.0593 62.6132 14.3913C62.6407 14.7232 62.5495 15.0542 62.3558 15.3252L60.93 17.3249C60.5117 17.9091 60.2507 18.591 60.172 19.3051C60.0932 20.0193 60.1992 20.7417 60.48 21.403C60.5531 21.5746 60.6206 21.7461 60.6924 21.9205C60.961 22.5887 61.3973 23.1766 61.9591 23.6273C62.521 24.078 63.1894 24.3765 63.9 24.494L66.3257 24.899C66.6538 24.9539 66.9519 25.1233 67.167 25.3771C67.3819 25.6309 67.5 25.9529 67.5 26.2854V29.9586C67.5 30.2913 67.3819 30.6131 67.167 30.8671C66.9519 31.1209 66.6538 31.2903 66.3257 31.3452L63.9 31.7502C63.1894 31.8677 62.521 32.1663 61.9591 32.6169C61.3973 33.0676 60.961 33.6553 60.6924 34.3236C60.6236 34.4979 60.5518 34.6696 60.48 34.8384C60.1996 35.4999 60.0939 36.2221 60.1727 36.9362C60.2514 37.6502 60.5122 38.3322 60.93 38.9165L62.3587 40.9217C62.552 41.1926 62.6429 41.5233 62.6155 41.855C62.5878 42.1866 62.4436 42.4978 62.2082 42.7329L59.6124 45.329C59.3768 45.5646 59.0652 45.7088 58.7333 45.736C58.4015 45.7632 58.0705 45.6719 57.7998 45.4779L55.8 44.0548C55.2154 43.6372 54.5337 43.3764 53.8195 43.2977C53.1056 43.2189 52.3834 43.3247 51.7219 43.6048C51.5531 43.6795 51.3801 43.7454 51.2073 43.8172C50.5388 44.0856 49.9511 44.5215 49.5002 45.0831C49.0495 45.6447 48.751 46.3129 48.6338 47.0235L48.2287 49.4508C48.1738 49.7788 48.0044 50.0767 47.7506 50.2918C47.4966 50.5067 47.1749 50.6248 46.8423 50.6248H43.1636C42.8306 50.6248 42.5086 50.5065 42.2546 50.2914C42.0008 50.076 41.8315 49.7777 41.7769 49.4492L41.3719 47.0248C41.2551 46.3145 40.957 45.646 40.5065 45.0844C40.0558 44.5228 39.4682 44.0868 38.7999 43.8186C38.6255 43.7497 38.4525 43.6779 38.2837 43.6048C37.7687 43.383 37.2134 43.2691 36.6525 43.2702C35.7732 43.2698 34.9157 43.5441 34.2 44.0548L32.2031 45.4822C31.9322 45.6762 31.6015 45.7675 31.2694 45.7403C30.9375 45.7128 30.6261 45.5686 30.3905 45.3333L27.7945 42.7372C27.5589 42.5019 27.4142 42.1905 27.3868 41.8586C27.3593 41.5265 27.4504 41.1955 27.6442 40.9246L29.0727 38.9248C29.491 38.3407 29.752 37.6587 29.8307 36.9446C29.9097 36.2304 29.8035 35.5082 29.5229 34.8467C29.4496 34.6752 29.3823 34.5035 29.3105 34.3292C29.0417 33.6609 28.6054 33.0732 28.0436 32.6226C27.4817 32.1719 26.8135 31.8733 26.1027 31.7559L23.677 31.3508C23.348 31.2964 23.0488 31.127 22.8332 30.8723C22.6177 30.6178 22.4995 30.2949 22.5 29.9615V26.2883ZM8.4375 29.5311C8.4375 29.1582 8.58566 28.8005 8.84938 28.5368C9.11311 28.2731 9.47079 28.1248 9.84375 28.1248H19.6875V29.9615C19.685 30.9607 20.0384 31.9284 20.6844 32.6907C21.3304 33.4533 22.2268 33.9608 23.213 34.1226L25.6374 34.5261C25.8694 34.5625 26.0881 34.6581 26.2724 34.8037C26.4566 34.9493 26.6002 35.1399 26.6893 35.3572C26.7694 35.5597 26.8524 35.7595 26.9381 35.9591C27.0283 36.1758 27.0614 36.4122 27.0342 36.6453C27.0068 36.8787 26.9201 37.101 26.782 37.2909L25.3532 39.2891C24.7703 40.1011 24.4953 41.094 24.5779 42.0901C24.6602 43.0864 25.0947 44.0206 25.8032 44.7258L28.4062 47.3229C29.1119 48.0308 30.0461 48.4646 31.0421 48.5469C32.038 48.6291 33.0309 48.3543 33.8429 47.7716L35.8412 46.3442C36.0311 46.2063 36.2531 46.1194 36.4862 46.0915C36.7193 46.0636 36.9558 46.096 37.1727 46.1853C37.3716 46.2706 37.5721 46.3541 37.7746 46.4358C37.9921 46.5246 38.1827 46.6686 38.3283 46.8531C38.4736 47.0376 38.5688 47.2568 38.6044 47.489L39.0094 49.912C39.1709 50.8968 39.6774 51.7923 40.4384 52.4383C41.1995 53.0841 42.1652 53.4382 43.1636 53.4373H46.8364C47.8357 53.44 48.8032 53.0868 49.5655 52.441C50.328 51.7953 50.8356 50.8993 50.9976 49.9134L51.4026 47.4876C51.4388 47.2552 51.5342 47.0363 51.68 46.8518C51.8256 46.6673 52.0162 46.5235 52.2337 46.4342C52.4349 46.3541 52.6358 46.2711 52.8343 46.1853C53.0512 46.0949 53.2877 46.062 53.521 46.0899C53.7543 46.1176 53.9764 46.2054 54.166 46.3442L56.1643 47.7716C56.977 48.3525 57.9694 48.6259 58.9651 48.5436C59.9605 48.4612 60.8947 48.0281 61.6007 47.3216L64.1968 44.7258C64.9051 44.0208 65.3396 43.0869 65.4219 42.091C65.5045 41.0949 65.2295 40.1022 64.6468 39.2904L63.218 37.2895C63.0799 37.0996 62.993 36.8773 62.9656 36.644C62.9383 36.4109 62.9714 36.1744 63.0619 35.9577C63.1481 35.7591 63.2311 35.5588 63.3107 35.3572C63.3998 35.1399 63.5434 34.9493 63.7276 34.8037C63.9119 34.6581 64.1306 34.5625 64.3626 34.5261L66.787 34.1226C67.7731 33.9608 68.6696 33.4533 69.3155 32.6907C69.9615 31.9284 70.315 30.9607 70.3125 29.9615V28.1248H80.1562C80.5293 28.1248 80.8868 28.2731 81.1505 28.5368C81.4144 28.8005 81.5625 29.1582 81.5625 29.5311V71.7186C81.5625 72.0916 81.4144 72.4493 81.1505 72.7131C80.8868 72.9767 80.5293 73.1248 80.1562 73.1248H9.84375C9.47079 73.1248 9.11311 72.9767 8.84938 72.7131C8.58566 72.4493 8.4375 72.0916 8.4375 71.7186V29.5311Z" fill="#1DA0FA"/>
</svg>
