<svg width="90" height="90" viewBox="0 0 90 90" fill="none" xmlns="http://www.w3.org/2000/svg">
<path d="M81 27C82.6568 27 84 25.6567 84 24H87C88.6568 24 90 22.6567 90 21V9C90 7.34327 88.6568 6 87 6H84C84 4.34326 82.6568 3 81 3H9C7.34327 3 6 4.34326 6 6H3C1.34326 6 0 7.34327 0 9V21C0 22.6567 1.34326 24 3 24H6C6 25.6567 7.34327 27 9 27H12V30H9C7.34327 30 6 31.3433 6 33H3C1.34326 33 0 34.3433 0 36V48C0 49.6567 1.34326 51 3 51H6C6 52.6567 7.34327 54 9 54H12V57H9C7.34327 57 6 58.3433 6 60H3C1.34326 60 0 61.3433 0 63V75C0 76.6568 1.34326 78 3 78H6C6 79.6568 7.34327 81 9 81H12V85.5C12 86.3283 12.6716 87 13.5 87H22.5C23.3283 87 24 86.3283 24 85.5V81H66V85.5C66 86.3283 66.6717 87 67.5 87H76.5C77.3283 87 78 86.3283 78 85.5V81H81C82.6568 81 84 79.6568 84 78H87C88.6568 78 90 76.6568 90 75V63C90 61.3433 88.6568 60 87 60H84C84 58.3433 82.6568 57 81 57H78V54H81C82.6568 54 84 52.6567 84 51H87C88.6568 51 90 49.6567 90 48V36C90 34.3433 88.6568 33 87 33H84C84 31.3433 82.6568 30 81 30H78V27H81ZM87 9V21H84V9H87ZM3 21V9H6V21H3ZM9 6H81V24H9V6ZM24 30V27H66V30H24ZM15 27H21V30H15V27ZM3 48V36H6V48H3ZM15 54H21V57H15V54ZM66 54V57H24V54H66ZM3 75V63H6V75H3ZM21 84H15V81H21V84ZM75 84H69V81H75V84ZM87 63V75H84V63H87ZM81 78H9V60H81V78ZM75 57H69V54H75V57ZM87 36V48H84V36H87ZM81 51H9V33H81V51ZM75 30H69V27H75V30Z" fill="#1DA2FC"/>
<path d="M44.9999 21C48.3134 21 50.9999 18.3135 50.9999 15C50.9999 11.6865 48.3134 9 44.9999 9C41.6864 9 38.9999 11.6865 38.9999 15C38.9999 18.3135 41.6864 21 44.9999 21ZM44.9999 12C46.6566 12 47.9999 13.3433 47.9999 15C47.9999 16.6568 46.6566 18 44.9999 18C43.3431 18 41.9999 16.6568 41.9999 15C41.9999 13.3433 43.3431 12 44.9999 12Z" fill="#FC951D"/>
<path d="M55.5 21H61.5C62.3283 21 63 20.3283 63 19.5V10.5C63 9.67162 62.3283 9 61.5 9H55.5C54.6717 9 54 9.67162 54 10.5V19.5C54 20.3283 54.6717 21 55.5 21ZM57 12H60V18H57V12Z" fill="#1DA2FC"/>
<path d="M67.4999 21H73.4999C74.3282 21 74.9999 20.3283 74.9999 19.5V10.5C74.9999 9.67162 74.3282 9 73.4999 9H67.4999C66.6714 9 65.9999 9.67162 65.9999 10.5V19.5C65.9999 20.3283 66.6714 21 67.4999 21ZM68.9999 12H71.9999V18H68.9999V12Z" fill="#1DA2FC"/>
<path d="M16.5001 21H34.5001C35.3286 21 36.0001 20.3283 36.0001 19.5V10.5C36.0001 9.67162 35.3286 9 34.5001 9H16.5001C15.6718 9 15.0001 9.67162 15.0001 10.5V19.5C15.0001 20.3283 15.6718 21 16.5001 21ZM18.0001 12H33.0001V18H18.0001V12Z" fill="#1DA2FC"/>
<path d="M44.9999 36C41.6864 36 38.9999 38.6865 38.9999 42C38.9999 45.3135 41.6864 48 44.9999 48C48.3134 48 50.9999 45.3135 50.9999 42C50.9999 38.6865 48.3134 36 44.9999 36ZM44.9999 45C43.3431 45 41.9999 43.6568 41.9999 42C41.9999 40.3432 43.3431 39 44.9999 39C46.6566 39 47.9999 40.3432 47.9999 42C47.9999 43.6568 46.6566 45 44.9999 45Z" fill="#FC951D"/>
<path d="M61.5 36H55.5C54.6717 36 54 36.6717 54 37.5V46.5C54 47.3283 54.6717 48 55.5 48H61.5C62.3283 48 63 47.3283 63 46.5V37.5C63 36.6717 62.3283 36 61.5 36ZM60 45H57V39H60V45Z" fill="#1DA2FC"/>
<path d="M73.4999 36H67.4999C66.6714 36 65.9999 36.6717 65.9999 37.5V46.5C65.9999 47.3283 66.6714 48 67.4999 48H73.4999C74.3282 48 74.9999 47.3283 74.9999 46.5V37.5C74.9999 36.6717 74.3282 36 73.4999 36ZM71.9999 45H68.9999V39H71.9999V45Z" fill="#1DA2FC"/>
<path d="M34.5001 36H16.5001C15.6718 36 15.0001 36.6717 15.0001 37.5V46.5C15.0001 47.3283 15.6718 48 16.5001 48H34.5001C35.3286 48 36.0001 47.3283 36.0001 46.5V37.5C36.0001 36.6717 35.3286 36 34.5001 36ZM33.0001 45H18.0001V39H33.0001V45Z" fill="#1DA2FC"/>
<path d="M44.9999 63C41.6864 63 38.9999 65.6865 38.9999 69C38.9999 72.3135 41.6864 75 44.9999 75C48.3134 75 50.9999 72.3135 50.9999 69C50.9999 65.6865 48.3134 63 44.9999 63ZM44.9999 72C43.3431 72 41.9999 70.6568 41.9999 69C41.9999 67.3432 43.3431 66 44.9999 66C46.6566 66 47.9999 67.3432 47.9999 69C47.9999 70.6568 46.6566 72 44.9999 72Z" fill="#FC951D"/>
<path d="M61.5 63H55.5C54.6717 63 54 63.6717 54 64.5V73.5C54 74.3283 54.6717 75 55.5 75H61.5C62.3283 75 63 74.3283 63 73.5V64.5C63 63.6717 62.3283 63 61.5 63ZM60 72H57V66H60V72Z" fill="#1DA2FC"/>
<path d="M73.4999 63H67.4999C66.6714 63 65.9999 63.6717 65.9999 64.5V73.5C65.9999 74.3283 66.6714 75 67.4999 75H73.4999C74.3282 75 74.9999 74.3283 74.9999 73.5V64.5C74.9999 63.6717 74.3282 63 73.4999 63ZM71.9999 72H68.9999V66H71.9999V72Z" fill="#1DA2FC"/>
<path d="M34.5001 63H16.5001C15.6718 63 15.0001 63.6717 15.0001 64.5V73.5C15.0001 74.3283 15.6718 75 16.5001 75H34.5001C35.3286 75 36.0001 74.3283 36.0001 73.5V64.5C36.0001 63.6717 35.3286 63 34.5001 63ZM33.0001 72H18.0001V66H33.0001V72Z" fill="#1DA2FC"/>
</svg>
