<svg width="90" height="90" viewBox="0 0 90 90" fill="none" xmlns="http://www.w3.org/2000/svg">
<g clip-path="url(#clip0_2_1041)">
<path d="M89.6548 69.4384C89.5841 68.7085 88.9352 68.1716 88.2038 68.243C87.4739 68.3136 86.9391 68.9618 87.0097 69.6919C88.3419 83.527 72.5985 92.4403 61.4488 84.1649C57.5005 81.2336 54.9373 76.5376 54.9373 71.2519C54.9373 62.4215 62.1148 55.1774 71.0102 55.1774C77.4661 55.1774 83.2743 59.0179 85.8053 64.9588C86.0924 65.6338 86.8738 65.9468 87.5488 65.6599C88.2231 65.3713 88.5368 64.5921 88.2499 63.9171C81.9094 49.0347 60.8787 48.6468 54.0213 63.3677C52.0519 61.9189 49.8946 60.7838 47.6093 59.9846L42.9704 55.1459C46.1783 52.652 49.3775 48.8857 50.4508 44.7907C54.1154 44.0606 56.886 40.8197 56.886 36.9436C56.886 33.2116 54.3194 30.0695 50.8565 29.1893V25.5542H52.1138C53.3875 25.5542 54.4236 24.5201 54.4236 23.2465V9.27659C54.4236 6.87058 53.1321 4.7612 51.2068 3.6049V2.30096C51.2068 1.00937 50.0058 0 48.4704 0H20.3262C17.2562 0 14.3531 0.834275 12.1517 2.35039C9.79787 3.97156 8.50079 6.17501 8.50079 8.5556V22.954C8.50079 24.8956 10.3623 26.4366 12.8019 26.5779V29.4016C9.70037 30.5015 7.47357 33.467 7.47357 36.9423C7.47357 40.5506 9.87203 43.6054 13.1597 44.6011C13.3794 45.4937 13.698 46.3864 14.1162 47.2741C14.4293 47.9381 15.2196 48.2238 15.8836 47.912C16.5483 47.5983 16.8332 46.8065 16.5194 46.1419C14.8797 42.6668 15.6659 41.6327 15.4586 31.5981C15.4586 27.1946 15.4586 31.3983 15.4586 26.5903C16.0628 26.5003 28.0475 27.5647 40.0617 19.2398C40.2176 22.7486 43.1194 25.5542 46.6674 25.5542H48.1992C48.1992 43.1914 48.3921 42.6778 47.6608 44.851C46.5149 48.2362 43.7017 51.2807 40.6872 53.557C40.6853 53.557 40.6853 53.557 40.6853 53.557C39.5021 54.4585 38.004 55.424 36.5598 56.1607C33.4178 57.7744 31.8467 57.7125 31.8289 57.7159C29.2106 57.7159 23.1443 54.5135 19.2845 50.2042C18.7944 49.6561 17.9545 49.6102 17.4086 50.101C16.8614 50.5899 16.8154 51.4298 17.3063 51.977C18.4448 53.2467 19.7397 54.4194 21.0897 55.4589L16.7254 60.0115C7.09454 63.418 0.175903 72.6142 0.175903 83.398C0.175903 86.9616 3.07561 89.8612 6.6393 89.8612H57.7203C59.548 89.8612 61.2022 89.0977 62.3785 87.872C75.3635 94.6451 91.0685 84.3723 89.6548 69.4384ZM12.8019 41.5669C11.2055 40.644 10.1309 38.9171 10.1309 36.9423C10.1309 34.9673 11.2055 33.2399 12.8019 32.317V41.5669ZM54.2286 36.9436C54.2286 39.1952 52.8293 41.1259 50.8545 41.9108C50.8565 41.7989 50.8565 42.3482 50.8565 31.977C52.8313 32.762 54.2286 34.6928 54.2286 36.9436ZM16.4666 23.9337C12.9825 23.9337 13.0677 23.9427 12.8019 23.9144C11.7727 23.8061 11.1581 23.2643 11.1581 22.954V8.5556C11.1581 5.3579 15.3576 2.65664 20.3262 2.65664C49.8024 2.65869 48.4526 2.6532 48.55 2.66076V4.07936C48.55 10.3251 34.991 24.0703 16.4666 23.9337ZM46.6674 22.8976C44.4851 22.8976 42.7115 21.1246 42.7115 18.9425V17.2314C45.9553 14.5438 49.5314 10.6506 50.7762 6.66184C51.3927 7.35946 51.7662 8.27544 51.7662 9.27659V22.8976H46.6674ZM41.1246 57.0589C41.157 57.0926 45.5667 61.7116 45.5852 61.7116C45.5474 61.8269 41.7021 73.9462 41.6493 74.1145C41.3939 74.4509 40.7897 74.5821 40.342 74.295C39.4116 73.6929 33.8271 70.0742 33.5578 69.9005C33.8271 69.4438 41.1054 57.0892 41.1246 57.0589ZM35.361 74.2333V77.1028C35.361 77.4034 35.1056 77.6837 34.7802 77.6837H29.5794C29.2518 77.6837 28.9986 77.4034 28.9986 77.1028V74.2333L32.1797 72.1733L35.361 74.2333ZM36.9513 58.9081C35.8658 60.7468 35.7916 60.8704 32.1797 67.0043C28.4424 60.6582 28.57 60.8794 27.6554 59.3275C31.1278 60.7414 32.9096 60.8209 36.9513 58.9081ZM23.2348 57.0589C23.7876 57.9974 25.5955 61.0654 25.7089 61.2583C25.7089 61.2605 25.7089 61.2605 25.7109 61.2617C25.7129 61.2653 25.7143 61.2673 25.7143 61.2673C25.7143 61.2693 25.7143 61.2693 25.7163 61.2707C25.7163 61.2729 25.7177 61.2729 25.7177 61.2742C31.7699 71.5444 26.0129 61.7762 30.8016 69.9005C23.3214 74.7448 23.7464 74.5594 23.1977 74.4194C22.9918 74.3679 22.8201 74.2601 22.7103 74.1145C22.7267 74.1667 18.8615 61.987 18.7744 61.7116C20.4381 59.9758 21.7799 58.5763 23.2348 57.0589ZM25.362 87.2046H15.4194V78.4451C15.4194 77.7118 14.8248 77.1172 14.0915 77.1172C13.3581 77.1172 12.7628 77.7118 12.7628 78.4451V87.2046H6.6393C4.54022 87.2046 2.83254 85.4969 2.83254 83.398C2.83254 74.2311 8.43212 66.3471 16.3904 62.9887C20.4642 75.7885 20.2061 75.082 20.3296 75.312C21.3095 77.1007 23.7251 77.65 25.4609 76.5252L26.3412 75.9546C26.4298 76.4915 25.9148 78.4404 27.6788 79.7209L25.362 87.2046ZM28.1409 87.2046L30.2681 80.3403H34.2094L36.4061 87.2046H28.1409ZM57.7203 87.2046H51.5947V78.4451C51.5947 77.7118 51.0014 77.1172 50.2659 77.1172C49.5333 77.1172 48.9381 77.7118 48.9381 78.4451V87.2046H39.1959L36.7782 79.6482C37.5329 79.0549 38.0177 78.1355 38.0177 77.1028V75.9546L38.8979 76.5252C40.9297 77.8415 43.5905 76.7306 44.1308 75.0764L47.974 62.9716C49.7792 63.7295 51.4813 64.7321 53.0421 65.9646C50.8545 73.3626 53.4321 81.6291 60.0335 86.4198C59.3923 86.9101 58.5895 87.2046 57.7203 87.2046Z" fill="#1DA2FC"/>
<path d="M75.8481 83.7652C77.5992 83.0909 79.1632 82.0726 80.4973 80.739C88.8346 72.4012 83.051 57.8409 71.0101 57.8409C59.0061 57.8409 53.1676 72.3832 61.5234 80.739C64.0941 83.3092 67.7148 84.6324 70.1585 84.6324C70.8501 84.6324 71.4336 84.0974 71.4824 83.3971C71.5339 82.6652 70.9825 82.03 70.2507 81.9792C67.6641 81.7979 65.2319 80.6897 63.402 78.8598C56.7256 72.1842 61.3365 60.4975 71.0101 60.4975C80.6574 60.4975 85.3073 72.1712 78.6187 78.8598C77.5489 79.9296 76.2958 80.746 74.8938 81.2857C74.209 81.5494 73.8678 82.3183 74.1315 83.0029C74.3952 83.6876 75.1643 84.0289 75.8481 83.7652Z" fill="#FC951D"/>
<path d="M76.214 64.5241C75.5892 64.1389 74.7707 64.3325 74.3855 64.9573L67.6289 75.9114L65.2518 72.6637C64.8185 72.0718 63.9877 71.9433 63.3958 72.376C62.8031 72.8093 62.6747 73.6407 63.108 74.2325L66.6504 79.0742C66.9011 79.4167 67.3 79.618 67.7223 79.618C68.1836 79.618 68.6115 79.3796 68.8532 78.9869L76.6472 66.352C77.0324 65.7279 76.8382 64.9093 76.214 64.5241Z" fill="#FC951D"/>
</g>
<defs>
<clipPath id="clip0_2_1041">
<rect width="90" height="90" fill="white"/>
</clipPath>
</defs>
</svg>
