<svg width="90" height="90" viewBox="0 0 90 90" fill="none" xmlns="http://www.w3.org/2000/svg">
<g clip-path="url(#clip0_2_1515)">
<path d="M28.8698 0C16.3539 0 6.17163 10.1825 6.17163 22.6982V28.8875C6.17163 30.8644 6.94138 32.7227 8.33901 34.1203C9.69394 35.4751 11.4823 36.2378 13.3911 36.2833C13.9941 38.2025 14.9451 39.969 16.1694 41.5089C13.6798 43.2653 11.5572 45.5319 9.97836 48.1392C9.59586 48.7708 9.79782 49.5927 10.4294 49.975C10.6458 50.1059 10.8845 50.1683 11.1204 50.1683C11.5725 50.1683 12.0137 49.9387 12.2651 49.5238C13.7188 47.1233 15.6965 45.0506 18.0205 43.4783C20.8968 46.0714 24.7024 47.6523 28.8705 47.6523C33.0388 47.6523 36.8447 46.071 39.7211 43.4776C40.7491 44.1727 41.7128 44.9654 42.5932 45.8458C43.7029 46.9555 44.672 48.1923 45.4737 49.5218C45.7246 49.9381 46.1667 50.1683 46.6196 50.1683C46.8545 50.1683 47.0926 50.1064 47.3086 49.9761C47.9408 49.5949 48.1442 48.7735 47.7631 48.1414C46.8498 46.6265 45.7464 45.2183 44.4837 43.9556C43.5844 43.0565 42.6085 42.2379 41.5722 41.508C42.7962 39.9683 43.747 38.2023 44.3498 36.2833C46.0749 36.2414 47.6557 35.6083 48.8955 34.5764V36.0293C48.8955 37.5892 47.6263 38.8584 46.0663 38.8584C45.3279 38.8584 44.7296 39.4569 44.7296 40.1951C44.7296 40.9331 45.3279 41.5316 46.0663 41.5316C49.1002 41.5316 51.5687 39.0632 51.5687 36.0293V22.6982C51.5683 10.1825 41.3857 0 28.8698 0ZM10.229 32.2304C9.33639 31.3378 8.84456 30.1504 8.84456 28.888C8.84456 26.5817 10.5052 24.6571 12.6933 24.2442C12.6645 24.6386 12.6493 25.0369 12.6493 25.4385V31.4316C12.6493 32.1491 12.6968 32.8561 12.7875 33.5491C11.8232 33.3889 10.9343 32.9353 10.229 32.2304ZM42.4175 31.4314C42.4175 38.9016 36.34 44.9789 28.87 44.9789C21.4001 44.9789 15.3226 38.9016 15.3226 31.4316V25.7069C15.5996 25.7251 15.8772 25.7378 16.1556 25.7378C20.438 25.7378 24.4004 23.5262 26.699 20.0329C28.9976 23.5265 32.9601 25.7378 37.2423 25.7378C39.034 25.7378 40.782 25.3602 42.3919 24.638C42.4074 24.903 42.4175 25.1694 42.4175 25.4383V31.4314ZM15.5392 23.0429C16.6739 16.7121 22.2176 11.8909 28.8703 11.8909C35.1097 11.8909 40.3745 16.1321 41.9407 21.8823C40.503 22.657 38.8965 23.0645 37.2427 23.0645C33.134 23.0645 29.3995 20.481 27.95 16.6361C27.7538 16.1156 27.2557 15.7711 26.6995 15.7711C26.143 15.7711 25.6449 16.1158 25.4487 16.6361C23.9992 20.4811 20.2647 23.0645 16.156 23.0645C15.9496 23.0645 15.7441 23.0557 15.5392 23.0429ZM44.9526 33.5482C45.0433 32.8552 45.0907 32.1489 45.0907 31.4314V25.4383C45.0907 25.0364 45.0754 24.6377 45.0466 24.2428C45.9748 24.4161 46.8289 24.8632 47.5108 25.5452C48.4034 26.438 48.8953 27.6248 48.8953 28.8877C48.8948 31.2268 47.1868 33.1733 44.9526 33.5482ZM48.8948 23.1944C47.6807 22.1827 46.191 21.5937 44.6065 21.5017C42.843 14.4538 36.4568 9.2178 28.8698 9.2178C21.283 9.2178 14.8971 14.4538 13.1333 21.5017C11.5082 21.597 10.0223 22.2188 8.84438 23.1991V22.6984C8.84474 11.6566 17.828 2.67329 28.8698 2.67329C39.9117 2.67329 48.8948 11.6566 48.8948 22.6982V23.1944Z" fill="#1DA0FA"/>
<path d="M37.7694 29.7347C36.9966 28.9613 35.9688 28.5356 34.8753 28.5356C33.782 28.5356 32.7542 28.9613 31.9811 29.7344C31.4591 30.2564 31.4591 31.1027 31.9811 31.6247C32.5033 32.1469 33.3491 32.1467 33.8713 31.6247C34.1395 31.3565 34.4961 31.2091 34.8753 31.2091C35.2546 31.2091 35.6112 31.3567 35.8794 31.6247C36.1402 31.8857 36.4824 32.0162 36.8244 32.0162C37.1664 32.0162 37.5084 31.8857 37.7694 31.6247C38.2917 31.1027 38.2917 30.2562 37.7694 29.7347Z" fill="#1DA0FA"/>
<path d="M25.7603 29.7344C24.9874 28.9613 23.9596 28.5356 22.8661 28.5356C21.7728 28.5356 20.745 28.9613 19.9719 29.7344C19.4499 30.2564 19.45 31.1027 19.9719 31.6247C20.4942 32.1469 21.3402 32.1467 21.8623 31.6247C22.1304 31.3565 22.487 31.2091 22.8661 31.2091C23.2453 31.2091 23.6019 31.3567 23.8701 31.6247C24.1311 31.8857 24.4731 32.0162 24.8153 32.0162C25.1573 32.0159 25.4993 31.8857 25.7605 31.6247C26.2825 31.1027 26.2825 30.2562 25.7603 29.7344Z" fill="#1DA0FA"/>
<path d="M33.0289 36.8105C32.5069 36.2882 31.6606 36.2885 31.1386 36.8105C29.8879 38.0608 27.853 38.0608 26.6026 36.8105C26.0806 36.2885 25.2344 36.2885 24.7124 36.8105C24.1904 37.3327 24.1904 38.1789 24.7124 38.7007C25.859 39.8473 27.3645 40.4204 28.8706 40.4204C30.3763 40.4204 31.8825 39.8471 33.0286 38.7007C33.5511 38.1787 33.5511 37.3327 33.0289 36.8105Z" fill="#FC951D"/>
<path d="M55.3925 63.7972C56.1308 63.7972 56.729 63.1987 56.729 62.4604V56.7286C56.729 53.7853 54.3355 51.3911 51.3936 51.3911H6.34842C3.40639 51.3911 1.01294 53.7853 1.01294 56.7283V84.6625C1.01276 87.6058 3.40621 90.0002 6.34842 90.0002H51.3936C54.3357 90.0002 56.729 87.6058 56.729 84.6628V66.9161C56.729 66.1781 56.1308 65.5796 55.3925 65.5796C54.6541 65.5796 54.0558 66.1781 54.0558 66.9161V84.6628C54.0558 86.1318 52.8615 87.3268 51.3936 87.3268H6.34842C4.88048 87.3268 3.68622 86.1318 3.68622 84.6628V56.7286C3.68622 55.2595 4.88048 54.0646 6.34842 54.0646H51.3936C52.8613 54.0646 54.0558 55.2595 54.0558 56.7286V62.4604C54.0558 63.1987 54.6541 63.7972 55.3925 63.7972Z" fill="#1DA0FA"/>
<path d="M28.8707 65.0815C25.7752 65.0815 23.257 67.5999 23.257 70.6952C23.257 73.7908 25.7752 76.309 28.8707 76.309C31.966 76.309 34.4845 73.7908 34.4845 70.6952C34.4845 67.5997 31.9663 65.0815 28.8707 65.0815ZM28.8707 73.6355C27.2494 73.6355 25.9304 72.3166 25.9304 70.695C25.9304 69.0737 27.2494 67.7547 28.8707 67.7547C30.4921 67.7547 31.8112 69.0739 31.8112 70.695C31.8112 72.3166 30.4923 73.6355 28.8707 73.6355Z" fill="#1DA0FA"/>
<path d="M71.0706 0.0874023C67.0209 0.0874023 63.1999 1.32033 60.0207 3.65311C59.4255 4.08977 59.2971 4.9263 59.7338 5.52151C60.1707 6.11653 61.0073 6.2452 61.602 5.80837C64.3195 3.81448 67.5937 2.76052 71.0706 2.76052C79.4755 2.76052 86.3135 9.07966 86.3135 16.8473C86.3135 24.6148 79.4755 30.9341 71.0706 30.9341C69.832 30.9341 68.597 30.7953 67.3998 30.5219C66.8926 30.406 66.3643 30.595 66.0457 31.0059C64.8757 32.5147 62.3544 33.3918 60.1899 33.8598C61.1207 32.2283 61.6753 30.5386 62.0016 29.1991C62.1287 28.6785 61.9323 28.132 61.5025 27.8113C57.8964 25.1194 55.828 21.1231 55.828 16.8473C55.828 13.8129 56.856 10.9226 58.8009 8.48904C59.262 7.9123 59.1679 7.07136 58.5912 6.61047C58.0143 6.1494 57.1735 6.24327 56.7125 6.82017C54.3851 9.73252 53.1548 13.2 53.1548 16.8475C53.1548 21.6809 55.3407 26.203 59.1834 29.3872C58.6864 31.0738 57.8008 33.1398 56.2454 34.6952C55.8532 35.0872 55.7441 35.6809 55.9711 36.187C56.1873 36.6696 56.6661 36.9769 57.1904 36.9769C57.216 36.9769 57.2417 36.976 57.2673 36.9747C57.5702 36.9576 64.3128 36.5341 67.5856 33.289C68.7306 33.5002 69.8995 33.6073 71.0709 33.6073C80.9497 33.6073 88.9867 26.0887 88.9867 16.8473C88.9867 7.60592 80.9495 0.0874023 71.0706 0.0874023Z" fill="#1DA0FA"/>
<path d="M66.8186 17.3856C66.3162 17.088 65.6693 17.1531 65.2344 17.5415C64.745 17.9789 64.6626 18.7305 65.0206 19.2739C65.6544 20.2386 67.1844 19.9429 67.4353 18.8246C67.5595 18.2705 67.308 17.6758 66.8186 17.3856Z" fill="#FC951D"/>
<path d="M76.6413 17.3541C76.138 17.0871 75.5042 17.1703 75.0904 17.5642C74.6273 18.0054 74.5423 18.7424 74.9009 19.2743C75.5514 20.2603 77.1284 19.9205 77.3282 18.7609C77.425 18.1998 77.1455 17.6213 76.6413 17.3541Z" fill="#FC951D"/>
<path d="M71.5434 17.3392C71.0619 17.0969 70.4628 17.1745 70.0584 17.5305C69.6276 17.9095 69.4896 18.5448 69.7196 19.0693C69.9682 19.6358 70.5975 19.967 71.2053 19.8429C71.7444 19.7304 72.1689 19.2976 72.261 18.7531C72.3575 18.1811 72.0596 17.5992 71.5434 17.3392Z" fill="#FC951D"/>
</g>
<defs>
<clipPath id="clip0_2_1515">
<rect width="90" height="90" fill="white"/>
</clipPath>
</defs>
</svg>
